0
SECTION
2
HEADER
9
$INSUNITS
70
4
0
ENDSEC
0
SECTION
2
TABLES
0
TABLE
2
LTYPE
0
LTYPE
72
65
70
64
2
CONTINUOUS
3
______
73
0
40
0
0
ENDTAB
0
TABLE
2
LAYER
0
ENDTAB
0
ENDSEC
0
SECTION
2
ENTITIES
0
LINE
8
0
10
-7
20
-7
11
7
21
-7
0
LINE
8
0
10
7
20
-7
11
7
21
7
0
LINE
8
0
10
7
20
7
11
-7
21
7
0
LINE
8
0
10
-7
20
7
11
-7
21
-7
0
LINE
8
0
10
-7
20
12.05
11
7
21
12.05
0
LINE
8
0
10
7
20
12.05
11
7
21
26.05
0
LINE
8
0
10
7
20
26.05
11
-7
21
26.05
0
LINE
8
0
10
-7
20
26.05
11
-7
21
12.05
0
LINE
8
0
10
12.05
20
-7
11
26.05
21
-7
0
LINE
8
0
10
26.05
20
-7
11
26.05
21
7
0
LINE
8
0
10
26.05
20
7
11
12.05
21
7
0
LINE
8
0
10
12.05
20
7
11
12.05
21
-7
0
LINE
8
0
10
12.05
20
12.05
11
26.05
21
12.05
0
LINE
8
0
10
26.05
20
12.05
11
26.05
21
26.05
0
LINE
8
0
10
26.05
20
26.05
11
12.05
21
26.05
0
LINE
8
0
10
12.05
20
26.05
11
12.05
21
12.05
0
LINE
8
0
10
31.1
20
-7
11
45.1
21
-7
0
LINE
8
0
10
45.1
20
-7
11
45.1
21
7
0
LINE
8
0
10
45.1
20
7
11
31.1
21
7
0
LINE
8
0
10
31.1
20
7
11
31.1
21
-7
0
LINE
8
0
10
31.1
20
12.05
11
45.1
21
12.05
0
LINE
8
0
10
45.1
20
12.05
11
45.1
21
26.05
0
LINE
8
0
10
45.1
20
26.05
11
31.1
21
26.05
0
LINE
8
0
10
31.1
20
26.05
11
31.1
21
12.05
0
LINE
8
0
10
50.15
20
-7
11
64.15
21
-7
0
LINE
8
0
10
64.15
20
-7
11
64.15
21
7
0
LINE
8
0
10
64.15
20
7
11
50.15
21
7
0
LINE
8
0
10
50.15
20
7
11
50.15
21
-7
0
LINE
8
0
10
50.15
20
12.05
11
64.15
21
12.05
0
LINE
8
0
10
64.15
20
12.05
11
64.15
21
26.05
0
LINE
8
0
10
64.15
20
26.05
11
50.15
21
26.05
0
LINE
8
0
10
50.15
20
26.05
11
50.15
21
12.05
0
ENDSEC
0
EOF