solid csg.js
facet normal 0 0 -1
outer loop
vertex -14.954423259036624 31.57094453300079 0
vertex -14.81907786235773 32.07606042997699 0
vertex -14.598076211353316 32.55 0
endloop
endfacet
facet normal 0 0 -1
outer loop
vertex -14.954423259036624 31.57094453300079 0
vertex -14.598076211353316 32.55 0
vertex -14.298133329356943 32.9783628290596 0
endloop
endfacet
facet normal 0 0 -1
outer loop
vertex -14.954423259036624 31.57094453300079 0
vertex -14.298133329356943 32.9783628290596 0
vertex -13.92836282905958 33.34813332935696 0
endloop
endfacet
facet normal 0 0 -1
outer loop
vertex -14.954423259036624 31.57094453300079 0
vertex -13.92836282905958 33.34813332935696 0
vertex -13.500000000000043 33.64807621135329 0
endloop
endfacet
facet normal 0 0 -1
outer loop
vertex -14.954423259036624 31.57094453300079 0
vertex -13.500000000000043 33.64807621135329 0
vertex -13.026060429976997 33.86907786235772 0
endloop
endfacet
facet normal 0 0 -1
outer loop
vertex -14.954423259036624 31.57094453300079 0
vertex -13.026060429976997 33.86907786235772 0
vertex -12.520944533000801 34.004423259036614 0
endloop
endfacet
facet normal 0 0 -1
outer loop
vertex -14.954423259036624 31.57094453300079 0
vertex -12.520944533000801 34.004423259036614 0
vertex -11.999999999999957 34.05 0
endloop
endfacet
facet normal 0 0 -1
outer loop
vertex -14.954423259036624 31.57094453300079 0
vertex -11.999999999999957 34.05 0
vertex 31.050000000000068 34.05 0
endloop
endfacet
facet normal 0 0 -1
outer loop
vertex -14.954423259036624 31.57094453300079 0
vertex 31.050000000000068 34.05 0
vertex 31.570944533000777 34.00442325903663 0
endloop
endfacet
facet normal 0 0 -1
outer loop
vertex -14.954423259036624 31.57094453300079 0
vertex 31.570944533000777 34.00442325903663 0
vertex 32.07606042997697 33.869077862357734 0
endloop
endfacet
facet normal 0 0 -1
outer loop
vertex -14.954423259036624 31.57094453300079 0
vertex 32.07606042997697 33.869077862357734 0
vertex 32.549999999999955 33.648076211353334 0
endloop
endfacet
facet normal 0 0 -1
outer loop
vertex -14.954423259036624 31.57094453300079 0
vertex 32.549999999999955 33.648076211353334 0
vertex 32.97836282905961 33.348133329356926 0
endloop
endfacet
facet normal 0 0 -1
outer loop
vertex -14.954423259036624 31.57094453300079 0
vertex 32.97836282905961 33.348133329356926 0
vertex 33.34813332935693 32.978362829059606 0
endloop
endfacet
facet normal 0 0 -1
outer loop
vertex -14.954423259036624 31.57094453300079 0
vertex 33.34813332935693 32.978362829059606 0
vertex 33.648076211353306 32.550000000000004 0
endloop
endfacet
facet normal 0 0 -1
outer loop
vertex -14.954423259036624 31.57094453300079 0
vertex 33.648076211353306 32.550000000000004 0
vertex 33.869077862357734 32.07606042997697 0
endloop
endfacet
facet normal 0 0 -1
outer loop
vertex -14.954423259036624 31.57094453300079 0
vertex 33.869077862357734 32.07606042997697 0
vertex 34.00442325903662 31.57094453300081 0
endloop
endfacet
facet normal 0 0 -1
outer loop
vertex -14.954423259036624 31.57094453300079 0
vertex 34.00442325903662 31.57094453300081 0
vertex 34.05 31.05 0
endloop
endfacet
facet normal 0 0 -1
outer loop
vertex -14.954423259036624 31.57094453300079 0
vertex 34.05 31.05 0
vertex 34.05 -12.000000000000068 0
endloop
endfacet
facet normal 0 0 -1
outer loop
vertex -14.954423259036624 31.57094453300079 0
vertex 34.05 -12.000000000000068 0
vertex 34.00442325903663 -12.52094453300078 0
endloop
endfacet
facet normal 0 0 -1
outer loop
vertex -14.954423259036624 31.57094453300079 0
vertex 34.00442325903663 -12.52094453300078 0
vertex 33.869077862357734 -13.026060429976965 0
endloop
endfacet
facet normal 0 0 -1
outer loop
vertex -14.954423259036624 31.57094453300079 0
vertex 33.869077862357734 -13.026060429976965 0
vertex 33.64807621135331 -13.499999999999986 0
endloop
endfacet
facet normal 0 0 -1
outer loop
vertex -14.954423259036624 31.57094453300079 0
vertex 33.64807621135331 -13.499999999999986 0
vertex 33.348133329356905 -13.928362829059651 0
endloop
endfacet
facet normal 0 0 -1
outer loop
vertex -14.954423259036624 31.57094453300079 0
vertex 33.348133329356905 -13.928362829059651 0
vertex 32.97836282905962 -14.29813332935693 0
endloop
endfacet
facet normal 0 0 -1
outer loop
vertex -14.954423259036624 31.57094453300079 0
vertex 32.97836282905962 -14.29813332935693 0
vertex 32.550000000000004 -14.598076211353309 0
endloop
endfacet
facet normal 0 0 -1
outer loop
vertex -14.954423259036624 31.57094453300079 0
vertex 32.550000000000004 -14.598076211353309 0
vertex 32.07606042997696 -14.81907786235774 0
endloop
endfacet
facet normal 0 0 -1
outer loop
vertex -14.954423259036624 31.57094453300079 0
vertex 32.07606042997696 -14.81907786235774 0
vertex 31.570944533000812 -14.954423259036624 0
endloop
endfacet
facet normal 0 0 -1
outer loop
vertex -14.954423259036624 31.57094453300079 0
vertex 31.570944533000812 -14.954423259036624 0
vertex 31.049999999999994 -15 0
endloop
endfacet
facet normal 0 0 -1
outer loop
vertex -14.954423259036624 31.57094453300079 0
vertex 31.049999999999994 -15 0
vertex -11.99999999999999 -15 0
endloop
endfacet
facet normal 0 0 -1
outer loop
vertex -14.954423259036624 31.57094453300079 0
vertex -11.99999999999999 -15 0
vertex -12.52094453300078 -14.954423259036624 0
endloop
endfacet
facet normal 0 0 -1
outer loop
vertex -14.954423259036624 31.57094453300079 0
vertex -12.52094453300078 -14.954423259036624 0
vertex -13.026060429977026 -14.819077862357716 0
endloop
endfacet
facet normal 0 0 -1
outer loop
vertex -14.954423259036624 31.57094453300079 0
vertex -13.026060429977026 -14.819077862357716 0
vertex -13.5 -14.598076211353316 0
endloop
endfacet
facet normal 0 0 -1
outer loop
vertex -14.954423259036624 31.57094453300079 0
vertex -13.5 -14.598076211353316 0
vertex -13.928362829059616 -14.298133329356936 0
endloop
endfacet
facet normal 0 0 -1
outer loop
vertex -14.954423259036624 31.57094453300079 0
vertex -13.928362829059616 -14.298133329356936 0
vertex -14.298133329356908 -13.928362829059644 0
endloop
endfacet
facet normal 0 0 -1
outer loop
vertex -14.954423259036624 31.57094453300079 0
vertex -14.298133329356908 -13.928362829059644 0
vertex -14.598076211353323 -13.499999999999979 0
endloop
endfacet
facet normal 0 0 -1
outer loop
vertex -14.954423259036624 31.57094453300079 0
vertex -14.598076211353323 -13.499999999999979 0
vertex -14.819077862357723 -13.026060429977008 0
endloop
endfacet
facet normal 0 0 -1
outer loop
vertex -14.954423259036624 31.57094453300079 0
vertex -14.819077862357723 -13.026060429977008 0
vertex -14.954423259036624 -12.52094453300078 0
endloop
endfacet
facet normal 0 0 -1
outer loop
vertex -14.954423259036624 31.57094453300079 0
vertex -14.954423259036624 -12.52094453300078 0
vertex -15 -12.000000000000007 0
endloop
endfacet
facet normal 0 0 -1
outer loop
vertex -14.954423259036624 31.57094453300079 0
vertex -15 -12.000000000000007 0
vertex -15 31.04999999999998 0
endloop
endfacet
facet normal 0 0 1
outer loop
vertex -11.999999999999929 34.05 1
vertex -12.520944533000879 34.00442325903661 1
vertex -13.026060429976958 33.86907786235774 1
endloop
endfacet
facet normal 0 0 1
outer loop
vertex -11.999999999999929 34.05 1
vertex -13.026060429976958 33.86907786235774 1
vertex -13.500000000000004 33.648076211353306 1
endloop
endfacet
facet normal 0 0 1
outer loop
vertex -11.999999999999929 34.05 1
vertex -13.500000000000004 33.648076211353306 1
vertex -13.928362829059633 33.34813332935692 1
endloop
endfacet
facet normal 0 0 1
outer loop
vertex -11.999999999999929 34.05 1
vertex -13.928362829059633 33.34813332935692 1
vertex -14.298133329356919 32.97836282905963 1
endloop
endfacet
facet normal 0 0 1
outer loop
vertex -11.999999999999929 34.05 1
vertex -14.298133329356919 32.97836282905963 1
vertex -14.598076211353316 32.54999999999999 1
endloop
endfacet
facet normal 0 0 1
outer loop
vertex -11.999999999999929 34.05 1
vertex -14.598076211353316 32.54999999999999 1
vertex -14.81907786235773 32.076060429976984 1
endloop
endfacet
facet normal 0 0 1
outer loop
vertex -11.999999999999929 34.05 1
vertex -14.81907786235773 32.076060429976984 1
vertex -14.95442325903662 31.570944533000805 1
endloop
endfacet
facet normal 0 0 1
outer loop
vertex -11.999999999999929 34.05 1
vertex -14.95442325903662 31.570944533000805 1
vertex -15 31.049999999999997 1
endloop
endfacet
facet normal 0 0 1
outer loop
vertex -11.999999999999929 34.05 1
vertex -15 31.049999999999997 1
vertex -15 -12.000000000000007 1
endloop
endfacet
facet normal 0 0 1
outer loop
vertex -11.999999999999929 34.05 1
vertex -15 -12.000000000000007 1
vertex -14.954423259036624 -12.520944533000776 1
endloop
endfacet
facet normal 0 0 1
outer loop
vertex -11.999999999999929 34.05 1
vertex -14.954423259036624 -12.520944533000776 1
vertex -14.819077862357723 -13.026060429977012 1
endloop
endfacet
facet normal 0 0 1
outer loop
vertex -11.999999999999929 34.05 1
vertex -14.819077862357723 -13.026060429977012 1
vertex -14.59807621135332 -13.499999999999993 1
endloop
endfacet
facet normal 0 0 1
outer loop
vertex -11.999999999999929 34.05 1
vertex -14.59807621135332 -13.499999999999993 1
vertex -14.298133329356919 -13.928362829059637 1
endloop
endfacet
facet normal 0 0 1
outer loop
vertex -11.999999999999929 34.05 1
vertex -14.298133329356919 -13.928362829059637 1
vertex -13.928362829059623 -14.298133329356933 1
endloop
endfacet
facet normal 0 0 1
outer loop
vertex -11.999999999999929 34.05 1
vertex -13.928362829059623 -14.298133329356933 1
vertex -13.500000000000018 -14.598076211353309 1
endloop
endfacet
facet normal 0 0 1
outer loop
vertex -11.999999999999929 34.05 1
vertex -13.500000000000018 -14.598076211353309 1
vertex -13.026060429976997 -14.819077862357727 1
endloop
endfacet
facet normal 0 0 1
outer loop
vertex -11.999999999999929 34.05 1
vertex -13.026060429976997 -14.819077862357727 1
vertex -12.520944533000787 -14.954423259036624 1
endloop
endfacet
facet normal 0 0 1
outer loop
vertex -11.999999999999929 34.05 1
vertex -12.520944533000787 -14.954423259036624 1
vertex -11.999999999999996 -15 1
endloop
endfacet
facet normal 0 0 1
outer loop
vertex -11.999999999999929 34.05 1
vertex -11.999999999999996 -15 1
vertex 31.050000000000008 -15 1
endloop
endfacet
facet normal 0 0 1
outer loop
vertex -11.999999999999929 34.05 1
vertex 31.050000000000008 -15 1
vertex 31.570944533000795 -14.954423259036624 1
endloop
endfacet
facet normal 0 0 1
outer loop
vertex -11.999999999999929 34.05 1
vertex 31.570944533000795 -14.954423259036624 1
vertex 32.07606042997699 -14.81907786235773 1
endloop
endfacet
facet normal 0 0 1
outer loop
vertex -11.999999999999929 34.05 1
vertex 32.07606042997699 -14.81907786235773 1
vertex 32.55 -14.598076211353309 1
endloop
endfacet
facet normal 0 0 1
outer loop
vertex -11.999999999999929 34.05 1
vertex 32.55 -14.598076211353309 1
vertex 32.97836282905964 -14.298133329356908 1
endloop
endfacet
facet normal 0 0 1
outer loop
vertex -11.999999999999929 34.05 1
vertex 32.97836282905964 -14.298133329356908 1
vertex 33.34813332935693 -13.928362829059619 1
endloop
endfacet
facet normal 0 0 1
outer loop
vertex -11.999999999999929 34.05 1
vertex 33.34813332935693 -13.928362829059619 1
vertex 33.64807621135329 -13.500000000000028 1
endloop
endfacet
facet normal 0 0 1
outer loop
vertex -11.999999999999929 34.05 1
vertex 33.64807621135329 -13.500000000000028 1
vertex 33.869077862357734 -13.026060429976965 1
endloop
endfacet
facet normal 0 0 1
outer loop
vertex -11.999999999999929 34.05 1
vertex 33.869077862357734 -13.026060429976965 1
vertex 34.004423259036614 -12.520944533000815 1
endloop
endfacet
facet normal 0 0 1
outer loop
vertex -11.999999999999929 34.05 1
vertex 34.004423259036614 -12.520944533000815 1
vertex 34.05 -11.999999999999947 1
endloop
endfacet
facet normal 0 0 1
outer loop
vertex -11.999999999999929 34.05 1
vertex 34.05 -11.999999999999947 1
vertex 34.05 31.050000000000008 1
endloop
endfacet
facet normal 0 0 1
outer loop
vertex -11.999999999999929 34.05 1
vertex 34.05 31.050000000000008 1
vertex 34.004423259036614 31.570944533000834 1
endloop
endfacet
facet normal 0 0 1
outer loop
vertex -11.999999999999929 34.05 1
vertex 34.004423259036614 31.570944533000834 1
vertex 33.86907786235773 32.07606042997699 1
endloop
endfacet
facet normal 0 0 1
outer loop
vertex -11.999999999999929 34.05 1
vertex 33.86907786235773 32.07606042997699 1
vertex 33.648076211353334 32.549999999999955 1
endloop
endfacet
facet normal 0 0 1
outer loop
vertex -11.999999999999929 34.05 1
vertex 33.648076211353334 32.549999999999955 1
vertex 33.3481333293569 32.97836282905965 1
endloop
endfacet
facet normal 0 0 1
outer loop
vertex -11.999999999999929 34.05 1
vertex 33.3481333293569 32.97836282905965 1
vertex 32.978362829059634 33.34813332935691 1
endloop
endfacet
facet normal 0 0 1
outer loop
vertex -11.999999999999929 34.05 1
vertex 32.978362829059634 33.34813332935691 1
vertex 32.549999999999955 33.648076211353334 1
endloop
endfacet
facet normal 0 0 1
outer loop
vertex -11.999999999999929 34.05 1
vertex 32.549999999999955 33.648076211353334 1
vertex 32.07606042997697 33.869077862357734 1
endloop
endfacet
facet normal 0 0 1
outer loop
vertex -11.999999999999929 34.05 1
vertex 32.07606042997697 33.869077862357734 1
vertex 31.570944533000787 34.00442325903663 1
endloop
endfacet
facet normal 0 0 1
outer loop
vertex -11.999999999999929 34.05 1
vertex 31.570944533000787 34.00442325903663 1
vertex 31.050000000000075 34.05 1
endloop
endfacet
facet normal -1 0 0
outer loop
vertex -15 31.049999999999997 1
vertex -15 31.04999999999998 0
vertex -15 -12.000000000000007 0
endloop
endfacet
facet normal -1 0 0
outer loop
vertex -15 31.049999999999997 1
vertex -15 -12.000000000000007 0
vertex -15 -12.000000000000007 1
endloop
endfacet
facet normal -0.9961946980917453 -0.0871557427476599 0
outer loop
vertex -14.954423259036624 -12.520944533000776 1
vertex -15 -12.000000000000007 1
vertex -15 -12.000000000000007 0
endloop
endfacet
facet normal -0.9961946980917453 -0.0871557427476599 0
outer loop
vertex -14.954423259036624 -12.520944533000776 1
vertex -15 -12.000000000000007 0
vertex -14.954423259036624 -12.52094453300078 0
endloop
endfacet
facet normal -0.9659258262890686 -0.25881904510251985 0
outer loop
vertex -14.819077862357723 -13.026060429977012 1
vertex -14.954423259036624 -12.520944533000776 1
vertex -14.954423259036624 -12.52094453300078 0
endloop
endfacet
facet normal -0.9659258262890686 -0.25881904510251985 0
outer loop
vertex -14.819077862357723 -13.026060429977012 1
vertex -14.954423259036624 -12.52094453300078 0
vertex -14.819077862357723 -13.026060429977008 0
endloop
endfacet
facet normal -0.9063077870366505 -0.4226182617406982 0
outer loop
vertex -14.59807621135332 -13.499999999999993 1
vertex -14.819077862357723 -13.026060429977012 1
vertex -14.819077862357723 -13.026060429977008 0
endloop
endfacet
facet normal -0.9063077870366505 -0.4226182617406982 0
outer loop
vertex -14.59807621135332 -13.499999999999993 1
vertex -14.819077862357723 -13.026060429977008 0
vertex -14.598076211353323 -13.499999999999979 0
endloop
endfacet
facet normal -0.8191520442889911 -0.573576436351047 0
outer loop
vertex -14.298133329356919 -13.928362829059637 1
vertex -14.59807621135332 -13.499999999999993 1
vertex -14.598076211353323 -13.499999999999979 0
endloop
endfacet
facet normal -0.8191520442889911 -0.573576436351047 0
outer loop
vertex -14.298133329356919 -13.928362829059637 1
vertex -14.598076211353323 -13.499999999999979 0
vertex -14.298133329356908 -13.928362829059644 0
endloop
endfacet
facet normal -0.7071067811865458 -0.7071067811865493 0
outer loop
vertex -13.928362829059623 -14.298133329356933 1
vertex -14.298133329356919 -13.928362829059637 1
vertex -14.298133329356908 -13.928362829059644 0
endloop
endfacet
facet normal -0.7071067811865458 -0.7071067811865493 0
outer loop
vertex -13.928362829059623 -14.298133329356933 1
vertex -14.298133329356908 -13.928362829059644 0
vertex -13.928362829059616 -14.298133329356936 0
endloop
endfacet
facet normal -0.573576436351047 -0.8191520442889911 0
outer loop
vertex -13.500000000000018 -14.598076211353309 1
vertex -13.928362829059623 -14.298133329356933 1
vertex -13.928362829059616 -14.298133329356936 0
endloop
endfacet
facet normal -0.573576436351047 -0.8191520442889911 0
outer loop
vertex -13.500000000000018 -14.598076211353309 1
vertex -13.928362829059616 -14.298133329356936 0
vertex -13.5 -14.598076211353316 0
endloop
endfacet
facet normal -0.4226182617406982 -0.9063077870366505 0
outer loop
vertex -13.026060429976997 -14.819077862357727 1
vertex -13.500000000000018 -14.598076211353309 1
vertex -13.5 -14.598076211353316 0
endloop
endfacet
facet normal -0.4226182617406982 -0.9063077870366505 0
outer loop
vertex -13.026060429976997 -14.819077862357727 1
vertex -13.5 -14.598076211353316 0
vertex -13.026060429977026 -14.819077862357716 0
endloop
endfacet
facet normal -0.25881904510251985 -0.9659258262890686 0
outer loop
vertex -12.520944533000787 -14.954423259036624 1
vertex -13.026060429976997 -14.819077862357727 1
vertex -13.026060429977026 -14.819077862357716 0
endloop
endfacet
facet normal -0.25881904510251985 -0.9659258262890686 0
outer loop
vertex -12.520944533000787 -14.954423259036624 1
vertex -13.026060429977026 -14.819077862357716 0
vertex -12.52094453300078 -14.954423259036624 0
endloop
endfacet
facet normal -0.08715574274766169 -0.9961946980917453 0
outer loop
vertex -11.999999999999996 -15 1
vertex -12.520944533000787 -14.954423259036624 1
vertex -12.52094453300078 -14.954423259036624 0
endloop
endfacet
facet normal -0.08715574274766169 -0.9961946980917453 0
outer loop
vertex -11.999999999999996 -15 1
vertex -12.52094453300078 -14.954423259036624 0
vertex -11.99999999999999 -15 0
endloop
endfacet
facet normal 0 -1 0
outer loop
vertex 31.049999999999994 -15 0
vertex 31.050000000000008 -15 1
vertex -11.999999999999996 -15 1
endloop
endfacet
facet normal 0 -1 0
outer loop
vertex 31.049999999999994 -15 0
vertex -11.999999999999996 -15 1
vertex -11.99999999999999 -15 0
endloop
endfacet
facet normal 0.08715574274766169 -0.9961946980917453 0
outer loop
vertex 31.570944533000795 -14.954423259036624 1
vertex 31.050000000000008 -15 1
vertex 31.049999999999994 -15 0
endloop
endfacet
facet normal 0.08715574274766169 -0.9961946980917453 0
outer loop
vertex 31.570944533000795 -14.954423259036624 1
vertex 31.049999999999994 -15 0
vertex 31.570944533000812 -14.954423259036624 0
endloop
endfacet
facet normal 0.2588190451025198 -0.9659258262890685 0
outer loop
vertex 32.07606042997699 -14.81907786235773 1
vertex 31.570944533000795 -14.954423259036624 1
vertex 31.570944533000812 -14.954423259036624 0
endloop
endfacet
facet normal 0.2588190451025198 -0.9659258262890685 0
outer loop
vertex 32.07606042997699 -14.81907786235773 1
vertex 31.570944533000812 -14.954423259036624 0
vertex 32.07606042997696 -14.81907786235774 0
endloop
endfacet
facet normal 0.4226182617407019 -0.9063077870366489 0
outer loop
vertex 32.55 -14.598076211353309 1
vertex 32.07606042997699 -14.81907786235773 1
vertex 32.07606042997696 -14.81907786235774 0
endloop
endfacet
facet normal 0.4226182617407019 -0.9063077870366489 0
outer loop
vertex 32.55 -14.598076211353309 1
vertex 32.07606042997696 -14.81907786235774 0
vertex 32.550000000000004 -14.598076211353309 0
endloop
endfacet
facet normal 0.573576436351047 -0.8191520442889911 0
outer loop
vertex 32.97836282905964 -14.298133329356908 1
vertex 32.55 -14.598076211353309 1
vertex 32.550000000000004 -14.598076211353309 0
endloop
endfacet
facet normal 0.573576436351047 -0.8191520442889911 0
outer loop
vertex 32.97836282905964 -14.298133329356908 1
vertex 32.550000000000004 -14.598076211353309 0
vertex 32.97836282905962 -14.29813332935693 0
endloop
endfacet
facet normal 0.7071067811865475 -0.7071067811865475 0
outer loop
vertex 33.34813332935693 -13.928362829059619 1
vertex 32.97836282905964 -14.298133329356908 1
vertex 32.97836282905962 -14.29813332935693 0
endloop
endfacet
facet normal 0.7071067811865475 -0.7071067811865475 0
outer loop
vertex 33.34813332935693 -13.928362829059619 1
vertex 32.97836282905962 -14.29813332935693 0
vertex 33.348133329356905 -13.928362829059651 0
endloop
endfacet
facet normal 0.8191520442889957 -0.5735764363510406 0
outer loop
vertex 33.64807621135329 -13.500000000000028 1
vertex 33.34813332935693 -13.928362829059619 1
vertex 33.348133329356905 -13.928362829059651 0
endloop
endfacet
facet normal 0.8191520442889957 -0.5735764363510406 0
outer loop
vertex 33.64807621135329 -13.500000000000028 1
vertex 33.348133329356905 -13.928362829059651 0
vertex 33.64807621135331 -13.499999999999986 0
endloop
endfacet
facet normal 0.9063077870366524 -0.4226182617406946 0
outer loop
vertex 33.869077862357734 -13.026060429976965 1
vertex 33.64807621135329 -13.500000000000028 1
vertex 33.64807621135331 -13.499999999999986 0
endloop
endfacet
facet normal 0.9063077870366524 -0.4226182617406946 0
outer loop
vertex 33.869077862357734 -13.026060429976965 1
vertex 33.64807621135331 -13.499999999999986 0
vertex 33.869077862357734 -13.026060429976965 0
endloop
endfacet
facet normal 0.9659258262890704 -0.25881904510251297 0
outer loop
vertex 34.004423259036614 -12.520944533000815 1
vertex 33.869077862357734 -13.026060429976965 1
vertex 33.869077862357734 -13.026060429976965 0
endloop
endfacet
facet normal 0.9659258262890704 -0.25881904510251297 0
outer loop
vertex 34.004423259036614 -12.520944533000815 1
vertex 33.869077862357734 -13.026060429976965 0
vertex 34.00442325903663 -12.52094453300078 0
endloop
endfacet
facet normal 0.9961946980917453 -0.08715574274766165 0
outer loop
vertex 34.05 -11.999999999999947 1
vertex 34.004423259036614 -12.520944533000815 1
vertex 34.00442325903663 -12.52094453300078 0
endloop
endfacet
facet normal 0.9961946980917453 -0.08715574274766165 0
outer loop
vertex 34.05 -11.999999999999947 1
vertex 34.00442325903663 -12.52094453300078 0
vertex 34.05 -12.000000000000068 0
endloop
endfacet
facet normal 1 0 0
outer loop
vertex 34.05 31.05 0
vertex 34.05 31.050000000000008 1
vertex 34.05 -11.999999999999947 1
endloop
endfacet
facet normal 1 0 0
outer loop
vertex 34.05 31.05 0
vertex 34.05 -11.999999999999947 1
vertex 34.05 -12.000000000000068 0
endloop
endfacet
facet normal 0.9961946980917459 0.0871557427476546 0
outer loop
vertex 34.004423259036614 31.570944533000834 1
vertex 34.05 31.050000000000008 1
vertex 34.05 31.05 0
endloop
endfacet
facet normal 0.9961946980917459 0.0871557427476546 0
outer loop
vertex 34.004423259036614 31.570944533000834 1
vertex 34.05 31.05 0
vertex 34.00442325903662 31.57094453300081 0
endloop
endfacet
facet normal 0.9659258262890704 0.25881904510251297 0
outer loop
vertex 33.86907786235773 32.07606042997699 1
vertex 34.004423259036614 31.570944533000834 1
vertex 34.00442325903662 31.57094453300081 0
endloop
endfacet
facet normal 0.9659258262890704 0.25881904510251297 0
outer loop
vertex 33.86907786235773 32.07606042997699 1
vertex 34.00442325903662 31.57094453300081 0
vertex 33.869077862357734 32.07606042997697 0
endloop
endfacet
facet normal 0.9063077870366524 0.4226182617406946 0
outer loop
vertex 33.648076211353334 32.549999999999955 1
vertex 33.86907786235773 32.07606042997699 1
vertex 33.869077862357734 32.07606042997697 0
endloop
endfacet
facet normal 0.9063077870366524 0.4226182617406946 0
outer loop
vertex 33.648076211353334 32.549999999999955 1
vertex 33.869077862357734 32.07606042997697 0
vertex 33.648076211353306 32.550000000000004 0
endloop
endfacet
facet normal 0.8191520442889911 0.573576436351047 0
outer loop
vertex 33.3481333293569 32.97836282905965 1
vertex 33.648076211353334 32.549999999999955 1
vertex 33.648076211353306 32.550000000000004 0
endloop
endfacet
facet normal 0.8191520442889911 0.573576436351047 0
outer loop
vertex 33.3481333293569 32.97836282905965 1
vertex 33.648076211353306 32.550000000000004 0
vertex 33.34813332935693 32.978362829059606 0
endloop
endfacet
facet normal 0.7071067811865404 0.7071067811865546 0
outer loop
vertex 32.978362829059634 33.34813332935691 1
vertex 33.3481333293569 32.97836282905965 1
vertex 33.34813332935693 32.978362829059606 0
endloop
endfacet
facet normal 0.7071067811865404 0.7071067811865546 0
outer loop
vertex 32.978362829059634 33.34813332935691 1
vertex 33.34813332935693 32.978362829059606 0
vertex 32.97836282905961 33.348133329356926 0
endloop
endfacet
facet normal 0.573576436351047 0.8191520442889911 0
outer loop
vertex 32.549999999999955 33.648076211353334 1
vertex 32.978362829059634 33.34813332935691 1
vertex 32.97836282905961 33.348133329356926 0
endloop
endfacet
facet normal 0.573576436351047 0.8191520442889911 0
outer loop
vertex 32.549999999999955 33.648076211353334 1
vertex 32.97836282905961 33.348133329356926 0
vertex 32.549999999999955 33.648076211353334 0
endloop
endfacet
facet normal 0.4226182617406946 0.9063077870366524 0
outer loop
vertex 32.07606042997697 33.869077862357734 1
vertex 32.549999999999955 33.648076211353334 1
vertex 32.549999999999955 33.648076211353334 0
endloop
endfacet
facet normal 0.4226182617406946 0.9063077870366524 0
outer loop
vertex 32.07606042997697 33.869077862357734 1
vertex 32.549999999999955 33.648076211353334 0
vertex 32.07606042997697 33.869077862357734 0
endloop
endfacet
facet normal 0.2588190451025267 0.9659258262890666 0
outer loop
vertex 31.570944533000787 34.00442325903663 1
vertex 32.07606042997697 33.869077862357734 1
vertex 32.07606042997697 33.869077862357734 0
endloop
endfacet
facet normal 0.2588190451025267 0.9659258262890666 0
outer loop
vertex 31.570944533000787 34.00442325903663 1
vertex 32.07606042997697 33.869077862357734 0
vertex 31.570944533000777 34.00442325903663 0
endloop
endfacet
facet normal 0.08715574274766169 0.9961946980917453 0
outer loop
vertex 31.050000000000075 34.05 1
vertex 31.570944533000787 34.00442325903663 1
vertex 31.570944533000777 34.00442325903663 0
endloop
endfacet
facet normal 0.08715574274766169 0.9961946980917453 0
outer loop
vertex 31.050000000000075 34.05 1
vertex 31.570944533000777 34.00442325903663 0
vertex 31.050000000000068 34.05 0
endloop
endfacet
facet normal 0 1 0
outer loop
vertex 31.050000000000075 34.05 1
vertex 31.050000000000068 34.05 0
vertex -11.999999999999957 34.05 0
endloop
endfacet
facet normal 0 1 0
outer loop
vertex 31.050000000000075 34.05 1
vertex -11.999999999999957 34.05 0
vertex -11.999999999999929 34.05 1
endloop
endfacet
facet normal -0.08715574274766169 0.9961946980917453 0
outer loop
vertex -12.520944533000879 34.00442325903661 1
vertex -11.999999999999929 34.05 1
vertex -11.999999999999957 34.05 0
endloop
endfacet
facet normal -0.08715574274766169 0.9961946980917453 0
outer loop
vertex -12.520944533000879 34.00442325903661 1
vertex -11.999999999999957 34.05 0
vertex -12.520944533000801 34.004423259036614 0
endloop
endfacet
facet normal -0.2588190451025267 0.9659258262890666 0
outer loop
vertex -13.026060429976958 33.86907786235774 1
vertex -12.520944533000879 34.00442325903661 1
vertex -12.520944533000801 34.004423259036614 0
endloop
endfacet
facet normal -0.2588190451025267 0.9659258262890666 0
outer loop
vertex -13.026060429976958 33.86907786235774 1
vertex -12.520944533000801 34.004423259036614 0
vertex -13.026060429976997 33.86907786235772 0
endloop
endfacet
facet normal -0.4226182617406946 0.9063077870366524 0
outer loop
vertex -13.500000000000004 33.648076211353306 1
vertex -13.026060429976958 33.86907786235774 1
vertex -13.026060429976997 33.86907786235772 0
endloop
endfacet
facet normal -0.4226182617406946 0.9063077870366524 0
outer loop
vertex -13.500000000000004 33.648076211353306 1
vertex -13.026060429976997 33.86907786235772 0
vertex -13.500000000000043 33.64807621135329 0
endloop
endfacet
facet normal -0.5735764363510406 0.8191520442889957 0
outer loop
vertex -13.928362829059633 33.34813332935692 1
vertex -13.500000000000004 33.648076211353306 1
vertex -13.500000000000043 33.64807621135329 0
endloop
endfacet
facet normal -0.5735764363510406 0.8191520442889957 0
outer loop
vertex -13.928362829059633 33.34813332935692 1
vertex -13.500000000000043 33.64807621135329 0
vertex -13.92836282905958 33.34813332935696 0
endloop
endfacet
facet normal -0.7071067811865546 0.7071067811865404 0
outer loop
vertex -14.298133329356919 32.97836282905963 1
vertex -13.928362829059633 33.34813332935692 1
vertex -13.92836282905958 33.34813332935696 0
endloop
endfacet
facet normal -0.7071067811865546 0.7071067811865404 0
outer loop
vertex -14.298133329356919 32.97836282905963 1
vertex -13.92836282905958 33.34813332935696 0
vertex -14.298133329356943 32.9783628290596 0
endloop
endfacet
facet normal -0.8191520442889867 0.5735764363510536 0
outer loop
vertex -14.598076211353316 32.54999999999999 1
vertex -14.298133329356919 32.97836282905963 1
vertex -14.298133329356943 32.9783628290596 0
endloop
endfacet
facet normal -0.8191520442889867 0.5735764363510536 0
outer loop
vertex -14.598076211353316 32.54999999999999 1
vertex -14.298133329356943 32.9783628290596 0
vertex -14.598076211353316 32.55 0
endloop
endfacet
facet normal -0.9063077870366524 0.4226182617406946 0
outer loop
vertex -14.81907786235773 32.076060429976984 1
vertex -14.598076211353316 32.54999999999999 1
vertex -14.598076211353316 32.55 0
endloop
endfacet
facet normal -0.9063077870366524 0.4226182617406946 0
outer loop
vertex -14.81907786235773 32.076060429976984 1
vertex -14.598076211353316 32.55 0
vertex -14.81907786235773 32.07606042997699 0
endloop
endfacet
facet normal -0.9659258262890686 0.25881904510251985 0
outer loop
vertex -14.95442325903662 31.570944533000805 1
vertex -14.81907786235773 32.076060429976984 1
vertex -14.81907786235773 32.07606042997699 0
endloop
endfacet
facet normal -0.9659258262890686 0.25881904510251985 0
outer loop
vertex -14.95442325903662 31.570944533000805 1
vertex -14.81907786235773 32.07606042997699 0
vertex -14.954423259036624 31.57094453300079 0
endloop
endfacet
facet normal -0.9961946980917455 0.08715574274765812 0
outer loop
vertex -15 31.049999999999997 1
vertex -14.95442325903662 31.570944533000805 1
vertex -14.954423259036624 31.57094453300079 0
endloop
endfacet
facet normal -0.9961946980917455 0.08715574274765812 0
outer loop
vertex -15 31.049999999999997 1
vertex -14.954423259036624 31.57094453300079 0
vertex -15 31.04999999999998 0
endloop
endfacet
endsolid csg.js
