solid csg.js
facet normal -1 0 0
outer loop
vertex -15 -10 10
vertex -15 -9.969615506024457 10
vertex -15 -9.879385241571875 10
endloop
endfacet
facet normal -1 0 0
outer loop
vertex -15 -10 10
vertex -15 -9.879385241571875 10
vertex -15 -9.732050807569033 10
endloop
endfacet
facet normal -1 0 0
outer loop
vertex -15 -10 10
vertex -15 -9.732050807569033 10
vertex -15 -9.532088886237847 10
endloop
endfacet
facet normal -1 0 0
outer loop
vertex -15 -10 10
vertex -15 -9.532088886237847 10
vertex -15 -9.285575219373284 10
endloop
endfacet
facet normal -1 0 0
outer loop
vertex -15 -10 10
vertex -15 -9.285575219373284 10
vertex -15 -8.999999999999659 10
endloop
endfacet
facet normal -1 0 0
outer loop
vertex -15 -10 10
vertex -15 -8.999999999999659 10
vertex -15 -8.684040286651632 10
endloop
endfacet
facet normal -1 0 0
outer loop
vertex -15 -10 10
vertex -15 -8.684040286651632 10
vertex -15 -8.34729635533369 10
endloop
endfacet
facet normal -1 0 0
outer loop
vertex -15 -10 10
vertex -15 -8.34729635533369 10
vertex -15 -8.000000000000576 10
endloop
endfacet
facet normal -1 0 0
outer loop
vertex -15 -10 10
vertex -15 -8.000000000000576 10
vertex -15 27.05000000000109 10
endloop
endfacet
facet normal -1 0 0
outer loop
vertex -15 -10 10
vertex -15 27.05000000000109 10
vertex -15 27.39729635533331 10
endloop
endfacet
facet normal -1 0 0
outer loop
vertex -15 -10 10
vertex -15 27.39729635533331 10
vertex -15 27.734040286651872 10
endloop
endfacet
facet normal -1 0 0
outer loop
vertex -15 -10 10
vertex -15 27.734040286651872 10
vertex -15 28.04999999999953 10
endloop
endfacet
facet normal -1 0 0
outer loop
vertex -15 -10 10
vertex -15 28.04999999999953 10
vertex -15 28.335575219372824 10
endloop
endfacet
facet normal -1 0 0
outer loop
vertex -15 -10 10
vertex -15 28.335575219372824 10
vertex -15 28.58208888623838 10
endloop
endfacet
facet normal -1 0 0
outer loop
vertex -15 -10 10
vertex -15 28.58208888623838 10
vertex -15 28.782050807568588 10
endloop
endfacet
facet normal -1 0 0
outer loop
vertex -15 -10 10
vertex -15 28.782050807568588 10
vertex -15 28.929385241572053 10
endloop
endfacet
facet normal -1 0 0
outer loop
vertex -15 -10 10
vertex -15 28.929385241572053 10
vertex -15 29.01961550602453 10
endloop
endfacet
facet normal -1 0 0
outer loop
vertex -15 -10 10
vertex -15 29.01961550602453 10
vertex -15 29.05 10
endloop
endfacet
facet normal -1 0 0
outer loop
vertex -15 -10 10
vertex -15 29.05 10
vertex -15 31.049999999999997 10
endloop
endfacet
facet normal -1 0 0
outer loop
vertex -15 -10 10
vertex -15 31.049999999999997 10
vertex -15 31.049999999999997 0
endloop
endfacet
facet normal -1 0 0
outer loop
vertex -15 -10 10
vertex -15 31.049999999999997 0
vertex -15 29.05 0
endloop
endfacet
facet normal -1 0 0
outer loop
vertex -15 -10 10
vertex -15 29.05 0
vertex -15 29.019615506024532 0
endloop
endfacet
facet normal -1 0 0
outer loop
vertex -15 -10 10
vertex -15 29.019615506024532 0
vertex -15 28.929385241572028 0
endloop
endfacet
facet normal -1 0 0
outer loop
vertex -15 -10 10
vertex -15 28.929385241572028 0
vertex -15 28.782050807568574 0
endloop
endfacet
facet normal -1 0 0
outer loop
vertex -15 -10 10
vertex -15 28.782050807568574 0
vertex -15 28.5820888862384 0
endloop
endfacet
facet normal -1 0 0
outer loop
vertex -15 -10 10
vertex -15 28.5820888862384 0
vertex -15 28.335575219372842 0
endloop
endfacet
facet normal -1 0 0
outer loop
vertex -15 -10 10
vertex -15 28.335575219372842 0
vertex -15 28.04999999999954 0
endloop
endfacet
facet normal -1 0 0
outer loop
vertex -15 -10 10
vertex -15 28.04999999999954 0
vertex -15 27.7340402866519 0
endloop
endfacet
facet normal -1 0 0
outer loop
vertex -15 -10 10
vertex -15 27.7340402866519 0
vertex -15 27.3972963553333 0
endloop
endfacet
facet normal -1 0 0
outer loop
vertex -15 -10 10
vertex -15 27.3972963553333 0
vertex -15 27.050000000001063 0
endloop
endfacet
facet normal -1 0 0
outer loop
vertex -15 -10 10
vertex -15 27.050000000001063 0
vertex -15 -8.000000000000611 0
endloop
endfacet
facet normal -1 0 0
outer loop
vertex -15 -10 10
vertex -15 -8.000000000000611 0
vertex -15 -8.347296355333693 0
endloop
endfacet
facet normal -1 0 0
outer loop
vertex -15 -10 10
vertex -15 -8.347296355333693 0
vertex -15 -8.68404028665163 0
endloop
endfacet
facet normal -1 0 0
outer loop
vertex -15 -10 10
vertex -15 -8.68404028665163 0
vertex -15 -8.999999999999645 0
endloop
endfacet
facet normal -1 0 0
outer loop
vertex -15 -10 10
vertex -15 -8.999999999999645 0
vertex -15 -9.285575219373298 0
endloop
endfacet
facet normal -1 0 0
outer loop
vertex -15 -10 10
vertex -15 -9.285575219373298 0
vertex -15 -9.532088886237846 0
endloop
endfacet
facet normal -1 0 0
outer loop
vertex -15 -10 10
vertex -15 -9.532088886237846 0
vertex -15 -9.73205080756903 0
endloop
endfacet
facet normal -1 0 0
outer loop
vertex -15 -10 10
vertex -15 -9.73205080756903 0
vertex -15 -9.879385241571876 0
endloop
endfacet
facet normal -1 0 0
outer loop
vertex -15 -10 10
vertex -15 -9.879385241571876 0
vertex -15 -9.969615506024455 0
endloop
endfacet
facet normal -1 0 0
outer loop
vertex -15 -10 10
vertex -15 -9.969615506024455 0
vertex -15 -10 0
endloop
endfacet
facet normal -1 0 0
outer loop
vertex -15 -10 10
vertex -15 -10 0
vertex -15 -12 0
endloop
endfacet
facet normal -1 0 0
outer loop
vertex -15 -10 10
vertex -15 -12 0
vertex -15 -12 10
endloop
endfacet
facet normal -0.9961946980917452 -0.08715574274766169 0
outer loop
vertex -14.954423259036615 -12.52094453300079 10
vertex -15 -12 10
vertex -15 -12 0
endloop
endfacet
facet normal -0.9961946980917452 -0.08715574274766169 0
outer loop
vertex -14.954423259036615 -12.52094453300079 10
vertex -15 -12 0
vertex -14.954423259036615 -12.52094453300079 0
endloop
endfacet
facet normal -0.9659258262890686 -0.25881904510251985 0
outer loop
vertex -14.819077862357787 -13.026060429977026 10.000000000000004
vertex -14.954423259036615 -12.52094453300079 10
vertex -14.954423259036615 -12.52094453300079 0
endloop
endfacet
facet normal -0.9659258262890686 -0.25881904510251985 0
outer loop
vertex -14.819077862357787 -13.026060429977026 10.000000000000004
vertex -14.954423259036615 -12.52094453300079 0
vertex -14.819077862357787 -13.026060429977026 0
endloop
endfacet
facet normal -0.9063077870366505 -0.4226182617406982 0
outer loop
vertex -14.598076211353309 -13.499999999999996 10
vertex -14.819077862357787 -13.026060429977026 10.000000000000004
vertex -14.819077862357787 -13.026060429977026 0
endloop
endfacet
facet normal -0.9063077870366505 -0.4226182617406982 0
outer loop
vertex -14.598076211353309 -13.499999999999996 10
vertex -14.819077862357787 -13.026060429977026 0
vertex -14.598076211353309 -13.499999999999996 0
endloop
endfacet
facet normal -0.8191520442889911 -0.573576436351047 0
outer loop
vertex -14.298133329356936 -13.928362829059616 10
vertex -14.598076211353309 -13.499999999999996 10
vertex -14.598076211353309 -13.499999999999996 0
endloop
endfacet
facet normal -0.8191520442889911 -0.573576436351047 0
outer loop
vertex -14.298133329356936 -13.928362829059616 10
vertex -14.598076211353309 -13.499999999999996 0
vertex -14.298133329356936 -13.928362829059616 0
endloop
endfacet
facet normal -0.7071067811865493 -0.7071067811865458 0
outer loop
vertex -13.928362829059656 -14.298133329356972 10
vertex -14.298133329356936 -13.928362829059616 10
vertex -14.298133329356936 -13.928362829059616 0
endloop
endfacet
facet normal -0.7071067811865493 -0.7071067811865458 0
outer loop
vertex -13.928362829059656 -14.298133329356972 10
vertex -14.298133329356936 -13.928362829059616 0
vertex -13.928362829059656 -14.298133329356972 0
endloop
endfacet
facet normal -0.573576436351047 -0.8191520442889911 0
outer loop
vertex -13.5 -14.598076211353316 10
vertex -13.928362829059656 -14.298133329356972 10
vertex -13.928362829059656 -14.298133329356972 0
endloop
endfacet
facet normal -0.573576436351047 -0.8191520442889911 0
outer loop
vertex -13.5 -14.598076211353316 10
vertex -13.928362829059656 -14.298133329356972 0
vertex -13.5 -14.598076211353316 0
endloop
endfacet
facet normal -0.4226182617406982 -0.9063077870366506 0
outer loop
vertex -13.026060429977015 -14.819077862357732 10.000000000000004
vertex -13.5 -14.598076211353316 10
vertex -13.5 -14.598076211353316 0
endloop
endfacet
facet normal -0.4226182617406982 -0.9063077870366506 0
outer loop
vertex -13.026060429977015 -14.819077862357732 10.000000000000004
vertex -13.5 -14.598076211353316 0
vertex -13.026060429977015 -14.819077862357732 0
endloop
endfacet
facet normal -0.25881904510251985 -0.9659258262890686 0
outer loop
vertex -12.520944533000808 -14.954423259036679 10.000000000000004
vertex -13.026060429977015 -14.819077862357732 10.000000000000004
vertex -13.026060429977015 -14.819077862357732 0
endloop
endfacet
facet normal -0.25881904510251985 -0.9659258262890686 0
outer loop
vertex -12.520944533000808 -14.954423259036679 10.000000000000004
vertex -13.026060429977015 -14.819077862357732 0
vertex -12.520944533000808 -14.954423259036679 0
endloop
endfacet
facet normal -0.08715574274766169 -0.9961946980917453 0
outer loop
vertex -12.000000000000004 -15.000000000000027 10.000000000000004
vertex -12.520944533000808 -14.954423259036679 10.000000000000004
vertex -12.520944533000808 -14.954423259036679 0
endloop
endfacet
facet normal -0.08715574274766169 -0.9961946980917453 0
outer loop
vertex -12.000000000000004 -15.000000000000027 10.000000000000004
vertex -12.520944533000808 -14.954423259036679 0
vertex -12.000000000000004 -15.000000000000027 0
endloop
endfacet
facet normal 0 -1 0
outer loop
vertex 31.05 -15 0
vertex 31.05 -15 10
vertex -12.000000000000004 -15.000000000000027 10.000000000000004
endloop
endfacet
facet normal 0 -1 0
outer loop
vertex 31.05 -15 0
vertex -12.000000000000004 -15.000000000000027 10.000000000000004
vertex -12.000000000000004 -15.000000000000027 0
endloop
endfacet
facet normal 0.08715574274766169 -0.9961946980917453 0
outer loop
vertex 31.57094453300079 -14.954423259036629 10.000000000000004
vertex 31.05 -15 10
vertex 31.05 -15 0
endloop
endfacet
facet normal 0.08715574274766169 -0.9961946980917453 0
outer loop
vertex 31.57094453300079 -14.954423259036629 10.000000000000004
vertex 31.05 -15 0
vertex 31.57094453300079 -14.954423259036629 0
endloop
endfacet
facet normal 0.25881904510251985 -0.9659258262890686 0
outer loop
vertex 32.076060429977026 -14.81907786235777 10.000000000000004
vertex 31.57094453300079 -14.954423259036629 10.000000000000004
vertex 31.57094453300079 -14.954423259036629 0
endloop
endfacet
facet normal 0.25881904510251985 -0.9659258262890686 0
outer loop
vertex 32.076060429977026 -14.81907786235777 10.000000000000004
vertex 31.57094453300079 -14.954423259036629 0
vertex 32.076060429977026 -14.81907786235777 0
endloop
endfacet
facet normal 0.4226182617407019 -0.9063077870366489 0
outer loop
vertex 32.550000000000004 -14.598076211353328 10.000000000000004
vertex 32.076060429977026 -14.81907786235777 10.000000000000004
vertex 32.076060429977026 -14.81907786235777 0
endloop
endfacet
facet normal 0.4226182617407019 -0.9063077870366489 0
outer loop
vertex 32.550000000000004 -14.598076211353328 10.000000000000004
vertex 32.076060429977026 -14.81907786235777 0
vertex 32.550000000000004 -14.598076211353328 0
endloop
endfacet
facet normal 0.573576436351047 -0.8191520442889912 0
outer loop
vertex 32.97836282905966 -14.298133329357013 10.000000000000004
vertex 32.550000000000004 -14.598076211353328 10.000000000000004
vertex 32.550000000000004 -14.598076211353328 0
endloop
endfacet
facet normal 0.573576436351047 -0.8191520442889912 0
outer loop
vertex 32.97836282905966 -14.298133329357013 10.000000000000004
vertex 32.550000000000004 -14.598076211353328 0
vertex 32.97836282905966 -14.298133329357013 0
endloop
endfacet
facet normal 0.7071067811865475 -0.7071067811865475 0
outer loop
vertex 33.34813332935686 -13.92836282905954 10
vertex 32.97836282905966 -14.298133329357013 10.000000000000004
vertex 32.97836282905966 -14.298133329357013 0
endloop
endfacet
facet normal 0.7071067811865475 -0.7071067811865475 0
outer loop
vertex 33.34813332935686 -13.92836282905954 10
vertex 32.97836282905966 -14.298133329357013 0
vertex 33.34813332935686 -13.92836282905954 0
endloop
endfacet
facet normal 0.8191520442889957 -0.5735764363510406 0
outer loop
vertex 33.648076211353334 -13.500000000000014 10
vertex 33.34813332935686 -13.92836282905954 10
vertex 33.34813332935686 -13.92836282905954 0
endloop
endfacet
facet normal 0.8191520442889957 -0.5735764363510406 0
outer loop
vertex 33.648076211353334 -13.500000000000014 10
vertex 33.34813332935686 -13.92836282905954 0
vertex 33.648076211353334 -13.500000000000014 0
endloop
endfacet
facet normal 0.9063077870366519 -0.4226182617406953 0
outer loop
vertex 33.86907786235783 -13.026060429977056 10
vertex 33.648076211353334 -13.500000000000014 10
vertex 33.648076211353334 -13.500000000000014 0
endloop
endfacet
facet normal 0.9063077870366519 -0.4226182617406953 0
outer loop
vertex 33.86907786235783 -13.026060429977056 10
vertex 33.648076211353334 -13.500000000000014 0
vertex 33.86907786235783 -13.026060429977056 0
endloop
endfacet
facet normal 0.9659258262890704 -0.2588190451025125 0
outer loop
vertex 34.004423259036784 -12.520944533000833 10
vertex 33.86907786235783 -13.026060429977056 10
vertex 33.86907786235783 -13.026060429977056 0
endloop
endfacet
facet normal 0.9659258262890704 -0.2588190451025125 0
outer loop
vertex 34.004423259036784 -12.520944533000833 10
vertex 33.86907786235783 -13.026060429977056 0
vertex 34.004423259036784 -12.520944533000833 0
endloop
endfacet
facet normal 0.9961946980917453 -0.08715574274766169 0
outer loop
vertex 34.05000000000003 -12.000000000000004 10.000000000000004
vertex 34.004423259036784 -12.520944533000833 10
vertex 34.004423259036784 -12.520944533000833 0
endloop
endfacet
facet normal 0.9961946980917453 -0.08715574274766169 0
outer loop
vertex 34.05000000000003 -12.000000000000004 10.000000000000004
vertex 34.004423259036784 -12.520944533000833 0
vertex 34.05000000000003 -12.000000000000004 0
endloop
endfacet
facet normal 1 0 0
outer loop
vertex 34.05 -10 0
vertex 34.05 -9.969615506024455 0
vertex 34.05 -9.879385241571876 0
endloop
endfacet
facet normal 1 0 0
outer loop
vertex 34.05 -10 0
vertex 34.05 -9.879385241571876 0
vertex 34.05 -9.73205080756903 0
endloop
endfacet
facet normal 1 0 0
outer loop
vertex 34.05 -10 0
vertex 34.05 -9.73205080756903 0
vertex 34.05 -9.532088886237846 0
endloop
endfacet
facet normal 1 0 0
outer loop
vertex 34.05 -10 0
vertex 34.05 -9.532088886237846 0
vertex 34.05 -9.285575219373298 0
endloop
endfacet
facet normal 1 0 0
outer loop
vertex 34.05 -10 0
vertex 34.05 -9.285575219373298 0
vertex 34.05 -8.999999999999645 0
endloop
endfacet
facet normal 1 0 0
outer loop
vertex 34.05 -10 0
vertex 34.05 -8.999999999999645 0
vertex 34.05 -8.68404028665163 0
endloop
endfacet
facet normal 1 0 0
outer loop
vertex 34.05 -10 0
vertex 34.05 -8.68404028665163 0
vertex 34.05 -8.347296355333693 0
endloop
endfacet
facet normal 1 0 0
outer loop
vertex 34.05 -10 0
vertex 34.05 -8.347296355333693 0
vertex 34.05 -8.000000000000611 0
endloop
endfacet
facet normal 1 0 0
outer loop
vertex 34.05 -10 0
vertex 34.05 -8.000000000000611 0
vertex 34.05 27.050000000001063 0
endloop
endfacet
facet normal 1 0 0
outer loop
vertex 34.05 -10 0
vertex 34.05 27.050000000001063 0
vertex 34.05 27.3972963553333 0
endloop
endfacet
facet normal 1 0 0
outer loop
vertex 34.05 -10 0
vertex 34.05 27.3972963553333 0
vertex 34.05 27.7340402866519 0
endloop
endfacet
facet normal 1 0 0
outer loop
vertex 34.05 -10 0
vertex 34.05 27.7340402866519 0
vertex 34.05 28.04999999999954 0
endloop
endfacet
facet normal 1 0 0
outer loop
vertex 34.05 -10 0
vertex 34.05 28.04999999999954 0
vertex 34.05 28.335575219372842 0
endloop
endfacet
facet normal 1 0 0
outer loop
vertex 34.05 -10 0
vertex 34.05 28.335575219372842 0
vertex 34.05 28.5820888862384 0
endloop
endfacet
facet normal 1 0 0
outer loop
vertex 34.05 -10 0
vertex 34.05 28.5820888862384 0
vertex 34.05 28.782050807568574 0
endloop
endfacet
facet normal 1 0 0
outer loop
vertex 34.05 -10 0
vertex 34.05 28.782050807568574 0
vertex 34.05 28.929385241572028 0
endloop
endfacet
facet normal 1 0 0
outer loop
vertex 34.05 -10 0
vertex 34.05 28.929385241572028 0
vertex 34.05 29.019615506024532 0
endloop
endfacet
facet normal 1 0 0
outer loop
vertex 34.05 -10 0
vertex 34.05 29.019615506024532 0
vertex 34.05 29.05 0
endloop
endfacet
facet normal 1 0 0
outer loop
vertex 34.05 -10 0
vertex 34.05 29.05 0
vertex 34.05 31.05 0
endloop
endfacet
facet normal 1 0 0
outer loop
vertex 34.05 -10 0
vertex 34.05 31.05 0
vertex 34.05 31.05 10
endloop
endfacet
facet normal 1 0 0
outer loop
vertex 34.05 -10 0
vertex 34.05 31.05 10
vertex 34.05 29.05 10
endloop
endfacet
facet normal 1 0 0
outer loop
vertex 34.05 -10 0
vertex 34.05 29.05 10
vertex 34.05 29.01961550602453 10
endloop
endfacet
facet normal 1 0 0
outer loop
vertex 34.05 -10 0
vertex 34.05 29.01961550602453 10
vertex 34.05 28.929385241572053 10
endloop
endfacet
facet normal 1 0 0
outer loop
vertex 34.05 -10 0
vertex 34.05 28.929385241572053 10
vertex 34.05 28.782050807568588 10
endloop
endfacet
facet normal 1 0 0
outer loop
vertex 34.05 -10 0
vertex 34.05 28.782050807568588 10
vertex 34.05 28.58208888623838 10
endloop
endfacet
facet normal 1 0 0
outer loop
vertex 34.05 -10 0
vertex 34.05 28.58208888623838 10
vertex 34.05 28.335575219372824 10
endloop
endfacet
facet normal 1 0 0
outer loop
vertex 34.05 -10 0
vertex 34.05 28.335575219372824 10
vertex 34.05 28.04999999999953 10
endloop
endfacet
facet normal 1 0 0
outer loop
vertex 34.05 -10 0
vertex 34.05 28.04999999999953 10
vertex 34.05 27.734040286651872 10
endloop
endfacet
facet normal 1 0 0
outer loop
vertex 34.05 -10 0
vertex 34.05 27.734040286651872 10
vertex 34.05 27.39729635533331 10
endloop
endfacet
facet normal 1 0 0
outer loop
vertex 34.05 -10 0
vertex 34.05 27.39729635533331 10
vertex 34.05 27.05000000000109 10
endloop
endfacet
facet normal 1 0 0
outer loop
vertex 34.05 -10 0
vertex 34.05 27.05000000000109 10
vertex 34.05 -8.000000000000576 10
endloop
endfacet
facet normal 1 0 0
outer loop
vertex 34.05 -10 0
vertex 34.05 -8.000000000000576 10
vertex 34.05 -8.34729635533369 10
endloop
endfacet
facet normal 1 0 0
outer loop
vertex 34.05 -10 0
vertex 34.05 -8.34729635533369 10
vertex 34.05 -8.684040286651632 10
endloop
endfacet
facet normal 1 0 0
outer loop
vertex 34.05 -10 0
vertex 34.05 -8.684040286651632 10
vertex 34.05 -8.999999999999659 10
endloop
endfacet
facet normal 1 0 0
outer loop
vertex 34.05 -10 0
vertex 34.05 -8.999999999999659 10
vertex 34.05 -9.285575219373284 10
endloop
endfacet
facet normal 1 0 0
outer loop
vertex 34.05 -10 0
vertex 34.05 -9.285575219373284 10
vertex 34.05 -9.532088886237847 10
endloop
endfacet
facet normal 1 0 0
outer loop
vertex 34.05 -10 0
vertex 34.05 -9.532088886237847 10
vertex 34.05 -9.732050807569033 10
endloop
endfacet
facet normal 1 0 0
outer loop
vertex 34.05 -10 0
vertex 34.05 -9.732050807569033 10
vertex 34.05 -9.879385241571875 10
endloop
endfacet
facet normal 1 0 0
outer loop
vertex 34.05 -10 0
vertex 34.05 -9.879385241571875 10
vertex 34.05 -9.969615506024457 10
endloop
endfacet
facet normal 1 0 0
outer loop
vertex 34.05 -10 0
vertex 34.05 -9.969615506024457 10
vertex 34.05 -10 10
endloop
endfacet
facet normal 1 0 0
outer loop
vertex 34.05 -10 0
vertex 34.05 -10 10
vertex 34.05000000000003 -12.000000000000004 10.000000000000004
endloop
endfacet
facet normal 1 0 0
outer loop
vertex 34.05 -10 0
vertex 34.05000000000003 -12.000000000000004 10.000000000000004
vertex 34.05000000000003 -12.000000000000004 0
endloop
endfacet
facet normal 0.9961946980917447 0.08715574274766877 0
outer loop
vertex 34.004423259036464 31.57094453300078 10
vertex 34.05 31.05 10
vertex 34.05 31.05 0
endloop
endfacet
facet normal 0.9961946980917447 0.08715574274766877 0
outer loop
vertex 34.004423259036464 31.57094453300078 10
vertex 34.05 31.05 0
vertex 34.004423259036464 31.57094453300078 0
endloop
endfacet
facet normal 0.9659258262890704 0.2588190451025125 0
outer loop
vertex 33.869077862357905 32.076060429977055 10
vertex 34.004423259036464 31.57094453300078 10
vertex 34.004423259036464 31.57094453300078 0
endloop
endfacet
facet normal 0.9659258262890704 0.2588190451025125 0
outer loop
vertex 33.869077862357905 32.076060429977055 10
vertex 34.004423259036464 31.57094453300078 0
vertex 33.869077862357905 32.076060429977055 0
endloop
endfacet
facet normal 0.9063077870366524 0.4226182617406946 0
outer loop
vertex 33.64807621135345 32.550000000000054 10
vertex 33.869077862357905 32.076060429977055 10
vertex 33.869077862357905 32.076060429977055 0
endloop
endfacet
facet normal 0.9063077870366524 0.4226182617406946 0
outer loop
vertex 33.64807621135345 32.550000000000054 10
vertex 33.869077862357905 32.076060429977055 0
vertex 33.64807621135345 32.550000000000054 0
endloop
endfacet
facet normal 0.8191520442889911 0.573576436351047 0
outer loop
vertex 33.34813332935691 32.9783628290596 10
vertex 33.64807621135345 32.550000000000054 10
vertex 33.64807621135345 32.550000000000054 0
endloop
endfacet
facet normal 0.8191520442889911 0.573576436351047 0
outer loop
vertex 33.34813332935691 32.9783628290596 10
vertex 33.64807621135345 32.550000000000054 0
vertex 33.34813332935691 32.9783628290596 0
endloop
endfacet
facet normal 0.7071067811865404 0.7071067811865546 0
outer loop
vertex 32.97836282905955 33.34813332935687 10
vertex 33.34813332935691 32.9783628290596 10
vertex 33.34813332935691 32.9783628290596 0
endloop
endfacet
facet normal 0.7071067811865404 0.7071067811865546 0
outer loop
vertex 32.97836282905955 33.34813332935687 10
vertex 33.34813332935691 32.9783628290596 0
vertex 32.97836282905955 33.34813332935687 0
endloop
endfacet
facet normal 0.573576436351047 0.8191520442889911 0
outer loop
vertex 32.54999999999998 33.64807621135329 10
vertex 32.97836282905955 33.34813332935687 10
vertex 32.97836282905955 33.34813332935687 0
endloop
endfacet
facet normal 0.573576436351047 0.8191520442889911 0
outer loop
vertex 32.54999999999998 33.64807621135329 10
vertex 32.97836282905955 33.34813332935687 0
vertex 32.54999999999998 33.64807621135329 0
endloop
endfacet
facet normal 0.4226182617406946 0.9063077870366524 0
outer loop
vertex 32.07606042997706 33.869077862357855 10
vertex 32.54999999999998 33.64807621135329 10
vertex 32.54999999999998 33.64807621135329 0
endloop
endfacet
facet normal 0.4226182617406946 0.9063077870366524 0
outer loop
vertex 32.07606042997706 33.869077862357855 10
vertex 32.54999999999998 33.64807621135329 0
vertex 32.07606042997706 33.869077862357855 0
endloop
endfacet
facet normal 0.2588190451025271 0.9659258262890666 0
outer loop
vertex 31.57094453300078 34.0044232590366 10.000000000000004
vertex 32.07606042997706 33.869077862357855 10
vertex 32.07606042997706 33.869077862357855 0
endloop
endfacet
facet normal 0.2588190451025271 0.9659258262890666 0
outer loop
vertex 31.57094453300078 34.0044232590366 10.000000000000004
vertex 32.07606042997706 33.869077862357855 0
vertex 31.57094453300078 34.0044232590366 0
endloop
endfacet
facet normal 0.08715574274766165 0.9961946980917453 0
outer loop
vertex 31.050000000000004 34.050000000000004 10.000000000000004
vertex 31.57094453300078 34.0044232590366 10.000000000000004
vertex 31.57094453300078 34.0044232590366 0
endloop
endfacet
facet normal 0.08715574274766165 0.9961946980917453 0
outer loop
vertex 31.050000000000004 34.050000000000004 10.000000000000004
vertex 31.57094453300078 34.0044232590366 0
vertex 31.050000000000004 34.050000000000004 0
endloop
endfacet
facet normal 0 1 0
outer loop
vertex 31.050000000000004 34.050000000000004 10.000000000000004
vertex 31.050000000000004 34.050000000000004 0
vertex -12 34.05 0
endloop
endfacet
facet normal 0 1 0
outer loop
vertex 31.050000000000004 34.050000000000004 10.000000000000004
vertex -12 34.05 0
vertex -12 34.05 10
endloop
endfacet
facet normal -0.08715574274766169 0.9961946980917453 0
outer loop
vertex -12.520944533000796 34.00442325903666 10.000000000000004
vertex -12 34.05 10
vertex -12 34.05 0
endloop
endfacet
facet normal -0.08715574274766169 0.9961946980917453 0
outer loop
vertex -12.520944533000796 34.00442325903666 10.000000000000004
vertex -12 34.05 0
vertex -12.520944533000796 34.00442325903666 0
endloop
endfacet
facet normal -0.2588190451025271 0.9659258262890666 0
outer loop
vertex -13.026060429976999 33.86907786235768 10.000000000000004
vertex -12.520944533000796 34.00442325903666 10.000000000000004
vertex -12.520944533000796 34.00442325903666 0
endloop
endfacet
facet normal -0.2588190451025271 0.9659258262890666 0
outer loop
vertex -13.026060429976999 33.86907786235768 10.000000000000004
vertex -12.520944533000796 34.00442325903666 0
vertex -13.026060429976999 33.86907786235768 0
endloop
endfacet
facet normal -0.4226182617406946 0.9063077870366524 0
outer loop
vertex -13.500000000000052 33.64807621135342 10
vertex -13.026060429976999 33.86907786235768 10.000000000000004
vertex -13.026060429976999 33.86907786235768 0
endloop
endfacet
facet normal -0.4226182617406946 0.9063077870366524 0
outer loop
vertex -13.500000000000052 33.64807621135342 10
vertex -13.026060429976999 33.86907786235768 0
vertex -13.500000000000052 33.64807621135342 0
endloop
endfacet
facet normal -0.5735764363510406 0.8191520442889957 0
outer loop
vertex -13.928362829059662 33.348133329357 10
vertex -13.500000000000052 33.64807621135342 10
vertex -13.500000000000052 33.64807621135342 0
endloop
endfacet
facet normal -0.5735764363510406 0.8191520442889957 0
outer loop
vertex -13.928362829059662 33.348133329357 10
vertex -13.500000000000052 33.64807621135342 0
vertex -13.928362829059662 33.348133329357 0
endloop
endfacet
facet normal -0.7071067811865547 0.7071067811865405 0
outer loop
vertex -14.298133329356949 32.978362829059634 10
vertex -13.928362829059662 33.348133329357 10
vertex -13.928362829059662 33.348133329357 0
endloop
endfacet
facet normal -0.7071067811865547 0.7071067811865405 0
outer loop
vertex -14.298133329356949 32.978362829059634 10
vertex -13.928362829059662 33.348133329357 0
vertex -14.298133329356949 32.978362829059634 0
endloop
endfacet
facet normal -0.8191520442889911 0.573576436351047 0
outer loop
vertex -14.598076211353366 32.550000000000026 10
vertex -14.298133329356949 32.978362829059634 10
vertex -14.298133329356949 32.978362829059634 0
endloop
endfacet
facet normal -0.8191520442889911 0.573576436351047 0
outer loop
vertex -14.598076211353366 32.550000000000026 10
vertex -14.298133329356949 32.978362829059634 0
vertex -14.598076211353366 32.550000000000026 0
endloop
endfacet
facet normal -0.9063077870366489 0.4226182617407019 0
outer loop
vertex -14.819077862357778 32.07606042997704 10.000000000000004
vertex -14.598076211353366 32.550000000000026 10
vertex -14.598076211353366 32.550000000000026 0
endloop
endfacet
facet normal -0.9063077870366489 0.4226182617407019 0
outer loop
vertex -14.819077862357778 32.07606042997704 10.000000000000004
vertex -14.598076211353366 32.550000000000026 0
vertex -14.819077862357778 32.07606042997704 0
endloop
endfacet
facet normal -0.9659258262890685 0.2588190451025198 0
outer loop
vertex -14.954423259036659 31.570944533000798 10
vertex -14.819077862357778 32.07606042997704 10.000000000000004
vertex -14.819077862357778 32.07606042997704 0
endloop
endfacet
facet normal -0.9659258262890685 0.2588190451025198 0
outer loop
vertex -14.954423259036659 31.570944533000798 10
vertex -14.819077862357778 32.07606042997704 0
vertex -14.954423259036659 31.570944533000798 0
endloop
endfacet
facet normal -0.9961946980917455 0.08715574274765815 0
outer loop
vertex -15 31.049999999999997 10
vertex -14.954423259036659 31.570944533000798 10
vertex -14.954423259036659 31.570944533000798 0
endloop
endfacet
facet normal -0.9961946980917455 0.08715574274765815 0
outer loop
vertex -15 31.049999999999997 10
vertex -14.954423259036659 31.570944533000798 0
vertex -15 31.049999999999997 0
endloop
endfacet
facet normal 1 0 0
outer loop
vertex -10 27.05 0
vertex -10 27.05 10
vertex -10 -8 10
endloop
endfacet
facet normal 1 0 0
outer loop
vertex -10 27.05 0
vertex -10 -8 10
vertex -10 -8 0
endloop
endfacet
facet normal 0.9961946980917459 0.08715574274765459 0
outer loop
vertex -10 -8 10
vertex -9.969615506024471 -8.347296355333865 10
vertex -9.969615506024471 -8.347296355333865 0
endloop
endfacet
facet normal 0.9961946980917459 0.08715574274765459 0
outer loop
vertex -10 -8 10
vertex -9.969615506024471 -8.347296355333865 0
vertex -10 -8 0
endloop
endfacet
facet normal 0.9659258262890695 0.2588190451025163 0
outer loop
vertex -9.969615506024471 -8.347296355333865 10
vertex -9.879385241571843 -8.684040286651342 10
vertex -9.879385241571843 -8.684040286651342 0
endloop
endfacet
facet normal 0.9659258262890695 0.2588190451025163 0
outer loop
vertex -9.969615506024471 -8.347296355333865 10
vertex -9.879385241571843 -8.684040286651342 0
vertex -9.969615506024471 -8.347296355333865 0
endloop
endfacet
facet normal 0.9063077870366524 0.4226182617406946 0
outer loop
vertex -9.879385241571843 -8.684040286651342 10
vertex -9.732050807568951 -9.000000000000032 10
vertex -9.732050807568951 -9.000000000000032 0
endloop
endfacet
facet normal 0.9063077870366524 0.4226182617406946 0
outer loop
vertex -9.879385241571843 -8.684040286651342 10
vertex -9.732050807568951 -9.000000000000032 0
vertex -9.879385241571843 -8.684040286651342 0
endloop
endfacet
facet normal 0.8191520442889911 0.573576436351047 0
outer loop
vertex -9.732050807568951 -9.000000000000032 10
vertex -9.532088886237958 -9.285575219373081 10
vertex -9.532088886237958 -9.285575219373081 0
endloop
endfacet
facet normal 0.8191520442889911 0.573576436351047 0
outer loop
vertex -9.732050807568951 -9.000000000000032 10
vertex -9.532088886237958 -9.285575219373081 0
vertex -9.732050807568951 -9.000000000000032 0
endloop
endfacet
facet normal 0.7071067811865476 0.7071067811865476 0
outer loop
vertex -9.532088886237958 -9.285575219373081 10
vertex -9.285575219373115 -9.53208888623799 10.000000000000004
vertex -9.285575219373115 -9.53208888623799 0
endloop
endfacet
facet normal 0.7071067811865476 0.7071067811865476 0
outer loop
vertex -9.532088886237958 -9.285575219373081 10
vertex -9.285575219373115 -9.53208888623799 0
vertex -9.532088886237958 -9.285575219373081 0
endloop
endfacet
facet normal 0.5735764363510467 0.8191520442889916 0
outer loop
vertex -9.285575219373115 -9.53208888623799 10.000000000000004
vertex -9.000000000000009 -9.732050807568893 10.000000000000004
vertex -9.000000000000009 -9.732050807568893 0
endloop
endfacet
facet normal 0.5735764363510467 0.8191520442889916 0
outer loop
vertex -9.285575219373115 -9.53208888623799 10.000000000000004
vertex -9.000000000000009 -9.732050807568893 0
vertex -9.285575219373115 -9.53208888623799 0
endloop
endfacet
facet normal 0.4226182617407019 0.9063077870366489 0
outer loop
vertex -9.000000000000009 -9.732050807568893 10.000000000000004
vertex -8.684040286651364 -9.87938524157187 10.000000000000004
vertex -8.684040286651364 -9.87938524157187 0
endloop
endfacet
facet normal 0.4226182617407019 0.9063077870366489 0
outer loop
vertex -9.000000000000009 -9.732050807568893 10.000000000000004
vertex -8.684040286651364 -9.87938524157187 0
vertex -9.000000000000009 -9.732050807568893 0
endloop
endfacet
facet normal 0.25881904510251275 0.9659258262890705 0
outer loop
vertex -8.684040286651364 -9.87938524157187 10.000000000000004
vertex -8.347296355333876 -9.969615506024471 10.000000000000004
vertex -8.347296355333876 -9.969615506024471 0
endloop
endfacet
facet normal 0.25881904510251275 0.9659258262890705 0
outer loop
vertex -8.684040286651364 -9.87938524157187 10.000000000000004
vertex -8.347296355333876 -9.969615506024471 0
vertex -8.684040286651364 -9.87938524157187 0
endloop
endfacet
facet normal 0.08715574274765459 0.996194698091746 0
outer loop
vertex -8.347296355333876 -9.969615506024471 10.000000000000004
vertex -8.000000000000005 -10.000000000000046 10.000000000000004
vertex -8.000000000000005 -10.000000000000046 0
endloop
endfacet
facet normal 0.08715574274765459 0.996194698091746 0
outer loop
vertex -8.347296355333876 -9.969615506024471 10.000000000000004
vertex -8.000000000000005 -10.000000000000046 0
vertex -8.347296355333876 -9.969615506024471 0
endloop
endfacet
facet normal 0 1 0
outer loop
vertex 27.05 -10 10
vertex 27.05 -10 0
vertex -8.000000000000005 -10.000000000000046 0
endloop
endfacet
facet normal 0 1 0
outer loop
vertex 27.05 -10 10
vertex -8.000000000000005 -10.000000000000046 0
vertex -8.000000000000005 -10.000000000000046 10.000000000000004
endloop
endfacet
facet normal -0.08715574274766169 0.9961946980917453 0
outer loop
vertex 27.05 -10 10
vertex 27.39729635533386 -9.969615506024358 10.000000000000004
vertex 27.39729635533386 -9.969615506024358 0
endloop
endfacet
facet normal -0.08715574274766169 0.9961946980917453 0
outer loop
vertex 27.05 -10 10
vertex 27.39729635533386 -9.969615506024358 0
vertex 27.05 -10 0
endloop
endfacet
facet normal -0.25881904510252335 0.9659258262890675 0
outer loop
vertex 27.39729635533386 -9.969615506024358 10.000000000000004
vertex 27.734040286651332 -9.879385241571777 10
vertex 27.734040286651332 -9.879385241571777 0
endloop
endfacet
facet normal -0.25881904510252335 0.9659258262890675 0
outer loop
vertex 27.39729635533386 -9.969615506024358 10.000000000000004
vertex 27.734040286651332 -9.879385241571777 0
vertex 27.39729635533386 -9.969615506024358 0
endloop
endfacet
facet normal -0.4226182617406982 0.9063077870366506 0
outer loop
vertex 27.734040286651332 -9.879385241571777 10
vertex 28.05000000000002 -9.732050807568912 10.000000000000004
vertex 28.05000000000002 -9.732050807568912 0
endloop
endfacet
facet normal -0.4226182617406982 0.9063077870366506 0
outer loop
vertex 27.734040286651332 -9.879385241571777 10
vertex 28.05000000000002 -9.732050807568912 0
vertex 27.734040286651332 -9.879385241571777 0
endloop
endfacet
facet normal -0.573576436351043 0.819152044288994 0
outer loop
vertex 28.05000000000002 -9.732050807568912 10.000000000000004
vertex 28.33557521937312 -9.532088886238 10
vertex 28.33557521937312 -9.532088886238 0
endloop
endfacet
facet normal -0.573576436351043 0.819152044288994 0
outer loop
vertex 28.05000000000002 -9.732050807568912 10.000000000000004
vertex 28.33557521937312 -9.532088886238 0
vertex 28.05000000000002 -9.732050807568912 0
endloop
endfacet
facet normal -0.7071067811865457 0.7071067811865492 0
outer loop
vertex 28.33557521937312 -9.532088886238 10
vertex 28.582088886237905 -9.285575219373026 10
vertex 28.582088886237905 -9.285575219373026 0
endloop
endfacet
facet normal -0.7071067811865457 0.7071067811865492 0
outer loop
vertex 28.33557521937312 -9.532088886238 10
vertex 28.582088886237905 -9.285575219373026 0
vertex 28.33557521937312 -9.532088886238 0
endloop
endfacet
facet normal -0.819152044288994 0.573576436351043 0
outer loop
vertex 28.582088886237905 -9.285575219373026 10
vertex 28.782050807568908 -9.00000000000002 10
vertex 28.782050807568908 -9.00000000000002 0
endloop
endfacet
facet normal -0.819152044288994 0.573576436351043 0
outer loop
vertex 28.582088886237905 -9.285575219373026 10
vertex 28.782050807568908 -9.00000000000002 0
vertex 28.582088886237905 -9.285575219373026 0
endloop
endfacet
facet normal -0.9063077870366524 0.4226182617406946 0
outer loop
vertex 28.782050807568908 -9.00000000000002 10
vertex 28.9293852415719 -8.684040286651374 10
vertex 28.9293852415719 -8.684040286651374 0
endloop
endfacet
facet normal -0.9063077870366524 0.4226182617406946 0
outer loop
vertex 28.782050807568908 -9.00000000000002 10
vertex 28.9293852415719 -8.684040286651374 0
vertex 28.782050807568908 -9.00000000000002 0
endloop
endfacet
facet normal -0.9659258262890713 0.2588190451025092 0
outer loop
vertex 28.9293852415719 -8.684040286651374 10
vertex 29.01961550602449 -8.347296355333878 10
vertex 29.01961550602449 -8.347296355333878 0
endloop
endfacet
facet normal -0.9659258262890713 0.2588190451025092 0
outer loop
vertex 28.9293852415719 -8.684040286651374 10
vertex 29.01961550602449 -8.347296355333878 0
vertex 28.9293852415719 -8.684040286651374 0
endloop
endfacet
facet normal -0.9961946980917453 0.08715574274766169 0
outer loop
vertex 29.01961550602449 -8.347296355333878 10
vertex 29.05000000000008 -8.000000000000007 10.000000000000004
vertex 29.05000000000008 -8.000000000000007 0
endloop
endfacet
facet normal -0.9961946980917453 0.08715574274766169 0
outer loop
vertex 29.01961550602449 -8.347296355333878 10
vertex 29.05000000000008 -8.000000000000007 0
vertex 29.01961550602449 -8.347296355333878 0
endloop
endfacet
facet normal -1 0 0
outer loop
vertex 29.05 27.05 10
vertex 29.05 27.05 0
vertex 29.05000000000008 -8.000000000000007 0
endloop
endfacet
facet normal -1 0 0
outer loop
vertex 29.05 27.05 10
vertex 29.05000000000008 -8.000000000000007 0
vertex 29.05000000000008 -8.000000000000007 10.000000000000004
endloop
endfacet
facet normal -0.9961946980917453 -0.08715574274766169 0
outer loop
vertex 29.05 27.05 10
vertex 29.019615506024515 27.397296355333875 10.000000000000004
vertex 29.019615506024515 27.397296355333875 0
endloop
endfacet
facet normal -0.9961946980917453 -0.08715574274766169 0
outer loop
vertex 29.05 27.05 10
vertex 29.019615506024515 27.397296355333875 0
vertex 29.05 27.05 0
endloop
endfacet
facet normal -0.9659258262890704 -0.25881904510251297 0
outer loop
vertex 29.019615506024515 27.397296355333875 10.000000000000004
vertex 28.929385241571815 27.734040286651336 10
vertex 28.929385241571815 27.734040286651336 0
endloop
endfacet
facet normal -0.9659258262890704 -0.25881904510251297 0
outer loop
vertex 29.019615506024515 27.397296355333875 10.000000000000004
vertex 28.929385241571815 27.734040286651336 0
vertex 29.019615506024515 27.397296355333875 0
endloop
endfacet
facet normal -0.9063077870366519 -0.4226182617406953 0
outer loop
vertex 28.929385241571815 27.734040286651336 10
vertex 28.782050807568968 28.05000000000004 10
vertex 28.782050807568968 28.05000000000004 0
endloop
endfacet
facet normal -0.9063077870366519 -0.4226182617406953 0
outer loop
vertex 28.929385241571815 27.734040286651336 10
vertex 28.782050807568968 28.05000000000004 0
vertex 28.929385241571815 27.734040286651336 0
endloop
endfacet
facet normal -0.8191520442889911 -0.573576436351047 0
outer loop
vertex 28.782050807568968 28.05000000000004 10
vertex 28.582088886237955 28.335575219373077 10
vertex 28.582088886237955 28.335575219373077 0
endloop
endfacet
facet normal -0.8191520442889911 -0.573576436351047 0
outer loop
vertex 28.782050807568968 28.05000000000004 10
vertex 28.582088886237955 28.335575219373077 0
vertex 28.782050807568968 28.05000000000004 0
endloop
endfacet
facet normal -0.7071067811865475 -0.7071067811865475 0
outer loop
vertex 28.582088886237955 28.335575219373077 10
vertex 28.335575219373034 28.582088886237912 10
vertex 28.335575219373034 28.582088886237912 0
endloop
endfacet
facet normal -0.7071067811865475 -0.7071067811865475 0
outer loop
vertex 28.582088886237955 28.335575219373077 10
vertex 28.335575219373034 28.582088886237912 0
vertex 28.582088886237955 28.335575219373077 0
endloop
endfacet
facet normal -0.573576436351043 -0.819152044288994 0
outer loop
vertex 28.335575219373034 28.582088886237912 10
vertex 28.05000000000004 28.782050807568933 10
vertex 28.05000000000004 28.782050807568933 0
endloop
endfacet
facet normal -0.573576436351043 -0.819152044288994 0
outer loop
vertex 28.335575219373034 28.582088886237912 10
vertex 28.05000000000004 28.782050807568933 0
vertex 28.335575219373034 28.582088886237912 0
endloop
endfacet
facet normal -0.42261826174070904 -0.9063077870366456 0
outer loop
vertex 28.05000000000004 28.782050807568933 10
vertex 27.734040286651325 28.929385241571786 10.000000000000004
vertex 27.734040286651325 28.929385241571786 0
endloop
endfacet
facet normal -0.42261826174070904 -0.9063077870366456 0
outer loop
vertex 28.05000000000004 28.782050807568933 10
vertex 27.734040286651325 28.929385241571786 0
vertex 28.05000000000004 28.782050807568933 0
endloop
endfacet
facet normal -0.2588190451025125 -0.9659258262890704 0
outer loop
vertex 27.734040286651325 28.929385241571786 10.000000000000004
vertex 27.397296355333875 29.019615506024472 10
vertex 27.397296355333875 29.019615506024472 0
endloop
endfacet
facet normal -0.2588190451025125 -0.9659258262890704 0
outer loop
vertex 27.734040286651325 28.929385241571786 10.000000000000004
vertex 27.397296355333875 29.019615506024472 0
vertex 27.734040286651325 28.929385241571786 0
endloop
endfacet
facet normal -0.08715574274766169 -0.9961946980917453 0
outer loop
vertex 27.397296355333875 29.019615506024472 10
vertex 27.050000000000015 29.050000000000104 10.000000000000004
vertex 27.050000000000015 29.050000000000104 0
endloop
endfacet
facet normal -0.08715574274766169 -0.9961946980917453 0
outer loop
vertex 27.397296355333875 29.019615506024472 10
vertex 27.050000000000015 29.050000000000104 0
vertex 27.397296355333875 29.019615506024472 0
endloop
endfacet
facet normal 0 -1 0
outer loop
vertex 27.050000000000015 29.050000000000104 0
vertex 27.050000000000015 29.050000000000104 10.000000000000004
vertex -8 29.05 10
endloop
endfacet
facet normal 0 -1 0
outer loop
vertex 27.050000000000015 29.050000000000104 0
vertex -8 29.05 10
vertex -8 29.05 0
endloop
endfacet
facet normal 0.08715574274766169 -0.9961946980917453 0
outer loop
vertex -8 29.05 10
vertex -8.347296355333867 29.01961550602448 10.000000000000004
vertex -8.347296355333867 29.01961550602448 0
endloop
endfacet
facet normal 0.08715574274766169 -0.9961946980917453 0
outer loop
vertex -8 29.05 10
vertex -8.347296355333867 29.01961550602448 0
vertex -8 29.05 0
endloop
endfacet
facet normal 0.25881904510251275 -0.9659258262890704 0
outer loop
vertex -8.347296355333867 29.01961550602448 10.000000000000004
vertex -8.684040286651346 28.929385241571843 10
vertex -8.684040286651346 28.929385241571843 0
endloop
endfacet
facet normal 0.25881904510251275 -0.9659258262890704 0
outer loop
vertex -8.347296355333867 29.01961550602448 10.000000000000004
vertex -8.684040286651346 28.929385241571843 0
vertex -8.347296355333867 29.01961550602448 0
endloop
endfacet
facet normal 0.4226182617406946 -0.9063077870366522 0
outer loop
vertex -8.684040286651346 28.929385241571843 10
vertex -9.000000000000002 28.782050807568886 10
vertex -9.000000000000002 28.782050807568886 0
endloop
endfacet
facet normal 0.4226182617406946 -0.9063077870366522 0
outer loop
vertex -8.684040286651346 28.929385241571843 10
vertex -9.000000000000002 28.782050807568886 0
vertex -8.684040286651346 28.929385241571843 0
endloop
endfacet
facet normal 0.5735764363510438 -0.8191520442889935 0
outer loop
vertex -9.000000000000002 28.782050807568886 10
vertex -9.285575219373102 28.582088886237994 10
vertex -9.285575219373102 28.582088886237994 0
endloop
endfacet
facet normal 0.5735764363510438 -0.8191520442889935 0
outer loop
vertex -9.000000000000002 28.782050807568886 10
vertex -9.285575219373102 28.582088886237994 0
vertex -9.000000000000002 28.782050807568886 0
endloop
endfacet
facet normal 0.7071067811865492 -0.7071067811865457 0
outer loop
vertex -9.285575219373102 28.582088886237994 10
vertex -9.532088886237903 28.335575219373027 10
vertex -9.532088886237903 28.335575219373027 0
endloop
endfacet
facet normal 0.7071067811865492 -0.7071067811865457 0
outer loop
vertex -9.285575219373102 28.582088886237994 10
vertex -9.532088886237903 28.335575219373027 0
vertex -9.285575219373102 28.582088886237994 0
endloop
endfacet
facet normal 0.819152044288994 -0.573576436351043 0
outer loop
vertex -9.532088886237903 28.335575219373027 10
vertex -9.732050807568944 28.050000000000047 10
vertex -9.732050807568944 28.050000000000047 0
endloop
endfacet
facet normal 0.819152044288994 -0.573576436351043 0
outer loop
vertex -9.532088886237903 28.335575219373027 10
vertex -9.732050807568944 28.050000000000047 0
vertex -9.532088886237903 28.335575219373027 0
endloop
endfacet
facet normal 0.9063077870366506 -0.4226182617406982 0
outer loop
vertex -9.732050807568944 28.050000000000047 10
vertex -9.879385241571837 27.73404028665135 10.000000000000004
vertex -9.879385241571837 27.73404028665135 0
endloop
endfacet
facet normal 0.9063077870366506 -0.4226182617406982 0
outer loop
vertex -9.732050807568944 28.050000000000047 10
vertex -9.879385241571837 27.73404028665135 0
vertex -9.732050807568944 28.050000000000047 0
endloop
endfacet
facet normal 0.9659258262890685 -0.2588190451025198 0
outer loop
vertex -9.879385241571837 27.73404028665135 10.000000000000004
vertex -9.969615506024503 27.397296355333882 10
vertex -9.969615506024503 27.397296355333882 0
endloop
endfacet
facet normal 0.9659258262890685 -0.2588190451025198 0
outer loop
vertex -9.879385241571837 27.73404028665135 10.000000000000004
vertex -9.969615506024503 27.397296355333882 0
vertex -9.879385241571837 27.73404028665135 0
endloop
endfacet
facet normal 0.9961946980917455 -0.08715574274765814 0
outer loop
vertex -9.969615506024503 27.397296355333882 10
vertex -10 27.05 10
vertex -10 27.05 0
endloop
endfacet
facet normal 0.9961946980917455 -0.08715574274765814 0
outer loop
vertex -9.969615506024503 27.397296355333882 10
vertex -10 27.05 0
vertex -9.969615506024503 27.397296355333882 0
endloop
endfacet
facet normal 0 0 -1
outer loop
vertex 31.050000000000004 34.050000000000004 0
vertex 31.57094453300078 34.0044232590366 0
vertex 32.07606042997706 33.869077862357855 0
endloop
endfacet
facet normal 0 0 -1
outer loop
vertex 31.050000000000004 34.050000000000004 0
vertex 32.07606042997706 33.869077862357855 0
vertex 32.54999999999998 33.64807621135329 0
endloop
endfacet
facet normal 0 0 -1
outer loop
vertex 31.050000000000004 34.050000000000004 0
vertex 32.54999999999998 33.64807621135329 0
vertex 32.97836282905955 33.34813332935687 0
endloop
endfacet
facet normal 0 0 -1
outer loop
vertex 31.050000000000004 34.050000000000004 0
vertex 32.97836282905955 33.34813332935687 0
vertex 33.34813332935691 32.9783628290596 0
endloop
endfacet
facet normal 0 0 -1
outer loop
vertex 31.050000000000004 34.050000000000004 0
vertex 33.34813332935691 32.9783628290596 0
vertex 33.64807621135345 32.550000000000054 0
endloop
endfacet
facet normal 0 0 -1
outer loop
vertex 31.050000000000004 34.050000000000004 0
vertex 33.64807621135345 32.550000000000054 0
vertex 33.869077862357905 32.076060429977055 0
endloop
endfacet
facet normal 0 0 -1
outer loop
vertex 31.050000000000004 34.050000000000004 0
vertex 33.869077862357905 32.076060429977055 0
vertex 34.004423259036464 31.57094453300078 0
endloop
endfacet
facet normal 0 0 -1
outer loop
vertex 31.050000000000004 34.050000000000004 0
vertex 34.004423259036464 31.57094453300078 0
vertex 34.05 31.05 0
endloop
endfacet
facet normal 0 0 -1
outer loop
vertex 31.050000000000004 34.050000000000004 0
vertex 34.05 31.05 0
vertex 34.05 29.05 0
endloop
endfacet
facet normal 0 0 -1
outer loop
vertex 31.050000000000004 34.050000000000004 0
vertex 34.05 29.05 0
vertex 27.050000000000015 29.050000000000104 0
endloop
endfacet
facet normal 0 0 -1
outer loop
vertex 31.050000000000004 34.050000000000004 0
vertex 27.050000000000015 29.050000000000104 0
vertex -8 29.05 0
endloop
endfacet
facet normal 0 0 -1
outer loop
vertex 31.050000000000004 34.050000000000004 0
vertex -8 29.05 0
vertex -15 29.05 0
endloop
endfacet
facet normal 0 0 -1
outer loop
vertex 31.050000000000004 34.050000000000004 0
vertex -15 29.05 0
vertex -15 31.049999999999997 0
endloop
endfacet
facet normal 0 0 -1
outer loop
vertex 31.050000000000004 34.050000000000004 0
vertex -15 31.049999999999997 0
vertex -14.954423259036659 31.570944533000798 0
endloop
endfacet
facet normal 0 0 -1
outer loop
vertex 31.050000000000004 34.050000000000004 0
vertex -14.954423259036659 31.570944533000798 0
vertex -14.819077862357778 32.07606042997704 0
endloop
endfacet
facet normal 0 0 -1
outer loop
vertex 31.050000000000004 34.050000000000004 0
vertex -14.819077862357778 32.07606042997704 0
vertex -14.598076211353366 32.550000000000026 0
endloop
endfacet
facet normal 0 0 -1
outer loop
vertex 31.050000000000004 34.050000000000004 0
vertex -14.598076211353366 32.550000000000026 0
vertex -14.298133329356949 32.978362829059634 0
endloop
endfacet
facet normal 0 0 -1
outer loop
vertex 31.050000000000004 34.050000000000004 0
vertex -14.298133329356949 32.978362829059634 0
vertex -13.928362829059662 33.348133329357 0
endloop
endfacet
facet normal 0 0 -1
outer loop
vertex 31.050000000000004 34.050000000000004 0
vertex -13.928362829059662 33.348133329357 0
vertex -13.500000000000052 33.64807621135342 0
endloop
endfacet
facet normal 0 0 -1
outer loop
vertex 31.050000000000004 34.050000000000004 0
vertex -13.500000000000052 33.64807621135342 0
vertex -13.026060429976999 33.86907786235768 0
endloop
endfacet
facet normal 0 0 -1
outer loop
vertex 31.050000000000004 34.050000000000004 0
vertex -13.026060429976999 33.86907786235768 0
vertex -12.520944533000796 34.00442325903666 0
endloop
endfacet
facet normal 0 0 -1
outer loop
vertex 31.050000000000004 34.050000000000004 0
vertex -12.520944533000796 34.00442325903666 0
vertex -12 34.05 0
endloop
endfacet
facet normal 0 0 -1
outer loop
vertex -8 29.05 0
vertex -8.347296355333867 29.01961550602448 0
vertex -15 29.019615506024532 0
endloop
endfacet
facet normal 0 0 -1
outer loop
vertex -8 29.05 0
vertex -15 29.019615506024532 0
vertex -15 29.05 0
endloop
endfacet
facet normal 0 0 -1
outer loop
vertex 34.05 29.05 0
vertex 34.05 29.019615506024532 0
vertex 27.397296355333875 29.019615506024472 0
endloop
endfacet
facet normal 0 0 -1
outer loop
vertex 34.05 29.05 0
vertex 27.397296355333875 29.019615506024472 0
vertex 27.050000000000015 29.050000000000104 0
endloop
endfacet
facet normal 0 0 -1
outer loop
vertex -8.347296355333867 29.01961550602448 0
vertex -8.684040286651346 28.929385241571843 0
vertex -15 28.929385241572028 0
endloop
endfacet
facet normal 0 0 -1
outer loop
vertex -8.347296355333867 29.01961550602448 0
vertex -15 28.929385241572028 0
vertex -15 29.019615506024532 0
endloop
endfacet
facet normal 0 0 -1
outer loop
vertex 34.05 29.019615506024532 0
vertex 34.05 28.929385241572028 0
vertex 27.734040286651325 28.929385241571786 0
endloop
endfacet
facet normal 0 0 -1
outer loop
vertex 34.05 29.019615506024532 0
vertex 27.734040286651325 28.929385241571786 0
vertex 27.397296355333875 29.019615506024472 0
endloop
endfacet
facet normal 0 0 -1
outer loop
vertex -8.684040286651346 28.929385241571843 0
vertex -9.000000000000002 28.782050807568886 0
vertex -15 28.782050807568574 0
endloop
endfacet
facet normal 0 0 -1
outer loop
vertex -8.684040286651346 28.929385241571843 0
vertex -15 28.782050807568574 0
vertex -15 28.929385241572028 0
endloop
endfacet
facet normal 0 0 -1
outer loop
vertex 34.05 28.929385241572028 0
vertex 34.05 28.782050807568574 0
vertex 28.05000000000004 28.782050807568933 0
endloop
endfacet
facet normal 0 0 -1
outer loop
vertex 34.05 28.929385241572028 0
vertex 28.05000000000004 28.782050807568933 0
vertex 27.734040286651325 28.929385241571786 0
endloop
endfacet
facet normal 0 0 -1
outer loop
vertex -9.000000000000002 28.782050807568886 0
vertex -9.285575219373102 28.582088886237994 0
vertex -15 28.5820888862384 0
endloop
endfacet
facet normal 0 0 -1
outer loop
vertex -9.000000000000002 28.782050807568886 0
vertex -15 28.5820888862384 0
vertex -15 28.782050807568574 0
endloop
endfacet
facet normal 0 0 -1
outer loop
vertex 34.05 28.782050807568574 0
vertex 34.05 28.5820888862384 0
vertex 28.335575219373034 28.582088886237912 0
endloop
endfacet
facet normal 0 0 -1
outer loop
vertex 34.05 28.782050807568574 0
vertex 28.335575219373034 28.582088886237912 0
vertex 28.05000000000004 28.782050807568933 0
endloop
endfacet
facet normal 0 0 -1
outer loop
vertex -9.285575219373102 28.582088886237994 0
vertex -9.532088886237903 28.335575219373027 0
vertex -15 28.335575219372842 0
endloop
endfacet
facet normal 0 0 -1
outer loop
vertex -9.285575219373102 28.582088886237994 0
vertex -15 28.335575219372842 0
vertex -15 28.5820888862384 0
endloop
endfacet
facet normal 0 0 -1
outer loop
vertex 34.05 28.5820888862384 0
vertex 34.05 28.335575219372842 0
vertex 28.582088886237955 28.335575219373077 0
endloop
endfacet
facet normal 0 0 -1
outer loop
vertex 34.05 28.5820888862384 0
vertex 28.582088886237955 28.335575219373077 0
vertex 28.335575219373034 28.582088886237912 0
endloop
endfacet
facet normal 0 0 -1
outer loop
vertex -9.532088886237903 28.335575219373027 0
vertex -9.732050807568944 28.050000000000047 0
vertex -15 28.04999999999954 0
endloop
endfacet
facet normal 0 0 -1
outer loop
vertex -9.532088886237903 28.335575219373027 0
vertex -15 28.04999999999954 0
vertex -15 28.335575219372842 0
endloop
endfacet
facet normal 0 0 -1
outer loop
vertex 34.05 28.335575219372842 0
vertex 34.05 28.04999999999954 0
vertex 28.782050807568968 28.05000000000004 0
endloop
endfacet
facet normal 0 0 -1
outer loop
vertex 34.05 28.335575219372842 0
vertex 28.782050807568968 28.05000000000004 0
vertex 28.582088886237955 28.335575219373077 0
endloop
endfacet
facet normal 0 0 -1
outer loop
vertex -9.732050807568944 28.050000000000047 0
vertex -9.879385241571837 27.73404028665135 0
vertex -15 27.7340402866519 0
endloop
endfacet
facet normal 0 0 -1
outer loop
vertex -9.732050807568944 28.050000000000047 0
vertex -15 27.7340402866519 0
vertex -15 28.04999999999954 0
endloop
endfacet
facet normal 0 0 -1
outer loop
vertex 34.05 28.04999999999954 0
vertex 34.05 27.7340402866519 0
vertex 28.929385241571815 27.734040286651336 0
endloop
endfacet
facet normal 0 0 -1
outer loop
vertex 34.05 28.04999999999954 0
vertex 28.929385241571815 27.734040286651336 0
vertex 28.782050807568968 28.05000000000004 0
endloop
endfacet
facet normal 0 0 -1
outer loop
vertex -9.879385241571837 27.73404028665135 0
vertex -9.969615506024503 27.397296355333882 0
vertex -15 27.3972963553333 0
endloop
endfacet
facet normal 0 0 -1
outer loop
vertex -9.879385241571837 27.73404028665135 0
vertex -15 27.3972963553333 0
vertex -15 27.7340402866519 0
endloop
endfacet
facet normal 0 0 -1
outer loop
vertex 34.05 27.7340402866519 0
vertex 34.05 27.3972963553333 0
vertex 29.019615506024515 27.397296355333875 0
endloop
endfacet
facet normal 0 0 -1
outer loop
vertex 34.05 27.7340402866519 0
vertex 29.019615506024515 27.397296355333875 0
vertex 28.929385241571815 27.734040286651336 0
endloop
endfacet
facet normal 0 0 -1
outer loop
vertex -9.969615506024503 27.397296355333882 0
vertex -10 27.05 0
vertex -15 27.050000000001063 0
endloop
endfacet
facet normal 0 0 -1
outer loop
vertex -9.969615506024503 27.397296355333882 0
vertex -15 27.050000000001063 0
vertex -15 27.3972963553333 0
endloop
endfacet
facet normal 0 0 -1
outer loop
vertex 34.05 27.3972963553333 0
vertex 34.05 27.050000000001063 0
vertex 29.05 27.05 0
endloop
endfacet
facet normal 0 0 -1
outer loop
vertex 34.05 27.3972963553333 0
vertex 29.05 27.05 0
vertex 29.019615506024515 27.397296355333875 0
endloop
endfacet
facet normal 0 0 -1
outer loop
vertex -10 27.05 0
vertex -10 -8 0
vertex -15 -8.000000000000611 0
endloop
endfacet
facet normal 0 0 -1
outer loop
vertex -10 27.05 0
vertex -15 -8.000000000000611 0
vertex -15 27.050000000001063 0
endloop
endfacet
facet normal 0 0 -1
outer loop
vertex 34.05 27.050000000001063 0
vertex 34.05 -8.000000000000611 0
vertex 29.05000000000008 -8.000000000000007 0
endloop
endfacet
facet normal 0 0 -1
outer loop
vertex 34.05 27.050000000001063 0
vertex 29.05000000000008 -8.000000000000007 0
vertex 29.05 27.05 0
endloop
endfacet
facet normal 0 0 -1
outer loop
vertex -10 -8 0
vertex -9.969615506024471 -8.347296355333865 0
vertex -15 -8.347296355333693 0
endloop
endfacet
facet normal 0 0 -1
outer loop
vertex -10 -8 0
vertex -15 -8.347296355333693 0
vertex -15 -8.000000000000611 0
endloop
endfacet
facet normal 0 0 -1
outer loop
vertex 34.05 -8.000000000000611 0
vertex 34.05 -8.347296355333693 0
vertex 29.01961550602449 -8.347296355333878 0
endloop
endfacet
facet normal 0 0 -1
outer loop
vertex 34.05 -8.000000000000611 0
vertex 29.01961550602449 -8.347296355333878 0
vertex 29.05000000000008 -8.000000000000007 0
endloop
endfacet
facet normal 0 0 -1
outer loop
vertex -9.969615506024471 -8.347296355333865 0
vertex -9.879385241571843 -8.684040286651342 0
vertex -15 -8.68404028665163 0
endloop
endfacet
facet normal 0 0 -1
outer loop
vertex -9.969615506024471 -8.347296355333865 0
vertex -15 -8.68404028665163 0
vertex -15 -8.347296355333693 0
endloop
endfacet
facet normal 0 0 -1
outer loop
vertex 34.05 -8.347296355333693 0
vertex 34.05 -8.68404028665163 0
vertex 28.9293852415719 -8.684040286651374 0
endloop
endfacet
facet normal 0 0 -1
outer loop
vertex 34.05 -8.347296355333693 0
vertex 28.9293852415719 -8.684040286651374 0
vertex 29.01961550602449 -8.347296355333878 0
endloop
endfacet
facet normal 0 0 -1
outer loop
vertex -9.879385241571843 -8.684040286651342 0
vertex -9.732050807568951 -9.000000000000032 0
vertex -15 -8.999999999999645 0
endloop
endfacet
facet normal 0 0 -1
outer loop
vertex -9.879385241571843 -8.684040286651342 0
vertex -15 -8.999999999999645 0
vertex -15 -8.68404028665163 0
endloop
endfacet
facet normal 0 0 -1
outer loop
vertex 34.05 -8.68404028665163 0
vertex 34.05 -8.999999999999645 0
vertex 28.782050807568908 -9.00000000000002 0
endloop
endfacet
facet normal 0 0 -1
outer loop
vertex 34.05 -8.68404028665163 0
vertex 28.782050807568908 -9.00000000000002 0
vertex 28.9293852415719 -8.684040286651374 0
endloop
endfacet
facet normal 0 0 -1
outer loop
vertex -9.732050807568951 -9.000000000000032 0
vertex -9.532088886237958 -9.285575219373081 0
vertex -15 -9.285575219373298 0
endloop
endfacet
facet normal 0 0 -1
outer loop
vertex -9.732050807568951 -9.000000000000032 0
vertex -15 -9.285575219373298 0
vertex -15 -8.999999999999645 0
endloop
endfacet
facet normal 0 0 -1
outer loop
vertex 34.05 -8.999999999999645 0
vertex 34.05 -9.285575219373298 0
vertex 28.582088886237905 -9.285575219373026 0
endloop
endfacet
facet normal 0 0 -1
outer loop
vertex 34.05 -8.999999999999645 0
vertex 28.582088886237905 -9.285575219373026 0
vertex 28.782050807568908 -9.00000000000002 0
endloop
endfacet
facet normal 0 0 -1
outer loop
vertex -9.532088886237958 -9.285575219373081 0
vertex -9.285575219373115 -9.53208888623799 0
vertex -15 -9.532088886237846 0
endloop
endfacet
facet normal 0 0 -1
outer loop
vertex -9.532088886237958 -9.285575219373081 0
vertex -15 -9.532088886237846 0
vertex -15 -9.285575219373298 0
endloop
endfacet
facet normal 0 0 -1
outer loop
vertex 34.05 -9.285575219373298 0
vertex 34.05 -9.532088886237846 0
vertex 28.33557521937312 -9.532088886238 0
endloop
endfacet
facet normal 0 0 -1
outer loop
vertex 34.05 -9.285575219373298 0
vertex 28.33557521937312 -9.532088886238 0
vertex 28.582088886237905 -9.285575219373026 0
endloop
endfacet
facet normal 0 0 -1
outer loop
vertex -9.285575219373115 -9.53208888623799 0
vertex -9.000000000000009 -9.732050807568893 0
vertex -15 -9.73205080756903 0
endloop
endfacet
facet normal 0 0 -1
outer loop
vertex -9.285575219373115 -9.53208888623799 0
vertex -15 -9.73205080756903 0
vertex -15 -9.532088886237846 0
endloop
endfacet
facet normal 0 0 -1
outer loop
vertex 34.05 -9.532088886237846 0
vertex 34.05 -9.73205080756903 0
vertex 28.05000000000002 -9.732050807568912 0
endloop
endfacet
facet normal 0 0 -1
outer loop
vertex 34.05 -9.532088886237846 0
vertex 28.05000000000002 -9.732050807568912 0
vertex 28.33557521937312 -9.532088886238 0
endloop
endfacet
facet normal 0 0 -1
outer loop
vertex -9.000000000000009 -9.732050807568893 0
vertex -8.684040286651364 -9.87938524157187 0
vertex -15 -9.879385241571876 0
endloop
endfacet
facet normal 0 0 -1
outer loop
vertex -9.000000000000009 -9.732050807568893 0
vertex -15 -9.879385241571876 0
vertex -15 -9.73205080756903 0
endloop
endfacet
facet normal 0 0 -1
outer loop
vertex 34.05 -9.73205080756903 0
vertex 34.05 -9.879385241571876 0
vertex 27.734040286651332 -9.879385241571777 0
endloop
endfacet
facet normal 0 0 -1
outer loop
vertex 34.05 -9.73205080756903 0
vertex 27.734040286651332 -9.879385241571777 0
vertex 28.05000000000002 -9.732050807568912 0
endloop
endfacet
facet normal 0 0 -1
outer loop
vertex -8.684040286651364 -9.87938524157187 0
vertex -8.347296355333876 -9.969615506024471 0
vertex -15 -9.969615506024455 0
endloop
endfacet
facet normal 0 0 -1
outer loop
vertex -8.684040286651364 -9.87938524157187 0
vertex -15 -9.969615506024455 0
vertex -15 -9.879385241571876 0
endloop
endfacet
facet normal 0 0 -1
outer loop
vertex 34.05 -9.879385241571876 0
vertex 34.05 -9.969615506024455 0
vertex 27.39729635533386 -9.969615506024358 0
endloop
endfacet
facet normal 0 0 -1
outer loop
vertex 34.05 -9.879385241571876 0
vertex 27.39729635533386 -9.969615506024358 0
vertex 27.734040286651332 -9.879385241571777 0
endloop
endfacet
facet normal 0 0 -1
outer loop
vertex -8.347296355333876 -9.969615506024471 0
vertex -8.000000000000005 -10.000000000000046 0
vertex -15 -10 0
endloop
endfacet
facet normal 0 0 -1
outer loop
vertex -8.347296355333876 -9.969615506024471 0
vertex -15 -10 0
vertex -15 -9.969615506024455 0
endloop
endfacet
facet normal 0 0 -1
outer loop
vertex 34.05 -9.969615506024455 0
vertex 34.05 -10 0
vertex 27.05 -10 0
endloop
endfacet
facet normal 0 0 -1
outer loop
vertex 34.05 -9.969615506024455 0
vertex 27.05 -10 0
vertex 27.39729635533386 -9.969615506024358 0
endloop
endfacet
facet normal 0 0 -1
outer loop
vertex -8.000000000000005 -10.000000000000046 0
vertex 27.05 -10 0
vertex 34.05 -10 0
endloop
endfacet
facet normal 0 0 -1
outer loop
vertex -8.000000000000005 -10.000000000000046 0
vertex 34.05 -10 0
vertex 34.05000000000003 -12.000000000000004 0
endloop
endfacet
facet normal 0 0 -1
outer loop
vertex -8.000000000000005 -10.000000000000046 0
vertex 34.05000000000003 -12.000000000000004 0
vertex 34.004423259036784 -12.520944533000833 0
endloop
endfacet
facet normal 0 0 -1
outer loop
vertex -8.000000000000005 -10.000000000000046 0
vertex 34.004423259036784 -12.520944533000833 0
vertex 33.86907786235783 -13.026060429977056 0
endloop
endfacet
facet normal 0 0 -1
outer loop
vertex -8.000000000000005 -10.000000000000046 0
vertex 33.86907786235783 -13.026060429977056 0
vertex 33.648076211353334 -13.500000000000014 0
endloop
endfacet
facet normal 0 0 -1
outer loop
vertex -8.000000000000005 -10.000000000000046 0
vertex 33.648076211353334 -13.500000000000014 0
vertex 33.34813332935686 -13.92836282905954 0
endloop
endfacet
facet normal 0 0 -1
outer loop
vertex -8.000000000000005 -10.000000000000046 0
vertex 33.34813332935686 -13.92836282905954 0
vertex 32.97836282905966 -14.298133329357013 0
endloop
endfacet
facet normal 0 0 -1
outer loop
vertex -8.000000000000005 -10.000000000000046 0
vertex 32.97836282905966 -14.298133329357013 0
vertex 32.550000000000004 -14.598076211353328 0
endloop
endfacet
facet normal 0 0 -1
outer loop
vertex -8.000000000000005 -10.000000000000046 0
vertex 32.550000000000004 -14.598076211353328 0
vertex 32.076060429977026 -14.81907786235777 0
endloop
endfacet
facet normal 0 0 -1
outer loop
vertex -8.000000000000005 -10.000000000000046 0
vertex 32.076060429977026 -14.81907786235777 0
vertex 31.57094453300079 -14.954423259036629 0
endloop
endfacet
facet normal 0 0 -1
outer loop
vertex -8.000000000000005 -10.000000000000046 0
vertex 31.57094453300079 -14.954423259036629 0
vertex 31.05 -15 0
endloop
endfacet
facet normal 0 0 -1
outer loop
vertex -8.000000000000005 -10.000000000000046 0
vertex 31.05 -15 0
vertex -12.000000000000004 -15.000000000000027 0
endloop
endfacet
facet normal 0 0 -1
outer loop
vertex -8.000000000000005 -10.000000000000046 0
vertex -12.000000000000004 -15.000000000000027 0
vertex -12.520944533000808 -14.954423259036679 0
endloop
endfacet
facet normal 0 0 -1
outer loop
vertex -8.000000000000005 -10.000000000000046 0
vertex -12.520944533000808 -14.954423259036679 0
vertex -13.026060429977015 -14.819077862357732 0
endloop
endfacet
facet normal 0 0 -1
outer loop
vertex -8.000000000000005 -10.000000000000046 0
vertex -13.026060429977015 -14.819077862357732 0
vertex -13.5 -14.598076211353316 0
endloop
endfacet
facet normal 0 0 -1
outer loop
vertex -8.000000000000005 -10.000000000000046 0
vertex -13.5 -14.598076211353316 0
vertex -13.928362829059656 -14.298133329356972 0
endloop
endfacet
facet normal 0 0 -1
outer loop
vertex -8.000000000000005 -10.000000000000046 0
vertex -13.928362829059656 -14.298133329356972 0
vertex -14.298133329356936 -13.928362829059616 0
endloop
endfacet
facet normal 0 0 -1
outer loop
vertex -8.000000000000005 -10.000000000000046 0
vertex -14.298133329356936 -13.928362829059616 0
vertex -14.598076211353309 -13.499999999999996 0
endloop
endfacet
facet normal 0 0 -1
outer loop
vertex -8.000000000000005 -10.000000000000046 0
vertex -14.598076211353309 -13.499999999999996 0
vertex -14.819077862357787 -13.026060429977026 0
endloop
endfacet
facet normal 0 0 -1
outer loop
vertex -8.000000000000005 -10.000000000000046 0
vertex -14.819077862357787 -13.026060429977026 0
vertex -14.954423259036615 -12.52094453300079 0
endloop
endfacet
facet normal 0 0 -1
outer loop
vertex -8.000000000000005 -10.000000000000046 0
vertex -14.954423259036615 -12.52094453300079 0
vertex -15 -12 0
endloop
endfacet
facet normal 0 0 -1
outer loop
vertex -8.000000000000005 -10.000000000000046 0
vertex -15 -12 0
vertex -15 -10 0
endloop
endfacet
facet normal -1.0126023943720121e-14 3.7790835836634994e-14 1
outer loop
vertex 31.05 -15 10
vertex 31.57094453300079 -14.954423259036629 10.000000000000004
vertex 32.076060429977026 -14.81907786235777 10.000000000000004
endloop
endfacet
facet normal -1.0126023943720121e-14 3.7790835836634994e-14 1
outer loop
vertex 31.05 -15 10
vertex 32.076060429977026 -14.81907786235777 10.000000000000004
vertex 32.550000000000004 -14.598076211353328 10.000000000000004
endloop
endfacet
facet normal -1.0126023943720121e-14 3.7790835836634994e-14 1
outer loop
vertex 31.05 -15 10
vertex 32.550000000000004 -14.598076211353328 10.000000000000004
vertex 32.97836282905966 -14.298133329357013 10.000000000000004
endloop
endfacet
facet normal -1.0126023943720121e-14 3.7790835836634994e-14 1
outer loop
vertex 31.05 -15 10
vertex 32.97836282905966 -14.298133329357013 10.000000000000004
vertex 33.34813332935686 -13.92836282905954 10
endloop
endfacet
facet normal -1.0126023943720121e-14 3.7790835836634994e-14 1
outer loop
vertex 31.05 -15 10
vertex 33.34813332935686 -13.92836282905954 10
vertex 33.648076211353334 -13.500000000000014 10
endloop
endfacet
facet normal -1.0126023943720121e-14 3.7790835836634994e-14 1
outer loop
vertex 31.05 -15 10
vertex 33.648076211353334 -13.500000000000014 10
vertex 33.86907786235783 -13.026060429977056 10
endloop
endfacet
facet normal -1.0126023943720121e-14 3.7790835836634994e-14 1
outer loop
vertex 31.05 -15 10
vertex 33.86907786235783 -13.026060429977056 10
vertex 34.004423259036784 -12.520944533000833 10
endloop
endfacet
facet normal -1.0126023943720121e-14 3.7790835836634994e-14 1
outer loop
vertex 31.05 -15 10
vertex 34.004423259036784 -12.520944533000833 10
vertex 34.05000000000003 -12.000000000000004 10.000000000000004
endloop
endfacet
facet normal -1.0126023943720121e-14 3.7790835836634994e-14 1
outer loop
vertex 31.05 -15 10
vertex 34.05000000000003 -12.000000000000004 10.000000000000004
vertex 34.05 -10 10
endloop
endfacet
facet normal -1.0126023943720121e-14 3.7790835836634994e-14 1
outer loop
vertex 31.05 -15 10
vertex 34.05 -10 10
vertex 27.05 -10 10
endloop
endfacet
facet normal -1.0126023943720121e-14 3.7790835836634994e-14 1
outer loop
vertex 31.05 -15 10
vertex 27.05 -10 10
vertex -8.000000000000005 -10.000000000000046 10.000000000000004
endloop
endfacet
facet normal -1.0126023943720121e-14 3.7790835836634994e-14 1
outer loop
vertex 31.05 -15 10
vertex -8.000000000000005 -10.000000000000046 10.000000000000004
vertex -15 -10 10
endloop
endfacet
facet normal -1.0126023943720121e-14 3.7790835836634994e-14 1
outer loop
vertex 31.05 -15 10
vertex -15 -10 10
vertex -15 -12 10
endloop
endfacet
facet normal -1.0126023943720121e-14 3.7790835836634994e-14 1
outer loop
vertex 31.05 -15 10
vertex -15 -12 10
vertex -14.954423259036615 -12.52094453300079 10
endloop
endfacet
facet normal -1.0126023943720121e-14 3.7790835836634994e-14 1
outer loop
vertex 31.05 -15 10
vertex -14.954423259036615 -12.52094453300079 10
vertex -14.819077862357787 -13.026060429977026 10.000000000000004
endloop
endfacet
facet normal -1.0126023943720121e-14 3.7790835836634994e-14 1
outer loop
vertex 31.05 -15 10
vertex -14.819077862357787 -13.026060429977026 10.000000000000004
vertex -14.598076211353309 -13.499999999999996 10
endloop
endfacet
facet normal -1.0126023943720121e-14 3.7790835836634994e-14 1
outer loop
vertex 31.05 -15 10
vertex -14.598076211353309 -13.499999999999996 10
vertex -14.298133329356936 -13.928362829059616 10
endloop
endfacet
facet normal -1.0126023943720121e-14 3.7790835836634994e-14 1
outer loop
vertex 31.05 -15 10
vertex -14.298133329356936 -13.928362829059616 10
vertex -13.928362829059656 -14.298133329356972 10
endloop
endfacet
facet normal -1.0126023943720121e-14 3.7790835836634994e-14 1
outer loop
vertex 31.05 -15 10
vertex -13.928362829059656 -14.298133329356972 10
vertex -13.5 -14.598076211353316 10
endloop
endfacet
facet normal -1.0126023943720121e-14 3.7790835836634994e-14 1
outer loop
vertex 31.05 -15 10
vertex -13.5 -14.598076211353316 10
vertex -13.026060429977015 -14.819077862357732 10.000000000000004
endloop
endfacet
facet normal -1.0126023943720121e-14 3.7790835836634994e-14 1
outer loop
vertex 31.05 -15 10
vertex -13.026060429977015 -14.819077862357732 10.000000000000004
vertex -12.520944533000808 -14.954423259036679 10.000000000000004
endloop
endfacet
facet normal -1.0126023943720121e-14 3.7790835836634994e-14 1
outer loop
vertex 31.05 -15 10
vertex -12.520944533000808 -14.954423259036679 10.000000000000004
vertex -12.000000000000004 -15.000000000000027 10.000000000000004
endloop
endfacet
facet normal 0 0 1
outer loop
vertex -8.000000000000005 -10.000000000000046 10.000000000000004
vertex -8.347296355333876 -9.969615506024471 10.000000000000004
vertex -15 -9.969615506024457 10
endloop
endfacet
facet normal 0 0 1
outer loop
vertex -8.000000000000005 -10.000000000000046 10.000000000000004
vertex -15 -9.969615506024457 10
vertex -15 -10 10
endloop
endfacet
facet normal 0 0 1
outer loop
vertex 34.05 -10 10
vertex 34.05 -9.969615506024457 10
vertex 27.39729635533386 -9.969615506024358 10.000000000000004
endloop
endfacet
facet normal 0 0 1
outer loop
vertex 34.05 -10 10
vertex 27.39729635533386 -9.969615506024358 10.000000000000004
vertex 27.05 -10 10
endloop
endfacet
facet normal 0 0 1
outer loop
vertex -8.347296355333876 -9.969615506024471 10.000000000000004
vertex -8.684040286651364 -9.87938524157187 10.000000000000004
vertex -15 -9.879385241571875 10
endloop
endfacet
facet normal 0 0 1
outer loop
vertex -8.347296355333876 -9.969615506024471 10.000000000000004
vertex -15 -9.879385241571875 10
vertex -15 -9.969615506024457 10
endloop
endfacet
facet normal 0 0 1
outer loop
vertex 34.05 -9.969615506024457 10
vertex 34.05 -9.879385241571875 10
vertex 27.734040286651332 -9.879385241571777 10
endloop
endfacet
facet normal 0 0 1
outer loop
vertex 34.05 -9.969615506024457 10
vertex 27.734040286651332 -9.879385241571777 10
vertex 27.39729635533386 -9.969615506024358 10.000000000000004
endloop
endfacet
facet normal 0 0 1
outer loop
vertex -8.684040286651364 -9.87938524157187 10.000000000000004
vertex -9.000000000000009 -9.732050807568893 10.000000000000004
vertex -15 -9.732050807569033 10
endloop
endfacet
facet normal 0 0 1
outer loop
vertex -8.684040286651364 -9.87938524157187 10.000000000000004
vertex -15 -9.732050807569033 10
vertex -15 -9.879385241571875 10
endloop
endfacet
facet normal 0 0 1
outer loop
vertex 34.05 -9.879385241571875 10
vertex 34.05 -9.732050807569033 10
vertex 28.05000000000002 -9.732050807568912 10.000000000000004
endloop
endfacet
facet normal 0 0 1
outer loop
vertex 34.05 -9.879385241571875 10
vertex 28.05000000000002 -9.732050807568912 10.000000000000004
vertex 27.734040286651332 -9.879385241571777 10
endloop
endfacet
facet normal 0 0 1
outer loop
vertex -9.000000000000009 -9.732050807568893 10.000000000000004
vertex -9.285575219373115 -9.53208888623799 10.000000000000004
vertex -15 -9.532088886237847 10
endloop
endfacet
facet normal 0 0 1
outer loop
vertex -9.000000000000009 -9.732050807568893 10.000000000000004
vertex -15 -9.532088886237847 10
vertex -15 -9.732050807569033 10
endloop
endfacet
facet normal 0 0 1
outer loop
vertex 34.05 -9.732050807569033 10
vertex 34.05 -9.532088886237847 10
vertex 28.33557521937312 -9.532088886238 10
endloop
endfacet
facet normal 0 0 1
outer loop
vertex 34.05 -9.732050807569033 10
vertex 28.33557521937312 -9.532088886238 10
vertex 28.05000000000002 -9.732050807568912 10.000000000000004
endloop
endfacet
facet normal 0 0 1
outer loop
vertex -9.285575219373115 -9.53208888623799 10.000000000000004
vertex -9.532088886237958 -9.285575219373081 10
vertex -15 -9.285575219373284 10
endloop
endfacet
facet normal 0 0 1
outer loop
vertex -9.285575219373115 -9.53208888623799 10.000000000000004
vertex -15 -9.285575219373284 10
vertex -15 -9.532088886237847 10
endloop
endfacet
facet normal 0 0 1
outer loop
vertex 34.05 -9.532088886237847 10
vertex 34.05 -9.285575219373284 10
vertex 28.582088886237905 -9.285575219373026 10
endloop
endfacet
facet normal 0 0 1
outer loop
vertex 34.05 -9.532088886237847 10
vertex 28.582088886237905 -9.285575219373026 10
vertex 28.33557521937312 -9.532088886238 10
endloop
endfacet
facet normal 0 0 1
outer loop
vertex -9.532088886237958 -9.285575219373081 10
vertex -9.732050807568951 -9.000000000000032 10
vertex -15 -8.999999999999659 10
endloop
endfacet
facet normal 0 0 1
outer loop
vertex -9.532088886237958 -9.285575219373081 10
vertex -15 -8.999999999999659 10
vertex -15 -9.285575219373284 10
endloop
endfacet
facet normal 0 0 1
outer loop
vertex 34.05 -9.285575219373284 10
vertex 34.05 -8.999999999999659 10
vertex 28.782050807568908 -9.00000000000002 10
endloop
endfacet
facet normal 0 0 1
outer loop
vertex 34.05 -9.285575219373284 10
vertex 28.782050807568908 -9.00000000000002 10
vertex 28.582088886237905 -9.285575219373026 10
endloop
endfacet
facet normal 0 0 1
outer loop
vertex -9.732050807568951 -9.000000000000032 10
vertex -9.879385241571843 -8.684040286651342 10
vertex -15 -8.684040286651632 10
endloop
endfacet
facet normal 0 0 1
outer loop
vertex -9.732050807568951 -9.000000000000032 10
vertex -15 -8.684040286651632 10
vertex -15 -8.999999999999659 10
endloop
endfacet
facet normal 0 0 1
outer loop
vertex 34.05 -8.999999999999659 10
vertex 34.05 -8.684040286651632 10
vertex 28.9293852415719 -8.684040286651374 10
endloop
endfacet
facet normal 0 0 1
outer loop
vertex 34.05 -8.999999999999659 10
vertex 28.9293852415719 -8.684040286651374 10
vertex 28.782050807568908 -9.00000000000002 10
endloop
endfacet
facet normal 0 0 1
outer loop
vertex -9.879385241571843 -8.684040286651342 10
vertex -9.969615506024471 -8.347296355333865 10
vertex -15 -8.34729635533369 10
endloop
endfacet
facet normal 0 0 1
outer loop
vertex -9.879385241571843 -8.684040286651342 10
vertex -15 -8.34729635533369 10
vertex -15 -8.684040286651632 10
endloop
endfacet
facet normal 0 0 1
outer loop
vertex 34.05 -8.684040286651632 10
vertex 34.05 -8.34729635533369 10
vertex 29.01961550602449 -8.347296355333878 10
endloop
endfacet
facet normal 0 0 1
outer loop
vertex 34.05 -8.684040286651632 10
vertex 29.01961550602449 -8.347296355333878 10
vertex 28.9293852415719 -8.684040286651374 10
endloop
endfacet
facet normal 0 0 1
outer loop
vertex -9.969615506024471 -8.347296355333865 10
vertex -10 -8 10
vertex -15 -8.000000000000576 10
endloop
endfacet
facet normal 0 0 1
outer loop
vertex -9.969615506024471 -8.347296355333865 10
vertex -15 -8.000000000000576 10
vertex -15 -8.34729635533369 10
endloop
endfacet
facet normal 0 0 1
outer loop
vertex 34.05 -8.34729635533369 10
vertex 34.05 -8.000000000000576 10
vertex 29.05000000000008 -8.000000000000007 10.000000000000004
endloop
endfacet
facet normal 0 0 1
outer loop
vertex 34.05 -8.34729635533369 10
vertex 29.05000000000008 -8.000000000000007 10.000000000000004
vertex 29.01961550602449 -8.347296355333878 10
endloop
endfacet
facet normal 0 0 1
outer loop
vertex -10 -8 10
vertex -10 27.05 10
vertex -15 27.05000000000109 10
endloop
endfacet
facet normal 0 0 1
outer loop
vertex -10 -8 10
vertex -15 27.05000000000109 10
vertex -15 -8.000000000000576 10
endloop
endfacet
facet normal 0 0 1
outer loop
vertex 34.05 -8.000000000000576 10
vertex 34.05 27.05000000000109 10
vertex 29.05 27.05 10
endloop
endfacet
facet normal 0 0 1
outer loop
vertex 34.05 -8.000000000000576 10
vertex 29.05 27.05 10
vertex 29.05000000000008 -8.000000000000007 10.000000000000004
endloop
endfacet
facet normal 0 0 1
outer loop
vertex -10 27.05 10
vertex -9.969615506024503 27.397296355333882 10
vertex -15 27.39729635533331 10
endloop
endfacet
facet normal 0 0 1
outer loop
vertex -10 27.05 10
vertex -15 27.39729635533331 10
vertex -15 27.05000000000109 10
endloop
endfacet
facet normal 0 0 1
outer loop
vertex 34.05 27.05000000000109 10
vertex 34.05 27.39729635533331 10
vertex 29.019615506024515 27.397296355333875 10.000000000000004
endloop
endfacet
facet normal 0 0 1
outer loop
vertex 34.05 27.05000000000109 10
vertex 29.019615506024515 27.397296355333875 10.000000000000004
vertex 29.05 27.05 10
endloop
endfacet
facet normal 0 0 1
outer loop
vertex -9.969615506024503 27.397296355333882 10
vertex -9.879385241571837 27.73404028665135 10.000000000000004
vertex -15 27.734040286651872 10
endloop
endfacet
facet normal 0 0 1
outer loop
vertex -9.969615506024503 27.397296355333882 10
vertex -15 27.734040286651872 10
vertex -15 27.39729635533331 10
endloop
endfacet
facet normal 0 0 1
outer loop
vertex 34.05 27.39729635533331 10
vertex 34.05 27.734040286651872 10
vertex 28.929385241571815 27.734040286651336 10
endloop
endfacet
facet normal 0 0 1
outer loop
vertex 34.05 27.39729635533331 10
vertex 28.929385241571815 27.734040286651336 10
vertex 29.019615506024515 27.397296355333875 10.000000000000004
endloop
endfacet
facet normal 0 0 1
outer loop
vertex -9.879385241571837 27.73404028665135 10.000000000000004
vertex -9.732050807568944 28.050000000000047 10
vertex -15 28.04999999999953 10
endloop
endfacet
facet normal 0 0 1
outer loop
vertex -9.879385241571837 27.73404028665135 10.000000000000004
vertex -15 28.04999999999953 10
vertex -15 27.734040286651872 10
endloop
endfacet
facet normal 0 0 1
outer loop
vertex 34.05 27.734040286651872 10
vertex 34.05 28.04999999999953 10
vertex 28.782050807568968 28.05000000000004 10
endloop
endfacet
facet normal 0 0 1
outer loop
vertex 34.05 27.734040286651872 10
vertex 28.782050807568968 28.05000000000004 10
vertex 28.929385241571815 27.734040286651336 10
endloop
endfacet
facet normal 0 0 1
outer loop
vertex -9.732050807568944 28.050000000000047 10
vertex -9.532088886237903 28.335575219373027 10
vertex -15 28.335575219372824 10
endloop
endfacet
facet normal 0 0 1
outer loop
vertex -9.732050807568944 28.050000000000047 10
vertex -15 28.335575219372824 10
vertex -15 28.04999999999953 10
endloop
endfacet
facet normal 0 0 1
outer loop
vertex 34.05 28.04999999999953 10
vertex 34.05 28.335575219372824 10
vertex 28.582088886237955 28.335575219373077 10
endloop
endfacet
facet normal 0 0 1
outer loop
vertex 34.05 28.04999999999953 10
vertex 28.582088886237955 28.335575219373077 10
vertex 28.782050807568968 28.05000000000004 10
endloop
endfacet
facet normal 0 0 1
outer loop
vertex -9.532088886237903 28.335575219373027 10
vertex -9.285575219373102 28.582088886237994 10
vertex -15 28.58208888623838 10
endloop
endfacet
facet normal 0 0 1
outer loop
vertex -9.532088886237903 28.335575219373027 10
vertex -15 28.58208888623838 10
vertex -15 28.335575219372824 10
endloop
endfacet
facet normal 0 0 1
outer loop
vertex 34.05 28.335575219372824 10
vertex 34.05 28.58208888623838 10
vertex 28.335575219373034 28.582088886237912 10
endloop
endfacet
facet normal 0 0 1
outer loop
vertex 34.05 28.335575219372824 10
vertex 28.335575219373034 28.582088886237912 10
vertex 28.582088886237955 28.335575219373077 10
endloop
endfacet
facet normal 0 0 1
outer loop
vertex -9.285575219373102 28.582088886237994 10
vertex -9.000000000000002 28.782050807568886 10
vertex -15 28.782050807568588 10
endloop
endfacet
facet normal 0 0 1
outer loop
vertex -9.285575219373102 28.582088886237994 10
vertex -15 28.782050807568588 10
vertex -15 28.58208888623838 10
endloop
endfacet
facet normal 0 0 1
outer loop
vertex 34.05 28.58208888623838 10
vertex 34.05 28.782050807568588 10
vertex 28.05000000000004 28.782050807568933 10
endloop
endfacet
facet normal 0 0 1
outer loop
vertex 34.05 28.58208888623838 10
vertex 28.05000000000004 28.782050807568933 10
vertex 28.335575219373034 28.582088886237912 10
endloop
endfacet
facet normal 0 0 1
outer loop
vertex -9.000000000000002 28.782050807568886 10
vertex -8.684040286651346 28.929385241571843 10
vertex -15 28.929385241572053 10
endloop
endfacet
facet normal 0 0 1
outer loop
vertex -9.000000000000002 28.782050807568886 10
vertex -15 28.929385241572053 10
vertex -15 28.782050807568588 10
endloop
endfacet
facet normal 0 0 1
outer loop
vertex 34.05 28.782050807568588 10
vertex 34.05 28.929385241572053 10
vertex 27.734040286651325 28.929385241571786 10.000000000000004
endloop
endfacet
facet normal 0 0 1
outer loop
vertex 34.05 28.782050807568588 10
vertex 27.734040286651325 28.929385241571786 10.000000000000004
vertex 28.05000000000004 28.782050807568933 10
endloop
endfacet
facet normal 0 0 1
outer loop
vertex -8.684040286651346 28.929385241571843 10
vertex -8.347296355333867 29.01961550602448 10.000000000000004
vertex -15 29.01961550602453 10
endloop
endfacet
facet normal 0 0 1
outer loop
vertex -8.684040286651346 28.929385241571843 10
vertex -15 29.01961550602453 10
vertex -15 28.929385241572053 10
endloop
endfacet
facet normal 0 0 1
outer loop
vertex 34.05 28.929385241572053 10
vertex 34.05 29.01961550602453 10
vertex 27.397296355333875 29.019615506024472 10
endloop
endfacet
facet normal 0 0 1
outer loop
vertex 34.05 28.929385241572053 10
vertex 27.397296355333875 29.019615506024472 10
vertex 27.734040286651325 28.929385241571786 10.000000000000004
endloop
endfacet
facet normal 0 0 1
outer loop
vertex -8.347296355333867 29.01961550602448 10.000000000000004
vertex -8 29.05 10
vertex -15 29.05 10
endloop
endfacet
facet normal 0 0 1
outer loop
vertex -8.347296355333867 29.01961550602448 10.000000000000004
vertex -15 29.05 10
vertex -15 29.01961550602453 10
endloop
endfacet
facet normal 0 0 1
outer loop
vertex 34.05 29.01961550602453 10
vertex 34.05 29.05 10
vertex 27.050000000000015 29.050000000000104 10.000000000000004
endloop
endfacet
facet normal 0 0 1
outer loop
vertex 34.05 29.01961550602453 10
vertex 27.050000000000015 29.050000000000104 10.000000000000004
vertex 27.397296355333875 29.019615506024472 10
endloop
endfacet
facet normal 0 0.03446227583977888 -0.9994059993535875
outer loop
vertex -8 29.05 10
vertex 27.050000000000015 29.050000000000104 10.000000000000004
vertex 34.05 29.05 10
endloop
endfacet
facet normal 0 0.03446227583977888 -0.9994059993535875
outer loop
vertex -8 29.05 10
vertex 34.05 29.05 10
vertex 34.05 31.05 10
endloop
endfacet
facet normal 0 0.03446227583977888 -0.9994059993535875
outer loop
vertex -8 29.05 10
vertex 34.05 31.05 10
vertex 34.004423259036464 31.57094453300078 10
endloop
endfacet
facet normal 0 0.03446227583977888 -0.9994059993535875
outer loop
vertex -8 29.05 10
vertex 34.004423259036464 31.57094453300078 10
vertex 33.869077862357905 32.076060429977055 10
endloop
endfacet
facet normal 0 0.03446227583977888 -0.9994059993535875
outer loop
vertex -8 29.05 10
vertex 33.869077862357905 32.076060429977055 10
vertex 33.64807621135345 32.550000000000054 10
endloop
endfacet
facet normal 0 0.03446227583977888 -0.9994059993535875
outer loop
vertex -8 29.05 10
vertex 33.64807621135345 32.550000000000054 10
vertex 33.34813332935691 32.9783628290596 10
endloop
endfacet
facet normal 0 0.03446227583977888 -0.9994059993535875
outer loop
vertex -8 29.05 10
vertex 33.34813332935691 32.9783628290596 10
vertex 32.97836282905955 33.34813332935687 10
endloop
endfacet
facet normal 0 0.03446227583977888 -0.9994059993535875
outer loop
vertex -8 29.05 10
vertex 32.97836282905955 33.34813332935687 10
vertex 32.54999999999998 33.64807621135329 10
endloop
endfacet
facet normal 0 0.03446227583977888 -0.9994059993535875
outer loop
vertex -8 29.05 10
vertex 32.54999999999998 33.64807621135329 10
vertex 32.07606042997706 33.869077862357855 10
endloop
endfacet
facet normal 0 0.03446227583977888 -0.9994059993535875
outer loop
vertex -8 29.05 10
vertex 32.07606042997706 33.869077862357855 10
vertex 31.57094453300078 34.0044232590366 10.000000000000004
endloop
endfacet
facet normal 0 0.03446227583977888 -0.9994059993535875
outer loop
vertex -8 29.05 10
vertex 31.57094453300078 34.0044232590366 10.000000000000004
vertex 31.050000000000004 34.050000000000004 10.000000000000004
endloop
endfacet
facet normal 0 0.03446227583977888 -0.9994059993535875
outer loop
vertex -8 29.05 10
vertex 31.050000000000004 34.050000000000004 10.000000000000004
vertex -12 34.05 10
endloop
endfacet
facet normal 0 0.03446227583977888 -0.9994059993535875
outer loop
vertex -8 29.05 10
vertex -12 34.05 10
vertex -12.520944533000796 34.00442325903666 10.000000000000004
endloop
endfacet
facet normal 0 0.03446227583977888 -0.9994059993535875
outer loop
vertex -8 29.05 10
vertex -12.520944533000796 34.00442325903666 10.000000000000004
vertex -13.026060429976999 33.86907786235768 10.000000000000004
endloop
endfacet
facet normal 0 0.03446227583977888 -0.9994059993535875
outer loop
vertex -8 29.05 10
vertex -13.026060429976999 33.86907786235768 10.000000000000004
vertex -13.500000000000052 33.64807621135342 10
endloop
endfacet
facet normal 0 0.03446227583977888 -0.9994059993535875
outer loop
vertex -8 29.05 10
vertex -13.500000000000052 33.64807621135342 10
vertex -13.928362829059662 33.348133329357 10
endloop
endfacet
facet normal 0 0.03446227583977888 -0.9994059993535875
outer loop
vertex -8 29.05 10
vertex -13.928362829059662 33.348133329357 10
vertex -14.298133329356949 32.978362829059634 10
endloop
endfacet
facet normal 0 0.03446227583977888 -0.9994059993535875
outer loop
vertex -8 29.05 10
vertex -14.298133329356949 32.978362829059634 10
vertex -14.598076211353366 32.550000000000026 10
endloop
endfacet
facet normal 0 0.03446227583977888 -0.9994059993535875
outer loop
vertex -8 29.05 10
vertex -14.598076211353366 32.550000000000026 10
vertex -14.819077862357778 32.07606042997704 10.000000000000004
endloop
endfacet
facet normal 0 0.03446227583977888 -0.9994059993535875
outer loop
vertex -8 29.05 10
vertex -14.819077862357778 32.07606042997704 10.000000000000004
vertex -14.954423259036659 31.570944533000798 10
endloop
endfacet
facet normal 0 0.03446227583977888 -0.9994059993535875
outer loop
vertex -8 29.05 10
vertex -14.954423259036659 31.570944533000798 10
vertex -15 31.049999999999997 10
endloop
endfacet
facet normal 0 0.03446227583977888 -0.9994059993535875
outer loop
vertex -8 29.05 10
vertex -15 31.049999999999997 10
vertex -15 29.05 10
endloop
endfacet
endsolid csg.js
