0
SECTION
2
HEADER
9
$INSUNITS
70
4
0
ENDSEC
0
SECTION
2
TABLES
0
TABLE
2
LTYPE
0
LTYPE
72
65
70
64
2
CONTINUOUS
3
______
73
0
40
0
0
ENDTAB
0
TABLE
2
LAYER
0
ENDTAB
0
ENDSEC
0
SECTION
2
ENTITIES
0
LINE
8
0
10
333.9896
20
-110.4091
11
333.7687
21
-110.4
0
LINE
8
0
10
333.7687
20
-110.4
11
86.2313
21
-110.4
0
LINE
8
0
10
86.2313
20
-110.4
11
86.0104
21
-110.4091
0
LINE
8
0
10
86.0104
20
-110.4091
11
85.7911
21
-110.4365
0
LINE
8
0
10
85.7911
20
-110.4365
11
85.5748
21
-110.4818
0
LINE
8
0
10
85.5748
20
-110.4818
11
85.363
21
-110.5448
0
LINE
8
0
10
85.363
20
-110.5448
11
85.1571
21
-110.6251
0
LINE
8
0
10
85.1571
20
-110.6251
11
84.9586
21
-110.7221
0
LINE
8
0
10
84.9586
20
-110.7221
11
84.7687
21
-110.8352
0
LINE
8
0
10
84.7687
20
-110.8352
11
84.5888
21
-110.9636
0
LINE
8
0
10
84.5888
20
-110.9636
11
84.4901
21
-111.0661
0
LINE
8
0
10
84.4901
20
-111.0661
11
84.4242
21
-111.1923
0
LINE
8
0
10
84.4242
20
-111.1923
11
84.3965
21
-111.3319
0
LINE
8
0
10
84.3965
20
-111.3319
11
84.4094
21
-111.4737
0
LINE
8
0
10
84.4094
20
-111.4737
11
84.4616
21
-111.6061
0
LINE
8
0
10
84.4616
20
-111.6061
11
84.549
21
-111.7184
0
LINE
8
0
10
84.549
20
-111.7184
11
84.6646
21
-111.8016
0
LINE
8
0
10
84.6646
20
-111.8016
11
84.7988
21
-111.8488
0
LINE
8
0
10
84.7988
20
-111.8488
11
85.198
21
-112.0023
0
LINE
8
0
10
85.198
20
-112.0023
11
85.5221
21
-112.2815
0
LINE
8
0
10
85.5221
20
-112.2815
11
85.7331
21
-112.6536
0
LINE
8
0
10
85.7331
20
-112.6536
11
85.8062
21
-113.075
0
LINE
8
0
10
85.8062
20
-113.075
11
85.7331
21
-113.4964
0
LINE
8
0
10
85.7331
20
-113.4964
11
85.5221
21
-113.8685
0
LINE
8
0
10
85.5221
20
-113.8685
11
85.198
21
-114.1477
0
LINE
8
0
10
85.198
20
-114.1477
11
84.7988
21
-114.3012
0
LINE
8
0
10
84.7988
20
-114.3012
11
84.6646
21
-114.3484
0
LINE
8
0
10
84.6646
20
-114.3484
11
84.549
21
-114.4316
0
LINE
8
0
10
84.549
20
-114.4316
11
84.4616
21
-114.5439
0
LINE
8
0
10
84.4616
20
-114.5439
11
84.4094
21
-114.6763
0
LINE
8
0
10
84.4094
20
-114.6763
11
84.3965
21
-114.8181
0
LINE
8
0
10
84.3965
20
-114.8181
11
84.4242
21
-114.9577
0
LINE
8
0
10
84.4242
20
-114.9577
11
84.4901
21
-115.0839
0
LINE
8
0
10
84.4901
20
-115.0839
11
84.5889
21
-115.1864
0
LINE
8
0
10
84.5889
20
-115.1864
11
84.7687
21
-115.3148
0
LINE
8
0
10
84.7687
20
-115.3148
11
84.9586
21
-115.4279
0
LINE
8
0
10
84.9586
20
-115.4279
11
85.1571
21
-115.5249
0
LINE
8
0
10
85.1571
20
-115.5249
11
85.363
21
-115.6052
0
LINE
8
0
10
85.363
20
-115.6052
11
85.5748
21
-115.6682
0
LINE
8
0
10
85.5748
20
-115.6682
11
85.7911
21
-115.7135
0
LINE
8
0
10
85.7911
20
-115.7135
11
86.0104
21
-115.7409
0
LINE
8
0
10
86.0104
20
-115.7409
11
86.2313
21
-115.75
0
LINE
8
0
10
86.2313
20
-115.75
11
87.0562
21
-115.75
0
LINE
8
0
10
87.0562
20
-115.75
11
87.3489
21
-115.7788
0
LINE
8
0
10
87.3489
20
-115.7788
11
87.6303
21
-115.8642
0
LINE
8
0
10
87.6303
20
-115.8642
11
87.8896
21
-116.0028
0
LINE
8
0
10
87.8896
20
-116.0028
11
88.1169
21
-116.1893
0
LINE
8
0
10
88.1169
20
-116.1893
11
88.3035
21
-116.4166
0
LINE
8
0
10
88.3035
20
-116.4166
11
88.4421
21
-116.676
0
LINE
8
0
10
88.4421
20
-116.676
11
88.5274
21
-116.9574
0
LINE
8
0
10
88.5274
20
-116.9574
11
88.5562
21
-117.25
0
LINE
8
0
10
88.5562
20
-117.25
11
88.5562
21
-179.75
0
LINE
8
0
10
88.5562
20
-179.75
11
88.5274
21
-180.0426
0
LINE
8
0
10
88.5274
20
-180.0426
11
88.4421
21
-180.324
0
LINE
8
0
10
88.4421
20
-180.324
11
88.3035
21
-180.5834
0
LINE
8
0
10
88.3035
20
-180.5834
11
88.1169
21
-180.8107
0
LINE
8
0
10
88.1169
20
-180.8107
11
87.8896
21
-180.9972
0
LINE
8
0
10
87.8896
20
-180.9972
11
87.6303
21
-181.1358
0
LINE
8
0
10
87.6303
20
-181.1358
11
87.3489
21
-181.2212
0
LINE
8
0
10
87.3489
20
-181.2212
11
87.0562
21
-181.25
0
LINE
8
0
10
87.0562
20
-181.25
11
86.2313
21
-181.25
0
LINE
8
0
10
86.2313
20
-181.25
11
86.0104
21
-181.2591
0
LINE
8
0
10
86.0104
20
-181.2591
11
85.7911
21
-181.2865
0
LINE
8
0
10
85.7911
20
-181.2865
11
85.5748
21
-181.3318
0
LINE
8
0
10
85.5748
20
-181.3318
11
85.363
21
-181.3948
0
LINE
8
0
10
85.363
20
-181.3948
11
85.1571
21
-181.4751
0
LINE
8
0
10
85.1571
20
-181.4751
11
84.9586
21
-181.5721
0
LINE
8
0
10
84.9586
20
-181.5721
11
84.7687
21
-181.6852
0
LINE
8
0
10
84.7687
20
-181.6852
11
84.5888
21
-181.8136
0
LINE
8
0
10
84.5888
20
-181.8136
11
84.4901
21
-181.9161
0
LINE
8
0
10
84.4901
20
-181.9161
11
84.4242
21
-182.0423
0
LINE
8
0
10
84.4242
20
-182.0423
11
84.3965
21
-182.1819
0
LINE
8
0
10
84.3965
20
-182.1819
11
84.4094
21
-182.3237
0
LINE
8
0
10
84.4094
20
-182.3237
11
84.4616
21
-182.4561
0
LINE
8
0
10
84.4616
20
-182.4561
11
84.549
21
-182.5684
0
LINE
8
0
10
84.549
20
-182.5684
11
84.6646
21
-182.6516
0
LINE
8
0
10
84.6646
20
-182.6516
11
84.7988
21
-182.6988
0
LINE
8
0
10
84.7988
20
-182.6988
11
85.198
21
-182.8523
0
LINE
8
0
10
85.198
20
-182.8523
11
85.5221
21
-183.1315
0
LINE
8
0
10
85.5221
20
-183.1315
11
85.7331
21
-183.5036
0
LINE
8
0
10
85.7331
20
-183.5036
11
85.8062
21
-183.925
0
LINE
8
0
10
85.8062
20
-183.925
11
85.7331
21
-184.3464
0
LINE
8
0
10
85.7331
20
-184.3464
11
85.5221
21
-184.7185
0
LINE
8
0
10
85.5221
20
-184.7185
11
85.198
21
-184.9977
0
LINE
8
0
10
85.198
20
-184.9977
11
84.7988
21
-185.1512
0
LINE
8
0
10
84.7988
20
-185.1512
11
84.6646
21
-185.1984
0
LINE
8
0
10
84.6646
20
-185.1984
11
84.549
21
-185.2816
0
LINE
8
0
10
84.549
20
-185.2816
11
84.4616
21
-185.3939
0
LINE
8
0
10
84.4616
20
-185.3939
11
84.4094
21
-185.5263
0
LINE
8
0
10
84.4094
20
-185.5263
11
84.3965
21
-185.6681
0
LINE
8
0
10
84.3965
20
-185.6681
11
84.4242
21
-185.8077
0
LINE
8
0
10
84.4242
20
-185.8077
11
84.4901
21
-185.9339
0
LINE
8
0
10
84.4901
20
-185.9339
11
84.5889
21
-186.0364
0
LINE
8
0
10
84.5889
20
-186.0364
11
84.7687
21
-186.1648
0
LINE
8
0
10
84.7687
20
-186.1648
11
84.9586
21
-186.2779
0
LINE
8
0
10
84.9586
20
-186.2779
11
85.1571
21
-186.3749
0
LINE
8
0
10
85.1571
20
-186.3749
11
85.363
21
-186.4552
0
LINE
8
0
10
85.363
20
-186.4552
11
85.5748
21
-186.5182
0
LINE
8
0
10
85.5748
20
-186.5182
11
85.7911
21
-186.5635
0
LINE
8
0
10
85.7911
20
-186.5635
11
86.0104
21
-186.5909
0
LINE
8
0
10
86.0104
20
-186.5909
11
86.2313
21
-186.6
0
LINE
8
0
10
86.2313
20
-186.6
11
333.7687
21
-186.6
0
LINE
8
0
10
333.7687
20
-186.6
11
333.9896
21
-186.5909
0
LINE
8
0
10
333.9896
20
-186.5909
11
334.2089
21
-186.5635
0
LINE
8
0
10
334.2089
20
-186.5635
11
334.4252
21
-186.5182
0
LINE
8
0
10
334.4252
20
-186.5182
11
334.637
21
-186.4552
0
LINE
8
0
10
334.637
20
-186.4552
11
334.8429
21
-186.3749
0
LINE
8
0
10
334.8429
20
-186.3749
11
335.0414
21
-186.2779
0
LINE
8
0
10
335.0414
20
-186.2779
11
335.2313
21
-186.1648
0
LINE
8
0
10
335.2313
20
-186.1648
11
335.4112
21
-186.0364
0
LINE
8
0
10
335.4112
20
-186.0364
11
335.5099
21
-185.9339
0
LINE
8
0
10
335.5099
20
-185.9339
11
335.5758
21
-185.8077
0
LINE
8
0
10
335.5758
20
-185.8077
11
335.6035
21
-185.6681
0
LINE
8
0
10
335.6035
20
-185.6681
11
335.5906
21
-185.5263
0
LINE
8
0
10
335.5906
20
-185.5263
11
335.5384
21
-185.3939
0
LINE
8
0
10
335.5384
20
-185.3939
11
335.451
21
-185.2816
0
LINE
8
0
10
335.451
20
-185.2816
11
335.3354
21
-185.1984
0
LINE
8
0
10
335.3354
20
-185.1984
11
335.2012
21
-185.1512
0
LINE
8
0
10
335.2012
20
-185.1512
11
334.802
21
-184.9977
0
LINE
8
0
10
334.802
20
-184.9977
11
334.4779
21
-184.7185
0
LINE
8
0
10
334.4779
20
-184.7185
11
334.2669
21
-184.3464
0
LINE
8
0
10
334.2669
20
-184.3464
11
334.1938
21
-183.925
0
LINE
8
0
10
334.1938
20
-183.925
11
334.2669
21
-183.5036
0
LINE
8
0
10
334.2669
20
-183.5036
11
334.4779
21
-183.1315
0
LINE
8
0
10
334.4779
20
-183.1315
11
334.802
21
-182.8523
0
LINE
8
0
10
334.802
20
-182.8523
11
335.2012
21
-182.6988
0
LINE
8
0
10
335.2012
20
-182.6988
11
335.3354
21
-182.6516
0
LINE
8
0
10
335.3354
20
-182.6516
11
335.451
21
-182.5684
0
LINE
8
0
10
335.451
20
-182.5684
11
335.5384
21
-182.4561
0
LINE
8
0
10
335.5384
20
-182.4561
11
335.5906
21
-182.3237
0
LINE
8
0
10
335.5906
20
-182.3237
11
335.6035
21
-182.1819
0
LINE
8
0
10
335.6035
20
-182.1819
11
335.5758
21
-182.0423
0
LINE
8
0
10
335.5758
20
-182.0423
11
335.5099
21
-181.9161
0
LINE
8
0
10
335.5099
20
-181.9161
11
335.4111
21
-181.8136
0
LINE
8
0
10
335.4111
20
-181.8136
11
335.2313
21
-181.6852
0
LINE
8
0
10
335.2313
20
-181.6852
11
335.0414
21
-181.5721
0
LINE
8
0
10
335.0414
20
-181.5721
11
334.8429
21
-181.4751
0
LINE
8
0
10
334.8429
20
-181.4751
11
334.637
21
-181.3948
0
LINE
8
0
10
334.637
20
-181.3948
11
334.4252
21
-181.3318
0
LINE
8
0
10
334.4252
20
-181.3318
11
334.2089
21
-181.2865
0
LINE
8
0
10
334.2089
20
-181.2865
11
333.9896
21
-181.2591
0
LINE
8
0
10
333.9896
20
-181.2591
11
333.7687
21
-181.25
0
LINE
8
0
10
333.7687
20
-181.25
11
332.9438
21
-181.25
0
LINE
8
0
10
332.9438
20
-181.25
11
332.6511
21
-181.2212
0
LINE
8
0
10
332.6511
20
-181.2212
11
332.3697
21
-181.1358
0
LINE
8
0
10
332.3697
20
-181.1358
11
332.1104
21
-180.9972
0
LINE
8
0
10
332.1104
20
-180.9972
11
331.8831
21
-180.8107
0
LINE
8
0
10
331.8831
20
-180.8107
11
331.6965
21
-180.5834
0
LINE
8
0
10
331.6965
20
-180.5834
11
331.5579
21
-180.324
0
LINE
8
0
10
331.5579
20
-180.324
11
331.4726
21
-180.0426
0
LINE
8
0
10
331.4726
20
-180.0426
11
331.4438
21
-179.75
0
LINE
8
0
10
331.4438
20
-179.75
11
331.4438
21
-117.25
0
LINE
8
0
10
331.4438
20
-117.25
11
331.4726
21
-116.9574
0
LINE
8
0
10
331.4726
20
-116.9574
11
331.5579
21
-116.676
0
LINE
8
0
10
331.5579
20
-116.676
11
331.6965
21
-116.4166
0
LINE
8
0
10
331.6965
20
-116.4166
11
331.8831
21
-116.1893
0
LINE
8
0
10
331.8831
20
-116.1893
11
332.1104
21
-116.0028
0
LINE
8
0
10
332.1104
20
-116.0028
11
332.3697
21
-115.8642
0
LINE
8
0
10
332.3697
20
-115.8642
11
332.6511
21
-115.7788
0
LINE
8
0
10
332.6511
20
-115.7788
11
332.9438
21
-115.75
0
LINE
8
0
10
332.9438
20
-115.75
11
333.7687
21
-115.75
0
LINE
8
0
10
333.7687
20
-115.75
11
333.9896
21
-115.7409
0
LINE
8
0
10
333.9896
20
-115.7409
11
334.2089
21
-115.7135
0
LINE
8
0
10
334.2089
20
-115.7135
11
334.4252
21
-115.6682
0
LINE
8
0
10
334.4252
20
-115.6682
11
334.637
21
-115.6052
0
LINE
8
0
10
334.637
20
-115.6052
11
334.8429
21
-115.5249
0
LINE
8
0
10
334.8429
20
-115.5249
11
335.0414
21
-115.4279
0
LINE
8
0
10
335.0414
20
-115.4279
11
335.2313
21
-115.3148
0
LINE
8
0
10
335.2313
20
-115.3148
11
335.4112
21
-115.1864
0
LINE
8
0
10
335.4112
20
-115.1864
11
335.5099
21
-115.0839
0
LINE
8
0
10
335.5099
20
-115.0839
11
335.5758
21
-114.9577
0
LINE
8
0
10
335.5758
20
-114.9577
11
335.6035
21
-114.8181
0
LINE
8
0
10
335.6035
20
-114.8181
11
335.5906
21
-114.6763
0
LINE
8
0
10
335.5906
20
-114.6763
11
335.5384
21
-114.5439
0
LINE
8
0
10
335.5384
20
-114.5439
11
335.451
21
-114.4316
0
LINE
8
0
10
335.451
20
-114.4316
11
335.3354
21
-114.3484
0
LINE
8
0
10
335.3354
20
-114.3484
11
335.2012
21
-114.3012
0
LINE
8
0
10
335.2012
20
-114.3012
11
334.802
21
-114.1477
0
LINE
8
0
10
334.802
20
-114.1477
11
334.4779
21
-113.8685
0
LINE
8
0
10
334.4779
20
-113.8685
11
334.2669
21
-113.4964
0
LINE
8
0
10
334.2669
20
-113.4964
11
334.1938
21
-113.075
0
LINE
8
0
10
334.1938
20
-113.075
11
334.2669
21
-112.6536
0
LINE
8
0
10
334.2669
20
-112.6536
11
334.4779
21
-112.2815
0
LINE
8
0
10
334.4779
20
-112.2815
11
334.802
21
-112.0023
0
LINE
8
0
10
334.802
20
-112.0023
11
335.2012
21
-111.8488
0
LINE
8
0
10
335.2012
20
-111.8488
11
335.3354
21
-111.8016
0
LINE
8
0
10
335.3354
20
-111.8016
11
335.451
21
-111.7184
0
LINE
8
0
10
335.451
20
-111.7184
11
335.5384
21
-111.6061
0
LINE
8
0
10
335.5384
20
-111.6061
11
335.5906
21
-111.4737
0
LINE
8
0
10
335.5906
20
-111.4737
11
335.6035
21
-111.3319
0
LINE
8
0
10
335.6035
20
-111.3319
11
335.5758
21
-111.1923
0
LINE
8
0
10
335.5758
20
-111.1923
11
335.5099
21
-111.0661
0
LINE
8
0
10
335.5099
20
-111.0661
11
335.4111
21
-110.9636
0
LINE
8
0
10
335.4111
20
-110.9636
11
335.2313
21
-110.8352
0
LINE
8
0
10
335.2313
20
-110.8352
11
335.0414
21
-110.7221
0
LINE
8
0
10
335.0414
20
-110.7221
11
334.8429
21
-110.6251
0
LINE
8
0
10
334.8429
20
-110.6251
11
334.637
21
-110.5448
0
LINE
8
0
10
334.637
20
-110.5448
11
334.4252
21
-110.4818
0
LINE
8
0
10
334.4252
20
-110.4818
11
334.2089
21
-110.4365
0
LINE
8
0
10
334.2089
20
-110.4365
11
333.9896
21
-110.4091
0
LINE
8
0
10
97.1403463
20
-126.490138
11
111.106243
21
-127.4667287
0
LINE
8
0
10
111.106243
20
-127.4667287
11
112.0828337
21
-113.500832
0
LINE
8
0
10
112.0828337
20
-113.500832
11
98.116937
21
-112.5242413
0
LINE
8
0
10
98.116937
20
-112.5242413
11
97.1403463
21
-126.490138
0
LINE
8
0
10
95.8106563
20
-145.492513
11
109.776553
21
-146.4691037
0
LINE
8
0
10
109.776553
20
-146.4691037
11
110.7531437
21
-132.503207
0
LINE
8
0
10
110.7531437
20
-132.503207
11
96.787247
21
-131.5266163
0
LINE
8
0
10
96.787247
20
-131.5266163
11
95.8106563
21
-145.492513
0
LINE
8
0
10
94.4828713
20
-164.496793
11
108.448768
21
-165.4733837
0
LINE
8
0
10
108.448768
20
-165.4733837
11
109.4253587
21
-151.507487
0
LINE
8
0
10
109.4253587
20
-151.507487
11
95.459462
21
-150.5308963
0
LINE
8
0
10
95.459462
20
-150.5308963
11
94.4828713
21
-164.496793
0
LINE
8
0
10
93.1531813
20
-183.499168
11
107.119078
21
-184.4757587
0
LINE
8
0
10
107.119078
20
-184.4757587
11
108.0956687
21
-170.509862
0
LINE
8
0
10
108.0956687
20
-170.509862
11
94.129772
21
-169.5332713
0
LINE
8
0
10
94.129772
20
-169.5332713
11
93.1531813
21
-183.499168
0
LINE
8
0
10
118.4618825
20
-126.311164
11
132.385189
21
-127.7745625
0
LINE
8
0
10
132.385189
20
-127.7745625
11
133.8485875
21
-113.851256
0
LINE
8
0
10
133.8485875
20
-113.851256
11
119.925281
21
-112.3878575
0
LINE
8
0
10
119.925281
20
-112.3878575
11
118.4618825
21
-126.311164
0
LINE
8
0
10
116.4711575
20
-145.256389
11
130.394464
21
-146.7197875
0
LINE
8
0
10
130.394464
20
-146.7197875
11
131.8578625
21
-132.796481
0
LINE
8
0
10
131.8578625
20
-132.796481
11
117.934556
21
-131.3330825
0
LINE
8
0
10
117.934556
20
-131.3330825
11
116.4711575
21
-145.256389
0
LINE
8
0
10
114.4804325
20
-164.203519
11
117.6075592
21
-164.5321933
0
LINE
8
0
10
119.6128587
20
-164.7429587
11
128.403739
21
-165.6669175
0
LINE
8
0
10
128.403739
20
-165.6669175
11
129.8671375
21
-151.743611
0
LINE
8
0
10
129.8671375
20
-151.743611
11
115.943831
21
-150.2802125
0
LINE
8
0
10
115.943831
20
-150.2802125
11
114.4804325
21
-164.203519
0
LINE
8
0
10
112.4897075
20
-183.148744
11
126.413014
21
-184.6121425
0
LINE
8
0
10
126.413014
20
-184.6121425
11
127.8764125
21
-170.688836
0
LINE
8
0
10
127.8764125
20
-170.688836
11
113.953106
21
-169.2254375
0
LINE
8
0
10
113.953106
20
-169.2254375
11
112.4897075
21
-183.148744
0
LINE
8
0
10
137.5118825
20
-126.311164
11
151.435189
21
-127.7745625
0
LINE
8
0
10
151.435189
20
-127.7745625
11
152.8985875
21
-113.851256
0
LINE
8
0
10
152.8985875
20
-113.851256
11
138.975281
21
-112.3878575
0
LINE
8
0
10
138.975281
20
-112.3878575
11
137.5118825
21
-126.311164
0
LINE
8
0
10
135.5211575
20
-145.256389
11
149.444464
21
-146.7197875
0
LINE
8
0
10
149.444464
20
-146.7197875
11
150.9078625
21
-132.796481
0
LINE
8
0
10
150.9078625
20
-132.796481
11
136.984556
21
-131.3330825
0
LINE
8
0
10
136.984556
20
-131.3330825
11
135.5211575
21
-145.256389
0
LINE
8
0
10
133.5304325
20
-164.203519
11
147.453739
21
-165.6669175
0
LINE
8
0
10
147.453739
20
-165.6669175
11
148.9171375
21
-151.743611
0
LINE
8
0
10
148.9171375
20
-151.743611
11
134.993831
21
-150.2802125
0
LINE
8
0
10
134.993831
20
-150.2802125
11
133.5304325
21
-164.203519
0
LINE
8
0
10
131.5397075
20
-183.148744
11
145.463014
21
-184.6121425
0
LINE
8
0
10
145.463014
20
-184.6121425
11
146.9264125
21
-170.688836
0
LINE
8
0
10
146.9264125
20
-170.688836
11
133.003106
21
-169.2254375
0
LINE
8
0
10
133.003106
20
-169.2254375
11
131.5397075
21
-183.148744
0
LINE
8
0
10
156.5618825
20
-126.311164
11
170.485189
21
-127.7745625
0
LINE
8
0
10
170.485189
20
-127.7745625
11
171.9485875
21
-113.851256
0
LINE
8
0
10
171.9485875
20
-113.851256
11
158.025281
21
-112.3878575
0
LINE
8
0
10
158.025281
20
-112.3878575
11
156.5618825
21
-126.311164
0
LINE
8
0
10
154.5711575
20
-145.256389
11
168.494464
21
-146.7197875
0
LINE
8
0
10
168.494464
20
-146.7197875
11
169.9578625
21
-132.796481
0
LINE
8
0
10
169.9578625
20
-132.796481
11
156.034556
21
-131.3330825
0
LINE
8
0
10
156.034556
20
-131.3330825
11
154.5711575
21
-145.256389
0
LINE
8
0
10
152.5804325
20
-164.203519
11
166.503739
21
-165.6669175
0
LINE
8
0
10
166.503739
20
-165.6669175
11
167.9671375
21
-151.743611
0
LINE
8
0
10
167.9671375
20
-151.743611
11
154.043831
21
-150.2802125
0
LINE
8
0
10
154.043831
20
-150.2802125
11
152.5804325
21
-164.203519
0
LINE
8
0
10
150.5897075
20
-183.148744
11
164.513014
21
-184.6121425
0
LINE
8
0
10
164.513014
20
-184.6121425
11
165.3312905
21
-176.8267617
0
LINE
8
0
10
165.5600766
20
-174.6500068
11
165.9764125
21
-170.688836
0
LINE
8
0
10
165.9764125
20
-170.688836
11
152.053106
21
-169.2254375
0
LINE
8
0
10
152.053106
20
-169.2254375
11
150.5897075
21
-183.148744
0
LINE
8
0
10
175.6118825
20
-126.311164
11
189.535189
21
-127.7745625
0
LINE
8
0
10
189.535189
20
-127.7745625
11
190.9985875
21
-113.851256
0
LINE
8
0
10
190.9985875
20
-113.851256
11
177.075281
21
-112.3878575
0
LINE
8
0
10
177.075281
20
-112.3878575
11
175.6118825
21
-126.311164
0
LINE
8
0
10
173.6211575
20
-145.256389
11
187.544464
21
-146.7197875
0
LINE
8
0
10
187.544464
20
-146.7197875
11
189.0078625
21
-132.796481
0
LINE
8
0
10
189.0078625
20
-132.796481
11
175.084556
21
-131.3330825
0
LINE
8
0
10
175.084556
20
-131.3330825
11
173.6211575
21
-145.256389
0
LINE
8
0
10
171.6304325
20
-164.203519
11
185.553739
21
-165.6669175
0
LINE
8
0
10
185.553739
20
-165.6669175
11
187.0171375
21
-151.743611
0
LINE
8
0
10
187.0171375
20
-151.743611
11
173.093831
21
-150.2802125
0
LINE
8
0
10
173.093831
20
-150.2802125
11
171.6304325
21
-164.203519
0
LINE
8
0
10
169.6397075
20
-183.148744
11
183.563014
21
-184.6121425
0
LINE
8
0
10
183.563014
20
-184.6121425
11
185.0264125
21
-170.688836
0
LINE
8
0
10
185.0264125
20
-170.688836
11
171.103106
21
-169.2254375
0
LINE
8
0
10
171.103106
20
-169.2254375
11
169.6397075
21
-183.148744
0
LINE
8
0
10
229.963796
20
-127.7745625
11
243.8871025
21
-126.311164
0
LINE
8
0
10
243.8871025
20
-126.311164
11
242.423704
21
-112.3878575
0
LINE
8
0
10
242.423704
20
-112.3878575
11
228.5003975
21
-113.851256
0
LINE
8
0
10
228.5003975
20
-113.851256
11
229.963796
21
-127.7745625
0
LINE
8
0
10
231.954521
20
-146.7197875
11
245.8778275
21
-145.256389
0
LINE
8
0
10
245.8778275
20
-145.256389
11
244.414429
21
-131.3330825
0
LINE
8
0
10
244.414429
20
-131.3330825
11
230.4911225
21
-132.796481
0
LINE
8
0
10
230.4911225
20
-132.796481
11
231.954521
21
-146.7197875
0
LINE
8
0
10
233.945246
20
-165.6669175
11
247.8685525
21
-164.203519
0
LINE
8
0
10
247.8685525
20
-164.203519
11
246.405154
21
-150.2802125
0
LINE
8
0
10
246.405154
20
-150.2802125
11
232.4818475
21
-151.743611
0
LINE
8
0
10
232.4818475
20
-151.743611
11
233.945246
21
-165.6669175
0
LINE
8
0
10
235.935971
20
-184.6121425
11
249.8592775
21
-183.148744
0
LINE
8
0
10
249.8592775
20
-183.148744
11
248.395879
21
-169.2254375
0
LINE
8
0
10
248.395879
20
-169.2254375
11
234.4725725
21
-170.688836
0
LINE
8
0
10
234.4725725
20
-170.688836
11
235.935971
21
-184.6121425
0
LINE
8
0
10
249.013796
20
-127.7745625
11
262.9371025
21
-126.311164
0
LINE
8
0
10
262.9371025
20
-126.311164
11
261.473704
21
-112.3878575
0
LINE
8
0
10
261.473704
20
-112.3878575
11
247.5503975
21
-113.851256
0
LINE
8
0
10
247.5503975
20
-113.851256
11
249.013796
21
-127.7745625
0
LINE
8
0
10
251.004521
20
-146.7197875
11
264.9278275
21
-145.256389
0
LINE
8
0
10
264.9278275
20
-145.256389
11
263.464429
21
-131.3330825
0
LINE
8
0
10
263.464429
20
-131.3330825
11
249.5411225
21
-132.796481
0
LINE
8
0
10
249.5411225
20
-132.796481
11
251.004521
21
-146.7197875
0
LINE
8
0
10
252.995246
20
-165.6669175
11
266.9185525
21
-164.203519
0
LINE
8
0
10
266.9185525
20
-164.203519
11
265.455154
21
-150.2802125
0
LINE
8
0
10
265.455154
20
-150.2802125
11
251.5318475
21
-151.743611
0
LINE
8
0
10
251.5318475
20
-151.743611
11
252.995246
21
-165.6669175
0
LINE
8
0
10
254.985971
20
-184.6121425
11
268.9092775
21
-183.148744
0
LINE
8
0
10
268.9092775
20
-183.148744
11
267.445879
21
-169.2254375
0
LINE
8
0
10
267.445879
20
-169.2254375
11
253.5225725
21
-170.688836
0
LINE
8
0
10
253.5225725
20
-170.688836
11
254.985971
21
-184.6121425
0
LINE
8
0
10
268.063796
20
-127.7745625
11
281.9871025
21
-126.311164
0
LINE
8
0
10
281.9871025
20
-126.311164
11
280.523704
21
-112.3878575
0
LINE
8
0
10
280.523704
20
-112.3878575
11
266.6003975
21
-113.851256
0
LINE
8
0
10
266.6003975
20
-113.851256
11
268.063796
21
-127.7745625
0
LINE
8
0
10
270.054521
20
-146.7197875
11
283.9778275
21
-145.256389
0
LINE
8
0
10
283.9778275
20
-145.256389
11
282.514429
21
-131.3330825
0
LINE
8
0
10
282.514429
20
-131.3330825
11
268.5911225
21
-132.796481
0
LINE
8
0
10
268.5911225
20
-132.796481
11
270.054521
21
-146.7197875
0
LINE
8
0
10
272.045246
20
-165.6669175
11
285.9685525
21
-164.203519
0
LINE
8
0
10
285.9685525
20
-164.203519
11
284.505154
21
-150.2802125
0
LINE
8
0
10
284.505154
20
-150.2802125
11
270.5818475
21
-151.743611
0
LINE
8
0
10
270.5818475
20
-151.743611
11
272.045246
21
-165.6669175
0
LINE
8
0
10
274.035971
20
-184.6121425
11
287.9592775
21
-183.148744
0
LINE
8
0
10
287.9592775
20
-183.148744
11
286.495879
21
-169.2254375
0
LINE
8
0
10
286.495879
20
-169.2254375
11
272.5725725
21
-170.688836
0
LINE
8
0
10
272.5725725
20
-170.688836
11
274.035971
21
-184.6121425
0
LINE
8
0
10
289.340837
20
-127.4667287
11
298.3927389
21
-126.8337581
0
LINE
8
0
10
300.4455956
20
-126.6902083
11
303.3067337
21
-126.490138
0
LINE
8
0
10
303.3067337
20
-126.490138
11
302.330143
21
-112.5242413
0
LINE
8
0
10
302.330143
20
-112.5242413
11
288.3642463
21
-113.500832
0
LINE
8
0
10
288.3642463
20
-113.500832
11
289.340837
21
-127.4667287
0
LINE
8
0
10
290.670527
20
-146.4691037
11
304.6364237
21
-145.492513
0
LINE
8
0
10
304.6364237
20
-145.492513
11
303.659833
21
-131.5266163
0
LINE
8
0
10
303.659833
20
-131.5266163
11
289.6939363
21
-132.503207
0
LINE
8
0
10
289.6939363
20
-132.503207
11
290.670527
21
-146.4691037
0
LINE
8
0
10
291.998312
20
-165.4733837
11
305.9642087
21
-164.496793
0
LINE
8
0
10
305.9642087
20
-164.496793
11
304.987618
21
-150.5308963
0
LINE
8
0
10
304.987618
20
-150.5308963
11
291.0217213
21
-151.507487
0
LINE
8
0
10
291.0217213
20
-151.507487
11
291.998312
21
-165.4733837
0
LINE
8
0
10
293.328002
20
-184.4757587
11
307.2938987
21
-183.499168
0
LINE
8
0
10
307.2938987
20
-183.499168
11
306.317308
21
-169.5332713
0
LINE
8
0
10
306.317308
20
-169.5332713
11
292.3514113
21
-170.509862
0
LINE
8
0
10
292.3514113
20
-170.509862
11
293.328002
21
-184.4757587
0
LINE
8
0
10
310.6296007
20
-127.1821773
11
324.6210723
21
-126.6935843
0
LINE
8
0
10
324.6210723
20
-126.6935843
11
324.1324793
21
-112.7021127
0
LINE
8
0
10
324.1324793
20
-112.7021127
11
310.1410077
21
-113.1907057
0
LINE
8
0
10
310.1410077
20
-113.1907057
11
310.6296007
21
-127.1821773
0
LINE
8
0
10
311.2944457
20
-146.2207473
11
325.2859173
21
-145.7321543
0
LINE
8
0
10
325.2859173
20
-145.7321543
11
324.7973243
21
-131.7406827
0
LINE
8
0
10
324.7973243
20
-131.7406827
11
310.8058527
21
-132.2292757
0
LINE
8
0
10
310.8058527
20
-132.2292757
11
311.2944457
21
-146.2207473
0
LINE
8
0
10
311.9592907
20
-165.2593173
11
325.9507623
21
-164.7707243
0
LINE
8
0
10
325.9507623
20
-164.7707243
11
325.4621693
21
-150.7792527
0
LINE
8
0
10
325.4621693
20
-150.7792527
11
311.4706977
21
-151.2678457
0
LINE
8
0
10
311.4706977
20
-151.2678457
11
311.9592907
21
-165.2593173
0
LINE
8
0
10
312.6241357
20
-184.2978873
11
326.6156073
21
-183.8092943
0
LINE
8
0
10
326.6156073
20
-183.8092943
11
326.1270143
21
-169.8178227
0
LINE
8
0
10
326.1270143
20
-169.8178227
11
312.1355427
21
-170.3064157
0
LINE
8
0
10
312.1355427
20
-170.3064157
11
312.6241357
21
-184.2978873
0
LINE
8
0
10
188.4001475
20
-169.017454
11
202.323454
21
-170.4808525
0
LINE
8
0
10
202.323454
20
-170.4808525
11
203.7868525
21
-156.557546
0
LINE
8
0
10
203.7868525
20
-156.557546
11
189.863546
21
-155.0941475
0
LINE
8
0
10
189.863546
20
-155.0941475
11
188.4001475
21
-169.017454
0
LINE
8
0
10
217.175531
20
-170.4808525
11
231.0988375
21
-169.017454
0
LINE
8
0
10
231.0988375
20
-169.017454
11
229.635439
21
-155.0941475
0
LINE
8
0
10
229.635439
20
-155.0941475
11
215.7121325
21
-156.557546
0
LINE
8
0
10
215.7121325
20
-156.557546
11
217.175531
21
-170.4808525
0
CIRCLE
8
0
10
120.2062
20
-129.45
40
1.1
0
ARC
8
0
10
118.6562
20
-164.2
40
1.1
50
197.577402
51
330.422603
0
ARC
8
0
10
165.5562
20
-175.75
40
1.1
50
258.2019242
51
449.7980788
0
CIRCLE
8
0
10
196.4062
20
-129.45
40
1.1
0
CIRCLE
8
0
10
226.8963
20
-148.55
40
1.1
0
ARC
8
0
10
299.4463
20
-127.15
40
1.1
50
163.2920963
51
384.7079064
0
CIRCLE
8
0
10
271.1463
20
-175.95
40
1.1
0
ENDSEC
0
EOF