0
SECTION
2
HEADER
9
$INSUNITS
70
4
0
ENDSEC
0
SECTION
2
TABLES
0
TABLE
2
LTYPE
0
LTYPE
72
65
70
64
2
CONTINUOUS
3
______
73
0
40
0
0
ENDTAB
0
TABLE
2
LAYER
0
ENDTAB
0
ENDSEC
0
SECTION
2
ENTITIES
0
LINE
8
0
10
-8
20
-8
11
8
21
-8
0
LINE
8
0
10
8
20
-8
11
8
21
8
0
LINE
8
0
10
8
20
8
11
-8
21
8
0
LINE
8
0
10
-8
20
8
11
-8
21
-8
0
LINE
8
0
10
-8
20
11.05
11
8
21
11.05
0
LINE
8
0
10
8
20
11.05
11
8
21
27.05
0
LINE
8
0
10
8
20
27.05
11
-8
21
27.05
0
LINE
8
0
10
-8
20
27.05
11
-8
21
11.05
0
LINE
8
0
10
11.05
20
-8
11
27.05
21
-8
0
LINE
8
0
10
27.05
20
-8
11
27.05
21
8
0
LINE
8
0
10
27.05
20
8
11
11.05
21
8
0
LINE
8
0
10
11.05
20
8
11
11.05
21
-8
0
LINE
8
0
10
11.05
20
11.05
11
27.05
21
11.05
0
LINE
8
0
10
27.05
20
11.05
11
27.05
21
27.05
0
LINE
8
0
10
27.05
20
27.05
11
11.05
21
27.05
0
LINE
8
0
10
11.05
20
27.05
11
11.05
21
11.05
0
LINE
8
0
10
30.1
20
-8
11
46.1
21
-8
0
LINE
8
0
10
46.1
20
-8
11
46.1
21
8
0
LINE
8
0
10
46.1
20
8
11
30.1
21
8
0
LINE
8
0
10
30.1
20
8
11
30.1
21
-8
0
LINE
8
0
10
30.1
20
11.05
11
46.1
21
11.05
0
LINE
8
0
10
46.1
20
11.05
11
46.1
21
27.05
0
LINE
8
0
10
46.1
20
27.05
11
30.1
21
27.05
0
LINE
8
0
10
30.1
20
27.05
11
30.1
21
11.05
0
LINE
8
0
10
49.15
20
-8
11
65.15
21
-8
0
LINE
8
0
10
65.15
20
-8
11
65.15
21
8
0
LINE
8
0
10
65.15
20
8
11
49.15
21
8
0
LINE
8
0
10
49.15
20
8
11
49.15
21
-8
0
LINE
8
0
10
49.15
20
11.05
11
65.15
21
11.05
0
LINE
8
0
10
65.15
20
11.05
11
65.15
21
27.05
0
LINE
8
0
10
65.15
20
27.05
11
49.15
21
27.05
0
LINE
8
0
10
49.15
20
27.05
11
49.15
21
11.05
0
ENDSEC
0
EOF