0
SECTION
2
HEADER
9
$INSUNITS
70
4
0
ENDSEC
0
SECTION
2
TABLES
0
TABLE
2
LTYPE
0
LTYPE
72
65
70
64
2
CONTINUOUS
3
______
73
0
40
0
0
ENDTAB
0
TABLE
2
LAYER
0
ENDTAB
0
ENDSEC
0
SECTION
2
ENTITIES
0
LINE
8
0
10
-6.5
20
-7
11
6.5
21
-7
0
LINE
8
0
10
7
20
-6.5
11
7
21
6.5
0
LINE
8
0
10
6.5
20
7
11
-6.5
21
7
0
LINE
8
0
10
-7
20
6.5
11
-7
21
-6.5
0
LINE
8
0
10
-6.5
20
12.05
11
6.5
21
12.05
0
LINE
8
0
10
7
20
12.55
11
7
21
25.55
0
LINE
8
0
10
6.5
20
26.05
11
-6.5
21
26.05
0
LINE
8
0
10
-7
20
25.55
11
-7
21
12.55
0
LINE
8
0
10
-6.5
20
31.1
11
6.5
21
31.1
0
LINE
8
0
10
7
20
31.6
11
7
21
44.6
0
LINE
8
0
10
6.5
20
45.1
11
-6.5
21
45.1
0
LINE
8
0
10
-7
20
44.6
11
-7
21
31.6
0
LINE
8
0
10
-6.5
20
50.15
11
6.5
21
50.15
0
LINE
8
0
10
7
20
50.65
11
7
21
63.65
0
LINE
8
0
10
6.5
20
64.15
11
-6.5
21
64.15
0
LINE
8
0
10
-7
20
63.65
11
-7
21
50.65
0
LINE
8
0
10
12.55
20
-7
11
25.55
21
-7
0
LINE
8
0
10
26.05
20
-6.5
11
26.05
21
6.5
0
LINE
8
0
10
25.55
20
7
11
12.55
21
7
0
LINE
8
0
10
12.05
20
6.5
11
12.05
21
-6.5
0
LINE
8
0
10
12.55
20
12.05
11
25.55
21
12.05
0
LINE
8
0
10
26.05
20
12.55
11
26.05
21
25.55
0
LINE
8
0
10
25.55
20
26.05
11
12.55
21
26.05
0
LINE
8
0
10
12.05
20
25.55
11
12.05
21
12.55
0
LINE
8
0
10
12.55
20
31.1
11
25.55
21
31.1
0
LINE
8
0
10
26.05
20
31.6
11
26.05
21
44.6
0
LINE
8
0
10
25.55
20
45.1
11
12.55
21
45.1
0
LINE
8
0
10
12.05
20
44.6
11
12.05
21
31.6
0
LINE
8
0
10
12.55
20
50.15
11
25.55
21
50.15
0
LINE
8
0
10
26.05
20
50.65
11
26.05
21
63.65
0
LINE
8
0
10
25.55
20
64.15
11
12.55
21
64.15
0
LINE
8
0
10
12.05
20
63.65
11
12.05
21
50.65
0
LINE
8
0
10
31.6
20
-7
11
44.6
21
-7
0
LINE
8
0
10
45.1
20
-6.5
11
45.1
21
6.5
0
LINE
8
0
10
44.6
20
7
11
31.6
21
7
0
LINE
8
0
10
31.1
20
6.5
11
31.1
21
-6.5
0
LINE
8
0
10
31.6
20
12.05
11
44.6
21
12.05
0
LINE
8
0
10
45.1
20
12.55
11
45.1
21
25.55
0
LINE
8
0
10
44.6
20
26.05
11
31.6
21
26.05
0
LINE
8
0
10
31.1
20
25.55
11
31.1
21
12.55
0
LINE
8
0
10
31.6
20
31.1
11
44.6
21
31.1
0
LINE
8
0
10
45.1
20
31.6
11
45.1
21
44.6
0
LINE
8
0
10
44.6
20
45.1
11
31.6
21
45.1
0
LINE
8
0
10
31.1
20
44.6
11
31.1
21
31.6
0
LINE
8
0
10
31.6
20
50.15
11
44.6
21
50.15
0
LINE
8
0
10
45.1
20
50.65
11
45.1
21
63.65
0
LINE
8
0
10
44.6
20
64.15
11
31.6
21
64.15
0
LINE
8
0
10
31.1
20
63.65
11
31.1
21
50.65
0
LINE
8
0
10
50.65
20
-7
11
63.65
21
-7
0
LINE
8
0
10
64.15
20
-6.5
11
64.15
21
6.5
0
LINE
8
0
10
63.65
20
7
11
50.65
21
7
0
LINE
8
0
10
50.15
20
6.5
11
50.15
21
-6.5
0
LINE
8
0
10
50.65
20
12.05
11
63.65
21
12.05
0
LINE
8
0
10
64.15
20
12.55
11
64.15
21
25.55
0
LINE
8
0
10
63.65
20
26.05
11
50.65
21
26.05
0
LINE
8
0
10
50.15
20
25.55
11
50.15
21
12.55
0
LINE
8
0
10
50.65
20
31.1
11
63.65
21
31.1
0
LINE
8
0
10
64.15
20
31.6
11
64.15
21
44.6
0
LINE
8
0
10
63.65
20
45.1
11
50.65
21
45.1
0
LINE
8
0
10
50.15
20
44.6
11
50.15
21
31.6
0
LINE
8
0
10
50.65
20
50.15
11
63.65
21
50.15
0
LINE
8
0
10
64.15
20
50.65
11
64.15
21
63.65
0
LINE
8
0
10
63.65
20
64.15
11
50.65
21
64.15
0
LINE
8
0
10
50.15
20
63.65
11
50.15
21
50.65
0
LINE
8
0
10
69.7
20
12.05
11
82.7
21
12.05
0
LINE
8
0
10
83.2
20
12.55
11
83.2
21
25.55
0
LINE
8
0
10
82.7
20
26.05
11
69.7
21
26.05
0
LINE
8
0
10
69.2
20
25.55
11
69.2
21
12.55
0
LINE
8
0
10
69.7
20
31.1
11
82.7
21
31.1
0
LINE
8
0
10
83.2
20
31.6
11
83.2
21
44.6
0
LINE
8
0
10
82.7
20
45.1
11
69.7
21
45.1
0
LINE
8
0
10
69.2
20
44.6
11
69.2
21
31.6
0
LINE
8
0
10
69.7
20
50.15
11
82.7
21
50.15
0
LINE
8
0
10
83.2
20
50.65
11
83.2
21
63.65
0
LINE
8
0
10
82.7
20
64.15
11
69.7
21
64.15
0
LINE
8
0
10
69.2
20
63.65
11
69.2
21
50.65
0
LINE
8
0
10
88.75
20
12.05
11
101.75
21
12.05
0
LINE
8
0
10
102.25
20
12.55
11
102.25
21
25.55
0
LINE
8
0
10
101.75
20
26.05
11
88.75
21
26.05
0
LINE
8
0
10
88.25
20
25.55
11
88.25
21
12.55
0
LINE
8
0
10
88.75
20
31.1
11
101.75
21
31.1
0
LINE
8
0
10
102.25
20
31.6
11
102.25
21
44.6
0
LINE
8
0
10
101.75
20
45.1
11
88.75
21
45.1
0
LINE
8
0
10
88.25
20
44.6
11
88.25
21
31.6
0
LINE
8
0
10
88.75
20
50.15
11
101.75
21
50.15
0
LINE
8
0
10
102.25
20
50.65
11
102.25
21
63.65
0
LINE
8
0
10
101.75
20
64.15
11
88.75
21
64.15
0
LINE
8
0
10
88.25
20
63.65
11
88.25
21
50.65
0
LINE
8
0
10
107.8
20
12.05
11
120.8
21
12.05
0
LINE
8
0
10
121.3
20
12.55
11
121.3
21
25.55
0
LINE
8
0
10
120.8
20
26.05
11
107.8
21
26.05
0
LINE
8
0
10
107.3
20
25.55
11
107.3
21
12.55
0
LINE
8
0
10
107.8
20
31.1
11
120.8
21
31.1
0
LINE
8
0
10
121.3
20
31.6
11
121.3
21
44.6
0
LINE
8
0
10
120.8
20
45.1
11
107.8
21
45.1
0
LINE
8
0
10
107.3
20
44.6
11
107.3
21
31.6
0
LINE
8
0
10
107.8
20
50.15
11
120.8
21
50.15
0
LINE
8
0
10
121.3
20
50.65
11
121.3
21
63.65
0
LINE
8
0
10
120.8
20
64.15
11
107.8
21
64.15
0
LINE
8
0
10
107.3
20
63.65
11
107.3
21
50.65
0
LINE
8
0
10
126.85
20
12.05
11
139.85
21
12.05
0
LINE
8
0
10
140.35
20
12.55
11
140.35
21
25.55
0
LINE
8
0
10
139.85
20
26.05
11
126.85
21
26.05
0
LINE
8
0
10
126.35
20
25.55
11
126.35
21
12.55
0
LINE
8
0
10
126.85
20
31.1
11
139.85
21
31.1
0
LINE
8
0
10
140.35
20
31.6
11
140.35
21
44.6
0
LINE
8
0
10
139.85
20
45.1
11
126.85
21
45.1
0
LINE
8
0
10
126.35
20
44.6
11
126.35
21
31.6
0
LINE
8
0
10
126.85
20
50.15
11
139.85
21
50.15
0
LINE
8
0
10
140.35
20
50.65
11
140.35
21
63.65
0
LINE
8
0
10
139.85
20
64.15
11
126.85
21
64.15
0
LINE
8
0
10
126.35
20
63.65
11
126.35
21
50.65
0
LINE
8
0
10
145.9
20
12.05
11
158.9
21
12.05
0
LINE
8
0
10
159.4
20
12.55
11
159.4
21
25.55
0
LINE
8
0
10
158.9
20
26.05
11
145.9
21
26.05
0
LINE
8
0
10
145.4
20
25.55
11
145.4
21
12.55
0
LINE
8
0
10
145.9
20
31.1
11
158.9
21
31.1
0
LINE
8
0
10
159.4
20
31.6
11
159.4
21
44.6
0
LINE
8
0
10
158.9
20
45.1
11
145.9
21
45.1
0
LINE
8
0
10
145.4
20
44.6
11
145.4
21
31.6
0
LINE
8
0
10
145.9
20
50.15
11
158.9
21
50.15
0
LINE
8
0
10
159.4
20
50.65
11
159.4
21
63.65
0
LINE
8
0
10
158.9
20
64.15
11
145.9
21
64.15
0
LINE
8
0
10
145.4
20
63.65
11
145.4
21
50.65
0
LINE
8
0
10
164.95
20
-7
11
177.95
21
-7
0
LINE
8
0
10
178.45
20
-6.5
11
178.45
21
6.5
0
LINE
8
0
10
177.95
20
7
11
164.95
21
7
0
LINE
8
0
10
164.45
20
6.5
11
164.45
21
-6.5
0
LINE
8
0
10
164.95
20
12.05
11
177.95
21
12.05
0
LINE
8
0
10
178.45
20
12.55
11
178.45
21
25.55
0
LINE
8
0
10
177.95
20
26.05
11
164.95
21
26.05
0
LINE
8
0
10
164.45
20
25.55
11
164.45
21
12.55
0
LINE
8
0
10
164.95
20
31.1
11
177.95
21
31.1
0
LINE
8
0
10
178.45
20
31.6
11
178.45
21
44.6
0
LINE
8
0
10
177.95
20
45.1
11
164.95
21
45.1
0
LINE
8
0
10
164.45
20
44.6
11
164.45
21
31.6
0
LINE
8
0
10
164.95
20
50.15
11
177.95
21
50.15
0
LINE
8
0
10
178.45
20
50.65
11
178.45
21
63.65
0
LINE
8
0
10
177.95
20
64.15
11
164.95
21
64.15
0
LINE
8
0
10
164.45
20
63.65
11
164.45
21
50.65
0
LINE
8
0
10
184
20
-7
11
197
21
-7
0
LINE
8
0
10
197.5
20
-6.5
11
197.5
21
6.5
0
LINE
8
0
10
197
20
7
11
184
21
7
0
LINE
8
0
10
183.5
20
6.5
11
183.5
21
-6.5
0
LINE
8
0
10
184
20
12.05
11
197
21
12.05
0
LINE
8
0
10
197.5
20
12.55
11
197.5
21
25.55
0
LINE
8
0
10
197
20
26.05
11
184
21
26.05
0
LINE
8
0
10
183.5
20
25.55
11
183.5
21
12.55
0
LINE
8
0
10
184
20
31.1
11
197
21
31.1
0
LINE
8
0
10
197.5
20
31.6
11
197.5
21
44.6
0
LINE
8
0
10
197
20
45.1
11
184
21
45.1
0
LINE
8
0
10
183.5
20
44.6
11
183.5
21
31.6
0
LINE
8
0
10
184
20
50.15
11
197
21
50.15
0
LINE
8
0
10
197.5
20
50.65
11
197.5
21
63.65
0
LINE
8
0
10
197
20
64.15
11
184
21
64.15
0
LINE
8
0
10
183.5
20
63.65
11
183.5
21
50.65
0
LINE
8
0
10
203.05
20
50.15
11
216.05
21
50.15
0
LINE
8
0
10
216.55
20
50.65
11
216.55
21
63.65
0
LINE
8
0
10
216.05
20
64.15
11
203.05
21
64.15
0
LINE
8
0
10
202.55
20
63.65
11
202.55
21
50.65
0
ARC
8
0
10
63.65
20
-6.5
40
0.5
50
270
51
0
0
ARC
8
0
10
63.65
20
6.5
40
0.5
50
0
51
90
0
ARC
8
0
10
50.65
20
6.5
40
0.5
50
90
51
180
0
ARC
8
0
10
50.65
20
-6.5
40
0.5
50
180
51
270
0
ARC
8
0
10
63.65
20
12.55
40
0.5
50
270
51
0
0
ARC
8
0
10
63.65
20
25.55
40
0.5
50
0
51
90
0
ARC
8
0
10
50.65
20
25.55
40
0.5
50
90
51
180
0
ARC
8
0
10
50.65
20
12.55
40
0.5
50
180
51
270
0
ARC
8
0
10
63.65
20
31.6
40
0.5
50
270
51
0
0
ARC
8
0
10
63.65
20
44.6
40
0.5
50
0
51
90
0
ARC
8
0
10
50.65
20
44.6
40
0.5
50
90
51
180
0
ARC
8
0
10
50.65
20
31.6
40
0.5
50
180
51
270
0
ARC
8
0
10
63.65
20
50.65
40
0.5
50
270
51
0
0
ARC
8
0
10
63.65
20
63.65
40
0.5
50
0
51
90
0
ARC
8
0
10
50.65
20
63.65
40
0.5
50
90
51
180
0
ARC
8
0
10
50.65
20
50.65
40
0.5
50
180
51
270
0
ARC
8
0
10
6.5
20
-6.5
40
0.5
50
270
51
0
0
ARC
8
0
10
6.5
20
6.5
40
0.5
50
0
51
90
0
ARC
8
0
10
-6.5
20
6.5
40
0.5
50
90
51
180
0
ARC
8
0
10
-6.5
20
-6.5
40
0.5
50
180
51
270
0
ARC
8
0
10
6.5
20
12.55
40
0.5
50
270
51
0
0
ARC
8
0
10
6.5
20
25.55
40
0.5
50
0
51
90
0
ARC
8
0
10
-6.5
20
25.55
40
0.5
50
90
51
180
0
ARC
8
0
10
-6.5
20
12.55
40
0.5
50
180
51
270
0
ARC
8
0
10
6.5
20
31.6
40
0.5
50
270
51
0
0
ARC
8
0
10
6.5
20
44.6
40
0.5
50
0
51
90
0
ARC
8
0
10
-6.5
20
44.6
40
0.5
50
90
51
180
0
ARC
8
0
10
-6.5
20
31.6
40
0.5
50
180
51
270
0
ARC
8
0
10
6.5
20
50.65
40
0.5
50
270
51
0
0
ARC
8
0
10
6.5
20
63.65
40
0.5
50
0
51
90
0
ARC
8
0
10
-6.5
20
63.65
40
0.5
50
90
51
180
0
ARC
8
0
10
-6.5
20
50.65
40
0.5
50
180
51
270
0
ARC
8
0
10
25.55
20
-6.5
40
0.5
50
270
51
0
0
ARC
8
0
10
25.55
20
6.5
40
0.5
50
0
51
90
0
ARC
8
0
10
12.55
20
6.5
40
0.5
50
90
51
180
0
ARC
8
0
10
12.55
20
-6.5
40
0.5
50
180
51
270
0
ARC
8
0
10
25.55
20
12.55
40
0.5
50
270
51
0
0
ARC
8
0
10
25.55
20
25.55
40
0.5
50
0
51
90
0
ARC
8
0
10
12.55
20
25.55
40
0.5
50
90
51
180
0
ARC
8
0
10
12.55
20
12.55
40
0.5
50
180
51
270
0
ARC
8
0
10
25.55
20
31.6
40
0.5
50
270
51
0
0
ARC
8
0
10
25.55
20
44.6
40
0.5
50
0
51
90
0
ARC
8
0
10
12.55
20
44.6
40
0.5
50
90
51
180
0
ARC
8
0
10
12.55
20
31.6
40
0.5
50
180
51
270
0
ARC
8
0
10
25.55
20
50.65
40
0.5
50
270
51
0
0
ARC
8
0
10
25.55
20
63.65
40
0.5
50
0
51
90
0
ARC
8
0
10
12.55
20
63.65
40
0.5
50
90
51
180
0
ARC
8
0
10
12.55
20
50.65
40
0.5
50
180
51
270
0
ARC
8
0
10
44.6
20
-6.5
40
0.5
50
270
51
0
0
ARC
8
0
10
44.6
20
6.5
40
0.5
50
0
51
90
0
ARC
8
0
10
31.6
20
6.5
40
0.5
50
90
51
180
0
ARC
8
0
10
31.6
20
-6.5
40
0.5
50
180
51
270
0
ARC
8
0
10
44.6
20
12.55
40
0.5
50
270
51
0
0
ARC
8
0
10
44.6
20
25.55
40
0.5
50
0
51
90
0
ARC
8
0
10
31.6
20
25.55
40
0.5
50
90
51
180
0
ARC
8
0
10
31.6
20
12.55
40
0.5
50
180
51
270
0
ARC
8
0
10
44.6
20
31.6
40
0.5
50
270
51
0
0
ARC
8
0
10
44.6
20
44.6
40
0.5
50
0
51
90
0
ARC
8
0
10
31.6
20
44.6
40
0.5
50
90
51
180
0
ARC
8
0
10
31.6
20
31.6
40
0.5
50
180
51
270
0
ARC
8
0
10
44.6
20
50.65
40
0.5
50
270
51
0
0
ARC
8
0
10
44.6
20
63.65
40
0.5
50
0
51
90
0
ARC
8
0
10
31.6
20
63.65
40
0.5
50
90
51
180
0
ARC
8
0
10
31.6
20
50.65
40
0.5
50
180
51
270
0
ARC
8
0
10
82.7
20
12.55
40
0.5
50
270
51
0
0
ARC
8
0
10
82.7
20
25.55
40
0.5
50
0
51
90
0
ARC
8
0
10
69.7
20
25.55
40
0.5
50
90
51
180
0
ARC
8
0
10
69.7
20
12.55
40
0.5
50
180
51
270
0
ARC
8
0
10
82.7
20
31.6
40
0.5
50
270
51
0
0
ARC
8
0
10
82.7
20
44.6
40
0.5
50
0
51
90
0
ARC
8
0
10
69.7
20
44.6
40
0.5
50
90
51
180
0
ARC
8
0
10
69.7
20
31.6
40
0.5
50
180
51
270
0
ARC
8
0
10
82.7
20
50.65
40
0.5
50
270
51
0
0
ARC
8
0
10
82.7
20
63.65
40
0.5
50
0
51
90
0
ARC
8
0
10
69.7
20
63.65
40
0.5
50
90
51
180
0
ARC
8
0
10
69.7
20
50.65
40
0.5
50
180
51
270
0
ARC
8
0
10
101.75
20
12.55
40
0.5
50
270
51
0
0
ARC
8
0
10
101.75
20
25.55
40
0.5
50
0
51
90
0
ARC
8
0
10
88.75
20
25.55
40
0.5
50
90
51
180
0
ARC
8
0
10
88.75
20
12.55
40
0.5
50
180
51
270
0
ARC
8
0
10
101.75
20
31.6
40
0.5
50
270
51
0
0
ARC
8
0
10
101.75
20
44.6
40
0.5
50
0
51
90
0
ARC
8
0
10
88.75
20
44.6
40
0.5
50
90
51
180
0
ARC
8
0
10
88.75
20
31.6
40
0.5
50
180
51
270
0
ARC
8
0
10
101.75
20
50.65
40
0.5
50
270
51
0
0
ARC
8
0
10
101.75
20
63.65
40
0.5
50
0
51
90
0
ARC
8
0
10
88.75
20
63.65
40
0.5
50
90
51
180
0
ARC
8
0
10
88.75
20
50.65
40
0.5
50
180
51
270
0
ARC
8
0
10
120.8
20
12.55
40
0.5
50
270
51
0
0
ARC
8
0
10
120.8
20
25.55
40
0.5
50
0
51
90
0
ARC
8
0
10
107.8
20
25.55
40
0.5
50
90
51
180
0
ARC
8
0
10
107.8
20
12.55
40
0.5
50
180
51
270
0
ARC
8
0
10
120.8
20
31.6
40
0.5
50
270
51
0
0
ARC
8
0
10
120.8
20
44.6
40
0.5
50
0
51
90
0
ARC
8
0
10
107.8
20
44.6
40
0.5
50
90
51
180
0
ARC
8
0
10
107.8
20
31.6
40
0.5
50
180
51
270
0
ARC
8
0
10
120.8
20
50.65
40
0.5
50
270
51
0
0
ARC
8
0
10
120.8
20
63.65
40
0.5
50
0
51
90
0
ARC
8
0
10
107.8
20
63.65
40
0.5
50
90
51
180
0
ARC
8
0
10
107.8
20
50.65
40
0.5
50
180
51
270
0
ARC
8
0
10
139.85
20
12.55
40
0.5
50
270
51
0
0
ARC
8
0
10
139.85
20
25.55
40
0.5
50
0
51
90
0
ARC
8
0
10
126.85
20
25.55
40
0.5
50
90
51
180
0
ARC
8
0
10
126.85
20
12.55
40
0.5
50
180
51
270
0
ARC
8
0
10
139.85
20
31.6
40
0.5
50
270
51
0
0
ARC
8
0
10
139.85
20
44.6
40
0.5
50
0
51
90
0
ARC
8
0
10
126.85
20
44.6
40
0.5
50
90
51
180
0
ARC
8
0
10
126.85
20
31.6
40
0.5
50
180
51
270
0
ARC
8
0
10
139.85
20
50.65
40
0.5
50
270
51
0
0
ARC
8
0
10
139.85
20
63.65
40
0.5
50
0
51
90
0
ARC
8
0
10
126.85
20
63.65
40
0.5
50
90
51
180
0
ARC
8
0
10
126.85
20
50.65
40
0.5
50
180
51
270
0
ARC
8
0
10
158.9
20
12.55
40
0.5
50
270
51
0
0
ARC
8
0
10
158.9
20
25.55
40
0.5
50
0
51
90
0
ARC
8
0
10
145.9
20
25.55
40
0.5
50
90
51
180
0
ARC
8
0
10
145.9
20
12.55
40
0.5
50
180
51
270
0
ARC
8
0
10
158.9
20
31.6
40
0.5
50
270
51
0
0
ARC
8
0
10
158.9
20
44.6
40
0.5
50
0
51
90
0
ARC
8
0
10
145.9
20
44.6
40
0.5
50
90
51
180
0
ARC
8
0
10
145.9
20
31.6
40
0.5
50
180
51
270
0
ARC
8
0
10
158.9
20
50.65
40
0.5
50
270
51
0
0
ARC
8
0
10
158.9
20
63.65
40
0.5
50
0
51
90
0
ARC
8
0
10
145.9
20
63.65
40
0.5
50
90
51
180
0
ARC
8
0
10
145.9
20
50.65
40
0.5
50
180
51
270
0
ARC
8
0
10
177.95
20
-6.5
40
0.5
50
270
51
0
0
ARC
8
0
10
177.95
20
6.5
40
0.5
50
0
51
90
0
ARC
8
0
10
164.95
20
6.5
40
0.5
50
90
51
180
0
ARC
8
0
10
164.95
20
-6.5
40
0.5
50
180
51
270
0
ARC
8
0
10
177.95
20
12.55
40
0.5
50
270
51
0
0
ARC
8
0
10
177.95
20
25.55
40
0.5
50
0
51
90
0
ARC
8
0
10
164.95
20
25.55
40
0.5
50
90
51
180
0
ARC
8
0
10
164.95
20
12.55
40
0.5
50
180
51
270
0
ARC
8
0
10
177.95
20
31.6
40
0.5
50
270
51
0
0
ARC
8
0
10
177.95
20
44.6
40
0.5
50
0
51
90
0
ARC
8
0
10
164.95
20
44.6
40
0.5
50
90
51
180
0
ARC
8
0
10
164.95
20
31.6
40
0.5
50
180
51
270
0
ARC
8
0
10
177.95
20
50.65
40
0.5
50
270
51
0
0
ARC
8
0
10
177.95
20
63.65
40
0.5
50
0
51
90
0
ARC
8
0
10
164.95
20
63.65
40
0.5
50
90
51
180
0
ARC
8
0
10
164.95
20
50.65
40
0.5
50
180
51
270
0
ARC
8
0
10
197
20
-6.5
40
0.5
50
270
51
0
0
ARC
8
0
10
197
20
6.5
40
0.5
50
0
51
90
0
ARC
8
0
10
184
20
6.5
40
0.5
50
90
51
180
0
ARC
8
0
10
184
20
-6.5
40
0.5
50
180
51
270
0
ARC
8
0
10
197
20
12.55
40
0.5
50
270
51
0
0
ARC
8
0
10
197
20
25.55
40
0.5
50
0
51
90
0
ARC
8
0
10
184
20
25.55
40
0.5
50
90
51
180
0
ARC
8
0
10
184
20
12.55
40
0.5
50
180
51
270
0
ARC
8
0
10
197
20
31.6
40
0.5
50
270
51
0
0
ARC
8
0
10
197
20
44.6
40
0.5
50
0
51
90
0
ARC
8
0
10
184
20
44.6
40
0.5
50
90
51
180
0
ARC
8
0
10
184
20
31.6
40
0.5
50
180
51
270
0
ARC
8
0
10
197
20
50.65
40
0.5
50
270
51
0
0
ARC
8
0
10
197
20
63.65
40
0.5
50
0
51
90
0
ARC
8
0
10
184
20
63.65
40
0.5
50
90
51
180
0
ARC
8
0
10
184
20
50.65
40
0.5
50
180
51
270
0
ARC
8
0
10
216.05
20
50.65
40
0.5
50
270
51
0
0
ARC
8
0
10
216.05
20
63.65
40
0.5
50
0
51
90
0
ARC
8
0
10
203.05
20
63.65
40
0.5
50
90
51
180
0
ARC
8
0
10
203.05
20
50.65
40
0.5
50
180
51
270
0
ENDSEC
0
EOF