0
SECTION
2
HEADER
9
$INSUNITS
70
4
0
ENDSEC
0
SECTION
2
TABLES
0
TABLE
2
LTYPE
0
LTYPE
72
65
70
64
2
CONTINUOUS
3
______
73
0
40
0
0
ENDTAB
0
TABLE
2
LAYER
0
ENDTAB
0
ENDSEC
0
SECTION
2
ENTITIES
0
LINE
8
0
10
333.9896
20
-110.4091
11
333.7687
21
-110.4
0
LINE
8
0
10
333.7687
20
-110.4
11
86.2313
21
-110.4
0
LINE
8
0
10
86.2313
20
-110.4
11
86.0104
21
-110.4091
0
LINE
8
0
10
86.0104
20
-110.4091
11
85.7911
21
-110.4365
0
LINE
8
0
10
85.7911
20
-110.4365
11
85.5748
21
-110.4818
0
LINE
8
0
10
85.5748
20
-110.4818
11
85.363
21
-110.5448
0
LINE
8
0
10
85.363
20
-110.5448
11
85.1571
21
-110.6251
0
LINE
8
0
10
85.1571
20
-110.6251
11
84.9586
21
-110.7221
0
LINE
8
0
10
84.9586
20
-110.7221
11
84.7687
21
-110.8352
0
LINE
8
0
10
84.7687
20
-110.8352
11
84.5888
21
-110.9636
0
LINE
8
0
10
84.5888
20
-110.9636
11
84.4901
21
-111.0661
0
LINE
8
0
10
84.4901
20
-111.0661
11
84.4242
21
-111.1923
0
LINE
8
0
10
84.4242
20
-111.1923
11
84.3965
21
-111.3319
0
LINE
8
0
10
84.3965
20
-111.3319
11
84.4094
21
-111.4737
0
LINE
8
0
10
84.4094
20
-111.4737
11
84.4616
21
-111.6061
0
LINE
8
0
10
84.4616
20
-111.6061
11
84.549
21
-111.7184
0
LINE
8
0
10
84.549
20
-111.7184
11
84.6646
21
-111.8016
0
LINE
8
0
10
84.6646
20
-111.8016
11
84.7988
21
-111.8488
0
LINE
8
0
10
84.7988
20
-111.8488
11
85.198
21
-112.0023
0
LINE
8
0
10
85.198
20
-112.0023
11
85.5221
21
-112.2815
0
LINE
8
0
10
85.5221
20
-112.2815
11
85.7331
21
-112.6536
0
LINE
8
0
10
85.7331
20
-112.6536
11
85.8062
21
-113.075
0
LINE
8
0
10
85.8062
20
-113.075
11
85.7331
21
-113.4964
0
LINE
8
0
10
85.7331
20
-113.4964
11
85.5221
21
-113.8685
0
LINE
8
0
10
85.5221
20
-113.8685
11
85.198
21
-114.1477
0
LINE
8
0
10
85.198
20
-114.1477
11
84.7988
21
-114.3012
0
LINE
8
0
10
84.7988
20
-114.3012
11
84.6646
21
-114.3484
0
LINE
8
0
10
84.6646
20
-114.3484
11
84.549
21
-114.4316
0
LINE
8
0
10
84.549
20
-114.4316
11
84.4616
21
-114.5439
0
LINE
8
0
10
84.4616
20
-114.5439
11
84.4094
21
-114.6763
0
LINE
8
0
10
84.4094
20
-114.6763
11
84.3965
21
-114.8181
0
LINE
8
0
10
84.3965
20
-114.8181
11
84.4242
21
-114.9577
0
LINE
8
0
10
84.4242
20
-114.9577
11
84.4901
21
-115.0839
0
LINE
8
0
10
84.4901
20
-115.0839
11
84.5889
21
-115.1864
0
LINE
8
0
10
84.5889
20
-115.1864
11
84.7687
21
-115.3148
0
LINE
8
0
10
84.7687
20
-115.3148
11
84.9586
21
-115.4279
0
LINE
8
0
10
84.9586
20
-115.4279
11
85.1571
21
-115.5249
0
LINE
8
0
10
85.1571
20
-115.5249
11
85.363
21
-115.6052
0
LINE
8
0
10
85.363
20
-115.6052
11
85.5748
21
-115.6682
0
LINE
8
0
10
85.5748
20
-115.6682
11
85.7911
21
-115.7135
0
LINE
8
0
10
85.7911
20
-115.7135
11
86.0104
21
-115.7409
0
LINE
8
0
10
86.0104
20
-115.7409
11
86.2313
21
-115.75
0
LINE
8
0
10
86.2313
20
-115.75
11
87.0562
21
-115.75
0
LINE
8
0
10
87.0562
20
-115.75
11
87.3489
21
-115.7788
0
LINE
8
0
10
87.3489
20
-115.7788
11
87.6303
21
-115.8642
0
LINE
8
0
10
87.6303
20
-115.8642
11
87.8896
21
-116.0028
0
LINE
8
0
10
87.8896
20
-116.0028
11
88.1169
21
-116.1893
0
LINE
8
0
10
88.1169
20
-116.1893
11
88.3035
21
-116.4166
0
LINE
8
0
10
88.3035
20
-116.4166
11
88.4421
21
-116.676
0
LINE
8
0
10
88.4421
20
-116.676
11
88.5274
21
-116.9574
0
LINE
8
0
10
88.5274
20
-116.9574
11
88.5562
21
-117.25
0
LINE
8
0
10
88.5562
20
-117.25
11
88.5562
21
-179.75
0
LINE
8
0
10
88.5562
20
-179.75
11
88.5274
21
-180.0426
0
LINE
8
0
10
88.5274
20
-180.0426
11
88.4421
21
-180.324
0
LINE
8
0
10
88.4421
20
-180.324
11
88.3035
21
-180.5834
0
LINE
8
0
10
88.3035
20
-180.5834
11
88.1169
21
-180.8107
0
LINE
8
0
10
88.1169
20
-180.8107
11
87.8896
21
-180.9972
0
LINE
8
0
10
87.8896
20
-180.9972
11
87.6303
21
-181.1358
0
LINE
8
0
10
87.6303
20
-181.1358
11
87.3489
21
-181.2212
0
LINE
8
0
10
87.3489
20
-181.2212
11
87.0562
21
-181.25
0
LINE
8
0
10
87.0562
20
-181.25
11
86.2313
21
-181.25
0
LINE
8
0
10
86.2313
20
-181.25
11
86.0104
21
-181.2591
0
LINE
8
0
10
86.0104
20
-181.2591
11
85.7911
21
-181.2865
0
LINE
8
0
10
85.7911
20
-181.2865
11
85.5748
21
-181.3318
0
LINE
8
0
10
85.5748
20
-181.3318
11
85.363
21
-181.3948
0
LINE
8
0
10
85.363
20
-181.3948
11
85.1571
21
-181.4751
0
LINE
8
0
10
85.1571
20
-181.4751
11
84.9586
21
-181.5721
0
LINE
8
0
10
84.9586
20
-181.5721
11
84.7687
21
-181.6852
0
LINE
8
0
10
84.7687
20
-181.6852
11
84.5888
21
-181.8136
0
LINE
8
0
10
84.5888
20
-181.8136
11
84.4901
21
-181.9161
0
LINE
8
0
10
84.4901
20
-181.9161
11
84.4242
21
-182.0423
0
LINE
8
0
10
84.4242
20
-182.0423
11
84.3965
21
-182.1819
0
LINE
8
0
10
84.3965
20
-182.1819
11
84.4094
21
-182.3237
0
LINE
8
0
10
84.4094
20
-182.3237
11
84.4616
21
-182.4561
0
LINE
8
0
10
84.4616
20
-182.4561
11
84.549
21
-182.5684
0
LINE
8
0
10
84.549
20
-182.5684
11
84.6646
21
-182.6516
0
LINE
8
0
10
84.6646
20
-182.6516
11
84.7988
21
-182.6988
0
LINE
8
0
10
84.7988
20
-182.6988
11
85.198
21
-182.8523
0
LINE
8
0
10
85.198
20
-182.8523
11
85.5221
21
-183.1315
0
LINE
8
0
10
85.5221
20
-183.1315
11
85.7331
21
-183.5036
0
LINE
8
0
10
85.7331
20
-183.5036
11
85.8062
21
-183.925
0
LINE
8
0
10
85.8062
20
-183.925
11
85.7331
21
-184.3464
0
LINE
8
0
10
85.7331
20
-184.3464
11
85.5221
21
-184.7185
0
LINE
8
0
10
85.5221
20
-184.7185
11
85.198
21
-184.9977
0
LINE
8
0
10
85.198
20
-184.9977
11
84.7988
21
-185.1512
0
LINE
8
0
10
84.7988
20
-185.1512
11
84.6646
21
-185.1984
0
LINE
8
0
10
84.6646
20
-185.1984
11
84.549
21
-185.2816
0
LINE
8
0
10
84.549
20
-185.2816
11
84.4616
21
-185.3939
0
LINE
8
0
10
84.4616
20
-185.3939
11
84.4094
21
-185.5263
0
LINE
8
0
10
84.4094
20
-185.5263
11
84.3965
21
-185.6681
0
LINE
8
0
10
84.3965
20
-185.6681
11
84.4242
21
-185.8077
0
LINE
8
0
10
84.4242
20
-185.8077
11
84.4901
21
-185.9339
0
LINE
8
0
10
84.4901
20
-185.9339
11
84.5889
21
-186.0364
0
LINE
8
0
10
84.5889
20
-186.0364
11
84.7687
21
-186.1648
0
LINE
8
0
10
84.7687
20
-186.1648
11
84.9586
21
-186.2779
0
LINE
8
0
10
84.9586
20
-186.2779
11
85.1571
21
-186.3749
0
LINE
8
0
10
85.1571
20
-186.3749
11
85.363
21
-186.4552
0
LINE
8
0
10
85.363
20
-186.4552
11
85.5748
21
-186.5182
0
LINE
8
0
10
85.5748
20
-186.5182
11
85.7911
21
-186.5635
0
LINE
8
0
10
85.7911
20
-186.5635
11
86.0104
21
-186.5909
0
LINE
8
0
10
86.0104
20
-186.5909
11
86.2313
21
-186.6
0
LINE
8
0
10
86.2313
20
-186.6
11
333.7687
21
-186.6
0
LINE
8
0
10
333.7687
20
-186.6
11
333.9896
21
-186.5909
0
LINE
8
0
10
333.9896
20
-186.5909
11
334.2089
21
-186.5635
0
LINE
8
0
10
334.2089
20
-186.5635
11
334.4252
21
-186.5182
0
LINE
8
0
10
334.4252
20
-186.5182
11
334.637
21
-186.4552
0
LINE
8
0
10
334.637
20
-186.4552
11
334.8429
21
-186.3749
0
LINE
8
0
10
334.8429
20
-186.3749
11
335.0414
21
-186.2779
0
LINE
8
0
10
335.0414
20
-186.2779
11
335.2313
21
-186.1648
0
LINE
8
0
10
335.2313
20
-186.1648
11
335.4112
21
-186.0364
0
LINE
8
0
10
335.4112
20
-186.0364
11
335.5099
21
-185.9339
0
LINE
8
0
10
335.5099
20
-185.9339
11
335.5758
21
-185.8077
0
LINE
8
0
10
335.5758
20
-185.8077
11
335.6035
21
-185.6681
0
LINE
8
0
10
335.6035
20
-185.6681
11
335.5906
21
-185.5263
0
LINE
8
0
10
335.5906
20
-185.5263
11
335.5384
21
-185.3939
0
LINE
8
0
10
335.5384
20
-185.3939
11
335.451
21
-185.2816
0
LINE
8
0
10
335.451
20
-185.2816
11
335.3354
21
-185.1984
0
LINE
8
0
10
335.3354
20
-185.1984
11
335.2012
21
-185.1512
0
LINE
8
0
10
335.2012
20
-185.1512
11
334.802
21
-184.9977
0
LINE
8
0
10
334.802
20
-184.9977
11
334.4779
21
-184.7185
0
LINE
8
0
10
334.4779
20
-184.7185
11
334.2669
21
-184.3464
0
LINE
8
0
10
334.2669
20
-184.3464
11
334.1938
21
-183.925
0
LINE
8
0
10
334.1938
20
-183.925
11
334.2669
21
-183.5036
0
LINE
8
0
10
334.2669
20
-183.5036
11
334.4779
21
-183.1315
0
LINE
8
0
10
334.4779
20
-183.1315
11
334.802
21
-182.8523
0
LINE
8
0
10
334.802
20
-182.8523
11
335.2012
21
-182.6988
0
LINE
8
0
10
335.2012
20
-182.6988
11
335.3354
21
-182.6516
0
LINE
8
0
10
335.3354
20
-182.6516
11
335.451
21
-182.5684
0
LINE
8
0
10
335.451
20
-182.5684
11
335.5384
21
-182.4561
0
LINE
8
0
10
335.5384
20
-182.4561
11
335.5906
21
-182.3237
0
LINE
8
0
10
335.5906
20
-182.3237
11
335.6035
21
-182.1819
0
LINE
8
0
10
335.6035
20
-182.1819
11
335.5758
21
-182.0423
0
LINE
8
0
10
335.5758
20
-182.0423
11
335.5099
21
-181.9161
0
LINE
8
0
10
335.5099
20
-181.9161
11
335.4111
21
-181.8136
0
LINE
8
0
10
335.4111
20
-181.8136
11
335.2313
21
-181.6852
0
LINE
8
0
10
335.2313
20
-181.6852
11
335.0414
21
-181.5721
0
LINE
8
0
10
335.0414
20
-181.5721
11
334.8429
21
-181.4751
0
LINE
8
0
10
334.8429
20
-181.4751
11
334.637
21
-181.3948
0
LINE
8
0
10
334.637
20
-181.3948
11
334.4252
21
-181.3318
0
LINE
8
0
10
334.4252
20
-181.3318
11
334.2089
21
-181.2865
0
LINE
8
0
10
334.2089
20
-181.2865
11
333.9896
21
-181.2591
0
LINE
8
0
10
333.9896
20
-181.2591
11
333.7687
21
-181.25
0
LINE
8
0
10
333.7687
20
-181.25
11
332.9438
21
-181.25
0
LINE
8
0
10
332.9438
20
-181.25
11
332.6511
21
-181.2212
0
LINE
8
0
10
332.6511
20
-181.2212
11
332.3697
21
-181.1358
0
LINE
8
0
10
332.3697
20
-181.1358
11
332.1104
21
-180.9972
0
LINE
8
0
10
332.1104
20
-180.9972
11
331.8831
21
-180.8107
0
LINE
8
0
10
331.8831
20
-180.8107
11
331.6965
21
-180.5834
0
LINE
8
0
10
331.6965
20
-180.5834
11
331.5579
21
-180.324
0
LINE
8
0
10
331.5579
20
-180.324
11
331.4726
21
-180.0426
0
LINE
8
0
10
331.4726
20
-180.0426
11
331.4438
21
-179.75
0
LINE
8
0
10
331.4438
20
-179.75
11
331.4438
21
-117.25
0
LINE
8
0
10
331.4438
20
-117.25
11
331.4726
21
-116.9574
0
LINE
8
0
10
331.4726
20
-116.9574
11
331.5579
21
-116.676
0
LINE
8
0
10
331.5579
20
-116.676
11
331.6965
21
-116.4166
0
LINE
8
0
10
331.6965
20
-116.4166
11
331.8831
21
-116.1893
0
LINE
8
0
10
331.8831
20
-116.1893
11
332.1104
21
-116.0028
0
LINE
8
0
10
332.1104
20
-116.0028
11
332.3697
21
-115.8642
0
LINE
8
0
10
332.3697
20
-115.8642
11
332.6511
21
-115.7788
0
LINE
8
0
10
332.6511
20
-115.7788
11
332.9438
21
-115.75
0
LINE
8
0
10
332.9438
20
-115.75
11
333.7687
21
-115.75
0
LINE
8
0
10
333.7687
20
-115.75
11
333.9896
21
-115.7409
0
LINE
8
0
10
333.9896
20
-115.7409
11
334.2089
21
-115.7135
0
LINE
8
0
10
334.2089
20
-115.7135
11
334.4252
21
-115.6682
0
LINE
8
0
10
334.4252
20
-115.6682
11
334.637
21
-115.6052
0
LINE
8
0
10
334.637
20
-115.6052
11
334.8429
21
-115.5249
0
LINE
8
0
10
334.8429
20
-115.5249
11
335.0414
21
-115.4279
0
LINE
8
0
10
335.0414
20
-115.4279
11
335.2313
21
-115.3148
0
LINE
8
0
10
335.2313
20
-115.3148
11
335.4112
21
-115.1864
0
LINE
8
0
10
335.4112
20
-115.1864
11
335.5099
21
-115.0839
0
LINE
8
0
10
335.5099
20
-115.0839
11
335.5758
21
-114.9577
0
LINE
8
0
10
335.5758
20
-114.9577
11
335.6035
21
-114.8181
0
LINE
8
0
10
335.6035
20
-114.8181
11
335.5906
21
-114.6763
0
LINE
8
0
10
335.5906
20
-114.6763
11
335.5384
21
-114.5439
0
LINE
8
0
10
335.5384
20
-114.5439
11
335.451
21
-114.4316
0
LINE
8
0
10
335.451
20
-114.4316
11
335.3354
21
-114.3484
0
LINE
8
0
10
335.3354
20
-114.3484
11
335.2012
21
-114.3012
0
LINE
8
0
10
335.2012
20
-114.3012
11
334.802
21
-114.1477
0
LINE
8
0
10
334.802
20
-114.1477
11
334.4779
21
-113.8685
0
LINE
8
0
10
334.4779
20
-113.8685
11
334.2669
21
-113.4964
0
LINE
8
0
10
334.2669
20
-113.4964
11
334.1938
21
-113.075
0
LINE
8
0
10
334.1938
20
-113.075
11
334.2669
21
-112.6536
0
LINE
8
0
10
334.2669
20
-112.6536
11
334.4779
21
-112.2815
0
LINE
8
0
10
334.4779
20
-112.2815
11
334.802
21
-112.0023
0
LINE
8
0
10
334.802
20
-112.0023
11
335.2012
21
-111.8488
0
LINE
8
0
10
335.2012
20
-111.8488
11
335.3354
21
-111.8016
0
LINE
8
0
10
335.3354
20
-111.8016
11
335.451
21
-111.7184
0
LINE
8
0
10
335.451
20
-111.7184
11
335.5384
21
-111.6061
0
LINE
8
0
10
335.5384
20
-111.6061
11
335.5906
21
-111.4737
0
LINE
8
0
10
335.5906
20
-111.4737
11
335.6035
21
-111.3319
0
LINE
8
0
10
335.6035
20
-111.3319
11
335.5758
21
-111.1923
0
LINE
8
0
10
335.5758
20
-111.1923
11
335.5099
21
-111.0661
0
LINE
8
0
10
335.5099
20
-111.0661
11
335.4111
21
-110.9636
0
LINE
8
0
10
335.4111
20
-110.9636
11
335.2313
21
-110.8352
0
LINE
8
0
10
335.2313
20
-110.8352
11
335.0414
21
-110.7221
0
LINE
8
0
10
335.0414
20
-110.7221
11
334.8429
21
-110.6251
0
LINE
8
0
10
334.8429
20
-110.6251
11
334.637
21
-110.5448
0
LINE
8
0
10
334.637
20
-110.5448
11
334.4252
21
-110.4818
0
LINE
8
0
10
334.4252
20
-110.4818
11
334.2089
21
-110.4365
0
LINE
8
0
10
334.2089
20
-110.4365
11
333.9896
21
-110.4091
0
ENDSEC
0
EOF