0
SECTION
2
HEADER
9
$INSUNITS
70
4
0
ENDSEC
0
SECTION
2
TABLES
0
TABLE
2
LTYPE
0
LTYPE
72
65
70
64
2
CONTINUOUS
3
______
73
0
40
0
0
ENDTAB
0
TABLE
2
LAYER
0
ENDTAB
0
ENDSEC
0
SECTION
2
ENTITIES
0
LINE
8
0
10
333.9896
20
-110.4091
11
333.7687
21
-110.4
0
LINE
8
0
10
333.7687
20
-110.4
11
86.2313
21
-110.4
0
LINE
8
0
10
86.2313
20
-110.4
11
86.0104
21
-110.4091
0
LINE
8
0
10
86.0104
20
-110.4091
11
85.7911
21
-110.4365
0
LINE
8
0
10
85.7911
20
-110.4365
11
85.5748
21
-110.4818
0
LINE
8
0
10
85.5748
20
-110.4818
11
85.363
21
-110.5448
0
LINE
8
0
10
85.363
20
-110.5448
11
85.1571
21
-110.6251
0
LINE
8
0
10
85.1571
20
-110.6251
11
84.9586
21
-110.7221
0
LINE
8
0
10
84.9586
20
-110.7221
11
84.7687
21
-110.8352
0
LINE
8
0
10
84.7687
20
-110.8352
11
84.5888
21
-110.9636
0
LINE
8
0
10
84.5888
20
-110.9636
11
84.4901
21
-111.0661
0
LINE
8
0
10
84.4901
20
-111.0661
11
84.4242
21
-111.1923
0
LINE
8
0
10
84.4242
20
-111.1923
11
84.3965
21
-111.3319
0
LINE
8
0
10
84.3965
20
-111.3319
11
84.4094
21
-111.4737
0
LINE
8
0
10
84.4094
20
-111.4737
11
84.4616
21
-111.6061
0
LINE
8
0
10
84.4616
20
-111.6061
11
84.549
21
-111.7184
0
LINE
8
0
10
84.549
20
-111.7184
11
84.6646
21
-111.8016
0
LINE
8
0
10
84.6646
20
-111.8016
11
84.7988
21
-111.8488
0
LINE
8
0
10
84.7988
20
-111.8488
11
85.198
21
-112.0023
0
LINE
8
0
10
85.198
20
-112.0023
11
85.5221
21
-112.2815
0
LINE
8
0
10
85.5221
20
-112.2815
11
85.7331
21
-112.6536
0
LINE
8
0
10
85.7331
20
-112.6536
11
85.8062
21
-113.075
0
LINE
8
0
10
85.8062
20
-113.075
11
85.7331
21
-113.4964
0
LINE
8
0
10
85.7331
20
-113.4964
11
85.5221
21
-113.8685
0
LINE
8
0
10
85.5221
20
-113.8685
11
85.198
21
-114.1477
0
LINE
8
0
10
85.198
20
-114.1477
11
84.7988
21
-114.3012
0
LINE
8
0
10
84.7988
20
-114.3012
11
84.6646
21
-114.3484
0
LINE
8
0
10
84.6646
20
-114.3484
11
84.549
21
-114.4316
0
LINE
8
0
10
84.549
20
-114.4316
11
84.4616
21
-114.5439
0
LINE
8
0
10
84.4616
20
-114.5439
11
84.4094
21
-114.6763
0
LINE
8
0
10
84.4094
20
-114.6763
11
84.3965
21
-114.8181
0
LINE
8
0
10
84.3965
20
-114.8181
11
84.4242
21
-114.9577
0
LINE
8
0
10
84.4242
20
-114.9577
11
84.4901
21
-115.0839
0
LINE
8
0
10
84.4901
20
-115.0839
11
84.5889
21
-115.1864
0
LINE
8
0
10
84.5889
20
-115.1864
11
84.7687
21
-115.3148
0
LINE
8
0
10
84.7687
20
-115.3148
11
84.9586
21
-115.4279
0
LINE
8
0
10
84.9586
20
-115.4279
11
85.1571
21
-115.5249
0
LINE
8
0
10
85.1571
20
-115.5249
11
85.363
21
-115.6052
0
LINE
8
0
10
85.363
20
-115.6052
11
85.5748
21
-115.6682
0
LINE
8
0
10
85.5748
20
-115.6682
11
85.7911
21
-115.7135
0
LINE
8
0
10
85.7911
20
-115.7135
11
86.0104
21
-115.7409
0
LINE
8
0
10
86.0104
20
-115.7409
11
86.2313
21
-115.75
0
LINE
8
0
10
86.2313
20
-115.75
11
87.0562
21
-115.75
0
LINE
8
0
10
87.0562
20
-115.75
11
87.3489
21
-115.7788
0
LINE
8
0
10
87.3489
20
-115.7788
11
87.6303
21
-115.8642
0
LINE
8
0
10
87.6303
20
-115.8642
11
87.8896
21
-116.0028
0
LINE
8
0
10
87.8896
20
-116.0028
11
88.1169
21
-116.1893
0
LINE
8
0
10
88.1169
20
-116.1893
11
88.3035
21
-116.4166
0
LINE
8
0
10
88.3035
20
-116.4166
11
88.4421
21
-116.676
0
LINE
8
0
10
88.4421
20
-116.676
11
88.5274
21
-116.9574
0
LINE
8
0
10
88.5274
20
-116.9574
11
88.5562
21
-117.25
0
LINE
8
0
10
88.5562
20
-117.25
11
88.5562
21
-179.75
0
LINE
8
0
10
88.5562
20
-179.75
11
88.5274
21
-180.0426
0
LINE
8
0
10
88.5274
20
-180.0426
11
88.4421
21
-180.324
0
LINE
8
0
10
88.4421
20
-180.324
11
88.3035
21
-180.5834
0
LINE
8
0
10
88.3035
20
-180.5834
11
88.1169
21
-180.8107
0
LINE
8
0
10
88.1169
20
-180.8107
11
87.8896
21
-180.9972
0
LINE
8
0
10
87.8896
20
-180.9972
11
87.6303
21
-181.1358
0
LINE
8
0
10
87.6303
20
-181.1358
11
87.3489
21
-181.2212
0
LINE
8
0
10
87.3489
20
-181.2212
11
87.0562
21
-181.25
0
LINE
8
0
10
87.0562
20
-181.25
11
86.2313
21
-181.25
0
LINE
8
0
10
86.2313
20
-181.25
11
86.0104
21
-181.2591
0
LINE
8
0
10
86.0104
20
-181.2591
11
85.7911
21
-181.2865
0
LINE
8
0
10
85.7911
20
-181.2865
11
85.5748
21
-181.3318
0
LINE
8
0
10
85.5748
20
-181.3318
11
85.363
21
-181.3948
0
LINE
8
0
10
85.363
20
-181.3948
11
85.1571
21
-181.4751
0
LINE
8
0
10
85.1571
20
-181.4751
11
84.9586
21
-181.5721
0
LINE
8
0
10
84.9586
20
-181.5721
11
84.7687
21
-181.6852
0
LINE
8
0
10
84.7687
20
-181.6852
11
84.5888
21
-181.8136
0
LINE
8
0
10
84.5888
20
-181.8136
11
84.4901
21
-181.9161
0
LINE
8
0
10
84.4901
20
-181.9161
11
84.4242
21
-182.0423
0
LINE
8
0
10
84.4242
20
-182.0423
11
84.3965
21
-182.1819
0
LINE
8
0
10
84.3965
20
-182.1819
11
84.4094
21
-182.3237
0
LINE
8
0
10
84.4094
20
-182.3237
11
84.4616
21
-182.4561
0
LINE
8
0
10
84.4616
20
-182.4561
11
84.549
21
-182.5684
0
LINE
8
0
10
84.549
20
-182.5684
11
84.6646
21
-182.6516
0
LINE
8
0
10
84.6646
20
-182.6516
11
84.7988
21
-182.6988
0
LINE
8
0
10
84.7988
20
-182.6988
11
85.198
21
-182.8523
0
LINE
8
0
10
85.198
20
-182.8523
11
85.5221
21
-183.1315
0
LINE
8
0
10
85.5221
20
-183.1315
11
85.7331
21
-183.5036
0
LINE
8
0
10
85.7331
20
-183.5036
11
85.8062
21
-183.925
0
LINE
8
0
10
85.8062
20
-183.925
11
85.7331
21
-184.3464
0
LINE
8
0
10
85.7331
20
-184.3464
11
85.5221
21
-184.7185
0
LINE
8
0
10
85.5221
20
-184.7185
11
85.198
21
-184.9977
0
LINE
8
0
10
85.198
20
-184.9977
11
84.7988
21
-185.1512
0
LINE
8
0
10
84.7988
20
-185.1512
11
84.6646
21
-185.1984
0
LINE
8
0
10
84.6646
20
-185.1984
11
84.549
21
-185.2816
0
LINE
8
0
10
84.549
20
-185.2816
11
84.4616
21
-185.3939
0
LINE
8
0
10
84.4616
20
-185.3939
11
84.4094
21
-185.5263
0
LINE
8
0
10
84.4094
20
-185.5263
11
84.3965
21
-185.6681
0
LINE
8
0
10
84.3965
20
-185.6681
11
84.4242
21
-185.8077
0
LINE
8
0
10
84.4242
20
-185.8077
11
84.4901
21
-185.9339
0
LINE
8
0
10
84.4901
20
-185.9339
11
84.5889
21
-186.0364
0
LINE
8
0
10
84.5889
20
-186.0364
11
84.7687
21
-186.1648
0
LINE
8
0
10
84.7687
20
-186.1648
11
84.9586
21
-186.2779
0
LINE
8
0
10
84.9586
20
-186.2779
11
85.1571
21
-186.3749
0
LINE
8
0
10
85.1571
20
-186.3749
11
85.363
21
-186.4552
0
LINE
8
0
10
85.363
20
-186.4552
11
85.5748
21
-186.5182
0
LINE
8
0
10
85.5748
20
-186.5182
11
85.7911
21
-186.5635
0
LINE
8
0
10
85.7911
20
-186.5635
11
86.0104
21
-186.5909
0
LINE
8
0
10
86.0104
20
-186.5909
11
86.2313
21
-186.6
0
LINE
8
0
10
86.2313
20
-186.6
11
333.7687
21
-186.6
0
LINE
8
0
10
333.7687
20
-186.6
11
333.9896
21
-186.5909
0
LINE
8
0
10
333.9896
20
-186.5909
11
334.2089
21
-186.5635
0
LINE
8
0
10
334.2089
20
-186.5635
11
334.4252
21
-186.5182
0
LINE
8
0
10
334.4252
20
-186.5182
11
334.637
21
-186.4552
0
LINE
8
0
10
334.637
20
-186.4552
11
334.8429
21
-186.3749
0
LINE
8
0
10
334.8429
20
-186.3749
11
335.0414
21
-186.2779
0
LINE
8
0
10
335.0414
20
-186.2779
11
335.2313
21
-186.1648
0
LINE
8
0
10
335.2313
20
-186.1648
11
335.4112
21
-186.0364
0
LINE
8
0
10
335.4112
20
-186.0364
11
335.5099
21
-185.9339
0
LINE
8
0
10
335.5099
20
-185.9339
11
335.5758
21
-185.8077
0
LINE
8
0
10
335.5758
20
-185.8077
11
335.6035
21
-185.6681
0
LINE
8
0
10
335.6035
20
-185.6681
11
335.5906
21
-185.5263
0
LINE
8
0
10
335.5906
20
-185.5263
11
335.5384
21
-185.3939
0
LINE
8
0
10
335.5384
20
-185.3939
11
335.451
21
-185.2816
0
LINE
8
0
10
335.451
20
-185.2816
11
335.3354
21
-185.1984
0
LINE
8
0
10
335.3354
20
-185.1984
11
335.2012
21
-185.1512
0
LINE
8
0
10
335.2012
20
-185.1512
11
334.802
21
-184.9977
0
LINE
8
0
10
334.802
20
-184.9977
11
334.4779
21
-184.7185
0
LINE
8
0
10
334.4779
20
-184.7185
11
334.2669
21
-184.3464
0
LINE
8
0
10
334.2669
20
-184.3464
11
334.1938
21
-183.925
0
LINE
8
0
10
334.1938
20
-183.925
11
334.2669
21
-183.5036
0
LINE
8
0
10
334.2669
20
-183.5036
11
334.4779
21
-183.1315
0
LINE
8
0
10
334.4779
20
-183.1315
11
334.802
21
-182.8523
0
LINE
8
0
10
334.802
20
-182.8523
11
335.2012
21
-182.6988
0
LINE
8
0
10
335.2012
20
-182.6988
11
335.3354
21
-182.6516
0
LINE
8
0
10
335.3354
20
-182.6516
11
335.451
21
-182.5684
0
LINE
8
0
10
335.451
20
-182.5684
11
335.5384
21
-182.4561
0
LINE
8
0
10
335.5384
20
-182.4561
11
335.5906
21
-182.3237
0
LINE
8
0
10
335.5906
20
-182.3237
11
335.6035
21
-182.1819
0
LINE
8
0
10
335.6035
20
-182.1819
11
335.5758
21
-182.0423
0
LINE
8
0
10
335.5758
20
-182.0423
11
335.5099
21
-181.9161
0
LINE
8
0
10
335.5099
20
-181.9161
11
335.4111
21
-181.8136
0
LINE
8
0
10
335.4111
20
-181.8136
11
335.2313
21
-181.6852
0
LINE
8
0
10
335.2313
20
-181.6852
11
335.0414
21
-181.5721
0
LINE
8
0
10
335.0414
20
-181.5721
11
334.8429
21
-181.4751
0
LINE
8
0
10
334.8429
20
-181.4751
11
334.637
21
-181.3948
0
LINE
8
0
10
334.637
20
-181.3948
11
334.4252
21
-181.3318
0
LINE
8
0
10
334.4252
20
-181.3318
11
334.2089
21
-181.2865
0
LINE
8
0
10
334.2089
20
-181.2865
11
333.9896
21
-181.2591
0
LINE
8
0
10
333.9896
20
-181.2591
11
333.7687
21
-181.25
0
LINE
8
0
10
333.7687
20
-181.25
11
332.9438
21
-181.25
0
LINE
8
0
10
332.9438
20
-181.25
11
332.6511
21
-181.2212
0
LINE
8
0
10
332.6511
20
-181.2212
11
332.3697
21
-181.1358
0
LINE
8
0
10
332.3697
20
-181.1358
11
332.1104
21
-180.9972
0
LINE
8
0
10
332.1104
20
-180.9972
11
331.8831
21
-180.8107
0
LINE
8
0
10
331.8831
20
-180.8107
11
331.6965
21
-180.5834
0
LINE
8
0
10
331.6965
20
-180.5834
11
331.5579
21
-180.324
0
LINE
8
0
10
331.5579
20
-180.324
11
331.4726
21
-180.0426
0
LINE
8
0
10
331.4726
20
-180.0426
11
331.4438
21
-179.75
0
LINE
8
0
10
331.4438
20
-179.75
11
331.4438
21
-117.25
0
LINE
8
0
10
331.4438
20
-117.25
11
331.4726
21
-116.9574
0
LINE
8
0
10
331.4726
20
-116.9574
11
331.5579
21
-116.676
0
LINE
8
0
10
331.5579
20
-116.676
11
331.6965
21
-116.4166
0
LINE
8
0
10
331.6965
20
-116.4166
11
331.8831
21
-116.1893
0
LINE
8
0
10
331.8831
20
-116.1893
11
332.1104
21
-116.0028
0
LINE
8
0
10
332.1104
20
-116.0028
11
332.3697
21
-115.8642
0
LINE
8
0
10
332.3697
20
-115.8642
11
332.6511
21
-115.7788
0
LINE
8
0
10
332.6511
20
-115.7788
11
332.9438
21
-115.75
0
LINE
8
0
10
332.9438
20
-115.75
11
333.7687
21
-115.75
0
LINE
8
0
10
333.7687
20
-115.75
11
333.9896
21
-115.7409
0
LINE
8
0
10
333.9896
20
-115.7409
11
334.2089
21
-115.7135
0
LINE
8
0
10
334.2089
20
-115.7135
11
334.4252
21
-115.6682
0
LINE
8
0
10
334.4252
20
-115.6682
11
334.637
21
-115.6052
0
LINE
8
0
10
334.637
20
-115.6052
11
334.8429
21
-115.5249
0
LINE
8
0
10
334.8429
20
-115.5249
11
335.0414
21
-115.4279
0
LINE
8
0
10
335.0414
20
-115.4279
11
335.2313
21
-115.3148
0
LINE
8
0
10
335.2313
20
-115.3148
11
335.4112
21
-115.1864
0
LINE
8
0
10
335.4112
20
-115.1864
11
335.5099
21
-115.0839
0
LINE
8
0
10
335.5099
20
-115.0839
11
335.5758
21
-114.9577
0
LINE
8
0
10
335.5758
20
-114.9577
11
335.6035
21
-114.8181
0
LINE
8
0
10
335.6035
20
-114.8181
11
335.5906
21
-114.6763
0
LINE
8
0
10
335.5906
20
-114.6763
11
335.5384
21
-114.5439
0
LINE
8
0
10
335.5384
20
-114.5439
11
335.451
21
-114.4316
0
LINE
8
0
10
335.451
20
-114.4316
11
335.3354
21
-114.3484
0
LINE
8
0
10
335.3354
20
-114.3484
11
335.2012
21
-114.3012
0
LINE
8
0
10
335.2012
20
-114.3012
11
334.802
21
-114.1477
0
LINE
8
0
10
334.802
20
-114.1477
11
334.4779
21
-113.8685
0
LINE
8
0
10
334.4779
20
-113.8685
11
334.2669
21
-113.4964
0
LINE
8
0
10
334.2669
20
-113.4964
11
334.1938
21
-113.075
0
LINE
8
0
10
334.1938
20
-113.075
11
334.2669
21
-112.6536
0
LINE
8
0
10
334.2669
20
-112.6536
11
334.4779
21
-112.2815
0
LINE
8
0
10
334.4779
20
-112.2815
11
334.802
21
-112.0023
0
LINE
8
0
10
334.802
20
-112.0023
11
335.2012
21
-111.8488
0
LINE
8
0
10
335.2012
20
-111.8488
11
335.3354
21
-111.8016
0
LINE
8
0
10
335.3354
20
-111.8016
11
335.451
21
-111.7184
0
LINE
8
0
10
335.451
20
-111.7184
11
335.5384
21
-111.6061
0
LINE
8
0
10
335.5384
20
-111.6061
11
335.5906
21
-111.4737
0
LINE
8
0
10
335.5906
20
-111.4737
11
335.6035
21
-111.3319
0
LINE
8
0
10
335.6035
20
-111.3319
11
335.5758
21
-111.1923
0
LINE
8
0
10
335.5758
20
-111.1923
11
335.5099
21
-111.0661
0
LINE
8
0
10
335.5099
20
-111.0661
11
335.4111
21
-110.9636
0
LINE
8
0
10
335.4111
20
-110.9636
11
335.2313
21
-110.8352
0
LINE
8
0
10
335.2313
20
-110.8352
11
335.0414
21
-110.7221
0
LINE
8
0
10
335.0414
20
-110.7221
11
334.8429
21
-110.6251
0
LINE
8
0
10
334.8429
20
-110.6251
11
334.637
21
-110.5448
0
LINE
8
0
10
334.637
20
-110.5448
11
334.4252
21
-110.4818
0
LINE
8
0
10
334.4252
20
-110.4818
11
334.2089
21
-110.4365
0
LINE
8
0
10
334.2089
20
-110.4365
11
333.9896
21
-110.4091
0
LINE
8
0
10
97.5236884
20
-129.4647723
11
111.2900723
21
-130.4274116
0
LINE
8
0
10
111.2900723
20
-130.4274116
11
112.2527116
21
-116.6610277
0
LINE
8
0
10
112.2527116
20
-116.6610277
11
98.4863277
21
-115.6983884
0
LINE
8
0
10
98.4863277
20
-115.6983884
11
97.5236884
21
-129.4647723
0
LINE
8
0
10
96.1974884
20
-146.4222723
11
109.9638723
21
-147.3849116
0
LINE
8
0
10
109.9638723
20
-147.3849116
11
110.9265116
21
-133.6185277
0
LINE
8
0
10
110.9265116
20
-133.6185277
11
97.1601277
21
-132.6558884
0
LINE
8
0
10
97.1601277
20
-132.6558884
11
96.1974884
21
-146.4222723
0
LINE
8
0
10
94.8731884
20
-163.3814723
11
108.6395723
21
-164.3441116
0
LINE
8
0
10
108.6395723
20
-164.3441116
11
109.6022116
21
-150.5777277
0
LINE
8
0
10
109.6022116
20
-150.5777277
11
95.8358277
21
-149.6150884
0
LINE
8
0
10
95.8358277
20
-149.6150884
11
94.8731884
21
-163.3814723
0
LINE
8
0
10
93.5469884
20
-180.3389723
11
107.3133723
21
-181.3016116
0
LINE
8
0
10
107.3133723
20
-181.3016116
11
108.2760116
21
-167.5352277
0
LINE
8
0
10
108.2760116
20
-167.5352277
11
94.5096277
21
-166.5725884
0
LINE
8
0
10
94.5096277
20
-166.5725884
11
93.5469884
21
-180.3389723
0
LINE
8
0
10
118.7918525
20
-129.2803547
11
119.1146051
21
-129.3142774
0
LINE
8
0
10
121.3021592
20
-129.5441986
11
132.5162547
21
-130.7228475
0
LINE
8
0
10
132.5162547
20
-130.7228475
11
133.9587475
21
-116.9984453
0
LINE
8
0
10
133.9587475
20
-116.9984453
11
120.2343453
21
-115.5559525
0
LINE
8
0
10
120.2343453
20
-115.5559525
11
118.7918525
21
-129.2803547
0
LINE
8
0
10
116.8063525
20
-146.1868547
11
130.5307547
21
-147.6293475
0
LINE
8
0
10
130.5307547
20
-147.6293475
11
131.9732475
21
-133.9049453
0
LINE
8
0
10
131.9732475
20
-133.9049453
11
118.2488453
21
-132.4624525
0
LINE
8
0
10
118.2488453
20
-132.4624525
11
116.8063525
21
-146.1868547
0
LINE
8
0
10
114.8208525
20
-163.0950547
11
117.8836343
21
-163.416966
0
LINE
8
0
10
119.5746852
20
-163.5947027
11
128.5452547
21
-164.5375475
0
LINE
8
0
10
128.5452547
20
-164.5375475
11
129.9877475
21
-150.8131453
0
LINE
8
0
10
129.9877475
20
-150.8131453
11
116.2633453
21
-149.3706525
0
LINE
8
0
10
116.2633453
20
-149.3706525
11
114.8208525
21
-163.0950547
0
LINE
8
0
10
112.8353525
20
-180.0015547
11
126.5597547
21
-181.4440475
0
LINE
8
0
10
126.5597547
20
-181.4440475
11
128.0022475
21
-167.7196453
0
LINE
8
0
10
128.0022475
20
-167.7196453
11
114.2778453
21
-166.2771525
0
LINE
8
0
10
114.2778453
20
-166.2771525
11
112.8353525
21
-180.0015547
0
LINE
8
0
10
137.7918525
20
-129.2803547
11
151.5162547
21
-130.7228475
0
LINE
8
0
10
151.5162547
20
-130.7228475
11
152.9587475
21
-116.9984453
0
LINE
8
0
10
152.9587475
20
-116.9984453
11
139.2343453
21
-115.5559525
0
LINE
8
0
10
139.2343453
20
-115.5559525
11
137.7918525
21
-129.2803547
0
LINE
8
0
10
135.8063525
20
-146.1868547
11
149.5307547
21
-147.6293475
0
LINE
8
0
10
149.5307547
20
-147.6293475
11
150.9732475
21
-133.9049453
0
LINE
8
0
10
150.9732475
20
-133.9049453
11
137.2488453
21
-132.4624525
0
LINE
8
0
10
137.2488453
20
-132.4624525
11
135.8063525
21
-146.1868547
0
LINE
8
0
10
133.8208525
20
-163.0950547
11
147.5452547
21
-164.5375475
0
LINE
8
0
10
147.5452547
20
-164.5375475
11
148.9877475
21
-150.8131453
0
LINE
8
0
10
148.9877475
20
-150.8131453
11
135.2633453
21
-149.3706525
0
LINE
8
0
10
135.2633453
20
-149.3706525
11
133.8208525
21
-163.0950547
0
LINE
8
0
10
131.8353525
20
-180.0015547
11
145.5597547
21
-181.4440475
0
LINE
8
0
10
145.5597547
20
-181.4440475
11
147.0022475
21
-167.7196453
0
LINE
8
0
10
147.0022475
20
-167.7196453
11
133.2778453
21
-166.2771525
0
LINE
8
0
10
133.2778453
20
-166.2771525
11
131.8353525
21
-180.0015547
0
LINE
8
0
10
156.7918525
20
-129.2803547
11
170.5162547
21
-130.7228475
0
LINE
8
0
10
170.5162547
20
-130.7228475
11
171.9587475
21
-116.9984453
0
LINE
8
0
10
171.9587475
20
-116.9984453
11
158.2343453
21
-115.5559525
0
LINE
8
0
10
158.2343453
20
-115.5559525
11
156.7918525
21
-129.2803547
0
LINE
8
0
10
154.8063525
20
-146.1868547
11
168.5307547
21
-147.6293475
0
LINE
8
0
10
168.5307547
20
-147.6293475
11
169.9732475
21
-133.9049453
0
LINE
8
0
10
169.9732475
20
-133.9049453
11
156.2488453
21
-132.4624525
0
LINE
8
0
10
156.2488453
20
-132.4624525
11
154.8063525
21
-146.1868547
0
LINE
8
0
10
152.8208525
20
-163.0950547
11
166.5452547
21
-164.5375475
0
LINE
8
0
10
166.5452547
20
-164.5375475
11
167.9877475
21
-150.8131453
0
LINE
8
0
10
167.9877475
20
-150.8131453
11
154.2633453
21
-149.3706525
0
LINE
8
0
10
154.2633453
20
-149.3706525
11
152.8208525
21
-163.0950547
0
LINE
8
0
10
150.8353525
20
-180.0015547
11
164.5597547
21
-181.4440475
0
LINE
8
0
10
164.5597547
20
-181.4440475
11
165.0552913
21
-176.7293317
0
LINE
8
0
10
165.2698519
20
-174.6879243
11
166.0022475
21
-167.7196453
0
LINE
8
0
10
166.0022475
20
-167.7196453
11
152.2778453
21
-166.2771525
0
LINE
8
0
10
152.2778453
20
-166.2771525
11
150.8353525
21
-180.0015547
0
LINE
8
0
10
175.7918525
20
-129.2803547
11
189.5162547
21
-130.7228475
0
LINE
8
0
10
189.5162547
20
-130.7228475
11
190.9587475
21
-116.9984453
0
LINE
8
0
10
190.9587475
20
-116.9984453
11
177.2343453
21
-115.5559525
0
LINE
8
0
10
177.2343453
20
-115.5559525
11
175.7918525
21
-129.2803547
0
LINE
8
0
10
173.8063525
20
-146.1868547
11
187.5307547
21
-147.6293475
0
LINE
8
0
10
187.5307547
20
-147.6293475
11
188.9732475
21
-133.9049453
0
LINE
8
0
10
188.9732475
20
-133.9049453
11
175.2488453
21
-132.4624525
0
LINE
8
0
10
175.2488453
20
-132.4624525
11
173.8063525
21
-146.1868547
0
LINE
8
0
10
171.8208525
20
-163.0950547
11
185.5452547
21
-164.5375475
0
LINE
8
0
10
185.5452547
20
-164.5375475
11
186.9877475
21
-150.8131453
0
LINE
8
0
10
186.9877475
20
-150.8131453
11
173.2633453
21
-149.3706525
0
LINE
8
0
10
173.2633453
20
-149.3706525
11
171.8208525
21
-163.0950547
0
LINE
8
0
10
169.8353525
20
-180.0015547
11
183.5597547
21
-181.4440475
0
LINE
8
0
10
183.5597547
20
-181.4440475
11
185.0022475
21
-167.7196453
0
LINE
8
0
10
185.0022475
20
-167.7196453
11
171.2778453
21
-166.2771525
0
LINE
8
0
10
171.2778453
20
-166.2771525
11
169.8353525
21
-180.0015547
0
LINE
8
0
10
229.9840453
20
-130.7228475
11
243.7084475
21
-129.2803547
0
LINE
8
0
10
243.7084475
20
-129.2803547
11
242.2659547
21
-115.5559525
0
LINE
8
0
10
242.2659547
20
-115.5559525
11
228.5415525
21
-116.9984453
0
LINE
8
0
10
228.5415525
20
-116.9984453
11
229.9840453
21
-130.7228475
0
LINE
8
0
10
231.9695453
20
-147.6293475
11
245.6939475
21
-146.1868547
0
LINE
8
0
10
245.6939475
20
-146.1868547
11
244.2514547
21
-132.4624525
0
LINE
8
0
10
244.2514547
20
-132.4624525
11
230.5270525
21
-133.9049453
0
LINE
8
0
10
230.5270525
20
-133.9049453
11
231.9695453
21
-147.6293475
0
LINE
8
0
10
233.9550453
20
-164.5375475
11
247.6794475
21
-163.0950547
0
LINE
8
0
10
247.6794475
20
-163.0950547
11
246.2369547
21
-149.3706525
0
LINE
8
0
10
246.2369547
20
-149.3706525
11
232.5125525
21
-150.8131453
0
LINE
8
0
10
232.5125525
20
-150.8131453
11
233.9550453
21
-164.5375475
0
LINE
8
0
10
235.9405453
20
-181.4440475
11
249.6649475
21
-180.0015547
0
LINE
8
0
10
249.6649475
20
-180.0015547
11
248.2224547
21
-166.2771525
0
LINE
8
0
10
248.2224547
20
-166.2771525
11
234.4980525
21
-167.7196453
0
LINE
8
0
10
234.4980525
20
-167.7196453
11
235.9405453
21
-181.4440475
0
LINE
8
0
10
248.9840453
20
-130.7228475
11
262.7084475
21
-129.2803547
0
LINE
8
0
10
262.7084475
20
-129.2803547
11
261.2659547
21
-115.5559525
0
LINE
8
0
10
261.2659547
20
-115.5559525
11
247.5415525
21
-116.9984453
0
LINE
8
0
10
247.5415525
20
-116.9984453
11
248.9840453
21
-130.7228475
0
LINE
8
0
10
250.9695453
20
-147.6293475
11
264.6939475
21
-146.1868547
0
LINE
8
0
10
264.6939475
20
-146.1868547
11
263.2514547
21
-132.4624525
0
LINE
8
0
10
263.2514547
20
-132.4624525
11
249.5270525
21
-133.9049453
0
LINE
8
0
10
249.5270525
20
-133.9049453
11
250.9695453
21
-147.6293475
0
LINE
8
0
10
252.9550453
20
-164.5375475
11
266.6794475
21
-163.0950547
0
LINE
8
0
10
266.6794475
20
-163.0950547
11
265.2369547
21
-149.3706525
0
LINE
8
0
10
265.2369547
20
-149.3706525
11
251.5125525
21
-150.8131453
0
LINE
8
0
10
251.5125525
20
-150.8131453
11
252.9550453
21
-164.5375475
0
LINE
8
0
10
254.9405453
20
-181.4440475
11
268.6649475
21
-180.0015547
0
LINE
8
0
10
268.6649475
20
-180.0015547
11
267.2224547
21
-166.2771525
0
LINE
8
0
10
267.2224547
20
-166.2771525
11
253.4980525
21
-167.7196453
0
LINE
8
0
10
253.4980525
20
-167.7196453
11
254.9405453
21
-181.4440475
0
LINE
8
0
10
267.9840453
20
-130.7228475
11
281.7084475
21
-129.2803547
0
LINE
8
0
10
281.7084475
20
-129.2803547
11
280.2659547
21
-115.5559525
0
LINE
8
0
10
280.2659547
20
-115.5559525
11
266.5415525
21
-116.9984453
0
LINE
8
0
10
266.5415525
20
-116.9984453
11
267.9840453
21
-130.7228475
0
LINE
8
0
10
269.9695453
20
-147.6293475
11
283.6939475
21
-146.1868547
0
LINE
8
0
10
283.6939475
20
-146.1868547
11
282.2514547
21
-132.4624525
0
LINE
8
0
10
282.2514547
20
-132.4624525
11
268.5270525
21
-133.9049453
0
LINE
8
0
10
268.5270525
20
-133.9049453
11
269.9695453
21
-147.6293475
0
LINE
8
0
10
271.9550453
20
-164.5375475
11
285.6794475
21
-163.0950547
0
LINE
8
0
10
285.6794475
20
-163.0950547
11
284.2369547
21
-149.3706525
0
LINE
8
0
10
284.2369547
20
-149.3706525
11
270.5125525
21
-150.8131453
0
LINE
8
0
10
270.5125525
20
-150.8131453
11
271.9550453
21
-164.5375475
0
LINE
8
0
10
273.9405453
20
-181.4440475
11
287.6649475
21
-180.0015547
0
LINE
8
0
10
287.6649475
20
-180.0015547
11
286.2224547
21
-166.2771525
0
LINE
8
0
10
286.2224547
20
-166.2771525
11
272.4980525
21
-167.7196453
0
LINE
8
0
10
272.4980525
20
-167.7196453
11
273.9405453
21
-181.4440475
0
LINE
8
0
10
289.2083277
20
-130.4274116
11
302.9747116
21
-129.4647723
0
LINE
8
0
10
302.9747116
20
-129.4647723
11
302.0120723
21
-115.6983884
0
LINE
8
0
10
302.0120723
20
-115.6983884
11
288.2456884
21
-116.6610277
0
LINE
8
0
10
288.2456884
20
-116.6610277
11
289.2083277
21
-130.4274116
0
LINE
8
0
10
290.5345277
20
-147.3849116
11
304.3009116
21
-146.4222723
0
LINE
8
0
10
304.3009116
20
-146.4222723
11
303.3382723
21
-132.6558884
0
LINE
8
0
10
303.3382723
20
-132.6558884
11
289.5718884
21
-133.6185277
0
LINE
8
0
10
289.5718884
20
-133.6185277
11
290.5345277
21
-147.3849116
0
LINE
8
0
10
291.8588277
20
-164.3441116
11
305.6252116
21
-163.3814723
0
LINE
8
0
10
305.6252116
20
-163.3814723
11
304.6625723
21
-149.6150884
0
LINE
8
0
10
304.6625723
20
-149.6150884
11
290.8961884
21
-150.5777277
0
LINE
8
0
10
290.8961884
20
-150.5777277
11
291.8588277
21
-164.3441116
0
LINE
8
0
10
293.1850277
20
-181.3016116
11
306.9514116
21
-180.3389723
0
LINE
8
0
10
306.9514116
20
-180.3389723
11
305.9887723
21
-166.5725884
0
LINE
8
0
10
305.9887723
20
-166.5725884
11
292.2223884
21
-167.5352277
0
LINE
8
0
10
292.2223884
20
-167.5352277
11
293.1850277
21
-181.3016116
0
LINE
8
0
10
310.4442098
20
-130.1519032
11
324.2358032
21
-129.6702902
0
LINE
8
0
10
324.2358032
20
-129.6702902
11
323.7541902
21
-115.8786968
0
LINE
8
0
10
323.7541902
20
-115.8786968
11
309.9625968
21
-116.3603098
0
LINE
8
0
10
309.9625968
20
-116.3603098
11
310.4442098
21
-130.1519032
0
LINE
8
0
10
311.1073098
20
-147.1417032
11
324.8989032
21
-146.6600902
0
LINE
8
0
10
324.8989032
20
-146.6600902
11
324.4172902
21
-132.8684968
0
LINE
8
0
10
324.4172902
20
-132.8684968
11
310.6256968
21
-133.3501098
0
LINE
8
0
10
310.6256968
20
-133.3501098
11
311.1073098
21
-147.1417032
0
LINE
8
0
10
311.7704098
20
-164.1315032
11
325.5620032
21
-163.6498902
0
LINE
8
0
10
325.5620032
20
-163.6498902
11
325.0803902
21
-149.8582968
0
LINE
8
0
10
325.0803902
20
-149.8582968
11
311.2887968
21
-150.3399098
0
LINE
8
0
10
311.2887968
20
-150.3399098
11
311.7704098
21
-164.1315032
0
LINE
8
0
10
312.4335098
20
-181.1213032
11
326.2251032
21
-180.6396902
0
LINE
8
0
10
326.2251032
20
-180.6396902
11
325.7434902
21
-166.8480968
0
LINE
8
0
10
325.7434902
20
-166.8480968
11
311.9518968
21
-167.3297098
0
LINE
8
0
10
311.9518968
20
-167.3297098
11
312.4335098
21
-181.1213032
0
LINE
8
0
10
191.4165525
20
-180.0015547
11
205.1409547
21
-181.4440475
0
LINE
8
0
10
205.1409547
20
-181.4440475
11
206.5834475
21
-167.7196453
0
LINE
8
0
10
206.5834475
20
-167.7196453
11
192.8590453
21
-166.2771525
0
LINE
8
0
10
192.8590453
20
-166.2771525
11
191.4165525
21
-180.0015547
0
LINE
8
0
10
214.3590453
20
-181.4440475
11
228.0834475
21
-180.0015547
0
LINE
8
0
10
228.0834475
20
-180.0015547
11
226.6409547
21
-166.2771525
0
LINE
8
0
10
226.6409547
20
-166.2771525
11
212.9165525
21
-167.7196453
0
LINE
8
0
10
212.9165525
20
-167.7196453
11
214.3590453
21
-181.4440475
0
ARC
8
0
10
120.2062
20
-129.45
40
1.1
50
172.9125463
51
355.0874538
0
ARC
8
0
10
118.6562
20
-164.2
40
1.1
50
134.6144379
51
393.3855586
0
ARC
8
0
10
165.5562
20
-175.75
40
1.1
50
242.9111586
51
465.0888401
0
CIRCLE
8
0
10
196.4062
20
-129.45
40
1.1
0
CIRCLE
8
0
10
226.8963
20
-148.55
40
1.1
0
CIRCLE
8
0
10
271.1463
20
-175.95
40
1.1
0
ENDSEC
0
EOF