0
SECTION
2
HEADER
9
$INSUNITS
70
4
0
ENDSEC
0
SECTION
2
TABLES
0
TABLE
2
LTYPE
0
LTYPE
72
65
70
64
2
CONTINUOUS
3
______
73
0
40
0
0
ENDTAB
0
TABLE
2
LAYER
0
ENDTAB
0
ENDSEC
0
SECTION
2
ENTITIES
0
LINE
8
0
10
148.1625
20
-14
11
166.1625
21
-14
0
ARC
8
0
10
166.1625
20
-9
40
5
50
270
51
360
0
LINE
8
0
10
171.1625
20
-9
11
171.1625
21
3.05
0
LINE
8
0
10
173.1625
20
5.05
11
185.2125
21
5.05
0
ARC
8
0
10
185.2125
20
10.05
40
5
50
270
51
276.0271666
0
ARC
8
0
10
186.2625
20
10.05
40
5
50
263.9728334
51
270
0
LINE
8
0
10
186.2625
20
5.05
11
204.2625
21
5.05
0
ARC
8
0
10
204.2625
20
10.05
40
5
50
270
51
276.0271666
0
ARC
8
0
10
205.3125
20
10.05
40
5
50
263.9728334
51
270
0
LINE
8
0
10
205.3125
20
5.05
11
223.3125
21
5.05
0
ARC
8
0
10
223.3125
20
10.05
40
5
50
270
51
276.0271666
0
ARC
8
0
10
224.3625
20
10.05
40
5
50
263.9728334
51
270
0
LINE
8
0
10
224.3625
20
5.05
11
242.3625
21
5.05
0
ARC
8
0
10
242.3625
20
10.05
40
5
50
270
51
276.0271666
0
ARC
8
0
10
243.4125
20
10.05
40
5
50
263.9728334
51
270
0
LINE
8
0
10
243.4125
20
5.05
11
255.4625
21
5.05
0
LINE
8
0
10
257.4625
20
3.05
11
257.4625
21
-9
0
ARC
8
0
10
262.4625
20
-9
40
5
50
180
51
270
0
LINE
8
0
10
262.4625
20
-14
11
280.4625
21
-14
0
ARC
8
0
10
280.4625
20
-9
40
5
50
270
51
276.0271666
0
ARC
8
0
10
281.5125
20
-9
40
5
50
263.9728334
51
270
0
LINE
8
0
10
281.5125
20
-14
11
299.5125
21
-14
0
ARC
8
0
10
299.5125
20
-9
40
5
50
270
51
360
0
LINE
8
0
10
304.5125
20
-9
11
304.5125
21
9
0
ARC
8
0
10
299.5125
20
9
40
5
50
0
51
6.0271666
0
ARC
8
0
10
299.5125
20
10.05
40
5
50
353.9728334
51
360
0
LINE
8
0
10
304.5125
20
10.05
11
304.5125
21
28.05
0
ARC
8
0
10
299.5125
20
28.05
40
5
50
0
51
6.0271666
0
ARC
8
0
10
299.5125
20
29.1
40
5
50
353.9728334
51
360
0
LINE
8
0
10
304.5125
20
29.1
11
304.5125
21
41.15
0
LINE
8
0
10
306.5125
20
43.15
11
318.5625
21
43.15
0
ARC
8
0
10
318.5625
20
48.15
40
5
50
270
51
360
0
LINE
8
0
10
323.5625
20
48.15
11
323.5625
21
66.15
0
ARC
8
0
10
318.5625
20
66.15
40
5
50
0
51
90
0
LINE
8
0
10
318.5625
20
71.15
11
300.5625
21
71.15
0
ARC
8
0
10
300.5625
20
66.15
40
5
50
90
51
96.0271666
0
ARC
8
0
10
299.5125
20
66.15
40
5
50
83.9728334
51
90
0
LINE
8
0
10
299.5125
20
71.15
11
281.5125
21
71.15
0
ARC
8
0
10
281.5125
20
66.15
40
5
50
90
51
96.0271666
0
ARC
8
0
10
280.4625
20
66.15
40
5
50
83.9728334
51
90
0
LINE
8
0
10
280.4625
20
71.15
11
262.4625
21
71.15
0
ARC
8
0
10
262.4625
20
66.15
40
5
50
90
51
96.0271666
0
ARC
8
0
10
261.4125
20
66.15
40
5
50
83.9728334
51
90
0
LINE
8
0
10
261.4125
20
71.15
11
243.4125
21
71.15
0
ARC
8
0
10
243.4125
20
66.15
40
5
50
90
51
96.0271666
0
ARC
8
0
10
242.3625
20
66.15
40
5
50
83.9728334
51
90
0
LINE
8
0
10
242.3625
20
71.15
11
224.3625
21
71.15
0
ARC
8
0
10
224.3625
20
66.15
40
5
50
90
51
96.0271666
0
ARC
8
0
10
223.3125
20
66.15
40
5
50
83.9728334
51
90
0
LINE
8
0
10
223.3125
20
71.15
11
205.3125
21
71.15
0
ARC
8
0
10
205.3125
20
66.15
40
5
50
90
51
96.0271666
0
ARC
8
0
10
204.2625
20
66.15
40
5
50
83.9728334
51
90
0
LINE
8
0
10
204.2625
20
71.15
11
186.2625
21
71.15
0
ARC
8
0
10
186.2625
20
66.15
40
5
50
90
51
96.0271666
0
ARC
8
0
10
185.2125
20
66.15
40
5
50
83.9728334
51
90
0
LINE
8
0
10
185.2125
20
71.15
11
167.2125
21
71.15
0
ARC
8
0
10
167.2125
20
66.15
40
5
50
90
51
96.0271666
0
ARC
8
0
10
166.1625
20
66.15
40
5
50
83.9728334
51
90
0
LINE
8
0
10
166.1625
20
71.15
11
148.1625
21
71.15
0
ARC
8
0
10
148.1625
20
66.15
40
5
50
90
51
180
0
LINE
8
0
10
143.1625
20
66.15
11
143.1625
21
48.15
0
ARC
8
0
10
148.1625
20
48.15
40
5
50
180
51
186.0271666
0
ARC
8
0
10
148.1625
20
47.1
40
5
50
173.9728334
51
180
0
LINE
8
0
10
143.1625
20
47.1
11
143.1625
21
29.1
0
ARC
8
0
10
148.1625
20
29.1
40
5
50
180
51
186.0271666
0
ARC
8
0
10
148.1625
20
28.05
40
5
50
173.9728334
51
180
0
LINE
8
0
10
143.1625
20
28.05
11
143.1625
21
10.05
0
ARC
8
0
10
148.1625
20
10.05
40
5
50
180
51
186.0271666
0
ARC
8
0
10
148.1625
20
9
40
5
50
173.9728334
51
180
0
LINE
8
0
10
143.1625
20
9
11
143.1625
21
-9
0
ARC
8
0
10
148.1625
20
-9
40
5
50
180
51
270
0
LINE
8
0
10
-9
20
-14
11
9
21
-14
0
ARC
8
0
10
9
20
-9
40
5
50
270
51
276.0271666
0
ARC
8
0
10
10.05
20
-9
40
5
50
263.9728334
51
270
0
LINE
8
0
10
10.05
20
-14
11
28.05
21
-14
0
ARC
8
0
10
28.05
20
-9
40
5
50
270
51
276.0271666
0
ARC
8
0
10
29.1
20
-9
40
5
50
263.9728334
51
270
0
LINE
8
0
10
29.1
20
-14
11
47.1
21
-14
0
ARC
8
0
10
47.1
20
-9
40
5
50
270
51
360
0
LINE
8
0
10
52.1
20
-9
11
52.1
21
9
0
ARC
8
0
10
47.1
20
9
40
5
50
0
51
6.0271666
0
ARC
8
0
10
47.1
20
10.05
40
5
50
353.9728334
51
360
0
LINE
8
0
10
52.1
20
10.05
11
52.1
21
28.05
0
ARC
8
0
10
47.1
20
28.05
40
5
50
0
51
6.0271666
0
ARC
8
0
10
47.1
20
29.1
40
5
50
353.9728334
51
360
0
LINE
8
0
10
52.1
20
29.1
11
52.1
21
47.1
0
ARC
8
0
10
47.1
20
47.1
40
5
50
0
51
6.0271666
0
ARC
8
0
10
47.1
20
48.15
40
5
50
353.9728334
51
360
0
LINE
8
0
10
52.1
20
48.15
11
52.1
21
66.15
0
ARC
8
0
10
47.1
20
66.15
40
5
50
0
51
90
0
LINE
8
0
10
47.1
20
71.15
11
29.1
21
71.15
0
ARC
8
0
10
29.1
20
66.15
40
5
50
90
51
96.0271666
0
ARC
8
0
10
28.05
20
66.15
40
5
50
83.9728334
51
90
0
LINE
8
0
10
28.05
20
71.15
11
10.05
21
71.15
0
ARC
8
0
10
10.05
20
66.15
40
5
50
90
51
96.0271666
0
ARC
8
0
10
9
20
66.15
40
5
50
83.9728334
51
90
0
LINE
8
0
10
9
20
71.15
11
-9
21
71.15
0
ARC
8
0
10
-9
20
66.15
40
5
50
90
51
180
0
LINE
8
0
10
-14
20
66.15
11
-14
21
48.15
0
ARC
8
0
10
-9
20
48.15
40
5
50
180
51
186.0271666
0
ARC
8
0
10
-9
20
47.1
40
5
50
173.9728334
51
180
0
LINE
8
0
10
-14
20
47.1
11
-14
21
29.1
0
ARC
8
0
10
-9
20
29.1
40
5
50
180
51
186.0271666
0
ARC
8
0
10
-9
20
28.05
40
5
50
173.9728334
51
180
0
LINE
8
0
10
-14
20
28.05
11
-14
21
10.05
0
ARC
8
0
10
-9
20
10.05
40
5
50
180
51
186.0271666
0
ARC
8
0
10
-9
20
9
40
5
50
173.9728334
51
180
0
LINE
8
0
10
-14
20
9
11
-14
21
-9
0
ARC
8
0
10
-9
20
-9
40
5
50
180
51
270
0
ARC
8
0
10
173.1625
20
3.05
40
2
50
90
51
180
0
ARC
8
0
10
255.4625
20
3.05
40
2
50
0
51
90
0
ARC
8
0
10
306.5125
20
41.15
40
2
50
90
51
180
0
ENDSEC
0
EOF