0
SECTION
2
HEADER
9
$INSUNITS
70
4
0
ENDSEC
0
SECTION
2
TABLES
0
TABLE
2
LTYPE
0
LTYPE
72
65
70
64
2
CONTINUOUS
3
______
73
0
40
0
0
ENDTAB
0
TABLE
2
LAYER
0
ENDTAB
0
ENDSEC
0
SECTION
2
ENTITIES
0
LINE
8
0
10
-6.5
20
-7
11
6.5
21
-7
0
LINE
8
0
10
7
20
-6.5
11
7
21
6.5
0
LINE
8
0
10
6.5
20
7
11
-6.5
21
7
0
LINE
8
0
10
-7
20
6.5
11
-7
21
-6.5
0
LINE
8
0
10
-6.5
20
12.05
11
6.5
21
12.05
0
LINE
8
0
10
7
20
12.55
11
7
21
25.55
0
LINE
8
0
10
6.5
20
26.05
11
-6.5
21
26.05
0
LINE
8
0
10
-7
20
25.55
11
-7
21
12.55
0
LINE
8
0
10
-6.5
20
31.1
11
6.5
21
31.1
0
LINE
8
0
10
7
20
31.6
11
7
21
44.6
0
LINE
8
0
10
6.5
20
45.1
11
-6.5
21
45.1
0
LINE
8
0
10
-7
20
44.6
11
-7
21
31.6
0
LINE
8
0
10
-6.5
20
50.15
11
6.5
21
50.15
0
LINE
8
0
10
7
20
50.65
11
7
21
63.65
0
LINE
8
0
10
6.5
20
64.15
11
-6.5
21
64.15
0
LINE
8
0
10
-7
20
63.65
11
-7
21
50.65
0
LINE
8
0
10
12.55
20
-7
11
25.55
21
-7
0
LINE
8
0
10
26.05
20
-6.5
11
26.05
21
6.5
0
LINE
8
0
10
25.55
20
7
11
12.55
21
7
0
LINE
8
0
10
12.05
20
6.5
11
12.05
21
-6.5
0
LINE
8
0
10
12.55
20
12.05
11
25.55
21
12.05
0
LINE
8
0
10
26.05
20
12.55
11
26.05
21
25.55
0
LINE
8
0
10
25.55
20
26.05
11
12.55
21
26.05
0
LINE
8
0
10
12.05
20
25.55
11
12.05
21
12.55
0
LINE
8
0
10
12.55
20
31.1
11
25.55
21
31.1
0
LINE
8
0
10
26.05
20
31.6
11
26.05
21
44.6
0
LINE
8
0
10
25.55
20
45.1
11
12.55
21
45.1
0
LINE
8
0
10
12.05
20
44.6
11
12.05
21
31.6
0
LINE
8
0
10
12.55
20
50.15
11
25.55
21
50.15
0
LINE
8
0
10
26.05
20
50.65
11
26.05
21
63.65
0
LINE
8
0
10
25.55
20
64.15
11
12.55
21
64.15
0
LINE
8
0
10
12.05
20
63.65
11
12.05
21
50.65
0
LINE
8
0
10
31.6
20
-7
11
44.6
21
-7
0
LINE
8
0
10
45.1
20
-6.5
11
45.1
21
6.5
0
LINE
8
0
10
44.6
20
7
11
31.6
21
7
0
LINE
8
0
10
31.1
20
6.5
11
31.1
21
-6.5
0
LINE
8
0
10
31.6
20
12.05
11
44.6
21
12.05
0
LINE
8
0
10
45.1
20
12.55
11
45.1
21
25.55
0
LINE
8
0
10
44.6
20
26.05
11
31.6
21
26.05
0
LINE
8
0
10
31.1
20
25.55
11
31.1
21
12.55
0
LINE
8
0
10
31.6
20
31.1
11
44.6
21
31.1
0
LINE
8
0
10
45.1
20
31.6
11
45.1
21
44.6
0
LINE
8
0
10
44.6
20
45.1
11
31.6
21
45.1
0
LINE
8
0
10
31.1
20
44.6
11
31.1
21
31.6
0
LINE
8
0
10
31.6
20
50.15
11
44.6
21
50.15
0
LINE
8
0
10
45.1
20
50.65
11
45.1
21
63.65
0
LINE
8
0
10
44.6
20
64.15
11
31.6
21
64.15
0
LINE
8
0
10
31.1
20
63.65
11
31.1
21
50.65
0
LINE
8
0
10
150.6625
20
-7
11
163.6625
21
-7
0
LINE
8
0
10
164.1625
20
-6.5
11
164.1625
21
6.5
0
LINE
8
0
10
163.6625
20
7
11
150.6625
21
7
0
LINE
8
0
10
150.1625
20
6.5
11
150.1625
21
-6.5
0
LINE
8
0
10
150.6625
20
12.05
11
163.6625
21
12.05
0
LINE
8
0
10
164.1625
20
12.55
11
164.1625
21
25.55
0
LINE
8
0
10
163.6625
20
26.05
11
150.6625
21
26.05
0
LINE
8
0
10
150.1625
20
25.55
11
150.1625
21
12.55
0
LINE
8
0
10
150.6625
20
31.1
11
163.6625
21
31.1
0
LINE
8
0
10
164.1625
20
31.6
11
164.1625
21
44.6
0
LINE
8
0
10
163.6625
20
45.1
11
150.6625
21
45.1
0
LINE
8
0
10
150.1625
20
44.6
11
150.1625
21
31.6
0
LINE
8
0
10
150.6625
20
50.15
11
163.6625
21
50.15
0
LINE
8
0
10
164.1625
20
50.65
11
164.1625
21
63.65
0
LINE
8
0
10
163.6625
20
64.15
11
150.6625
21
64.15
0
LINE
8
0
10
150.1625
20
63.65
11
150.1625
21
50.65
0
LINE
8
0
10
169.7125
20
12.05
11
182.7125
21
12.05
0
LINE
8
0
10
183.2125
20
12.55
11
183.2125
21
25.55
0
LINE
8
0
10
182.7125
20
26.05
11
169.7125
21
26.05
0
LINE
8
0
10
169.2125
20
25.55
11
169.2125
21
12.55
0
LINE
8
0
10
169.7125
20
31.1
11
182.7125
21
31.1
0
LINE
8
0
10
183.2125
20
31.6
11
183.2125
21
44.6
0
LINE
8
0
10
182.7125
20
45.1
11
169.7125
21
45.1
0
LINE
8
0
10
169.2125
20
44.6
11
169.2125
21
31.6
0
LINE
8
0
10
169.7125
20
50.15
11
182.7125
21
50.15
0
LINE
8
0
10
183.2125
20
50.65
11
183.2125
21
63.65
0
LINE
8
0
10
182.7125
20
64.15
11
169.7125
21
64.15
0
LINE
8
0
10
169.2125
20
63.65
11
169.2125
21
50.65
0
LINE
8
0
10
188.7625
20
12.05
11
201.7625
21
12.05
0
LINE
8
0
10
202.2625
20
12.55
11
202.2625
21
25.55
0
LINE
8
0
10
201.7625
20
26.05
11
188.7625
21
26.05
0
LINE
8
0
10
188.2625
20
25.55
11
188.2625
21
12.55
0
LINE
8
0
10
188.7625
20
31.1
11
201.7625
21
31.1
0
LINE
8
0
10
202.2625
20
31.6
11
202.2625
21
44.6
0
LINE
8
0
10
201.7625
20
45.1
11
188.7625
21
45.1
0
LINE
8
0
10
188.2625
20
44.6
11
188.2625
21
31.6
0
LINE
8
0
10
188.7625
20
50.15
11
201.7625
21
50.15
0
LINE
8
0
10
202.2625
20
50.65
11
202.2625
21
63.65
0
LINE
8
0
10
201.7625
20
64.15
11
188.7625
21
64.15
0
LINE
8
0
10
188.2625
20
63.65
11
188.2625
21
50.65
0
LINE
8
0
10
207.8125
20
12.05
11
220.8125
21
12.05
0
LINE
8
0
10
221.3125
20
12.55
11
221.3125
21
25.55
0
LINE
8
0
10
220.8125
20
26.05
11
207.8125
21
26.05
0
LINE
8
0
10
207.3125
20
25.55
11
207.3125
21
12.55
0
LINE
8
0
10
207.8125
20
31.1
11
220.8125
21
31.1
0
LINE
8
0
10
221.3125
20
31.6
11
221.3125
21
44.6
0
LINE
8
0
10
220.8125
20
45.1
11
207.8125
21
45.1
0
LINE
8
0
10
207.3125
20
44.6
11
207.3125
21
31.6
0
LINE
8
0
10
207.8125
20
50.15
11
220.8125
21
50.15
0
LINE
8
0
10
221.3125
20
50.65
11
221.3125
21
63.65
0
LINE
8
0
10
220.8125
20
64.15
11
207.8125
21
64.15
0
LINE
8
0
10
207.3125
20
63.65
11
207.3125
21
50.65
0
LINE
8
0
10
226.8625
20
12.05
11
239.8625
21
12.05
0
LINE
8
0
10
240.3625
20
12.55
11
240.3625
21
25.55
0
LINE
8
0
10
239.8625
20
26.05
11
226.8625
21
26.05
0
LINE
8
0
10
226.3625
20
25.55
11
226.3625
21
12.55
0
LINE
8
0
10
226.8625
20
31.1
11
239.8625
21
31.1
0
LINE
8
0
10
240.3625
20
31.6
11
240.3625
21
44.6
0
LINE
8
0
10
239.8625
20
45.1
11
226.8625
21
45.1
0
LINE
8
0
10
226.3625
20
44.6
11
226.3625
21
31.6
0
LINE
8
0
10
226.8625
20
50.15
11
239.8625
21
50.15
0
LINE
8
0
10
240.3625
20
50.65
11
240.3625
21
63.65
0
LINE
8
0
10
239.8625
20
64.15
11
226.8625
21
64.15
0
LINE
8
0
10
226.3625
20
63.65
11
226.3625
21
50.65
0
LINE
8
0
10
245.9125
20
12.05
11
258.9125
21
12.05
0
LINE
8
0
10
259.4125
20
12.55
11
259.4125
21
25.55
0
LINE
8
0
10
258.9125
20
26.05
11
245.9125
21
26.05
0
LINE
8
0
10
245.4125
20
25.55
11
245.4125
21
12.55
0
LINE
8
0
10
245.9125
20
31.1
11
258.9125
21
31.1
0
LINE
8
0
10
259.4125
20
31.6
11
259.4125
21
44.6
0
LINE
8
0
10
258.9125
20
45.1
11
245.9125
21
45.1
0
LINE
8
0
10
245.4125
20
44.6
11
245.4125
21
31.6
0
LINE
8
0
10
245.9125
20
50.15
11
258.9125
21
50.15
0
LINE
8
0
10
259.4125
20
50.65
11
259.4125
21
63.65
0
LINE
8
0
10
258.9125
20
64.15
11
245.9125
21
64.15
0
LINE
8
0
10
245.4125
20
63.65
11
245.4125
21
50.65
0
LINE
8
0
10
264.9625
20
-7
11
277.9625
21
-7
0
LINE
8
0
10
278.4625
20
-6.5
11
278.4625
21
6.5
0
LINE
8
0
10
277.9625
20
7
11
264.9625
21
7
0
LINE
8
0
10
264.4625
20
6.5
11
264.4625
21
-6.5
0
LINE
8
0
10
264.9625
20
12.05
11
277.9625
21
12.05
0
LINE
8
0
10
278.4625
20
12.55
11
278.4625
21
25.55
0
LINE
8
0
10
277.9625
20
26.05
11
264.9625
21
26.05
0
LINE
8
0
10
264.4625
20
25.55
11
264.4625
21
12.55
0
LINE
8
0
10
264.9625
20
31.1
11
277.9625
21
31.1
0
LINE
8
0
10
278.4625
20
31.6
11
278.4625
21
44.6
0
LINE
8
0
10
277.9625
20
45.1
11
264.9625
21
45.1
0
LINE
8
0
10
264.4625
20
44.6
11
264.4625
21
31.6
0
LINE
8
0
10
264.9625
20
50.15
11
277.9625
21
50.15
0
LINE
8
0
10
278.4625
20
50.65
11
278.4625
21
63.65
0
LINE
8
0
10
277.9625
20
64.15
11
264.9625
21
64.15
0
LINE
8
0
10
264.4625
20
63.65
11
264.4625
21
50.65
0
LINE
8
0
10
284.0125
20
-7
11
297.0125
21
-7
0
LINE
8
0
10
297.5125
20
-6.5
11
297.5125
21
6.5
0
LINE
8
0
10
297.0125
20
7
11
284.0125
21
7
0
LINE
8
0
10
283.5125
20
6.5
11
283.5125
21
-6.5
0
LINE
8
0
10
284.0125
20
12.05
11
297.0125
21
12.05
0
LINE
8
0
10
297.5125
20
12.55
11
297.5125
21
25.55
0
LINE
8
0
10
297.0125
20
26.05
11
284.0125
21
26.05
0
LINE
8
0
10
283.5125
20
25.55
11
283.5125
21
12.55
0
LINE
8
0
10
284.0125
20
31.1
11
297.0125
21
31.1
0
LINE
8
0
10
297.5125
20
31.6
11
297.5125
21
44.6
0
LINE
8
0
10
297.0125
20
45.1
11
284.0125
21
45.1
0
LINE
8
0
10
283.5125
20
44.6
11
283.5125
21
31.6
0
LINE
8
0
10
284.0125
20
50.15
11
297.0125
21
50.15
0
LINE
8
0
10
297.5125
20
50.65
11
297.5125
21
63.65
0
LINE
8
0
10
297.0125
20
64.15
11
284.0125
21
64.15
0
LINE
8
0
10
283.5125
20
63.65
11
283.5125
21
50.65
0
LINE
8
0
10
303.0625
20
50.15
11
316.0625
21
50.15
0
LINE
8
0
10
316.5625
20
50.65
11
316.5625
21
63.65
0
LINE
8
0
10
316.0625
20
64.15
11
303.0625
21
64.15
0
LINE
8
0
10
302.5625
20
63.65
11
302.5625
21
50.65
0
ARC
8
0
10
258.9125
20
12.55
40
0.5
50
270
51
0
0
ARC
8
0
10
258.9125
20
25.55
40
0.5
50
0
51
90
0
ARC
8
0
10
245.9125
20
25.55
40
0.5
50
90
51
180
0
ARC
8
0
10
245.9125
20
12.55
40
0.5
50
180
51
270
0
ARC
8
0
10
258.9125
20
31.6
40
0.5
50
270
51
0
0
ARC
8
0
10
258.9125
20
44.6
40
0.5
50
0
51
90
0
ARC
8
0
10
245.9125
20
44.6
40
0.5
50
90
51
180
0
ARC
8
0
10
245.9125
20
31.6
40
0.5
50
180
51
270
0
ARC
8
0
10
258.9125
20
50.65
40
0.5
50
270
51
0
0
ARC
8
0
10
258.9125
20
63.65
40
0.5
50
0
51
90
0
ARC
8
0
10
245.9125
20
63.65
40
0.5
50
90
51
180
0
ARC
8
0
10
245.9125
20
50.65
40
0.5
50
180
51
270
0
ARC
8
0
10
6.5
20
-6.5
40
0.5
50
270
51
0
0
ARC
8
0
10
6.5
20
6.5
40
0.5
50
0
51
90
0
ARC
8
0
10
-6.5
20
6.5
40
0.5
50
90
51
180
0
ARC
8
0
10
-6.5
20
-6.5
40
0.5
50
180
51
270
0
ARC
8
0
10
6.5
20
12.55
40
0.5
50
270
51
0
0
ARC
8
0
10
6.5
20
25.55
40
0.5
50
0
51
90
0
ARC
8
0
10
-6.5
20
25.55
40
0.5
50
90
51
180
0
ARC
8
0
10
-6.5
20
12.55
40
0.5
50
180
51
270
0
ARC
8
0
10
6.5
20
31.6
40
0.5
50
270
51
0
0
ARC
8
0
10
6.5
20
44.6
40
0.5
50
0
51
90
0
ARC
8
0
10
-6.5
20
44.6
40
0.5
50
90
51
180
0
ARC
8
0
10
-6.5
20
31.6
40
0.5
50
180
51
270
0
ARC
8
0
10
6.5
20
50.65
40
0.5
50
270
51
0
0
ARC
8
0
10
6.5
20
63.65
40
0.5
50
0
51
90
0
ARC
8
0
10
-6.5
20
63.65
40
0.5
50
90
51
180
0
ARC
8
0
10
-6.5
20
50.65
40
0.5
50
180
51
270
0
ARC
8
0
10
25.55
20
-6.5
40
0.5
50
270
51
0
0
ARC
8
0
10
25.55
20
6.5
40
0.5
50
0
51
90
0
ARC
8
0
10
12.55
20
6.5
40
0.5
50
90
51
180
0
ARC
8
0
10
12.55
20
-6.5
40
0.5
50
180
51
270
0
ARC
8
0
10
25.55
20
12.55
40
0.5
50
270
51
0
0
ARC
8
0
10
25.55
20
25.55
40
0.5
50
0
51
90
0
ARC
8
0
10
12.55
20
25.55
40
0.5
50
90
51
180
0
ARC
8
0
10
12.55
20
12.55
40
0.5
50
180
51
270
0
ARC
8
0
10
25.55
20
31.6
40
0.5
50
270
51
0
0
ARC
8
0
10
25.55
20
44.6
40
0.5
50
0
51
90
0
ARC
8
0
10
12.55
20
44.6
40
0.5
50
90
51
180
0
ARC
8
0
10
12.55
20
31.6
40
0.5
50
180
51
270
0
ARC
8
0
10
25.55
20
50.65
40
0.5
50
270
51
0
0
ARC
8
0
10
25.55
20
63.65
40
0.5
50
0
51
90
0
ARC
8
0
10
12.55
20
63.65
40
0.5
50
90
51
180
0
ARC
8
0
10
12.55
20
50.65
40
0.5
50
180
51
270
0
ARC
8
0
10
44.6
20
-6.5
40
0.5
50
270
51
0
0
ARC
8
0
10
44.6
20
6.5
40
0.5
50
0
51
90
0
ARC
8
0
10
31.6
20
6.5
40
0.5
50
90
51
180
0
ARC
8
0
10
31.6
20
-6.5
40
0.5
50
180
51
270
0
ARC
8
0
10
44.6
20
12.55
40
0.5
50
270
51
0
0
ARC
8
0
10
44.6
20
25.55
40
0.5
50
0
51
90
0
ARC
8
0
10
31.6
20
25.55
40
0.5
50
90
51
180
0
ARC
8
0
10
31.6
20
12.55
40
0.5
50
180
51
270
0
ARC
8
0
10
44.6
20
31.6
40
0.5
50
270
51
0
0
ARC
8
0
10
44.6
20
44.6
40
0.5
50
0
51
90
0
ARC
8
0
10
31.6
20
44.6
40
0.5
50
90
51
180
0
ARC
8
0
10
31.6
20
31.6
40
0.5
50
180
51
270
0
ARC
8
0
10
44.6
20
50.65
40
0.5
50
270
51
0
0
ARC
8
0
10
44.6
20
63.65
40
0.5
50
0
51
90
0
ARC
8
0
10
31.6
20
63.65
40
0.5
50
90
51
180
0
ARC
8
0
10
31.6
20
50.65
40
0.5
50
180
51
270
0
ARC
8
0
10
163.6625
20
-6.5
40
0.5
50
270
51
0
0
ARC
8
0
10
163.6625
20
6.5
40
0.5
50
0
51
90
0
ARC
8
0
10
150.6625
20
6.5
40
0.5
50
90
51
180
0
ARC
8
0
10
150.6625
20
-6.5
40
0.5
50
180
51
270
0
ARC
8
0
10
163.6625
20
12.55
40
0.5
50
270
51
0
0
ARC
8
0
10
163.6625
20
25.55
40
0.5
50
0
51
90
0
ARC
8
0
10
150.6625
20
25.55
40
0.5
50
90
51
180
0
ARC
8
0
10
150.6625
20
12.55
40
0.5
50
180
51
270
0
ARC
8
0
10
163.6625
20
31.6
40
0.5
50
270
51
0
0
ARC
8
0
10
163.6625
20
44.6
40
0.5
50
0
51
90
0
ARC
8
0
10
150.6625
20
44.6
40
0.5
50
90
51
180
0
ARC
8
0
10
150.6625
20
31.6
40
0.5
50
180
51
270
0
ARC
8
0
10
163.6625
20
50.65
40
0.5
50
270
51
0
0
ARC
8
0
10
163.6625
20
63.65
40
0.5
50
0
51
90
0
ARC
8
0
10
150.6625
20
63.65
40
0.5
50
90
51
180
0
ARC
8
0
10
150.6625
20
50.65
40
0.5
50
180
51
270
0
ARC
8
0
10
182.7125
20
12.55
40
0.5
50
270
51
0
0
ARC
8
0
10
182.7125
20
25.55
40
0.5
50
0
51
90
0
ARC
8
0
10
169.7125
20
25.55
40
0.5
50
90
51
180
0
ARC
8
0
10
169.7125
20
12.55
40
0.5
50
180
51
270
0
ARC
8
0
10
182.7125
20
31.6
40
0.5
50
270
51
0
0
ARC
8
0
10
182.7125
20
44.6
40
0.5
50
0
51
90
0
ARC
8
0
10
169.7125
20
44.6
40
0.5
50
90
51
180
0
ARC
8
0
10
169.7125
20
31.6
40
0.5
50
180
51
270
0
ARC
8
0
10
182.7125
20
50.65
40
0.5
50
270
51
0
0
ARC
8
0
10
182.7125
20
63.65
40
0.5
50
0
51
90
0
ARC
8
0
10
169.7125
20
63.65
40
0.5
50
90
51
180
0
ARC
8
0
10
169.7125
20
50.65
40
0.5
50
180
51
270
0
ARC
8
0
10
201.7625
20
12.55
40
0.5
50
270
51
0
0
ARC
8
0
10
201.7625
20
25.55
40
0.5
50
0
51
90
0
ARC
8
0
10
188.7625
20
25.55
40
0.5
50
90
51
180
0
ARC
8
0
10
188.7625
20
12.55
40
0.5
50
180
51
270
0
ARC
8
0
10
201.7625
20
31.6
40
0.5
50
270
51
0
0
ARC
8
0
10
201.7625
20
44.6
40
0.5
50
0
51
90
0
ARC
8
0
10
188.7625
20
44.6
40
0.5
50
90
51
180
0
ARC
8
0
10
188.7625
20
31.6
40
0.5
50
180
51
270
0
ARC
8
0
10
201.7625
20
50.65
40
0.5
50
270
51
0
0
ARC
8
0
10
201.7625
20
63.65
40
0.5
50
0
51
90
0
ARC
8
0
10
188.7625
20
63.65
40
0.5
50
90
51
180
0
ARC
8
0
10
188.7625
20
50.65
40
0.5
50
180
51
270
0
ARC
8
0
10
220.8125
20
12.55
40
0.5
50
270
51
0
0
ARC
8
0
10
220.8125
20
25.55
40
0.5
50
0
51
90
0
ARC
8
0
10
207.8125
20
25.55
40
0.5
50
90
51
180
0
ARC
8
0
10
207.8125
20
12.55
40
0.5
50
180
51
270
0
ARC
8
0
10
220.8125
20
31.6
40
0.5
50
270
51
0
0
ARC
8
0
10
220.8125
20
44.6
40
0.5
50
0
51
90
0
ARC
8
0
10
207.8125
20
44.6
40
0.5
50
90
51
180
0
ARC
8
0
10
207.8125
20
31.6
40
0.5
50
180
51
270
0
ARC
8
0
10
220.8125
20
50.65
40
0.5
50
270
51
0
0
ARC
8
0
10
220.8125
20
63.65
40
0.5
50
0
51
90
0
ARC
8
0
10
207.8125
20
63.65
40
0.5
50
90
51
180
0
ARC
8
0
10
207.8125
20
50.65
40
0.5
50
180
51
270
0
ARC
8
0
10
239.8625
20
12.55
40
0.5
50
270
51
0
0
ARC
8
0
10
239.8625
20
25.55
40
0.5
50
0
51
90
0
ARC
8
0
10
226.8625
20
25.55
40
0.5
50
90
51
180
0
ARC
8
0
10
226.8625
20
12.55
40
0.5
50
180
51
270
0
ARC
8
0
10
239.8625
20
31.6
40
0.5
50
270
51
0
0
ARC
8
0
10
239.8625
20
44.6
40
0.5
50
0
51
90
0
ARC
8
0
10
226.8625
20
44.6
40
0.5
50
90
51
180
0
ARC
8
0
10
226.8625
20
31.6
40
0.5
50
180
51
270
0
ARC
8
0
10
239.8625
20
50.65
40
0.5
50
270
51
0
0
ARC
8
0
10
239.8625
20
63.65
40
0.5
50
0
51
90
0
ARC
8
0
10
226.8625
20
63.65
40
0.5
50
90
51
180
0
ARC
8
0
10
226.8625
20
50.65
40
0.5
50
180
51
270
0
ARC
8
0
10
277.9625
20
-6.5
40
0.5
50
270
51
0
0
ARC
8
0
10
277.9625
20
6.5
40
0.5
50
0
51
90
0
ARC
8
0
10
264.9625
20
6.5
40
0.5
50
90
51
180
0
ARC
8
0
10
264.9625
20
-6.5
40
0.5
50
180
51
270
0
ARC
8
0
10
277.9625
20
12.55
40
0.5
50
270
51
0
0
ARC
8
0
10
277.9625
20
25.55
40
0.5
50
0
51
90
0
ARC
8
0
10
264.9625
20
25.55
40
0.5
50
90
51
180
0
ARC
8
0
10
264.9625
20
12.55
40
0.5
50
180
51
270
0
ARC
8
0
10
277.9625
20
31.6
40
0.5
50
270
51
0
0
ARC
8
0
10
277.9625
20
44.6
40
0.5
50
0
51
90
0
ARC
8
0
10
264.9625
20
44.6
40
0.5
50
90
51
180
0
ARC
8
0
10
264.9625
20
31.6
40
0.5
50
180
51
270
0
ARC
8
0
10
277.9625
20
50.65
40
0.5
50
270
51
0
0
ARC
8
0
10
277.9625
20
63.65
40
0.5
50
0
51
90
0
ARC
8
0
10
264.9625
20
63.65
40
0.5
50
90
51
180
0
ARC
8
0
10
264.9625
20
50.65
40
0.5
50
180
51
270
0
ARC
8
0
10
297.0125
20
-6.5
40
0.5
50
270
51
0
0
ARC
8
0
10
297.0125
20
6.5
40
0.5
50
0
51
90
0
ARC
8
0
10
284.0125
20
6.5
40
0.5
50
90
51
180
0
ARC
8
0
10
284.0125
20
-6.5
40
0.5
50
180
51
270
0
ARC
8
0
10
297.0125
20
12.55
40
0.5
50
270
51
0
0
ARC
8
0
10
297.0125
20
25.55
40
0.5
50
0
51
90
0
ARC
8
0
10
284.0125
20
25.55
40
0.5
50
90
51
180
0
ARC
8
0
10
284.0125
20
12.55
40
0.5
50
180
51
270
0
ARC
8
0
10
297.0125
20
31.6
40
0.5
50
270
51
0
0
ARC
8
0
10
297.0125
20
44.6
40
0.5
50
0
51
90
0
ARC
8
0
10
284.0125
20
44.6
40
0.5
50
90
51
180
0
ARC
8
0
10
284.0125
20
31.6
40
0.5
50
180
51
270
0
ARC
8
0
10
297.0125
20
50.65
40
0.5
50
270
51
0
0
ARC
8
0
10
297.0125
20
63.65
40
0.5
50
0
51
90
0
ARC
8
0
10
284.0125
20
63.65
40
0.5
50
90
51
180
0
ARC
8
0
10
284.0125
20
50.65
40
0.5
50
180
51
270
0
ARC
8
0
10
316.0625
20
50.65
40
0.5
50
270
51
0
0
ARC
8
0
10
316.0625
20
63.65
40
0.5
50
0
51
90
0
ARC
8
0
10
303.0625
20
63.65
40
0.5
50
90
51
180
0
ARC
8
0
10
303.0625
20
50.65
40
0.5
50
180
51
270
0
ENDSEC
0
EOF