0
SECTION
2
HEADER
9
$INSUNITS
70
4
0
ENDSEC
0
SECTION
2
TABLES
0
TABLE
2
LTYPE
0
LTYPE
72
65
70
64
2
CONTINUOUS
3
______
73
0
40
0
0
ENDTAB
0
TABLE
2
LAYER
0
ENDTAB
0
ENDSEC
0
SECTION
2
ENTITIES
0
LINE
8
0
10
48.125
20
28.575
11
123.325
21
28.575
0
LINE
8
0
10
47.625
20
29.075
11
47.625
21
123.325
0
ARC
8
0
10
48.125
20
29.075
40
0.5
50
180
51
270
0
LINE
8
0
10
48.125
20
123.825
11
123.325
21
123.825
0
ARC
8
0
10
48.125
20
123.325
40
0.5
50
90
51
180
0
ARC
8
0
10
123.325
20
29.075
40
0.5
50
270
51
360
0
LINE
8
0
10
123.825
20
29.075
11
123.825
21
123.325
0
ARC
8
0
10
123.325
20
123.325
40
0.5
50
0
51
90
0
LINE
8
0
10
24.3125
20
28.575
11
42.3625
21
28.575
0
ARC
8
0
10
42.3625
20
29.075
40
0.5
50
270
51
360
0
LINE
8
0
10
42.8625
20
29.075
11
42.8625
21
123.325
0
LINE
8
0
10
23.8125
20
29.075
11
23.8125
21
123.325
0
ARC
8
0
10
24.3125
20
29.075
40
0.5
50
180
51
270
0
ARC
8
0
10
42.3625
20
123.325
40
0.5
50
0
51
90
0
LINE
8
0
10
42.3625
20
123.825
11
24.3125
21
123.825
0
ARC
8
0
10
24.3125
20
123.325
40
0.5
50
90
51
180
0
LINE
8
0
10
143.375
20
105.775
11
161.425
21
105.775
0
ARC
8
0
10
161.425
20
106.275
40
0.5
50
270
51
360
0
LINE
8
0
10
161.925
20
106.275
11
161.925
21
124.325
0
ARC
8
0
10
161.425
20
124.325
40
0.5
50
0
51
90
0
LINE
8
0
10
161.425
20
124.825
11
143.375
21
124.825
0
ARC
8
0
10
143.375
20
124.325
40
0.5
50
90
51
180
0
LINE
8
0
10
142.875
20
124.325
11
142.875
21
106.275
0
ARC
8
0
10
143.375
20
106.275
40
0.5
50
180
51
270
0
LINE
8
0
10
157.6625
20
82.725
11
175.7125
21
82.725
0
ARC
8
0
10
175.7125
20
83.225
40
0.5
50
270
51
360
0
LINE
8
0
10
176.2125
20
83.225
11
176.2125
21
101.275
0
ARC
8
0
10
175.7125
20
101.275
40
0.5
50
0
51
90
0
LINE
8
0
10
175.7125
20
101.775
11
157.6625
21
101.775
0
ARC
8
0
10
157.6625
20
101.275
40
0.5
50
90
51
180
0
LINE
8
0
10
157.1625
20
101.275
11
157.1625
21
83.225
0
ARC
8
0
10
157.6625
20
83.225
40
0.5
50
180
51
270
0
LINE
8
0
10
129.0875
20
82.725
11
147.1375
21
82.725
0
ARC
8
0
10
147.1375
20
83.225
40
0.5
50
270
51
360
0
LINE
8
0
10
147.6375
20
83.225
11
147.6375
21
101.275
0
ARC
8
0
10
147.1375
20
101.275
40
0.5
50
0
51
90
0
LINE
8
0
10
147.1375
20
101.775
11
129.0875
21
101.775
0
ARC
8
0
10
129.0875
20
101.275
40
0.5
50
90
51
180
0
LINE
8
0
10
128.5875
20
101.275
11
128.5875
21
83.225
0
ARC
8
0
10
129.0875
20
83.225
40
0.5
50
180
51
270
0
LINE
8
0
10
143.375
20
55.625
11
161.425
21
55.625
0
ARC
8
0
10
161.425
20
56.125
40
0.5
50
270
51
360
0
LINE
8
0
10
161.925
20
56.125
11
161.925
21
74.175
0
ARC
8
0
10
161.425
20
74.175
40
0.5
50
0
51
90
0
LINE
8
0
10
161.425
20
74.675
11
143.375
21
74.675
0
ARC
8
0
10
143.375
20
74.175
40
0.5
50
90
51
180
0
LINE
8
0
10
142.875
20
74.175
11
142.875
21
56.125
0
ARC
8
0
10
143.375
20
56.125
40
0.5
50
180
51
270
0
LINE
8
0
10
143.375
20
28.955
11
161.425
21
28.955
0
ARC
8
0
10
161.425
20
29.455
40
0.5
50
270
51
360
0
LINE
8
0
10
161.925
20
29.455
11
161.925
21
47.505
0
ARC
8
0
10
161.425
20
47.505
40
0.5
50
0
51
90
0
LINE
8
0
10
161.425
20
48.005
11
143.375
21
48.005
0
ARC
8
0
10
143.375
20
47.505
40
0.5
50
90
51
180
0
LINE
8
0
10
142.875
20
47.505
11
142.875
21
29.455
0
ARC
8
0
10
143.375
20
29.455
40
0.5
50
180
51
270
0
LINE
8
0
10
86.225
20
133.35
11
104.275
21
133.35
0
ARC
8
0
10
104.275
20
133.85
40
0.5
50
270
51
360
0
LINE
8
0
10
104.775
20
133.85
11
104.775
21
151.9
0
ARC
8
0
10
104.275
20
151.9
40
0.5
50
0
51
90
0
LINE
8
0
10
104.275
20
152.4
11
86.225
21
152.4
0
ARC
8
0
10
86.225
20
151.9
40
0.5
50
90
51
180
0
LINE
8
0
10
85.725
20
151.9
11
85.725
21
133.85
0
ARC
8
0
10
86.225
20
133.85
40
0.5
50
180
51
270
0
LINE
8
0
10
50.15
20
31.1
11
64.15
21
31.1
0
LINE
8
0
10
64.15
20
31.1
11
64.15
21
45.1
0
LINE
8
0
10
64.15
20
45.1
11
50.15
21
45.1
0
LINE
8
0
10
50.15
20
45.1
11
50.15
21
31.1
0
LINE
8
0
10
50.15
20
50.15
11
64.15
21
50.15
0
LINE
8
0
10
64.15
20
50.15
11
64.15
21
64.15
0
LINE
8
0
10
64.15
20
64.15
11
50.15
21
64.15
0
LINE
8
0
10
50.15
20
64.15
11
50.15
21
50.15
0
LINE
8
0
10
50.15
20
69.2
11
64.15
21
69.2
0
LINE
8
0
10
64.15
20
69.2
11
64.15
21
83.2
0
LINE
8
0
10
64.15
20
83.2
11
50.15
21
83.2
0
LINE
8
0
10
50.15
20
83.2
11
50.15
21
69.2
0
LINE
8
0
10
50.15
20
88.25
11
64.15
21
88.25
0
LINE
8
0
10
64.15
20
88.25
11
64.15
21
102.25
0
LINE
8
0
10
64.15
20
102.25
11
50.15
21
102.25
0
LINE
8
0
10
50.15
20
102.25
11
50.15
21
88.25
0
LINE
8
0
10
50.15
20
107.3
11
64.15
21
107.3
0
LINE
8
0
10
64.15
20
107.3
11
64.15
21
121.3
0
LINE
8
0
10
64.15
20
121.3
11
50.15
21
121.3
0
LINE
8
0
10
50.15
20
121.3
11
50.15
21
107.3
0
LINE
8
0
10
69.2
20
31.1
11
83.2
21
31.1
0
LINE
8
0
10
83.2
20
31.1
11
83.2
21
45.1
0
LINE
8
0
10
83.2
20
45.1
11
69.2
21
45.1
0
LINE
8
0
10
69.2
20
45.1
11
69.2
21
31.1
0
LINE
8
0
10
69.2
20
50.15
11
83.2
21
50.15
0
LINE
8
0
10
83.2
20
50.15
11
83.2
21
64.15
0
LINE
8
0
10
83.2
20
64.15
11
69.2
21
64.15
0
LINE
8
0
10
69.2
20
64.15
11
69.2
21
50.15
0
LINE
8
0
10
69.2
20
69.2
11
83.2
21
69.2
0
LINE
8
0
10
83.2
20
69.2
11
83.2
21
83.2
0
LINE
8
0
10
83.2
20
83.2
11
69.2
21
83.2
0
LINE
8
0
10
69.2
20
83.2
11
69.2
21
69.2
0
LINE
8
0
10
69.2
20
88.25
11
83.2
21
88.25
0
LINE
8
0
10
83.2
20
88.25
11
83.2
21
102.25
0
LINE
8
0
10
83.2
20
102.25
11
69.2
21
102.25
0
LINE
8
0
10
69.2
20
102.25
11
69.2
21
88.25
0
LINE
8
0
10
69.2
20
107.3
11
83.2
21
107.3
0
LINE
8
0
10
83.2
20
107.3
11
83.2
21
121.3
0
LINE
8
0
10
83.2
20
121.3
11
69.2
21
121.3
0
LINE
8
0
10
69.2
20
121.3
11
69.2
21
107.3
0
LINE
8
0
10
88.25
20
31.1
11
102.25
21
31.1
0
LINE
8
0
10
102.25
20
31.1
11
102.25
21
45.1
0
LINE
8
0
10
102.25
20
45.1
11
88.25
21
45.1
0
LINE
8
0
10
88.25
20
45.1
11
88.25
21
31.1
0
LINE
8
0
10
88.25
20
50.15
11
102.25
21
50.15
0
LINE
8
0
10
102.25
20
50.15
11
102.25
21
64.15
0
LINE
8
0
10
102.25
20
64.15
11
88.25
21
64.15
0
LINE
8
0
10
88.25
20
64.15
11
88.25
21
50.15
0
LINE
8
0
10
88.25
20
69.2
11
102.25
21
69.2
0
LINE
8
0
10
102.25
20
69.2
11
102.25
21
83.2
0
LINE
8
0
10
102.25
20
83.2
11
88.25
21
83.2
0
LINE
8
0
10
88.25
20
83.2
11
88.25
21
69.2
0
LINE
8
0
10
88.25
20
88.25
11
102.25
21
88.25
0
LINE
8
0
10
102.25
20
88.25
11
102.25
21
102.25
0
LINE
8
0
10
102.25
20
102.25
11
88.25
21
102.25
0
LINE
8
0
10
88.25
20
102.25
11
88.25
21
88.25
0
LINE
8
0
10
88.25
20
107.3
11
102.25
21
107.3
0
LINE
8
0
10
102.25
20
107.3
11
102.25
21
121.3
0
LINE
8
0
10
102.25
20
121.3
11
88.25
21
121.3
0
LINE
8
0
10
88.25
20
121.3
11
88.25
21
107.3
0
LINE
8
0
10
107.3
20
31.1
11
121.3
21
31.1
0
LINE
8
0
10
121.3
20
31.1
11
121.3
21
45.1
0
LINE
8
0
10
121.3
20
45.1
11
107.3
21
45.1
0
LINE
8
0
10
107.3
20
45.1
11
107.3
21
31.1
0
LINE
8
0
10
107.3
20
50.15
11
121.3
21
50.15
0
LINE
8
0
10
121.3
20
50.15
11
121.3
21
64.15
0
LINE
8
0
10
121.3
20
64.15
11
107.3
21
64.15
0
LINE
8
0
10
107.3
20
64.15
11
107.3
21
50.15
0
LINE
8
0
10
107.3
20
69.2
11
121.3
21
69.2
0
LINE
8
0
10
121.3
20
69.2
11
121.3
21
83.2
0
LINE
8
0
10
121.3
20
83.2
11
107.3
21
83.2
0
LINE
8
0
10
107.3
20
83.2
11
107.3
21
69.2
0
LINE
8
0
10
107.3
20
88.25
11
121.3
21
88.25
0
LINE
8
0
10
121.3
20
88.25
11
121.3
21
102.25
0
LINE
8
0
10
121.3
20
102.25
11
107.3
21
102.25
0
LINE
8
0
10
107.3
20
102.25
11
107.3
21
88.25
0
LINE
8
0
10
107.3
20
107.3
11
121.3
21
107.3
0
LINE
8
0
10
121.3
20
107.3
11
121.3
21
121.3
0
LINE
8
0
10
121.3
20
121.3
11
107.3
21
121.3
0
LINE
8
0
10
107.3
20
121.3
11
107.3
21
107.3
0
LINE
8
0
10
26.3375
20
31.1
11
40.3375
21
31.1
0
LINE
8
0
10
40.3375
20
31.1
11
40.3375
21
45.1
0
LINE
8
0
10
40.3375
20
45.1
11
26.3375
21
45.1
0
LINE
8
0
10
26.3375
20
45.1
11
26.3375
21
31.1
0
LINE
8
0
10
26.3375
20
50.15
11
40.3375
21
50.15
0
LINE
8
0
10
40.3375
20
50.15
11
40.3375
21
64.15
0
LINE
8
0
10
40.3375
20
64.15
11
26.3375
21
64.15
0
LINE
8
0
10
26.3375
20
64.15
11
26.3375
21
50.15
0
LINE
8
0
10
26.3375
20
69.2
11
40.3375
21
69.2
0
LINE
8
0
10
40.3375
20
69.2
11
40.3375
21
83.2
0
LINE
8
0
10
40.3375
20
83.2
11
26.3375
21
83.2
0
LINE
8
0
10
26.3375
20
83.2
11
26.3375
21
69.2
0
LINE
8
0
10
26.3375
20
88.25
11
40.3375
21
88.25
0
LINE
8
0
10
40.3375
20
88.25
11
40.3375
21
102.25
0
LINE
8
0
10
40.3375
20
102.25
11
26.3375
21
102.25
0
LINE
8
0
10
26.3375
20
102.25
11
26.3375
21
88.25
0
LINE
8
0
10
26.3375
20
107.3
11
40.3375
21
107.3
0
LINE
8
0
10
40.3375
20
107.3
11
40.3375
21
121.3
0
LINE
8
0
10
40.3375
20
121.3
11
26.3375
21
121.3
0
LINE
8
0
10
26.3375
20
121.3
11
26.3375
21
107.3
0
LINE
8
0
10
145.4
20
108.3
11
159.4
21
108.3
0
LINE
8
0
10
159.4
20
108.3
11
159.4
21
122.3
0
LINE
8
0
10
159.4
20
122.3
11
145.4
21
122.3
0
LINE
8
0
10
145.4
20
122.3
11
145.4
21
108.3
0
LINE
8
0
10
159.6875
20
85.25
11
173.6875
21
85.25
0
LINE
8
0
10
173.6875
20
85.25
11
173.6875
21
99.25
0
LINE
8
0
10
173.6875
20
99.25
11
159.6875
21
99.25
0
LINE
8
0
10
159.6875
20
99.25
11
159.6875
21
85.25
0
LINE
8
0
10
131.1125
20
85.25
11
145.1125
21
85.25
0
LINE
8
0
10
145.1125
20
85.25
11
145.1125
21
99.25
0
LINE
8
0
10
145.1125
20
99.25
11
131.1125
21
99.25
0
LINE
8
0
10
131.1125
20
99.25
11
131.1125
21
85.25
0
LINE
8
0
10
145.4
20
58.15
11
159.4
21
58.15
0
LINE
8
0
10
159.4
20
58.15
11
159.4
21
72.15
0
LINE
8
0
10
159.4
20
72.15
11
145.4
21
72.15
0
LINE
8
0
10
145.4
20
72.15
11
145.4
21
58.15
0
LINE
8
0
10
145.4
20
31.48
11
159.4
21
31.48
0
LINE
8
0
10
159.4
20
31.48
11
159.4
21
45.48
0
LINE
8
0
10
159.4
20
45.48
11
145.4
21
45.48
0
LINE
8
0
10
145.4
20
45.48
11
145.4
21
31.48
0
LINE
8
0
10
88.25
20
135.875
11
102.25
21
135.875
0
LINE
8
0
10
102.25
20
135.875
11
102.25
21
149.875
0
LINE
8
0
10
102.25
20
149.875
11
88.25
21
149.875
0
LINE
8
0
10
88.25
20
149.875
11
88.25
21
135.875
0
ENDSEC
0
EOF