0
SECTION
2
HEADER
9
$INSUNITS
70
4
9
$ACADVER
1
AC1014
9
$HANDSEED
5
FFFF
0
ENDSEC
0
SECTION
2
TABLES
0
TABLE
2
LTYPE
5
5
100
AcDbSymbolTable
0
LTYPE
5
14
100
AcDbSymbolTableRecord
100
AcDbLinetypeTableRecord
2
BYBLOCK
70
0
0
LTYPE
5
15
100
AcDbSymbolTableRecord
100
AcDbLinetypeTableRecord
2
BYLAYER
70
0
0
ENDTAB
0
TABLE
2
LAYER
5
2
100
AcDbSymbolTable
70
4
0
LAYER
5
50
100
AcDbSymbolTableRecord
100
AcDbLayerTableRecord
2
0
70
0
6
CONTINUOUS
0
LAYER
5
51
100
AcDbSymbolTableRecord
100
AcDbLayerTableRecord
2
OUTLINE
70
0
62
7
6
CONTINUOUS
0
LAYER
5
52
100
AcDbSymbolTableRecord
100
AcDbLayerTableRecord
2
SWITCHES
70
0
62
1
6
CONTINUOUS
0
LAYER
5
53
100
AcDbSymbolTableRecord
100
AcDbLayerTableRecord
2
MOUNTING
70
0
62
3
6
CONTINUOUS
0
ENDTAB
0
TABLE
2
STYLE
5
3
100
AcDbSymbolTable
70
0
0
ENDTAB
0
TABLE
2
BLOCK_RECORD
5
1
100
AcDbSymbolTable
70
1
0
BLOCK_RECORD
5
1F
100
AcDbSymbolTableRecord
100
AcDbBlockTableRecord
2
*MODEL_SPACE
0
BLOCK_RECORD
5
1B
100
AcDbSymbolTableRecord
100
AcDbBlockTableRecord
2
*PAPER_SPACE
0
ENDTAB
0
ENDSEC
0
SECTION
2
BLOCKS
0
BLOCK
5
20
100
AcDbEntity
100
AcDbBlockBegin
2
*MODEL_SPACE
0
ENDBLK
5
21
100
AcDbEntity
100
AcDbBlockEnd
0
BLOCK
5
1C
100
AcDbEntity
100
AcDbBlockBegin
2
*PAPER_SPACE
0
ENDBLK
5
1D
100
AcDbEntity
100
AcDbBlockEnd
0
ENDSEC
0
SECTION
2
ENTITIES
0
LINE
5
100
100
AcDbEntity
8
OUTLINE
100
AcDbLine
10
11.850000
20
66.675000
30
0
11
-235.687500
21
66.675000
31
0
0
ARC
5
101
100
AcDbEntity
8
OUTLINE
100
AcDbCircle
10
-235.687500
20
64.000000
30
0
40
2.675000
100
AcDbArc
50
90.000000
51
127.879200
0
ARC
5
102
100
AcDbEntity
8
OUTLINE
100
AcDbCircle
10
-237.022900
20
65.716700
30
0
40
0.500000
100
AcDbArc
50
127.879200
51
258.811900
0
ARC
5
103
100
AcDbEntity
8
OUTLINE
100
AcDbCircle
10
-237.362500
20
64.000000
30
0
40
1.250000
100
AcDbArc
50
-78.811900
51
78.811900
0
ARC
5
104
100
AcDbEntity
8
OUTLINE
100
AcDbCircle
10
-237.022900
20
62.283300
30
0
40
0.500000
100
AcDbArc
50
101.188100
51
232.120800
0
ARC
5
105
100
AcDbEntity
8
OUTLINE
100
AcDbCircle
10
-235.687500
20
64.000000
30
0
40
2.675000
100
AcDbArc
50
232.120800
51
270.000000
0
LINE
5
106
100
AcDbEntity
8
OUTLINE
100
AcDbLine
10
-235.687500
20
61.325000
30
0
11
-234.862500
21
61.325000
31
0
0
ARC
5
107
100
AcDbEntity
8
OUTLINE
100
AcDbCircle
10
-234.862500
20
59.825000
30
0
40
1.500000
100
AcDbArc
50
0.000000
51
90.000000
0
LINE
5
108
100
AcDbEntity
8
OUTLINE
100
AcDbLine
10
-233.362500
20
59.825000
30
0
11
-233.362500
21
-2.675000
31
0
0
ARC
5
109
100
AcDbEntity
8
OUTLINE
100
AcDbCircle
10
-234.862500
20
-2.675000
30
0
40
1.500000
100
AcDbArc
50
-90.000000
51
0.000000
0
LINE
5
10A
100
AcDbEntity
8
OUTLINE
100
AcDbLine
10
-234.862500
20
-4.175000
30
0
11
-235.687500
21
-4.175000
31
0
0
ARC
5
10B
100
AcDbEntity
8
OUTLINE
100
AcDbCircle
10
-235.687500
20
-6.850000
30
0
40
2.675000
100
AcDbArc
50
90.000000
51
127.879200
0
ARC
5
10C
100
AcDbEntity
8
OUTLINE
100
AcDbCircle
10
-237.022900
20
-5.133300
30
0
40
0.500000
100
AcDbArc
50
127.879200
51
258.811900
0
ARC
5
10D
100
AcDbEntity
8
OUTLINE
100
AcDbCircle
10
-237.362500
20
-6.850000
30
0
40
1.250000
100
AcDbArc
50
-78.811900
51
78.811900
0
ARC
5
10E
100
AcDbEntity
8
OUTLINE
100
AcDbCircle
10
-237.022900
20
-8.566700
30
0
40
0.500000
100
AcDbArc
50
101.188100
51
232.120800
0
ARC
5
10F
100
AcDbEntity
8
OUTLINE
100
AcDbCircle
10
-235.687500
20
-6.850000
30
0
40
2.675000
100
AcDbArc
50
232.120800
51
270.000000
0
LINE
5
110
100
AcDbEntity
8
OUTLINE
100
AcDbLine
10
-235.687500
20
-9.525000
30
0
11
11.850000
21
-9.525000
31
0
0
ARC
5
111
100
AcDbEntity
8
OUTLINE
100
AcDbCircle
10
11.850000
20
-6.850000
30
0
40
2.675000
100
AcDbArc
50
270.000000
51
307.879200
0
ARC
5
112
100
AcDbEntity
8
OUTLINE
100
AcDbCircle
10
13.185400
20
-8.566700
30
0
40
0.500000
100
AcDbArc
50
-52.120800
51
78.811900
0
ARC
5
113
100
AcDbEntity
8
OUTLINE
100
AcDbCircle
10
13.525000
20
-6.850000
30
0
40
1.250000
100
AcDbArc
50
101.188100
51
258.811900
0
ARC
5
114
100
AcDbEntity
8
OUTLINE
100
AcDbCircle
10
13.185400
20
-5.133300
30
0
40
0.500000
100
AcDbArc
50
-78.811900
51
52.120800
0
ARC
5
115
100
AcDbEntity
8
OUTLINE
100
AcDbCircle
10
11.850000
20
-6.850000
30
0
40
2.675000
100
AcDbArc
50
52.120800
51
90.000000
0
LINE
5
116
100
AcDbEntity
8
OUTLINE
100
AcDbLine
10
11.850000
20
-4.175000
30
0
11
11.025000
21
-4.175000
31
0
0
ARC
5
117
100
AcDbEntity
8
OUTLINE
100
AcDbCircle
10
11.025000
20
-2.675000
30
0
40
1.500000
100
AcDbArc
50
180.000000
51
270.000000
0
LINE
5
118
100
AcDbEntity
8
OUTLINE
100
AcDbLine
10
9.525000
20
-2.675000
30
0
11
9.525000
21
59.825000
31
0
0
ARC
5
119
100
AcDbEntity
8
OUTLINE
100
AcDbCircle
10
11.025000
20
59.825000
30
0
40
1.500000
100
AcDbArc
50
90.000000
51
180.000000
0
LINE
5
11A
100
AcDbEntity
8
OUTLINE
100
AcDbLine
10
11.025000
20
61.325000
30
0
11
11.850000
21
61.325000
31
0
0
ARC
5
11B
100
AcDbEntity
8
OUTLINE
100
AcDbCircle
10
11.850000
20
64.000000
30
0
40
2.675000
100
AcDbArc
50
270.000000
51
307.879200
0
ARC
5
11C
100
AcDbEntity
8
OUTLINE
100
AcDbCircle
10
13.185400
20
62.283300
30
0
40
0.500000
100
AcDbArc
50
-52.120800
51
78.811900
0
ARC
5
11D
100
AcDbEntity
8
OUTLINE
100
AcDbCircle
10
13.525000
20
64.000000
30
0
40
1.250000
100
AcDbArc
50
101.188100
51
258.811900
0
ARC
5
11E
100
AcDbEntity
8
OUTLINE
100
AcDbCircle
10
13.185400
20
65.716700
30
0
40
0.500000
100
AcDbArc
50
-78.811900
51
52.120800
0
ARC
5
11F
100
AcDbEntity
8
OUTLINE
100
AcDbCircle
10
11.850000
20
64.000000
30
0
40
2.675000
100
AcDbArc
50
52.120800
51
90.000000
0
LINE
5
120
100
AcDbEntity
8
SWITCHES
100
AcDbLine
10
-228.317779
20
50.381154
30
0
11
-214.326308
21
49.892561
31
0
0
LINE
5
121
100
AcDbEntity
8
SWITCHES
100
AcDbLine
10
-214.326308
20
49.892561
30
0
11
-213.837715
21
63.884032
31
0
0
LINE
5
122
100
AcDbEntity
8
SWITCHES
100
AcDbLine
10
-213.837715
20
63.884032
30
0
11
-227.829186
21
64.372625
31
0
0
LINE
5
123
100
AcDbEntity
8
SWITCHES
100
AcDbLine
10
-227.829186
20
64.372625
30
0
11
-228.317779
21
50.381154
31
0
0
LINE
5
124
100
AcDbEntity
8
SWITCHES
100
AcDbLine
10
-228.982615
20
31.342758
30
0
11
-214.991143
21
30.854165
31
0
0
LINE
5
125
100
AcDbEntity
8
SWITCHES
100
AcDbLine
10
-214.991143
20
30.854165
30
0
11
-214.502550
21
44.845637
31
0
0
LINE
5
126
100
AcDbEntity
8
SWITCHES
100
AcDbLine
10
-214.502550
20
44.845637
30
0
11
-228.494022
21
45.334230
31
0
0
LINE
5
127
100
AcDbEntity
8
SWITCHES
100
AcDbLine
10
-228.494022
20
45.334230
30
0
11
-228.982615
21
31.342758
31
0
0
LINE
5
128
100
AcDbEntity
8
SWITCHES
100
AcDbLine
10
-229.647450
20
12.304363
30
0
11
-215.655978
21
11.815770
31
0
0
LINE
5
129
100
AcDbEntity
8
SWITCHES
100
AcDbLine
10
-215.655978
20
11.815770
30
0
11
-215.167385
21
25.807242
31
0
0
LINE
5
12A
100
AcDbEntity
8
SWITCHES
100
AcDbLine
10
-215.167385
20
25.807242
30
0
11
-229.158857
21
26.295835
31
0
0
LINE
5
12B
100
AcDbEntity
8
SWITCHES
100
AcDbLine
10
-229.158857
20
26.295835
30
0
11
-229.647450
21
12.304363
31
0
0
LINE
5
12C
100
AcDbEntity
8
SWITCHES
100
AcDbLine
10
-230.312285
20
-6.734032
30
0
11
-216.320814
21
-7.222625
31
0
0
LINE
5
12D
100
AcDbEntity
8
SWITCHES
100
AcDbLine
10
-216.320814
20
-7.222625
30
0
11
-215.832221
21
6.768846
31
0
0
LINE
5
12E
100
AcDbEntity
8
SWITCHES
100
AcDbLine
10
-215.832221
20
6.768846
30
0
11
-229.823692
21
7.257439
31
0
0
LINE
5
12F
100
AcDbEntity
8
SWITCHES
100
AcDbLine
10
-229.823692
20
7.257439
30
0
11
-230.312285
21
-6.734032
31
0
0
LINE
5
130
100
AcDbEntity
8
SWITCHES
100
AcDbLine
10
-207.002952
20
50.585740
30
0
11
-193.037056
21
49.609149
31
0
0
LINE
5
131
100
AcDbEntity
8
SWITCHES
100
AcDbLine
10
-193.037056
20
49.609149
30
0
11
-192.060465
21
63.575046
31
0
0
LINE
5
132
100
AcDbEntity
8
SWITCHES
100
AcDbLine
10
-192.060465
20
63.575046
30
0
11
-206.026362
21
64.551636
31
0
0
LINE
5
133
100
AcDbEntity
8
SWITCHES
100
AcDbLine
10
-206.026362
20
64.551636
30
0
11
-207.002952
21
50.585740
31
0
0
LINE
5
134
100
AcDbEntity
8
SWITCHES
100
AcDbLine
10
-208.331813
20
31.582145
30
0
11
-194.365917
21
30.605554
31
0
0
LINE
5
135
100
AcDbEntity
8
SWITCHES
100
AcDbLine
10
-194.365917
20
30.605554
30
0
11
-193.389326
21
44.571451
31
0
0
LINE
5
136
100
AcDbEntity
8
SWITCHES
100
AcDbLine
10
-193.389326
20
44.571451
30
0
11
-207.355223
21
45.548041
31
0
0
LINE
5
137
100
AcDbEntity
8
SWITCHES
100
AcDbLine
10
-207.355223
20
45.548041
30
0
11
-208.331813
21
31.582145
31
0
0
LINE
5
138
100
AcDbEntity
8
SWITCHES
100
AcDbLine
10
-209.660674
20
12.578549
30
0
11
-195.694777
21
11.601959
31
0
0
LINE
5
139
100
AcDbEntity
8
SWITCHES
100
AcDbLine
10
-195.694777
20
11.601959
30
0
11
-194.718187
21
25.567855
31
0
0
LINE
5
13A
100
AcDbEntity
8
SWITCHES
100
AcDbLine
10
-194.718187
20
25.567855
30
0
11
-208.684083
21
26.544446
31
0
0
LINE
5
13B
100
AcDbEntity
8
SWITCHES
100
AcDbLine
10
-208.684083
20
26.544446
30
0
11
-209.660674
21
12.578549
31
0
0
LINE
5
13C
100
AcDbEntity
8
SWITCHES
100
AcDbLine
10
-210.989535
20
-6.425046
30
0
11
-197.023638
21
-7.401636
31
0
0
LINE
5
13D
100
AcDbEntity
8
SWITCHES
100
AcDbLine
10
-197.023638
20
-7.401636
30
0
11
-196.047048
21
6.564260
31
0
0
LINE
5
13E
100
AcDbEntity
8
SWITCHES
100
AcDbLine
10
-196.047048
20
6.564260
30
0
11
-210.012944
21
7.540851
31
0
0
LINE
5
13F
100
AcDbEntity
8
SWITCHES
100
AcDbLine
10
-210.012944
20
7.540851
30
0
11
-210.989535
21
-6.425046
31
0
0
LINE
5
140
100
AcDbEntity
8
SWITCHES
100
AcDbLine
10
-185.681452
20
50.763509
30
0
11
-171.758145
21
49.300111
31
0
0
LINE
5
141
100
AcDbEntity
8
SWITCHES
100
AcDbLine
10
-171.758145
20
49.300111
30
0
11
-170.294747
21
63.223417
31
0
0
LINE
5
142
100
AcDbEntity
8
SWITCHES
100
AcDbLine
10
-170.294747
20
63.223417
30
0
11
-184.218053
21
64.686816
31
0
0
LINE
5
143
100
AcDbEntity
8
SWITCHES
100
AcDbLine
10
-184.218053
20
64.686816
30
0
11
-185.681452
21
50.763509
31
0
0
LINE
5
144
100
AcDbEntity
8
SWITCHES
100
AcDbLine
10
-187.672719
20
31.817867
30
0
11
-173.749412
21
30.354469
31
0
0
LINE
5
145
100
AcDbEntity
8
SWITCHES
100
AcDbLine
10
-173.749412
20
30.354469
30
0
11
-172.286014
21
44.277775
31
0
0
LINE
5
146
100
AcDbEntity
8
SWITCHES
100
AcDbLine
10
-172.286014
20
44.277775
30
0
11
-186.209320
21
45.741174
31
0
0
LINE
5
147
100
AcDbEntity
8
SWITCHES
100
AcDbLine
10
-186.209320
20
45.741174
30
0
11
-187.672719
21
31.817867
31
0
0
LINE
5
148
100
AcDbEntity
8
SWITCHES
100
AcDbLine
10
-189.663986
20
12.872225
30
0
11
-175.740680
21
11.408826
31
0
0
LINE
5
149
100
AcDbEntity
8
SWITCHES
100
AcDbLine
10
-175.740680
20
11.408826
30
0
11
-174.277281
21
25.332133
31
0
0
LINE
5
14A
100
AcDbEntity
8
SWITCHES
100
AcDbLine
10
-174.277281
20
25.332133
30
0
11
-188.200588
21
26.795531
31
0
0
LINE
5
14B
100
AcDbEntity
8
SWITCHES
100
AcDbLine
10
-188.200588
20
26.795531
30
0
11
-189.663986
21
12.872225
31
0
0
LINE
5
14C
100
AcDbEntity
8
SWITCHES
100
AcDbLine
10
-191.655253
20
-6.073417
30
0
11
-177.731947
21
-7.536816
31
0
0
LINE
5
14D
100
AcDbEntity
8
SWITCHES
100
AcDbLine
10
-177.731947
20
-7.536816
30
0
11
-176.268548
21
6.386491
31
0
0
LINE
5
14E
100
AcDbEntity
8
SWITCHES
100
AcDbLine
10
-176.268548
20
6.386491
30
0
11
-190.191855
21
7.849889
31
0
0
LINE
5
14F
100
AcDbEntity
8
SWITCHES
100
AcDbLine
10
-190.191855
20
7.849889
30
0
11
-191.655253
21
-6.073417
31
0
0
LINE
5
150
100
AcDbEntity
8
SWITCHES
100
AcDbLine
10
-166.631452
20
50.763509
30
0
11
-152.708145
21
49.300111
31
0
0
LINE
5
151
100
AcDbEntity
8
SWITCHES
100
AcDbLine
10
-152.708145
20
49.300111
30
0
11
-151.244747
21
63.223417
31
0
0
LINE
5
152
100
AcDbEntity
8
SWITCHES
100
AcDbLine
10
-151.244747
20
63.223417
30
0
11
-165.168053
21
64.686816
31
0
0
LINE
5
153
100
AcDbEntity
8
SWITCHES
100
AcDbLine
10
-165.168053
20
64.686816
30
0
11
-166.631452
21
50.763509
31
0
0
LINE
5
154
100
AcDbEntity
8
SWITCHES
100
AcDbLine
10
-168.622719
20
31.817867
30
0
11
-154.699412
21
30.354469
31
0
0
LINE
5
155
100
AcDbEntity
8
SWITCHES
100
AcDbLine
10
-154.699412
20
30.354469
30
0
11
-153.236014
21
44.277775
31
0
0
LINE
5
156
100
AcDbEntity
8
SWITCHES
100
AcDbLine
10
-153.236014
20
44.277775
30
0
11
-167.159320
21
45.741174
31
0
0
LINE
5
157
100
AcDbEntity
8
SWITCHES
100
AcDbLine
10
-167.159320
20
45.741174
30
0
11
-168.622719
21
31.817867
31
0
0
LINE
5
158
100
AcDbEntity
8
SWITCHES
100
AcDbLine
10
-170.613986
20
12.872225
30
0
11
-156.690680
21
11.408826
31
0
0
LINE
5
159
100
AcDbEntity
8
SWITCHES
100
AcDbLine
10
-156.690680
20
11.408826
30
0
11
-155.227281
21
25.332133
31
0
0
LINE
5
15A
100
AcDbEntity
8
SWITCHES
100
AcDbLine
10
-155.227281
20
25.332133
30
0
11
-169.150588
21
26.795531
31
0
0
LINE
5
15B
100
AcDbEntity
8
SWITCHES
100
AcDbLine
10
-169.150588
20
26.795531
30
0
11
-170.613986
21
12.872225
31
0
0
LINE
5
15C
100
AcDbEntity
8
SWITCHES
100
AcDbLine
10
-172.605253
20
-6.073417
30
0
11
-158.681947
21
-7.536816
31
0
0
LINE
5
15D
100
AcDbEntity
8
SWITCHES
100
AcDbLine
10
-158.681947
20
-7.536816
30
0
11
-157.218548
21
6.386491
31
0
0
LINE
5
15E
100
AcDbEntity
8
SWITCHES
100
AcDbLine
10
-157.218548
20
6.386491
30
0
11
-171.141855
21
7.849889
31
0
0
LINE
5
15F
100
AcDbEntity
8
SWITCHES
100
AcDbLine
10
-171.141855
20
7.849889
30
0
11
-172.605253
21
-6.073417
31
0
0
LINE
5
160
100
AcDbEntity
8
SWITCHES
100
AcDbLine
10
-147.581452
20
50.763509
30
0
11
-133.658145
21
49.300111
31
0
0
LINE
5
161
100
AcDbEntity
8
SWITCHES
100
AcDbLine
10
-133.658145
20
49.300111
30
0
11
-132.194747
21
63.223417
31
0
0
LINE
5
162
100
AcDbEntity
8
SWITCHES
100
AcDbLine
10
-132.194747
20
63.223417
30
0
11
-146.118053
21
64.686816
31
0
0
LINE
5
163
100
AcDbEntity
8
SWITCHES
100
AcDbLine
10
-146.118053
20
64.686816
30
0
11
-147.581452
21
50.763509
31
0
0
LINE
5
164
100
AcDbEntity
8
SWITCHES
100
AcDbLine
10
-149.572719
20
31.817867
30
0
11
-135.649412
21
30.354469
31
0
0
LINE
5
165
100
AcDbEntity
8
SWITCHES
100
AcDbLine
10
-135.649412
20
30.354469
30
0
11
-134.186014
21
44.277775
31
0
0
LINE
5
166
100
AcDbEntity
8
SWITCHES
100
AcDbLine
10
-134.186014
20
44.277775
30
0
11
-148.109320
21
45.741174
31
0
0
LINE
5
167
100
AcDbEntity
8
SWITCHES
100
AcDbLine
10
-148.109320
20
45.741174
30
0
11
-149.572719
21
31.817867
31
0
0
LINE
5
168
100
AcDbEntity
8
SWITCHES
100
AcDbLine
10
-151.563986
20
12.872225
30
0
11
-137.640680
21
11.408826
31
0
0
LINE
5
169
100
AcDbEntity
8
SWITCHES
100
AcDbLine
10
-137.640680
20
11.408826
30
0
11
-136.177281
21
25.332133
31
0
0
LINE
5
16A
100
AcDbEntity
8
SWITCHES
100
AcDbLine
10
-136.177281
20
25.332133
30
0
11
-150.100588
21
26.795531
31
0
0
LINE
5
16B
100
AcDbEntity
8
SWITCHES
100
AcDbLine
10
-150.100588
20
26.795531
30
0
11
-151.563986
21
12.872225
31
0
0
LINE
5
16C
100
AcDbEntity
8
SWITCHES
100
AcDbLine
10
-153.555253
20
-6.073417
30
0
11
-139.631947
21
-7.536816
31
0
0
LINE
5
16D
100
AcDbEntity
8
SWITCHES
100
AcDbLine
10
-139.631947
20
-7.536816
30
0
11
-138.168548
21
6.386491
31
0
0
LINE
5
16E
100
AcDbEntity
8
SWITCHES
100
AcDbLine
10
-138.168548
20
6.386491
30
0
11
-152.091855
21
7.849889
31
0
0
LINE
5
16F
100
AcDbEntity
8
SWITCHES
100
AcDbLine
10
-152.091855
20
7.849889
30
0
11
-153.555253
21
-6.073417
31
0
0
LINE
5
170
100
AcDbEntity
8
SWITCHES
100
AcDbLine
10
-128.531452
20
50.763509
30
0
11
-114.608145
21
49.300111
31
0
0
LINE
5
171
100
AcDbEntity
8
SWITCHES
100
AcDbLine
10
-114.608145
20
49.300111
30
0
11
-113.144747
21
63.223417
31
0
0
LINE
5
172
100
AcDbEntity
8
SWITCHES
100
AcDbLine
10
-113.144747
20
63.223417
30
0
11
-127.068053
21
64.686816
31
0
0
LINE
5
173
100
AcDbEntity
8
SWITCHES
100
AcDbLine
10
-127.068053
20
64.686816
30
0
11
-128.531452
21
50.763509
31
0
0
LINE
5
174
100
AcDbEntity
8
SWITCHES
100
AcDbLine
10
-130.522719
20
31.817867
30
0
11
-116.599412
21
30.354469
31
0
0
LINE
5
175
100
AcDbEntity
8
SWITCHES
100
AcDbLine
10
-116.599412
20
30.354469
30
0
11
-115.136014
21
44.277775
31
0
0
LINE
5
176
100
AcDbEntity
8
SWITCHES
100
AcDbLine
10
-115.136014
20
44.277775
30
0
11
-129.059320
21
45.741174
31
0
0
LINE
5
177
100
AcDbEntity
8
SWITCHES
100
AcDbLine
10
-129.059320
20
45.741174
30
0
11
-130.522719
21
31.817867
31
0
0
LINE
5
178
100
AcDbEntity
8
SWITCHES
100
AcDbLine
10
-132.513986
20
12.872225
30
0
11
-118.590680
21
11.408826
31
0
0
LINE
5
179
100
AcDbEntity
8
SWITCHES
100
AcDbLine
10
-118.590680
20
11.408826
30
0
11
-117.127281
21
25.332133
31
0
0
LINE
5
17A
100
AcDbEntity
8
SWITCHES
100
AcDbLine
10
-117.127281
20
25.332133
30
0
11
-131.050588
21
26.795531
31
0
0
LINE
5
17B
100
AcDbEntity
8
SWITCHES
100
AcDbLine
10
-131.050588
20
26.795531
30
0
11
-132.513986
21
12.872225
31
0
0
LINE
5
17C
100
AcDbEntity
8
SWITCHES
100
AcDbLine
10
-134.505253
20
-6.073417
30
0
11
-120.581947
21
-7.536816
31
0
0
LINE
5
17D
100
AcDbEntity
8
SWITCHES
100
AcDbLine
10
-120.581947
20
-7.536816
30
0
11
-119.118548
21
6.386491
31
0
0
LINE
5
17E
100
AcDbEntity
8
SWITCHES
100
AcDbLine
10
-119.118548
20
6.386491
30
0
11
-133.041855
21
7.849889
31
0
0
LINE
5
17F
100
AcDbEntity
8
SWITCHES
100
AcDbLine
10
-133.041855
20
7.849889
30
0
11
-134.505253
21
-6.073417
31
0
0
LINE
5
180
100
AcDbEntity
8
SWITCHES
100
AcDbLine
10
-90.179355
20
49.300111
30
0
11
-76.256048
21
50.763509
31
0
0
LINE
5
181
100
AcDbEntity
8
SWITCHES
100
AcDbLine
10
-76.256048
20
50.763509
30
0
11
-77.719447
21
64.686816
31
0
0
LINE
5
182
100
AcDbEntity
8
SWITCHES
100
AcDbLine
10
-77.719447
20
64.686816
30
0
11
-91.642753
21
63.223417
31
0
0
LINE
5
183
100
AcDbEntity
8
SWITCHES
100
AcDbLine
10
-91.642753
20
63.223417
30
0
11
-90.179355
21
49.300111
31
0
0
LINE
5
184
100
AcDbEntity
8
SWITCHES
100
AcDbLine
10
-88.188088
20
30.354469
30
0
11
-74.264781
21
31.817867
31
0
0
LINE
5
185
100
AcDbEntity
8
SWITCHES
100
AcDbLine
10
-74.264781
20
31.817867
30
0
11
-75.728180
21
45.741174
31
0
0
LINE
5
186
100
AcDbEntity
8
SWITCHES
100
AcDbLine
10
-75.728180
20
45.741174
30
0
11
-89.651486
21
44.277775
31
0
0
LINE
5
187
100
AcDbEntity
8
SWITCHES
100
AcDbLine
10
-89.651486
20
44.277775
30
0
11
-88.188088
21
30.354469
31
0
0
LINE
5
188
100
AcDbEntity
8
SWITCHES
100
AcDbLine
10
-86.196820
20
11.408826
30
0
11
-72.273514
21
12.872225
31
0
0
LINE
5
189
100
AcDbEntity
8
SWITCHES
100
AcDbLine
10
-72.273514
20
12.872225
30
0
11
-73.736912
21
26.795531
31
0
0
LINE
5
18A
100
AcDbEntity
8
SWITCHES
100
AcDbLine
10
-73.736912
20
26.795531
30
0
11
-87.660219
21
25.332133
31
0
0
LINE
5
18B
100
AcDbEntity
8
SWITCHES
100
AcDbLine
10
-87.660219
20
25.332133
30
0
11
-86.196820
21
11.408826
31
0
0
LINE
5
18C
100
AcDbEntity
8
SWITCHES
100
AcDbLine
10
-84.205553
20
-7.536816
30
0
11
-70.282247
21
-6.073417
31
0
0
LINE
5
18D
100
AcDbEntity
8
SWITCHES
100
AcDbLine
10
-70.282247
20
-6.073417
30
0
11
-71.745645
21
7.849889
31
0
0
LINE
5
18E
100
AcDbEntity
8
SWITCHES
100
AcDbLine
10
-71.745645
20
7.849889
30
0
11
-85.668952
21
6.386491
31
0
0
LINE
5
18F
100
AcDbEntity
8
SWITCHES
100
AcDbLine
10
-85.668952
20
6.386491
30
0
11
-84.205553
21
-7.536816
31
0
0
LINE
5
190
100
AcDbEntity
8
SWITCHES
100
AcDbLine
10
-71.129355
20
49.300111
30
0
11
-57.206048
21
50.763509
31
0
0
LINE
5
191
100
AcDbEntity
8
SWITCHES
100
AcDbLine
10
-57.206048
20
50.763509
30
0
11
-58.669447
21
64.686816
31
0
0
LINE
5
192
100
AcDbEntity
8
SWITCHES
100
AcDbLine
10
-58.669447
20
64.686816
30
0
11
-72.592753
21
63.223417
31
0
0
LINE
5
193
100
AcDbEntity
8
SWITCHES
100
AcDbLine
10
-72.592753
20
63.223417
30
0
11
-71.129355
21
49.300111
31
0
0
LINE
5
194
100
AcDbEntity
8
SWITCHES
100
AcDbLine
10
-69.138088
20
30.354469
30
0
11
-55.214781
21
31.817867
31
0
0
LINE
5
195
100
AcDbEntity
8
SWITCHES
100
AcDbLine
10
-55.214781
20
31.817867
30
0
11
-56.678180
21
45.741174
31
0
0
LINE
5
196
100
AcDbEntity
8
SWITCHES
100
AcDbLine
10
-56.678180
20
45.741174
30
0
11
-70.601486
21
44.277775
31
0
0
LINE
5
197
100
AcDbEntity
8
SWITCHES
100
AcDbLine
10
-70.601486
20
44.277775
30
0
11
-69.138088
21
30.354469
31
0
0
LINE
5
198
100
AcDbEntity
8
SWITCHES
100
AcDbLine
10
-67.146820
20
11.408826
30
0
11
-53.223514
21
12.872225
31
0
0
LINE
5
199
100
AcDbEntity
8
SWITCHES
100
AcDbLine
10
-53.223514
20
12.872225
30
0
11
-54.686912
21
26.795531
31
0
0
LINE
5
19A
100
AcDbEntity
8
SWITCHES
100
AcDbLine
10
-54.686912
20
26.795531
30
0
11
-68.610219
21
25.332133
31
0
0
LINE
5
19B
100
AcDbEntity
8
SWITCHES
100
AcDbLine
10
-68.610219
20
25.332133
30
0
11
-67.146820
21
11.408826
31
0
0
LINE
5
19C
100
AcDbEntity
8
SWITCHES
100
AcDbLine
10
-65.155553
20
-7.536816
30
0
11
-51.232247
21
-6.073417
31
0
0
LINE
5
19D
100
AcDbEntity
8
SWITCHES
100
AcDbLine
10
-51.232247
20
-6.073417
30
0
11
-52.695645
21
7.849889
31
0
0
LINE
5
19E
100
AcDbEntity
8
SWITCHES
100
AcDbLine
10
-52.695645
20
7.849889
30
0
11
-66.618952
21
6.386491
31
0
0
LINE
5
19F
100
AcDbEntity
8
SWITCHES
100
AcDbLine
10
-66.618952
20
6.386491
30
0
11
-65.155553
21
-7.536816
31
0
0
LINE
5
1A0
100
AcDbEntity
8
SWITCHES
100
AcDbLine
10
-52.079355
20
49.300111
30
0
11
-38.156048
21
50.763509
31
0
0
LINE
5
1A1
100
AcDbEntity
8
SWITCHES
100
AcDbLine
10
-38.156048
20
50.763509
30
0
11
-39.619447
21
64.686816
31
0
0
LINE
5
1A2
100
AcDbEntity
8
SWITCHES
100
AcDbLine
10
-39.619447
20
64.686816
30
0
11
-53.542753
21
63.223417
31
0
0
LINE
5
1A3
100
AcDbEntity
8
SWITCHES
100
AcDbLine
10
-53.542753
20
63.223417
30
0
11
-52.079355
21
49.300111
31
0
0
LINE
5
1A4
100
AcDbEntity
8
SWITCHES
100
AcDbLine
10
-50.088088
20
30.354469
30
0
11
-36.164781
21
31.817867
31
0
0
LINE
5
1A5
100
AcDbEntity
8
SWITCHES
100
AcDbLine
10
-36.164781
20
31.817867
30
0
11
-37.628180
21
45.741174
31
0
0
LINE
5
1A6
100
AcDbEntity
8
SWITCHES
100
AcDbLine
10
-37.628180
20
45.741174
30
0
11
-51.551486
21
44.277775
31
0
0
LINE
5
1A7
100
AcDbEntity
8
SWITCHES
100
AcDbLine
10
-51.551486
20
44.277775
30
0
11
-50.088088
21
30.354469
31
0
0
LINE
5
1A8
100
AcDbEntity
8
SWITCHES
100
AcDbLine
10
-48.096820
20
11.408826
30
0
11
-34.173514
21
12.872225
31
0
0
LINE
5
1A9
100
AcDbEntity
8
SWITCHES
100
AcDbLine
10
-34.173514
20
12.872225
30
0
11
-35.636912
21
26.795531
31
0
0
LINE
5
1AA
100
AcDbEntity
8
SWITCHES
100
AcDbLine
10
-35.636912
20
26.795531
30
0
11
-49.560219
21
25.332133
31
0
0
LINE
5
1AB
100
AcDbEntity
8
SWITCHES
100
AcDbLine
10
-49.560219
20
25.332133
30
0
11
-48.096820
21
11.408826
31
0
0
LINE
5
1AC
100
AcDbEntity
8
SWITCHES
100
AcDbLine
10
-46.105553
20
-7.536816
30
0
11
-32.182247
21
-6.073417
31
0
0
LINE
5
1AD
100
AcDbEntity
8
SWITCHES
100
AcDbLine
10
-32.182247
20
-6.073417
30
0
11
-33.645645
21
7.849889
31
0
0
LINE
5
1AE
100
AcDbEntity
8
SWITCHES
100
AcDbLine
10
-33.645645
20
7.849889
30
0
11
-47.568952
21
6.386491
31
0
0
LINE
5
1AF
100
AcDbEntity
8
SWITCHES
100
AcDbLine
10
-47.568952
20
6.386491
30
0
11
-46.105553
21
-7.536816
31
0
0
LINE
5
1B0
100
AcDbEntity
8
SWITCHES
100
AcDbLine
10
-30.800444
20
49.609149
30
0
11
-16.834548
21
50.585740
31
0
0
LINE
5
1B1
100
AcDbEntity
8
SWITCHES
100
AcDbLine
10
-16.834548
20
50.585740
30
0
11
-17.811138
21
64.551636
31
0
0
LINE
5
1B2
100
AcDbEntity
8
SWITCHES
100
AcDbLine
10
-17.811138
20
64.551636
30
0
11
-31.777035
21
63.575046
31
0
0
LINE
5
1B3
100
AcDbEntity
8
SWITCHES
100
AcDbLine
10
-31.777035
20
63.575046
30
0
11
-30.800444
21
49.609149
31
0
0
LINE
5
1B4
100
AcDbEntity
8
SWITCHES
100
AcDbLine
10
-29.471583
20
30.605554
30
0
11
-15.505687
21
31.582145
31
0
0
LINE
5
1B5
100
AcDbEntity
8
SWITCHES
100
AcDbLine
10
-15.505687
20
31.582145
30
0
11
-16.482277
21
45.548041
31
0
0
LINE
5
1B6
100
AcDbEntity
8
SWITCHES
100
AcDbLine
10
-16.482277
20
45.548041
30
0
11
-30.448174
21
44.571451
31
0
0
LINE
5
1B7
100
AcDbEntity
8
SWITCHES
100
AcDbLine
10
-30.448174
20
44.571451
30
0
11
-29.471583
21
30.605554
31
0
0
LINE
5
1B8
100
AcDbEntity
8
SWITCHES
100
AcDbLine
10
-28.142723
20
11.601959
30
0
11
-14.176826
21
12.578549
31
0
0
LINE
5
1B9
100
AcDbEntity
8
SWITCHES
100
AcDbLine
10
-14.176826
20
12.578549
30
0
11
-15.153417
21
26.544446
31
0
0
LINE
5
1BA
100
AcDbEntity
8
SWITCHES
100
AcDbLine
10
-15.153417
20
26.544446
30
0
11
-29.119313
21
25.567855
31
0
0
LINE
5
1BB
100
AcDbEntity
8
SWITCHES
100
AcDbLine
10
-29.119313
20
25.567855
30
0
11
-28.142723
21
11.601959
31
0
0
LINE
5
1BC
100
AcDbEntity
8
SWITCHES
100
AcDbLine
10
-26.813862
20
-7.401636
30
0
11
-12.847965
21
-6.425046
31
0
0
LINE
5
1BD
100
AcDbEntity
8
SWITCHES
100
AcDbLine
10
-12.847965
20
-6.425046
30
0
11
-13.824556
21
7.540851
31
0
0
LINE
5
1BE
100
AcDbEntity
8
SWITCHES
100
AcDbLine
10
-13.824556
20
7.540851
30
0
11
-27.790452
21
6.564260
31
0
0
LINE
5
1BF
100
AcDbEntity
8
SWITCHES
100
AcDbLine
10
-27.790452
20
6.564260
30
0
11
-26.813862
21
-7.401636
31
0
0
LINE
5
1C0
100
AcDbEntity
8
SWITCHES
100
AcDbLine
10
-9.511192
20
49.892561
30
0
11
4.480279
21
50.381154
31
0
0
LINE
5
1C1
100
AcDbEntity
8
SWITCHES
100
AcDbLine
10
4.480279
20
50.381154
30
0
11
3.991686
21
64.372625
31
0
0
LINE
5
1C2
100
AcDbEntity
8
SWITCHES
100
AcDbLine
10
3.991686
20
64.372625
30
0
11
-9.999785
21
63.884032
31
0
0
LINE
5
1C3
100
AcDbEntity
8
SWITCHES
100
AcDbLine
10
-9.999785
20
63.884032
30
0
11
-9.511192
21
49.892561
31
0
0
LINE
5
1C4
100
AcDbEntity
8
SWITCHES
100
AcDbLine
10
-8.846357
20
30.854165
30
0
11
5.145115
21
31.342758
31
0
0
LINE
5
1C5
100
AcDbEntity
8
SWITCHES
100
AcDbLine
10
5.145115
20
31.342758
30
0
11
4.656522
21
45.334230
31
0
0
LINE
5
1C6
100
AcDbEntity
8
SWITCHES
100
AcDbLine
10
4.656522
20
45.334230
30
0
11
-9.334950
21
44.845637
31
0
0
LINE
5
1C7
100
AcDbEntity
8
SWITCHES
100
AcDbLine
10
-9.334950
20
44.845637
30
0
11
-8.846357
21
30.854165
31
0
0
LINE
5
1C8
100
AcDbEntity
8
SWITCHES
100
AcDbLine
10
-8.181522
20
11.815770
30
0
11
5.809950
21
12.304363
31
0
0
LINE
5
1C9
100
AcDbEntity
8
SWITCHES
100
AcDbLine
10
5.809950
20
12.304363
30
0
11
5.321357
21
26.295835
31
0
0
LINE
5
1CA
100
AcDbEntity
8
SWITCHES
100
AcDbLine
10
5.321357
20
26.295835
30
0
11
-8.670115
21
25.807242
31
0
0
LINE
5
1CB
100
AcDbEntity
8
SWITCHES
100
AcDbLine
10
-8.670115
20
25.807242
30
0
11
-8.181522
21
11.815770
31
0
0
LINE
5
1CC
100
AcDbEntity
8
SWITCHES
100
AcDbLine
10
-7.516686
20
-7.222625
30
0
11
6.474785
21
-6.734032
31
0
0
LINE
5
1CD
100
AcDbEntity
8
SWITCHES
100
AcDbLine
10
6.474785
20
-6.734032
30
0
11
5.986192
21
7.257439
31
0
0
LINE
5
1CE
100
AcDbEntity
8
SWITCHES
100
AcDbLine
10
5.986192
20
7.257439
30
0
11
-8.005279
21
6.768846
31
0
0
LINE
5
1CF
100
AcDbEntity
8
SWITCHES
100
AcDbLine
10
-8.005279
20
6.768846
30
0
11
-7.516686
21
-7.222625
31
0
0
LINE
5
1D0
100
AcDbEntity
8
SWITCHES
100
AcDbLine
10
-109.393750
20
-4.118750
30
0
11
-95.393750
21
-4.118750
31
0
0
LINE
5
1D1
100
AcDbEntity
8
SWITCHES
100
AcDbLine
10
-95.393750
20
-4.118750
30
0
11
-95.393750
21
9.881250
31
0
0
LINE
5
1D2
100
AcDbEntity
8
SWITCHES
100
AcDbLine
10
-95.393750
20
9.881250
30
0
11
-109.393750
21
9.881250
31
0
0
LINE
5
1D3
100
AcDbEntity
8
SWITCHES
100
AcDbLine
10
-109.393750
20
9.881250
30
0
11
-109.393750
21
-4.118750
31
0
0
CIRCLE
5
1D4
100
AcDbEntity
8
MOUNTING
100
AcDbCircle
10
-201.712500
20
47.625000
30
0
40
1.000000
0
CIRCLE
5
1D5
100
AcDbEntity
8
MOUNTING
100
AcDbCircle
10
-203.262500
20
12.875000
30
0
40
1.000000
0
CIRCLE
5
1D6
100
AcDbEntity
8
MOUNTING
100
AcDbCircle
10
-156.362500
20
1.325000
30
0
40
1.000000
0
CIRCLE
5
1D7
100
AcDbEntity
8
MOUNTING
100
AcDbCircle
10
-125.512500
20
47.625000
30
0
40
1.000000
0
CIRCLE
5
1D8
100
AcDbEntity
8
MOUNTING
100
AcDbCircle
10
-95.022500
20
28.525000
30
0
40
1.000000
0
CIRCLE
5
1D9
100
AcDbEntity
8
MOUNTING
100
AcDbCircle
10
-22.472500
20
49.925000
30
0
40
1.000000
0
CIRCLE
5
1DA
100
AcDbEntity
8
MOUNTING
100
AcDbCircle
10
-50.772500
20
1.125000
30
0
40
1.000000
0
ENDSEC
0
SECTION
2
OBJECTS
0
DICTIONARY
5
C
100
AcDbDictionary
0
ENDSEC
0
EOF
