solid csg.js
facet normal 0 0 -1
outer loop
vertex -9.969615506024418 27.39729635533384 0
vertex -9.87938524157181 27.734040286651357 0
vertex -9.732050807568882 28.04999999999999 0
endloop
endfacet
facet normal 0 0 -1
outer loop
vertex -9.969615506024418 27.39729635533384 0
vertex -9.732050807568882 28.04999999999999 0
vertex -9.532088886237943 28.335575219373094 0
endloop
endfacet
facet normal 0 0 -1
outer loop
vertex -9.969615506024418 27.39729635533384 0
vertex -9.532088886237943 28.335575219373094 0
vertex -9.285575219373094 28.582088886237944 0
endloop
endfacet
facet normal 0 0 -1
outer loop
vertex -9.969615506024418 27.39729635533384 0
vertex -9.285575219373094 28.582088886237944 0
vertex -8.999999999999972 28.782050807568893 0
endloop
endfacet
facet normal 0 0 -1
outer loop
vertex -9.969615506024418 27.39729635533384 0
vertex -8.999999999999972 28.782050807568893 0
vertex -8.684040286651346 28.929385241571815 0
endloop
endfacet
facet normal 0 0 -1
outer loop
vertex -9.969615506024418 27.39729635533384 0
vertex -8.684040286651346 28.929385241571815 0
vertex -8.347296355333874 29.01961550602441 0
endloop
endfacet
facet normal 0 0 -1
outer loop
vertex -9.969615506024418 27.39729635533384 0
vertex -8.347296355333874 29.01961550602441 0
vertex -7.999999999999989 29.05 0
endloop
endfacet
facet normal 0 0 -1
outer loop
vertex -9.969615506024418 27.39729635533384 0
vertex -7.999999999999989 29.05 0
vertex 27.04999999999995 29.05 0
endloop
endfacet
facet normal 0 0 -1
outer loop
vertex -9.969615506024418 27.39729635533384 0
vertex 27.04999999999995 29.05 0
vertex 27.397296355333893 29.019615506024408 0
endloop
endfacet
facet normal 0 0 -1
outer loop
vertex -9.969615506024418 27.39729635533384 0
vertex 27.397296355333893 29.019615506024408 0
vertex 27.73404028665132 28.929385241571826 0
endloop
endfacet
facet normal 0 0 -1
outer loop
vertex -9.969615506024418 27.39729635533384 0
vertex 27.73404028665132 28.929385241571826 0
vertex 28.049999999999986 28.782050807568883 0
endloop
endfacet
facet normal 0 0 -1
outer loop
vertex -9.969615506024418 27.39729635533384 0
vertex 28.049999999999986 28.782050807568883 0
vertex 28.335575219373087 28.582088886237948 0
endloop
endfacet
facet normal 0 0 -1
outer loop
vertex -9.969615506024418 27.39729635533384 0
vertex 28.335575219373087 28.582088886237948 0
vertex 28.582088886237955 28.335575219373084 0
endloop
endfacet
facet normal 0 0 -1
outer loop
vertex -9.969615506024418 27.39729635533384 0
vertex 28.582088886237955 28.335575219373084 0
vertex 28.78205080756887 28.05000000000002 0
endloop
endfacet
facet normal 0 0 -1
outer loop
vertex -9.969615506024418 27.39729635533384 0
vertex 28.78205080756887 28.05000000000002 0
vertex 28.929385241571836 27.734040286651293 0
endloop
endfacet
facet normal 0 0 -1
outer loop
vertex -9.969615506024418 27.39729635533384 0
vertex 28.929385241571836 27.734040286651293 0
vertex 29.019615506024415 27.397296355333886 0
endloop
endfacet
facet normal 0 0 -1
outer loop
vertex -9.969615506024418 27.39729635533384 0
vertex 29.019615506024415 27.397296355333886 0
vertex 29.05 27.050000000000015 0
endloop
endfacet
facet normal 0 0 -1
outer loop
vertex -9.969615506024418 27.39729635533384 0
vertex 29.05 27.050000000000015 0
vertex 29.05 -8.00000000000001 0
endloop
endfacet
facet normal 0 0 -1
outer loop
vertex -9.969615506024418 27.39729635533384 0
vertex 29.05 -8.00000000000001 0
vertex 29.019615506024415 -8.34729635533387 0
endloop
endfacet
facet normal 0 0 -1
outer loop
vertex -9.969615506024418 27.39729635533384 0
vertex 29.019615506024415 -8.34729635533387 0
vertex 28.929385241571822 -8.684040286651335 0
endloop
endfacet
facet normal 0 0 -1
outer loop
vertex -9.969615506024418 27.39729635533384 0
vertex 28.929385241571822 -8.684040286651335 0
vertex 28.782050807568893 -8.999999999999975 0
endloop
endfacet
facet normal 0 0 -1
outer loop
vertex -9.969615506024418 27.39729635533384 0
vertex 28.782050807568893 -8.999999999999975 0
vertex 28.582088886237948 -9.28557521937309 0
endloop
endfacet
facet normal 0 0 -1
outer loop
vertex -9.969615506024418 27.39729635533384 0
vertex 28.582088886237948 -9.28557521937309 0
vertex 28.335575219373105 -9.532088886237933 0
endloop
endfacet
facet normal 0 0 -1
outer loop
vertex -9.969615506024418 27.39729635533384 0
vertex 28.335575219373105 -9.532088886237933 0
vertex 28.049999999999972 -9.732050807568893 0
endloop
endfacet
facet normal 0 0 -1
outer loop
vertex -9.969615506024418 27.39729635533384 0
vertex 28.049999999999972 -9.732050807568893 0
vertex 27.734040286651357 -9.87938524157181 0
endloop
endfacet
facet normal 0 0 -1
outer loop
vertex -9.969615506024418 27.39729635533384 0
vertex 27.734040286651357 -9.87938524157181 0
vertex 27.397296355333857 -9.969615506024414 0
endloop
endfacet
facet normal 0 0 -1
outer loop
vertex -9.969615506024418 27.39729635533384 0
vertex 27.397296355333857 -9.969615506024414 0
vertex 27.049999999999997 -10 0
endloop
endfacet
facet normal 0 0 -1
outer loop
vertex -9.969615506024418 27.39729635533384 0
vertex 27.049999999999997 -10 0
vertex -8.000000000000028 -10 0
endloop
endfacet
facet normal 0 0 -1
outer loop
vertex -9.969615506024418 27.39729635533384 0
vertex -8.000000000000028 -10 0
vertex -8.347296355333832 -9.969615506024422 0
endloop
endfacet
facet normal 0 0 -1
outer loop
vertex -9.969615506024418 27.39729635533384 0
vertex -8.347296355333832 -9.969615506024422 0
vertex -8.684040286651353 -9.87938524157181 0
endloop
endfacet
facet normal 0 0 -1
outer loop
vertex -9.969615506024418 27.39729635533384 0
vertex -8.684040286651353 -9.87938524157181 0
vertex -8.999999999999993 -9.732050807568882 0
endloop
endfacet
facet normal 0 0 -1
outer loop
vertex -9.969615506024418 27.39729635533384 0
vertex -8.999999999999993 -9.732050807568882 0
vertex -9.28557521937308 -9.532088886237954 0
endloop
endfacet
facet normal 0 0 -1
outer loop
vertex -9.969615506024418 27.39729635533384 0
vertex -9.28557521937308 -9.532088886237954 0
vertex -9.532088886237943 -9.28557521937309 0
endloop
endfacet
facet normal 0 0 -1
outer loop
vertex -9.969615506024418 27.39729635533384 0
vertex -9.532088886237943 -9.28557521937309 0
vertex -9.732050807568882 -8.99999999999999 0
endloop
endfacet
facet normal 0 0 -1
outer loop
vertex -9.969615506024418 27.39729635533384 0
vertex -9.732050807568882 -8.99999999999999 0
vertex -9.879385241571818 -8.684040286651342 0
endloop
endfacet
facet normal 0 0 -1
outer loop
vertex -9.969615506024418 27.39729635533384 0
vertex -9.879385241571818 -8.684040286651342 0
vertex -9.969615506024418 -8.34729635533386 0
endloop
endfacet
facet normal 0 0 -1
outer loop
vertex -9.969615506024418 27.39729635533384 0
vertex -9.969615506024418 -8.34729635533386 0
vertex -10 -8.000000000000004 0
endloop
endfacet
facet normal 0 0 -1
outer loop
vertex -9.969615506024418 27.39729635533384 0
vertex -10 -8.000000000000004 0
vertex -9.999999999999996 27.050000000000068 0
endloop
endfacet
facet normal 0 0 1
outer loop
vertex -7.99999999999995 29.050000000000004 1
vertex -8.347296355333874 29.01961550602441 1
vertex -8.684040286651332 28.92938524157182 1
endloop
endfacet
facet normal 0 0 1
outer loop
vertex -7.99999999999995 29.050000000000004 1
vertex -8.684040286651332 28.92938524157182 1
vertex -9 28.78205080756888 1
endloop
endfacet
facet normal 0 0 1
outer loop
vertex -7.99999999999995 29.050000000000004 1
vertex -9 28.78205080756888 1
vertex -9.285575219373097 28.582088886237944 1
endloop
endfacet
facet normal 0 0 1
outer loop
vertex -7.99999999999995 29.050000000000004 1
vertex -9.285575219373097 28.582088886237944 1
vertex -9.53208888623794 28.335575219373098 1
endloop
endfacet
facet normal 0 0 1
outer loop
vertex -7.99999999999995 29.050000000000004 1
vertex -9.53208888623794 28.335575219373098 1
vertex -9.732050807568886 28.049999999999983 1
endloop
endfacet
facet normal 0 0 1
outer loop
vertex -7.99999999999995 29.050000000000004 1
vertex -9.732050807568886 28.049999999999983 1
vertex -9.87938524157181 27.734040286651346 1
endloop
endfacet
facet normal 0 0 1
outer loop
vertex -7.99999999999995 29.050000000000004 1
vertex -9.87938524157181 27.734040286651346 1
vertex -9.969615506024418 27.397296355333836 1
endloop
endfacet
facet normal 0 0 1
outer loop
vertex -7.99999999999995 29.050000000000004 1
vertex -9.969615506024418 27.397296355333836 1
vertex -10 27.05000000000002 1
endloop
endfacet
facet normal 0 0 1
outer loop
vertex -7.99999999999995 29.050000000000004 1
vertex -10 27.05000000000002 1
vertex -9.999999999999996 -8.00000000000005 1
endloop
endfacet
facet normal 0 0 1
outer loop
vertex -7.99999999999995 29.050000000000004 1
vertex -9.999999999999996 -8.00000000000005 1
vertex -9.969615506024418 -8.34729635533385 1
endloop
endfacet
facet normal 0 0 1
outer loop
vertex -7.99999999999995 29.050000000000004 1
vertex -9.969615506024418 -8.34729635533385 1
vertex -9.879385241571814 -8.68404028665135 1
endloop
endfacet
facet normal 0 0 1
outer loop
vertex -7.99999999999995 29.050000000000004 1
vertex -9.879385241571814 -8.68404028665135 1
vertex -9.73205080756889 -8.999999999999982 1
endloop
endfacet
facet normal 0 0 1
outer loop
vertex -7.99999999999995 29.050000000000004 1
vertex -9.73205080756889 -8.999999999999982 1
vertex -9.532088886237958 -9.28557521937308 1
endloop
endfacet
facet normal 0 0 1
outer loop
vertex -7.99999999999995 29.050000000000004 1
vertex -9.532088886237958 -9.28557521937308 1
vertex -9.28557521937308 -9.532088886237954 1
endloop
endfacet
facet normal 0 0 1
outer loop
vertex -7.99999999999995 29.050000000000004 1
vertex -9.28557521937308 -9.532088886237954 1
vertex -8.999999999999996 -9.732050807568879 1
endloop
endfacet
facet normal 0 0 1
outer loop
vertex -7.99999999999995 29.050000000000004 1
vertex -8.999999999999996 -9.732050807568879 1
vertex -8.684040286651346 -9.879385241571814 1
endloop
endfacet
facet normal 0 0 1
outer loop
vertex -7.99999999999995 29.050000000000004 1
vertex -8.684040286651346 -9.879385241571814 1
vertex -8.347296355333842 -9.969615506024422 1
endloop
endfacet
facet normal 0 0 1
outer loop
vertex -7.99999999999995 29.050000000000004 1
vertex -8.347296355333842 -9.969615506024422 1
vertex -8.000000000000021 -10 1
endloop
endfacet
facet normal 0 0 1
outer loop
vertex -7.99999999999995 29.050000000000004 1
vertex -8.000000000000021 -10 1
vertex 27.05000000000005 -9.999999999999996 1
endloop
endfacet
facet normal 0 0 1
outer loop
vertex -7.99999999999995 29.050000000000004 1
vertex 27.05000000000005 -9.999999999999996 1
vertex 27.397296355333875 -9.969615506024414 1
endloop
endfacet
facet normal 0 0 1
outer loop
vertex -7.99999999999995 29.050000000000004 1
vertex 27.397296355333875 -9.969615506024414 1
vertex 27.734040286651336 -9.879385241571821 1
endloop
endfacet
facet normal 0 0 1
outer loop
vertex -7.99999999999995 29.050000000000004 1
vertex 27.734040286651336 -9.879385241571821 1
vertex 28.049999999999983 -9.73205080756889 1
endloop
endfacet
facet normal 0 0 1
outer loop
vertex -7.99999999999995 29.050000000000004 1
vertex 28.049999999999983 -9.73205080756889 1
vertex 28.33557521937309 -9.53208888623795 1
endloop
endfacet
facet normal 0 0 1
outer loop
vertex -7.99999999999995 29.050000000000004 1
vertex 28.33557521937309 -9.53208888623795 1
vertex 28.582088886237937 -9.285575219373104 1
endloop
endfacet
facet normal 0 0 1
outer loop
vertex -7.99999999999995 29.050000000000004 1
vertex 28.582088886237937 -9.285575219373104 1
vertex 28.782050807568886 -8.999999999999982 1
endloop
endfacet
facet normal 0 0 1
outer loop
vertex -7.99999999999995 29.050000000000004 1
vertex 28.782050807568886 -8.999999999999982 1
vertex 28.929385241571822 -8.684040286651335 1
endloop
endfacet
facet normal 0 0 1
outer loop
vertex -7.99999999999995 29.050000000000004 1
vertex 28.929385241571822 -8.684040286651335 1
vertex 29.01961550602442 -8.347296355333864 1
endloop
endfacet
facet normal 0 0 1
outer loop
vertex -7.99999999999995 29.050000000000004 1
vertex 29.01961550602442 -8.347296355333864 1
vertex 29.05 -8.000000000000043 1
endloop
endfacet
facet normal 0 0 1
outer loop
vertex -7.99999999999995 29.050000000000004 1
vertex 29.05 -8.000000000000043 1
vertex 29.049999999999997 27.05000000000004 1
endloop
endfacet
facet normal 0 0 1
outer loop
vertex -7.99999999999995 29.050000000000004 1
vertex 29.049999999999997 27.05000000000004 1
vertex 29.019615506024415 27.397296355333864 1
endloop
endfacet
facet normal 0 0 1
outer loop
vertex -7.99999999999995 29.050000000000004 1
vertex 29.019615506024415 27.397296355333864 1
vertex 28.929385241571826 27.73404028665132 1
endloop
endfacet
facet normal 0 0 1
outer loop
vertex -7.99999999999995 29.050000000000004 1
vertex 28.929385241571826 27.73404028665132 1
vertex 28.78205080756888 28.049999999999994 1
endloop
endfacet
facet normal 0 0 1
outer loop
vertex -7.99999999999995 29.050000000000004 1
vertex 28.78205080756888 28.049999999999994 1
vertex 28.582088886237955 28.33557521937308 1
endloop
endfacet
facet normal 0 0 1
outer loop
vertex -7.99999999999995 29.050000000000004 1
vertex 28.582088886237955 28.33557521937308 1
vertex 28.335575219373066 28.58208888623797 1
endloop
endfacet
facet normal 0 0 1
outer loop
vertex -7.99999999999995 29.050000000000004 1
vertex 28.335575219373066 28.58208888623797 1
vertex 28.04999999999999 28.782050807568886 1
endloop
endfacet
facet normal 0 0 1
outer loop
vertex -7.99999999999995 29.050000000000004 1
vertex 28.04999999999999 28.782050807568886 1
vertex 27.73404028665133 28.929385241571826 1
endloop
endfacet
facet normal 0 0 1
outer loop
vertex -7.99999999999995 29.050000000000004 1
vertex 27.73404028665133 28.929385241571826 1
vertex 27.397296355333904 29.019615506024408 1
endloop
endfacet
facet normal 0 0 1
outer loop
vertex -7.99999999999995 29.050000000000004 1
vertex 27.397296355333904 29.019615506024408 1
vertex 27.04999999999996 29.05 1
endloop
endfacet
facet normal -1 0 0
outer loop
vertex -10 27.05000000000002 1
vertex -9.999999999999996 27.050000000000068 0
vertex -10 -8.000000000000004 0
endloop
endfacet
facet normal -1 0 0
outer loop
vertex -10 27.05000000000002 1
vertex -10 -8.000000000000004 0
vertex -9.999999999999996 -8.00000000000005 1
endloop
endfacet
facet normal -0.9961946980917455 -0.08715574274765814 0
outer loop
vertex -9.969615506024418 -8.34729635533385 1
vertex -9.999999999999996 -8.00000000000005 1
vertex -10 -8.000000000000004 0
endloop
endfacet
facet normal -0.9961946980917455 -0.08715574274765814 0
outer loop
vertex -9.969615506024418 -8.34729635533385 1
vertex -10 -8.000000000000004 0
vertex -9.969615506024418 -8.34729635533386 0
endloop
endfacet
facet normal -0.9659258262890686 -0.25881904510251985 0
outer loop
vertex -9.879385241571814 -8.68404028665135 1
vertex -9.969615506024418 -8.34729635533385 1
vertex -9.969615506024418 -8.34729635533386 0
endloop
endfacet
facet normal -0.9659258262890686 -0.25881904510251985 0
outer loop
vertex -9.879385241571814 -8.68404028665135 1
vertex -9.969615506024418 -8.34729635533386 0
vertex -9.879385241571818 -8.684040286651342 0
endloop
endfacet
facet normal -0.9063077870366506 -0.4226182617406982 0
outer loop
vertex -9.73205080756889 -8.999999999999982 1
vertex -9.879385241571814 -8.68404028665135 1
vertex -9.879385241571818 -8.684040286651342 0
endloop
endfacet
facet normal -0.9063077870366506 -0.4226182617406982 0
outer loop
vertex -9.73205080756889 -8.999999999999982 1
vertex -9.879385241571818 -8.684040286651342 0
vertex -9.732050807568882 -8.99999999999999 0
endloop
endfacet
facet normal -0.8191520442889911 -0.573576436351047 0
outer loop
vertex -9.532088886237958 -9.28557521937308 1
vertex -9.73205080756889 -8.999999999999982 1
vertex -9.732050807568882 -8.99999999999999 0
endloop
endfacet
facet normal -0.8191520442889911 -0.573576436351047 0
outer loop
vertex -9.532088886237958 -9.28557521937308 1
vertex -9.732050807568882 -8.99999999999999 0
vertex -9.532088886237943 -9.28557521937309 0
endloop
endfacet
facet normal -0.7071067811865476 -0.7071067811865476 0
outer loop
vertex -9.28557521937308 -9.532088886237954 1
vertex -9.532088886237958 -9.28557521937308 1
vertex -9.532088886237943 -9.28557521937309 0
endloop
endfacet
facet normal -0.7071067811865476 -0.7071067811865476 0
outer loop
vertex -9.28557521937308 -9.532088886237954 1
vertex -9.532088886237943 -9.28557521937309 0
vertex -9.28557521937308 -9.532088886237954 0
endloop
endfacet
facet normal -0.573576436351047 -0.8191520442889911 0
outer loop
vertex -8.999999999999996 -9.732050807568879 1
vertex -9.28557521937308 -9.532088886237954 1
vertex -9.28557521937308 -9.532088886237954 0
endloop
endfacet
facet normal -0.573576436351047 -0.8191520442889911 0
outer loop
vertex -8.999999999999996 -9.732050807568879 1
vertex -9.28557521937308 -9.532088886237954 0
vertex -8.999999999999993 -9.732050807568882 0
endloop
endfacet
facet normal -0.4226182617407019 -0.9063077870366489 0
outer loop
vertex -8.684040286651346 -9.879385241571814 1
vertex -8.999999999999996 -9.732050807568879 1
vertex -8.999999999999993 -9.732050807568882 0
endloop
endfacet
facet normal -0.4226182617407019 -0.9063077870366489 0
outer loop
vertex -8.684040286651346 -9.879385241571814 1
vertex -8.999999999999993 -9.732050807568882 0
vertex -8.684040286651353 -9.87938524157181 0
endloop
endfacet
facet normal -0.25881904510251996 -0.9659258262890685 0
outer loop
vertex -8.347296355333842 -9.969615506024422 1
vertex -8.684040286651346 -9.879385241571814 1
vertex -8.684040286651353 -9.87938524157181 0
endloop
endfacet
facet normal -0.25881904510251996 -0.9659258262890685 0
outer loop
vertex -8.347296355333842 -9.969615506024422 1
vertex -8.684040286651353 -9.87938524157181 0
vertex -8.347296355333832 -9.969615506024422 0
endloop
endfacet
facet normal -0.08715574274765459 -0.9961946980917459 0
outer loop
vertex -8.000000000000021 -10 1
vertex -8.347296355333842 -9.969615506024422 1
vertex -8.347296355333832 -9.969615506024422 0
endloop
endfacet
facet normal -0.08715574274765459 -0.9961946980917459 0
outer loop
vertex -8.000000000000021 -10 1
vertex -8.347296355333832 -9.969615506024422 0
vertex -8.000000000000028 -10 0
endloop
endfacet
facet normal 0 -1 0
outer loop
vertex 27.049999999999997 -10 0
vertex 27.05000000000005 -9.999999999999996 1
vertex -8.000000000000021 -10 1
endloop
endfacet
facet normal 0 -1 0
outer loop
vertex 27.049999999999997 -10 0
vertex -8.000000000000021 -10 1
vertex -8.000000000000028 -10 0
endloop
endfacet
facet normal 0.08715574274766169 -0.9961946980917453 0
outer loop
vertex 27.397296355333875 -9.969615506024414 1
vertex 27.05000000000005 -9.999999999999996 1
vertex 27.049999999999997 -10 0
endloop
endfacet
facet normal 0.08715574274766169 -0.9961946980917453 0
outer loop
vertex 27.397296355333875 -9.969615506024414 1
vertex 27.049999999999997 -10 0
vertex 27.397296355333857 -9.969615506024414 0
endloop
endfacet
facet normal 0.25881904510252335 -0.9659258262890675 0
outer loop
vertex 27.734040286651336 -9.879385241571821 1
vertex 27.397296355333875 -9.969615506024414 1
vertex 27.397296355333857 -9.969615506024414 0
endloop
endfacet
facet normal 0.25881904510252335 -0.9659258262890675 0
outer loop
vertex 27.734040286651336 -9.879385241571821 1
vertex 27.397296355333857 -9.969615506024414 0
vertex 27.734040286651357 -9.87938524157181 0
endloop
endfacet
facet normal 0.4226182617406982 -0.9063077870366506 0
outer loop
vertex 28.049999999999983 -9.73205080756889 1
vertex 27.734040286651336 -9.879385241571821 1
vertex 27.734040286651357 -9.87938524157181 0
endloop
endfacet
facet normal 0.4226182617406982 -0.9063077870366506 0
outer loop
vertex 28.049999999999983 -9.73205080756889 1
vertex 27.734040286651357 -9.87938524157181 0
vertex 28.049999999999972 -9.732050807568893 0
endloop
endfacet
facet normal 0.573576436351043 -0.819152044288994 0
outer loop
vertex 28.33557521937309 -9.53208888623795 1
vertex 28.049999999999983 -9.73205080756889 1
vertex 28.049999999999972 -9.732050807568893 0
endloop
endfacet
facet normal 0.573576436351043 -0.819152044288994 0
outer loop
vertex 28.33557521937309 -9.53208888623795 1
vertex 28.049999999999972 -9.732050807568893 0
vertex 28.335575219373105 -9.532088886237933 0
endloop
endfacet
facet normal 0.7071067811865457 -0.7071067811865492 0
outer loop
vertex 28.582088886237937 -9.285575219373104 1
vertex 28.33557521937309 -9.53208888623795 1
vertex 28.335575219373105 -9.532088886237933 0
endloop
endfacet
facet normal 0.7071067811865457 -0.7071067811865492 0
outer loop
vertex 28.582088886237937 -9.285575219373104 1
vertex 28.335575219373105 -9.532088886237933 0
vertex 28.582088886237948 -9.28557521937309 0
endloop
endfacet
facet normal 0.819152044288994 -0.573576436351043 0
outer loop
vertex 28.782050807568886 -8.999999999999982 1
vertex 28.582088886237937 -9.285575219373104 1
vertex 28.582088886237948 -9.28557521937309 0
endloop
endfacet
facet normal 0.819152044288994 -0.573576436351043 0
outer loop
vertex 28.782050807568886 -8.999999999999982 1
vertex 28.582088886237948 -9.28557521937309 0
vertex 28.782050807568893 -8.999999999999975 0
endloop
endfacet
facet normal 0.9063077870366489 -0.42261826174070183 0
outer loop
vertex 28.929385241571822 -8.684040286651335 1
vertex 28.782050807568886 -8.999999999999982 1
vertex 28.782050807568893 -8.999999999999975 0
endloop
endfacet
facet normal 0.9063077870366489 -0.42261826174070183 0
outer loop
vertex 28.929385241571822 -8.684040286651335 1
vertex 28.782050807568893 -8.999999999999975 0
vertex 28.929385241571822 -8.684040286651335 0
endloop
endfacet
facet normal 0.9659258262890705 -0.2588190451025125 0
outer loop
vertex 29.01961550602442 -8.347296355333864 1
vertex 28.929385241571822 -8.684040286651335 1
vertex 28.929385241571822 -8.684040286651335 0
endloop
endfacet
facet normal 0.9659258262890705 -0.2588190451025125 0
outer loop
vertex 29.01961550602442 -8.347296355333864 1
vertex 28.929385241571822 -8.684040286651335 0
vertex 29.019615506024415 -8.34729635533387 0
endloop
endfacet
facet normal 0.9961946980917453 -0.08715574274766169 0
outer loop
vertex 29.05 -8.000000000000043 1
vertex 29.01961550602442 -8.347296355333864 1
vertex 29.019615506024415 -8.34729635533387 0
endloop
endfacet
facet normal 0.9961946980917453 -0.08715574274766169 0
outer loop
vertex 29.05 -8.000000000000043 1
vertex 29.019615506024415 -8.34729635533387 0
vertex 29.05 -8.00000000000001 0
endloop
endfacet
facet normal 1 0 0
outer loop
vertex 29.05 27.050000000000015 0
vertex 29.049999999999997 27.05000000000004 1
vertex 29.05 -8.000000000000043 1
endloop
endfacet
facet normal 1 0 0
outer loop
vertex 29.05 27.050000000000015 0
vertex 29.05 -8.000000000000043 1
vertex 29.05 -8.00000000000001 0
endloop
endfacet
facet normal 0.9961946980917453 0.08715574274766169 0
outer loop
vertex 29.019615506024415 27.397296355333864 1
vertex 29.049999999999997 27.05000000000004 1
vertex 29.05 27.050000000000015 0
endloop
endfacet
facet normal 0.9961946980917453 0.08715574274766169 0
outer loop
vertex 29.019615506024415 27.397296355333864 1
vertex 29.05 27.050000000000015 0
vertex 29.019615506024415 27.397296355333886 0
endloop
endfacet
facet normal 0.9659258262890704 0.2588190451025125 0
outer loop
vertex 28.929385241571826 27.73404028665132 1
vertex 29.019615506024415 27.397296355333864 1
vertex 29.019615506024415 27.397296355333886 0
endloop
endfacet
facet normal 0.9659258262890704 0.2588190451025125 0
outer loop
vertex 28.929385241571826 27.73404028665132 1
vertex 29.019615506024415 27.397296355333886 0
vertex 28.929385241571836 27.734040286651293 0
endloop
endfacet
facet normal 0.9063077870366489 0.4226182617407019 0
outer loop
vertex 28.78205080756888 28.049999999999994 1
vertex 28.929385241571826 27.73404028665132 1
vertex 28.929385241571836 27.734040286651293 0
endloop
endfacet
facet normal 0.9063077870366489 0.4226182617407019 0
outer loop
vertex 28.78205080756888 28.049999999999994 1
vertex 28.929385241571836 27.734040286651293 0
vertex 28.78205080756887 28.05000000000002 0
endloop
endfacet
facet normal 0.8191520442889911 0.573576436351047 0
outer loop
vertex 28.582088886237955 28.33557521937308 1
vertex 28.78205080756888 28.049999999999994 1
vertex 28.78205080756887 28.05000000000002 0
endloop
endfacet
facet normal 0.8191520442889911 0.573576436351047 0
outer loop
vertex 28.582088886237955 28.33557521937308 1
vertex 28.78205080756887 28.05000000000002 0
vertex 28.582088886237955 28.335575219373084 0
endloop
endfacet
facet normal 0.7071067811865476 0.7071067811865476 0
outer loop
vertex 28.335575219373066 28.58208888623797 1
vertex 28.582088886237955 28.33557521937308 1
vertex 28.582088886237955 28.335575219373084 0
endloop
endfacet
facet normal 0.7071067811865476 0.7071067811865476 0
outer loop
vertex 28.335575219373066 28.58208888623797 1
vertex 28.582088886237955 28.335575219373084 0
vertex 28.335575219373087 28.582088886237948 0
endloop
endfacet
facet normal 0.573576436351043 0.819152044288994 0
outer loop
vertex 28.04999999999999 28.782050807568886 1
vertex 28.335575219373066 28.58208888623797 1
vertex 28.335575219373087 28.582088886237948 0
endloop
endfacet
facet normal 0.573576436351043 0.819152044288994 0
outer loop
vertex 28.04999999999999 28.782050807568886 1
vertex 28.335575219373087 28.582088886237948 0
vertex 28.049999999999986 28.782050807568883 0
endloop
endfacet
facet normal 0.42261826174069467 0.9063077870366523 0
outer loop
vertex 27.73404028665133 28.929385241571826 1
vertex 28.04999999999999 28.782050807568886 1
vertex 28.049999999999986 28.782050807568883 0
endloop
endfacet
facet normal 0.42261826174069467 0.9063077870366523 0
outer loop
vertex 27.73404028665133 28.929385241571826 1
vertex 28.049999999999986 28.782050807568883 0
vertex 27.73404028665132 28.929385241571826 0
endloop
endfacet
facet normal 0.25881904510251297 0.9659258262890704 0
outer loop
vertex 27.397296355333904 29.019615506024408 1
vertex 27.73404028665133 28.929385241571826 1
vertex 27.73404028665132 28.929385241571826 0
endloop
endfacet
facet normal 0.25881904510251297 0.9659258262890704 0
outer loop
vertex 27.397296355333904 29.019615506024408 1
vertex 27.73404028665132 28.929385241571826 0
vertex 27.397296355333893 29.019615506024408 0
endloop
endfacet
facet normal 0.08715574274766169 0.9961946980917453 0
outer loop
vertex 27.04999999999996 29.05 1
vertex 27.397296355333904 29.019615506024408 1
vertex 27.397296355333893 29.019615506024408 0
endloop
endfacet
facet normal 0.08715574274766169 0.9961946980917453 0
outer loop
vertex 27.04999999999996 29.05 1
vertex 27.397296355333893 29.019615506024408 0
vertex 27.04999999999995 29.05 0
endloop
endfacet
facet normal 0 1 0
outer loop
vertex 27.04999999999996 29.05 1
vertex 27.04999999999995 29.05 0
vertex -7.999999999999989 29.05 0
endloop
endfacet
facet normal 0 1 0
outer loop
vertex 27.04999999999996 29.05 1
vertex -7.999999999999989 29.05 0
vertex -7.99999999999995 29.050000000000004 1
endloop
endfacet
facet normal -0.08715574274766169 0.9961946980917453 0
outer loop
vertex -8.347296355333874 29.01961550602441 1
vertex -7.99999999999995 29.050000000000004 1
vertex -7.999999999999989 29.05 0
endloop
endfacet
facet normal -0.08715574274766169 0.9961946980917453 0
outer loop
vertex -8.347296355333874 29.01961550602441 1
vertex -7.999999999999989 29.05 0
vertex -8.347296355333874 29.01961550602441 0
endloop
endfacet
facet normal -0.25881904510251275 0.9659258262890705 0
outer loop
vertex -8.684040286651332 28.92938524157182 1
vertex -8.347296355333874 29.01961550602441 1
vertex -8.347296355333874 29.01961550602441 0
endloop
endfacet
facet normal -0.25881904510251275 0.9659258262890705 0
outer loop
vertex -8.684040286651332 28.92938524157182 1
vertex -8.347296355333874 29.01961550602441 0
vertex -8.684040286651346 28.929385241571815 0
endloop
endfacet
facet normal -0.42261826174070183 0.9063077870366489 0
outer loop
vertex -9 28.78205080756888 1
vertex -8.684040286651332 28.92938524157182 1
vertex -8.684040286651346 28.929385241571815 0
endloop
endfacet
facet normal -0.42261826174070183 0.9063077870366489 0
outer loop
vertex -9 28.78205080756888 1
vertex -8.684040286651346 28.929385241571815 0
vertex -8.999999999999972 28.782050807568893 0
endloop
endfacet
facet normal -0.573576436351043 0.819152044288994 0
outer loop
vertex -9.285575219373097 28.582088886237944 1
vertex -9 28.78205080756888 1
vertex -8.999999999999972 28.782050807568893 0
endloop
endfacet
facet normal -0.573576436351043 0.819152044288994 0
outer loop
vertex -9.285575219373097 28.582088886237944 1
vertex -8.999999999999972 28.782050807568893 0
vertex -9.285575219373094 28.582088886237944 0
endloop
endfacet
facet normal -0.7071067811865492 0.7071067811865457 0
outer loop
vertex -9.53208888623794 28.335575219373098 1
vertex -9.285575219373097 28.582088886237944 1
vertex -9.285575219373094 28.582088886237944 0
endloop
endfacet
facet normal -0.7071067811865492 0.7071067811865457 0
outer loop
vertex -9.53208888623794 28.335575219373098 1
vertex -9.285575219373094 28.582088886237944 0
vertex -9.532088886237943 28.335575219373094 0
endloop
endfacet
facet normal -0.8191520442889935 0.5735764363510438 0
outer loop
vertex -9.732050807568886 28.049999999999983 1
vertex -9.53208888623794 28.335575219373098 1
vertex -9.532088886237943 28.335575219373094 0
endloop
endfacet
facet normal -0.8191520442889935 0.5735764363510438 0
outer loop
vertex -9.732050807568886 28.049999999999983 1
vertex -9.532088886237943 28.335575219373094 0
vertex -9.732050807568882 28.04999999999999 0
endloop
endfacet
facet normal -0.9063077870366506 0.4226182617406982 0
outer loop
vertex -9.87938524157181 27.734040286651346 1
vertex -9.732050807568886 28.049999999999983 1
vertex -9.732050807568882 28.04999999999999 0
endloop
endfacet
facet normal -0.9063077870366506 0.4226182617406982 0
outer loop
vertex -9.87938524157181 27.734040286651346 1
vertex -9.732050807568882 28.04999999999999 0
vertex -9.87938524157181 27.734040286651357 0
endloop
endfacet
facet normal -0.9659258262890676 0.25881904510252335 0
outer loop
vertex -9.969615506024418 27.397296355333836 1
vertex -9.87938524157181 27.734040286651346 1
vertex -9.87938524157181 27.734040286651357 0
endloop
endfacet
facet normal -0.9659258262890676 0.25881904510252335 0
outer loop
vertex -9.969615506024418 27.397296355333836 1
vertex -9.87938524157181 27.734040286651357 0
vertex -9.969615506024418 27.39729635533384 0
endloop
endfacet
facet normal -0.9961946980917455 0.08715574274765815 0
outer loop
vertex -10 27.05000000000002 1
vertex -9.969615506024418 27.397296355333836 1
vertex -9.969615506024418 27.39729635533384 0
endloop
endfacet
facet normal -0.9961946980917455 0.08715574274765815 0
outer loop
vertex -10 27.05000000000002 1
vertex -9.969615506024418 27.39729635533384 0
vertex -9.999999999999996 27.050000000000068 0
endloop
endfacet
endsolid csg.js
