solid csg.js
facet normal -1 0 0
outer loop
vertex -15 -10 5.6
vertex -15 -9.969615506024454 5.6
vertex -15 -9.87938524157189 5.6
endloop
endfacet
facet normal -1 0 0
outer loop
vertex -15 -10 5.6
vertex -15 -9.87938524157189 5.6
vertex -15 -9.732050807569003 5.6
endloop
endfacet
facet normal -1 0 0
outer loop
vertex -15 -10 5.6
vertex -15 -9.732050807569003 5.6
vertex -15 -9.532088886237851 5.6
endloop
endfacet
facet normal -1 0 0
outer loop
vertex -15 -10 5.6
vertex -15 -9.532088886237851 5.6
vertex -15 -9.285575219373289 5.6
endloop
endfacet
facet normal -1 0 0
outer loop
vertex -15 -10 5.6
vertex -15 -9.285575219373289 5.6
vertex -15 -8.999999999999869 5.6
endloop
endfacet
facet normal -1 0 0
outer loop
vertex -15 -10 5.6
vertex -15 -8.999999999999869 5.6
vertex -15 -8.68404028665138 5.6
endloop
endfacet
facet normal -1 0 0
outer loop
vertex -15 -10 5.6
vertex -15 -8.68404028665138 5.6
vertex -15 -8.34729635533369 5.6
endloop
endfacet
facet normal -1 0 0
outer loop
vertex -15 -10 5.6
vertex -15 -8.34729635533369 5.6
vertex -15 -8.000000000000576 5.6
endloop
endfacet
facet normal -1 0 0
outer loop
vertex -15 -10 5.6
vertex -15 -8.000000000000576 5.6
vertex -15 27.050000000000807 5.6
endloop
endfacet
facet normal -1 0 0
outer loop
vertex -15 -10 5.6
vertex -15 27.050000000000807 5.6
vertex -15 27.397296355333452 5.6
endloop
endfacet
facet normal -1 0 0
outer loop
vertex -15 -10 5.6
vertex -15 27.397296355333452 5.6
vertex -15 27.734040286651883 5.6
endloop
endfacet
facet normal -1 0 0
outer loop
vertex -15 -10 5.6
vertex -15 27.734040286651883 5.6
vertex -15 28.049999999999528 5.6
endloop
endfacet
facet normal -1 0 0
outer loop
vertex -15 -10 5.6
vertex -15 28.049999999999528 5.6
vertex -15 28.335575219372817 5.6
endloop
endfacet
facet normal -1 0 0
outer loop
vertex -15 -10 5.6
vertex -15 28.335575219372817 5.6
vertex -15 28.582088886238388 5.6
endloop
endfacet
facet normal -1 0 0
outer loop
vertex -15 -10 5.6
vertex -15 28.582088886238388 5.6
vertex -15 28.78205080756914 5.6
endloop
endfacet
facet normal -1 0 0
outer loop
vertex -15 -10 5.6
vertex -15 28.78205080756914 5.6
vertex -15 28.92938524157179 5.6
endloop
endfacet
facet normal -1 0 0
outer loop
vertex -15 -10 5.6
vertex -15 28.92938524157179 5.6
vertex -15 29.019615506024515 5.6
endloop
endfacet
facet normal -1 0 0
outer loop
vertex -15 -10 5.6
vertex -15 29.019615506024515 5.6
vertex -15 29.05 5.6
endloop
endfacet
facet normal -1 0 0
outer loop
vertex -15 -10 5.6
vertex -15 29.05 5.6
vertex -15 31.049999999999997 5.6
endloop
endfacet
facet normal -1 0 0
outer loop
vertex -15 -10 5.6
vertex -15 31.049999999999997 5.6
vertex -15 31.049999999999997 0
endloop
endfacet
facet normal -1 0 0
outer loop
vertex -15 -10 5.6
vertex -15 31.049999999999997 0
vertex -15 29.05 0
endloop
endfacet
facet normal -1 0 0
outer loop
vertex -15 -10 5.6
vertex -15 29.05 0
vertex -15 29.019615506024515 0
endloop
endfacet
facet normal -1 0 0
outer loop
vertex -15 -10 5.6
vertex -15 29.019615506024515 0
vertex -15 28.929385241571794 0
endloop
endfacet
facet normal -1 0 0
outer loop
vertex -15 -10 5.6
vertex -15 28.929385241571794 0
vertex -15 28.782050807569124 0
endloop
endfacet
facet normal -1 0 0
outer loop
vertex -15 -10 5.6
vertex -15 28.782050807569124 0
vertex -15 28.582088886238402 0
endloop
endfacet
facet normal -1 0 0
outer loop
vertex -15 -10 5.6
vertex -15 28.582088886238402 0
vertex -15 28.33557521937282 0
endloop
endfacet
facet normal -1 0 0
outer loop
vertex -15 -10 5.6
vertex -15 28.33557521937282 0
vertex -15 28.04999999999952 0
endloop
endfacet
facet normal -1 0 0
outer loop
vertex -15 -10 5.6
vertex -15 28.04999999999952 0
vertex -15 27.734040286651883 0
endloop
endfacet
facet normal -1 0 0
outer loop
vertex -15 -10 5.6
vertex -15 27.734040286651883 0
vertex -15 27.39729635533348 0
endloop
endfacet
facet normal -1 0 0
outer loop
vertex -15 -10 5.6
vertex -15 27.39729635533348 0
vertex -15 27.050000000000757 0
endloop
endfacet
facet normal -1 0 0
outer loop
vertex -15 -10 5.6
vertex -15 27.050000000000757 0
vertex -15 -8.000000000000611 0
endloop
endfacet
facet normal -1 0 0
outer loop
vertex -15 -10 5.6
vertex -15 -8.000000000000611 0
vertex -15 -8.347296355333693 0
endloop
endfacet
facet normal -1 0 0
outer loop
vertex -15 -10 5.6
vertex -15 -8.347296355333693 0
vertex -15 -8.684040286651376 0
endloop
endfacet
facet normal -1 0 0
outer loop
vertex -15 -10 5.6
vertex -15 -8.684040286651376 0
vertex -15 -8.999999999999872 0
endloop
endfacet
facet normal -1 0 0
outer loop
vertex -15 -10 5.6
vertex -15 -8.999999999999872 0
vertex -15 -9.285575219373282 0
endloop
endfacet
facet normal -1 0 0
outer loop
vertex -15 -10 5.6
vertex -15 -9.285575219373282 0
vertex -15 -9.532088886237851 0
endloop
endfacet
facet normal -1 0 0
outer loop
vertex -15 -10 5.6
vertex -15 -9.532088886237851 0
vertex -15 -9.732050807569006 0
endloop
endfacet
facet normal -1 0 0
outer loop
vertex -15 -10 5.6
vertex -15 -9.732050807569006 0
vertex -15 -9.879385241571883 0
endloop
endfacet
facet normal -1 0 0
outer loop
vertex -15 -10 5.6
vertex -15 -9.879385241571883 0
vertex -15 -9.969615506024457 0
endloop
endfacet
facet normal -1 0 0
outer loop
vertex -15 -10 5.6
vertex -15 -9.969615506024457 0
vertex -15 -10 0
endloop
endfacet
facet normal -1 0 0
outer loop
vertex -15 -10 5.6
vertex -15 -10 0
vertex -15 -12 0
endloop
endfacet
facet normal -1 0 0
outer loop
vertex -15 -10 5.6
vertex -15 -12 0
vertex -15 -12 5.6
endloop
endfacet
facet normal -0.9961946980917452 -0.08715574274766169 0
outer loop
vertex -14.954423259036615 -12.52094453300079 5.6
vertex -15 -12 5.6
vertex -15 -12 0
endloop
endfacet
facet normal -0.9961946980917452 -0.08715574274766169 0
outer loop
vertex -14.954423259036615 -12.52094453300079 5.6
vertex -15 -12 0
vertex -14.954423259036615 -12.52094453300079 0
endloop
endfacet
facet normal -0.9659258262890686 -0.25881904510251985 0
outer loop
vertex -14.819077862357787 -13.026060429977026 5.600000000000001
vertex -14.954423259036615 -12.52094453300079 5.6
vertex -14.954423259036615 -12.52094453300079 0
endloop
endfacet
facet normal -0.9659258262890686 -0.25881904510251985 0
outer loop
vertex -14.819077862357787 -13.026060429977026 5.600000000000001
vertex -14.954423259036615 -12.52094453300079 0
vertex -14.819077862357787 -13.026060429977026 0
endloop
endfacet
facet normal -0.9063077870366506 -0.4226182617406982 0
outer loop
vertex -14.59807621135335 -13.500000000000018 5.600000000000001
vertex -14.819077862357787 -13.026060429977026 5.600000000000001
vertex -14.819077862357787 -13.026060429977026 0
endloop
endfacet
facet normal -0.9063077870366506 -0.4226182617406982 0
outer loop
vertex -14.59807621135335 -13.500000000000018 5.600000000000001
vertex -14.819077862357787 -13.026060429977026 0
vertex -14.59807621135335 -13.500000000000018 0
endloop
endfacet
facet normal -0.8191520442889911 -0.573576436351047 0
outer loop
vertex -14.298133329356936 -13.928362829059616 5.6
vertex -14.59807621135335 -13.500000000000018 5.600000000000001
vertex -14.59807621135335 -13.500000000000018 0
endloop
endfacet
facet normal -0.8191520442889911 -0.573576436351047 0
outer loop
vertex -14.298133329356936 -13.928362829059616 5.6
vertex -14.59807621135335 -13.500000000000018 0
vertex -14.298133329356936 -13.928362829059616 0
endloop
endfacet
facet normal -0.7071067811865458 -0.7071067811865493 0
outer loop
vertex -13.928362829059633 -14.298133329356947 5.6
vertex -14.298133329356936 -13.928362829059616 5.6
vertex -14.298133329356936 -13.928362829059616 0
endloop
endfacet
facet normal -0.7071067811865458 -0.7071067811865493 0
outer loop
vertex -13.928362829059633 -14.298133329356947 5.6
vertex -14.298133329356936 -13.928362829059616 0
vertex -13.928362829059633 -14.298133329356947 0
endloop
endfacet
facet normal -0.573576436351051 -0.8191520442889884 0
outer loop
vertex -13.499999999999995 -14.59807621135331 5.6
vertex -13.928362829059633 -14.298133329356947 5.6
vertex -13.928362829059633 -14.298133329356947 0
endloop
endfacet
facet normal -0.573576436351051 -0.8191520442889884 0
outer loop
vertex -13.499999999999995 -14.59807621135331 5.6
vertex -13.928362829059633 -14.298133329356947 0
vertex -13.499999999999995 -14.59807621135331 0
endloop
endfacet
facet normal -0.4226182617406982 -0.9063077870366506 0
outer loop
vertex -13.026060429977015 -14.819077862357732 5.600000000000001
vertex -13.499999999999995 -14.59807621135331 5.6
vertex -13.499999999999995 -14.59807621135331 0
endloop
endfacet
facet normal -0.4226182617406982 -0.9063077870366506 0
outer loop
vertex -13.026060429977015 -14.819077862357732 5.600000000000001
vertex -13.499999999999995 -14.59807621135331 0
vertex -13.026060429977015 -14.819077862357732 0
endloop
endfacet
facet normal -0.25881904510251985 -0.9659258262890686 0
outer loop
vertex -12.520944533000808 -14.954423259036679 5.600000000000001
vertex -13.026060429977015 -14.819077862357732 5.600000000000001
vertex -13.026060429977015 -14.819077862357732 0
endloop
endfacet
facet normal -0.25881904510251985 -0.9659258262890686 0
outer loop
vertex -12.520944533000808 -14.954423259036679 5.600000000000001
vertex -13.026060429977015 -14.819077862357732 0
vertex -12.520944533000808 -14.954423259036679 0
endloop
endfacet
facet normal -0.08715574274766169 -0.9961946980917453 0
outer loop
vertex -12.000000000000004 -15.000000000000027 5.600000000000001
vertex -12.520944533000808 -14.954423259036679 5.600000000000001
vertex -12.520944533000808 -14.954423259036679 0
endloop
endfacet
facet normal -0.08715574274766169 -0.9961946980917453 0
outer loop
vertex -12.000000000000004 -15.000000000000027 5.600000000000001
vertex -12.520944533000808 -14.954423259036679 0
vertex -12.000000000000004 -15.000000000000027 0
endloop
endfacet
facet normal 0 -1 0
outer loop
vertex 31.05 -15 0
vertex 31.05 -15 5.6
vertex -12.000000000000004 -15.000000000000027 5.600000000000001
endloop
endfacet
facet normal 0 -1 0
outer loop
vertex 31.05 -15 0
vertex -12.000000000000004 -15.000000000000027 5.600000000000001
vertex -12.000000000000004 -15.000000000000027 0
endloop
endfacet
facet normal 0.08715574274766169 -0.9961946980917453 0
outer loop
vertex 31.57094453300079 -14.954423259036629 5.600000000000001
vertex 31.05 -15 5.6
vertex 31.05 -15 0
endloop
endfacet
facet normal 0.08715574274766169 -0.9961946980917453 0
outer loop
vertex 31.57094453300079 -14.954423259036629 5.600000000000001
vertex 31.05 -15 0
vertex 31.57094453300079 -14.954423259036629 0
endloop
endfacet
facet normal 0.25881904510251985 -0.9659258262890686 0
outer loop
vertex 32.07606042997702 -14.819077862357748 5.600000000000001
vertex 31.57094453300079 -14.954423259036629 5.600000000000001
vertex 31.57094453300079 -14.954423259036629 0
endloop
endfacet
facet normal 0.25881904510251985 -0.9659258262890686 0
outer loop
vertex 32.07606042997702 -14.819077862357748 5.600000000000001
vertex 31.57094453300079 -14.954423259036629 0
vertex 32.07606042997702 -14.819077862357748 0
endloop
endfacet
facet normal 0.4226182617407019 -0.9063077870366489 0
outer loop
vertex 32.55000000000001 -14.598076211353336 5.600000000000001
vertex 32.07606042997702 -14.819077862357748 5.600000000000001
vertex 32.07606042997702 -14.819077862357748 0
endloop
endfacet
facet normal 0.4226182617407019 -0.9063077870366489 0
outer loop
vertex 32.55000000000001 -14.598076211353336 5.600000000000001
vertex 32.07606042997702 -14.819077862357748 0
vertex 32.55000000000001 -14.598076211353336 0
endloop
endfacet
facet normal 0.573576436351047 -0.8191520442889911 0
outer loop
vertex 32.97836282905962 -14.298133329356954 5.6
vertex 32.55000000000001 -14.598076211353336 5.600000000000001
vertex 32.55000000000001 -14.598076211353336 0
endloop
endfacet
facet normal 0.573576436351047 -0.8191520442889911 0
outer loop
vertex 32.97836282905962 -14.298133329356954 5.6
vertex 32.55000000000001 -14.598076211353336 0
vertex 32.97836282905962 -14.298133329356954 0
endloop
endfacet
facet normal 0.7071067811865475 -0.7071067811865475 0
outer loop
vertex 33.34813332935686 -13.92836282905954 5.6
vertex 32.97836282905962 -14.298133329356954 5.6
vertex 32.97836282905962 -14.298133329356954 0
endloop
endfacet
facet normal 0.7071067811865475 -0.7071067811865475 0
outer loop
vertex 33.34813332935686 -13.92836282905954 5.6
vertex 32.97836282905962 -14.298133329356954 0
vertex 33.34813332935686 -13.92836282905954 0
endloop
endfacet
facet normal 0.8191520442889912 -0.573576436351047 0
outer loop
vertex 33.64807621135334 -13.500000000000021 5.600000000000001
vertex 33.34813332935686 -13.92836282905954 5.6
vertex 33.34813332935686 -13.92836282905954 0
endloop
endfacet
facet normal 0.8191520442889912 -0.573576436351047 0
outer loop
vertex 33.64807621135334 -13.500000000000021 5.600000000000001
vertex 33.34813332935686 -13.92836282905954 0
vertex 33.64807621135334 -13.500000000000021 0
endloop
endfacet
facet normal 0.9063077870366519 -0.4226182617406953 0
outer loop
vertex 33.86907786235783 -13.026060429977056 5.6
vertex 33.64807621135334 -13.500000000000021 5.600000000000001
vertex 33.64807621135334 -13.500000000000021 0
endloop
endfacet
facet normal 0.9063077870366519 -0.4226182617406953 0
outer loop
vertex 33.86907786235783 -13.026060429977056 5.6
vertex 33.64807621135334 -13.500000000000021 0
vertex 33.86907786235783 -13.026060429977056 0
endloop
endfacet
facet normal 0.9659258262890704 -0.2588190451025125 0
outer loop
vertex 34.004423259036784 -12.520944533000833 5.6
vertex 33.86907786235783 -13.026060429977056 5.6
vertex 33.86907786235783 -13.026060429977056 0
endloop
endfacet
facet normal 0.9659258262890704 -0.2588190451025125 0
outer loop
vertex 34.004423259036784 -12.520944533000833 5.6
vertex 33.86907786235783 -13.026060429977056 0
vertex 34.004423259036784 -12.520944533000833 0
endloop
endfacet
facet normal 0.9961946980917453 -0.08715574274766169 0
outer loop
vertex 34.05000000000003 -12.000000000000004 5.600000000000001
vertex 34.004423259036784 -12.520944533000833 5.6
vertex 34.004423259036784 -12.520944533000833 0
endloop
endfacet
facet normal 0.9961946980917453 -0.08715574274766169 0
outer loop
vertex 34.05000000000003 -12.000000000000004 5.600000000000001
vertex 34.004423259036784 -12.520944533000833 0
vertex 34.05000000000003 -12.000000000000004 0
endloop
endfacet
facet normal 1 0 0
outer loop
vertex 34.05 -10 0
vertex 34.05 -9.969615506024457 0
vertex 34.05 -9.879385241571883 0
endloop
endfacet
facet normal 1 0 0
outer loop
vertex 34.05 -10 0
vertex 34.05 -9.879385241571883 0
vertex 34.05 -9.732050807569006 0
endloop
endfacet
facet normal 1 0 0
outer loop
vertex 34.05 -10 0
vertex 34.05 -9.732050807569006 0
vertex 34.05 -9.532088886237851 0
endloop
endfacet
facet normal 1 0 0
outer loop
vertex 34.05 -10 0
vertex 34.05 -9.532088886237851 0
vertex 34.05 -9.285575219373282 0
endloop
endfacet
facet normal 1 0 0
outer loop
vertex 34.05 -10 0
vertex 34.05 -9.285575219373282 0
vertex 34.05 -8.999999999999872 0
endloop
endfacet
facet normal 1 0 0
outer loop
vertex 34.05 -10 0
vertex 34.05 -8.999999999999872 0
vertex 34.05 -8.684040286651376 0
endloop
endfacet
facet normal 1 0 0
outer loop
vertex 34.05 -10 0
vertex 34.05 -8.684040286651376 0
vertex 34.05 -8.347296355333693 0
endloop
endfacet
facet normal 1 0 0
outer loop
vertex 34.05 -10 0
vertex 34.05 -8.347296355333693 0
vertex 34.05 -8.000000000000611 0
endloop
endfacet
facet normal 1 0 0
outer loop
vertex 34.05 -10 0
vertex 34.05 -8.000000000000611 0
vertex 34.05 27.050000000000757 0
endloop
endfacet
facet normal 1 0 0
outer loop
vertex 34.05 -10 0
vertex 34.05 27.050000000000757 0
vertex 34.05 27.39729635533348 0
endloop
endfacet
facet normal 1 0 0
outer loop
vertex 34.05 -10 0
vertex 34.05 27.39729635533348 0
vertex 34.05 27.734040286651883 0
endloop
endfacet
facet normal 1 0 0
outer loop
vertex 34.05 -10 0
vertex 34.05 27.734040286651883 0
vertex 34.05 28.04999999999952 0
endloop
endfacet
facet normal 1 0 0
outer loop
vertex 34.05 -10 0
vertex 34.05 28.04999999999952 0
vertex 34.05 28.33557521937282 0
endloop
endfacet
facet normal 1 0 0
outer loop
vertex 34.05 -10 0
vertex 34.05 28.33557521937282 0
vertex 34.05 28.582088886238402 0
endloop
endfacet
facet normal 1 0 0
outer loop
vertex 34.05 -10 0
vertex 34.05 28.582088886238402 0
vertex 34.05 28.782050807569124 0
endloop
endfacet
facet normal 1 0 0
outer loop
vertex 34.05 -10 0
vertex 34.05 28.782050807569124 0
vertex 34.05 28.929385241571794 0
endloop
endfacet
facet normal 1 0 0
outer loop
vertex 34.05 -10 0
vertex 34.05 28.929385241571794 0
vertex 34.05 29.019615506024515 0
endloop
endfacet
facet normal 1 0 0
outer loop
vertex 34.05 -10 0
vertex 34.05 29.019615506024515 0
vertex 34.05 29.05 0
endloop
endfacet
facet normal 1 0 0
outer loop
vertex 34.05 -10 0
vertex 34.05 29.05 0
vertex 34.05 31.05 0
endloop
endfacet
facet normal 1 0 0
outer loop
vertex 34.05 -10 0
vertex 34.05 31.05 0
vertex 34.05 31.05 5.6
endloop
endfacet
facet normal 1 0 0
outer loop
vertex 34.05 -10 0
vertex 34.05 31.05 5.6
vertex 34.05 29.05 5.6
endloop
endfacet
facet normal 1 0 0
outer loop
vertex 34.05 -10 0
vertex 34.05 29.05 5.6
vertex 34.05 29.019615506024515 5.6
endloop
endfacet
facet normal 1 0 0
outer loop
vertex 34.05 -10 0
vertex 34.05 29.019615506024515 5.6
vertex 34.05 28.92938524157179 5.6
endloop
endfacet
facet normal 1 0 0
outer loop
vertex 34.05 -10 0
vertex 34.05 28.92938524157179 5.6
vertex 34.05 28.78205080756914 5.6
endloop
endfacet
facet normal 1 0 0
outer loop
vertex 34.05 -10 0
vertex 34.05 28.78205080756914 5.6
vertex 34.05 28.582088886238388 5.6
endloop
endfacet
facet normal 1 0 0
outer loop
vertex 34.05 -10 0
vertex 34.05 28.582088886238388 5.6
vertex 34.05 28.335575219372817 5.6
endloop
endfacet
facet normal 1 0 0
outer loop
vertex 34.05 -10 0
vertex 34.05 28.335575219372817 5.6
vertex 34.05 28.049999999999528 5.6
endloop
endfacet
facet normal 1 0 0
outer loop
vertex 34.05 -10 0
vertex 34.05 28.049999999999528 5.6
vertex 34.05 27.734040286651883 5.6
endloop
endfacet
facet normal 1 0 0
outer loop
vertex 34.05 -10 0
vertex 34.05 27.734040286651883 5.6
vertex 34.05 27.397296355333452 5.6
endloop
endfacet
facet normal 1 0 0
outer loop
vertex 34.05 -10 0
vertex 34.05 27.397296355333452 5.6
vertex 34.05 27.050000000000807 5.6
endloop
endfacet
facet normal 1 0 0
outer loop
vertex 34.05 -10 0
vertex 34.05 27.050000000000807 5.6
vertex 34.05 -8.000000000000576 5.6
endloop
endfacet
facet normal 1 0 0
outer loop
vertex 34.05 -10 0
vertex 34.05 -8.000000000000576 5.6
vertex 34.05 -8.34729635533369 5.6
endloop
endfacet
facet normal 1 0 0
outer loop
vertex 34.05 -10 0
vertex 34.05 -8.34729635533369 5.6
vertex 34.05 -8.68404028665138 5.6
endloop
endfacet
facet normal 1 0 0
outer loop
vertex 34.05 -10 0
vertex 34.05 -8.68404028665138 5.6
vertex 34.05 -8.999999999999869 5.6
endloop
endfacet
facet normal 1 0 0
outer loop
vertex 34.05 -10 0
vertex 34.05 -8.999999999999869 5.6
vertex 34.05 -9.285575219373289 5.6
endloop
endfacet
facet normal 1 0 0
outer loop
vertex 34.05 -10 0
vertex 34.05 -9.285575219373289 5.6
vertex 34.05 -9.532088886237851 5.6
endloop
endfacet
facet normal 1 0 0
outer loop
vertex 34.05 -10 0
vertex 34.05 -9.532088886237851 5.6
vertex 34.05 -9.732050807569003 5.6
endloop
endfacet
facet normal 1 0 0
outer loop
vertex 34.05 -10 0
vertex 34.05 -9.732050807569003 5.6
vertex 34.05 -9.87938524157189 5.6
endloop
endfacet
facet normal 1 0 0
outer loop
vertex 34.05 -10 0
vertex 34.05 -9.87938524157189 5.6
vertex 34.05 -9.969615506024454 5.6
endloop
endfacet
facet normal 1 0 0
outer loop
vertex 34.05 -10 0
vertex 34.05 -9.969615506024454 5.6
vertex 34.05 -10 5.6
endloop
endfacet
facet normal 1 0 0
outer loop
vertex 34.05 -10 0
vertex 34.05 -10 5.6
vertex 34.05000000000003 -12.000000000000004 5.600000000000001
endloop
endfacet
facet normal 1 0 0
outer loop
vertex 34.05 -10 0
vertex 34.05000000000003 -12.000000000000004 5.600000000000001
vertex 34.05000000000003 -12.000000000000004 0
endloop
endfacet
facet normal 0.9961946980917447 0.08715574274766877 0
outer loop
vertex 34.004423259036464 31.57094453300078 5.6
vertex 34.05 31.05 5.6
vertex 34.05 31.05 0
endloop
endfacet
facet normal 0.9961946980917447 0.08715574274766877 0
outer loop
vertex 34.004423259036464 31.57094453300078 5.6
vertex 34.05 31.05 0
vertex 34.004423259036464 31.57094453300078 0
endloop
endfacet
facet normal 0.9659258262890704 0.2588190451025125 0
outer loop
vertex 33.869077862357905 32.076060429977055 5.6
vertex 34.004423259036464 31.57094453300078 5.6
vertex 34.004423259036464 31.57094453300078 0
endloop
endfacet
facet normal 0.9659258262890704 0.2588190451025125 0
outer loop
vertex 33.869077862357905 32.076060429977055 5.6
vertex 34.004423259036464 31.57094453300078 0
vertex 33.869077862357905 32.076060429977055 0
endloop
endfacet
facet normal 0.9063077870366524 0.4226182617406946 0
outer loop
vertex 33.64807621135345 32.550000000000054 5.6
vertex 33.869077862357905 32.076060429977055 5.6
vertex 33.869077862357905 32.076060429977055 0
endloop
endfacet
facet normal 0.9063077870366524 0.4226182617406946 0
outer loop
vertex 33.64807621135345 32.550000000000054 5.6
vertex 33.869077862357905 32.076060429977055 0
vertex 33.64807621135345 32.550000000000054 0
endloop
endfacet
facet normal 0.8191520442889911 0.573576436351047 0
outer loop
vertex 33.34813332935693 32.97836282905961 5.6
vertex 33.64807621135345 32.550000000000054 5.6
vertex 33.64807621135345 32.550000000000054 0
endloop
endfacet
facet normal 0.8191520442889911 0.573576436351047 0
outer loop
vertex 33.34813332935693 32.97836282905961 5.6
vertex 33.64807621135345 32.550000000000054 0
vertex 33.34813332935693 32.97836282905961 0
endloop
endfacet
facet normal 0.7071067811865404 0.7071067811865546 0
outer loop
vertex 32.97836282905955 33.34813332935687 5.6
vertex 33.34813332935693 32.97836282905961 5.6
vertex 33.34813332935693 32.97836282905961 0
endloop
endfacet
facet normal 0.7071067811865404 0.7071067811865546 0
outer loop
vertex 32.97836282905955 33.34813332935687 5.6
vertex 33.34813332935693 32.97836282905961 0
vertex 32.97836282905955 33.34813332935687 0
endloop
endfacet
facet normal 0.573576436351047 0.8191520442889911 0
outer loop
vertex 32.55 33.64807621135331 5.6
vertex 32.97836282905955 33.34813332935687 5.6
vertex 32.97836282905955 33.34813332935687 0
endloop
endfacet
facet normal 0.573576436351047 0.8191520442889911 0
outer loop
vertex 32.55 33.64807621135331 5.6
vertex 32.97836282905955 33.34813332935687 0
vertex 32.55 33.64807621135331 0
endloop
endfacet
facet normal 0.4226182617406946 0.9063077870366524 0
outer loop
vertex 32.07606042997706 33.869077862357855 5.6
vertex 32.55 33.64807621135331 5.6
vertex 32.55 33.64807621135331 0
endloop
endfacet
facet normal 0.4226182617406946 0.9063077870366524 0
outer loop
vertex 32.07606042997706 33.869077862357855 5.6
vertex 32.55 33.64807621135331 0
vertex 32.07606042997706 33.869077862357855 0
endloop
endfacet
facet normal 0.2588190451025271 0.9659258262890666 0
outer loop
vertex 31.57094453300078 34.0044232590366 5.600000000000001
vertex 32.07606042997706 33.869077862357855 5.6
vertex 32.07606042997706 33.869077862357855 0
endloop
endfacet
facet normal 0.2588190451025271 0.9659258262890666 0
outer loop
vertex 31.57094453300078 34.0044232590366 5.600000000000001
vertex 32.07606042997706 33.869077862357855 0
vertex 31.57094453300078 34.0044232590366 0
endloop
endfacet
facet normal 0.08715574274766165 0.9961946980917453 0
outer loop
vertex 31.050000000000004 34.050000000000004 5.600000000000001
vertex 31.57094453300078 34.0044232590366 5.600000000000001
vertex 31.57094453300078 34.0044232590366 0
endloop
endfacet
facet normal 0.08715574274766165 0.9961946980917453 0
outer loop
vertex 31.050000000000004 34.050000000000004 5.600000000000001
vertex 31.57094453300078 34.0044232590366 0
vertex 31.050000000000004 34.050000000000004 0
endloop
endfacet
facet normal 0 1 0
outer loop
vertex 31.050000000000004 34.050000000000004 5.600000000000001
vertex 31.050000000000004 34.050000000000004 0
vertex -12 34.05 0
endloop
endfacet
facet normal 0 1 0
outer loop
vertex 31.050000000000004 34.050000000000004 5.600000000000001
vertex -12 34.05 0
vertex -12 34.05 5.6
endloop
endfacet
facet normal -0.08715574274766169 0.9961946980917453 0
outer loop
vertex -12.520944533000796 34.00442325903666 5.600000000000001
vertex -12 34.05 5.6
vertex -12 34.05 0
endloop
endfacet
facet normal -0.08715574274766169 0.9961946980917453 0
outer loop
vertex -12.520944533000796 34.00442325903666 5.600000000000001
vertex -12 34.05 0
vertex -12.520944533000796 34.00442325903666 0
endloop
endfacet
facet normal -0.2588190451025271 0.9659258262890666 0
outer loop
vertex -13.026060429976999 33.86907786235768 5.600000000000001
vertex -12.520944533000796 34.00442325903666 5.600000000000001
vertex -12.520944533000796 34.00442325903666 0
endloop
endfacet
facet normal -0.2588190451025271 0.9659258262890666 0
outer loop
vertex -13.026060429976999 33.86907786235768 5.600000000000001
vertex -12.520944533000796 34.00442325903666 0
vertex -13.026060429976999 33.86907786235768 0
endloop
endfacet
facet normal -0.4226182617406946 0.9063077870366524 0
outer loop
vertex -13.500000000000052 33.64807621135342 5.6
vertex -13.026060429976999 33.86907786235768 5.600000000000001
vertex -13.026060429976999 33.86907786235768 0
endloop
endfacet
facet normal -0.4226182617406946 0.9063077870366524 0
outer loop
vertex -13.500000000000052 33.64807621135342 5.6
vertex -13.026060429976999 33.86907786235768 0
vertex -13.500000000000052 33.64807621135342 0
endloop
endfacet
facet normal -0.5735764363510406 0.8191520442889957 0
outer loop
vertex -13.928362829059662 33.348133329357 5.6
vertex -13.500000000000052 33.64807621135342 5.6
vertex -13.500000000000052 33.64807621135342 0
endloop
endfacet
facet normal -0.5735764363510406 0.8191520442889957 0
outer loop
vertex -13.928362829059662 33.348133329357 5.6
vertex -13.500000000000052 33.64807621135342 0
vertex -13.928362829059662 33.348133329357 0
endloop
endfacet
facet normal -0.7071067811865547 0.7071067811865405 0
outer loop
vertex -14.298133329356949 32.978362829059634 5.6
vertex -13.928362829059662 33.348133329357 5.6
vertex -13.928362829059662 33.348133329357 0
endloop
endfacet
facet normal -0.7071067811865547 0.7071067811865405 0
outer loop
vertex -14.298133329356949 32.978362829059634 5.6
vertex -13.928362829059662 33.348133329357 0
vertex -14.298133329356949 32.978362829059634 0
endloop
endfacet
facet normal -0.8191520442889911 0.573576436351047 0
outer loop
vertex -14.598076211353366 32.550000000000026 5.6
vertex -14.298133329356949 32.978362829059634 5.6
vertex -14.298133329356949 32.978362829059634 0
endloop
endfacet
facet normal -0.8191520442889911 0.573576436351047 0
outer loop
vertex -14.598076211353366 32.550000000000026 5.6
vertex -14.298133329356949 32.978362829059634 0
vertex -14.598076211353366 32.550000000000026 0
endloop
endfacet
facet normal -0.9063077870366524 0.4226182617406946 0
outer loop
vertex -14.819077862357894 32.076060429977076 5.6
vertex -14.598076211353366 32.550000000000026 5.6
vertex -14.598076211353366 32.550000000000026 0
endloop
endfacet
facet normal -0.9063077870366524 0.4226182617406946 0
outer loop
vertex -14.819077862357894 32.076060429977076 5.6
vertex -14.598076211353366 32.550000000000026 0
vertex -14.819077862357894 32.076060429977076 0
endloop
endfacet
facet normal -0.9659258262890686 0.25881904510251985 0
outer loop
vertex -14.954423259036648 31.570944533000798 5.600000000000001
vertex -14.819077862357894 32.076060429977076 5.6
vertex -14.819077862357894 32.076060429977076 0
endloop
endfacet
facet normal -0.9659258262890686 0.25881904510251985 0
outer loop
vertex -14.954423259036648 31.570944533000798 5.600000000000001
vertex -14.819077862357894 32.076060429977076 0
vertex -14.954423259036648 31.570944533000798 0
endloop
endfacet
facet normal -0.9961946980917455 0.08715574274765815 0
outer loop
vertex -15 31.049999999999997 5.6
vertex -14.954423259036648 31.570944533000798 5.600000000000001
vertex -14.954423259036648 31.570944533000798 0
endloop
endfacet
facet normal -0.9961946980917455 0.08715574274765815 0
outer loop
vertex -15 31.049999999999997 5.6
vertex -14.954423259036648 31.570944533000798 0
vertex -15 31.049999999999997 0
endloop
endfacet
facet normal 1 0 0
outer loop
vertex -10 27.05 0
vertex -10 27.05 5.6
vertex -10 -8 5.6
endloop
endfacet
facet normal 1 0 0
outer loop
vertex -10 27.05 0
vertex -10 -8 5.6
vertex -10 -8 0
endloop
endfacet
facet normal 0.9961946980917459 0.08715574274765459 0
outer loop
vertex -10 -8 5.6
vertex -9.969615506024471 -8.347296355333865 5.6
vertex -9.969615506024471 -8.347296355333865 0
endloop
endfacet
facet normal 0.9961946980917459 0.08715574274765459 0
outer loop
vertex -10 -8 5.6
vertex -9.969615506024471 -8.347296355333865 0
vertex -10 -8 0
endloop
endfacet
facet normal 0.9659258262890695 0.2588190451025163 0
outer loop
vertex -9.969615506024471 -8.347296355333865 5.6
vertex -9.879385241571843 -8.684040286651342 5.6
vertex -9.879385241571843 -8.684040286651342 0
endloop
endfacet
facet normal 0.9659258262890695 0.2588190451025163 0
outer loop
vertex -9.969615506024471 -8.347296355333865 5.6
vertex -9.879385241571843 -8.684040286651342 0
vertex -9.969615506024471 -8.347296355333865 0
endloop
endfacet
facet normal 0.9063077870366506 0.4226182617406982 0
outer loop
vertex -9.879385241571843 -8.684040286651342 5.6
vertex -9.732050807568905 -9.000000000000012 5.600000000000001
vertex -9.732050807568905 -9.000000000000012 0
endloop
endfacet
facet normal 0.9063077870366506 0.4226182617406982 0
outer loop
vertex -9.879385241571843 -8.684040286651342 5.6
vertex -9.732050807568905 -9.000000000000012 0
vertex -9.879385241571843 -8.684040286651342 0
endloop
endfacet
facet normal 0.8191520442889911 0.573576436351047 0
outer loop
vertex -9.732050807568905 -9.000000000000012 5.600000000000001
vertex -9.532088886237958 -9.285575219373081 5.6
vertex -9.532088886237958 -9.285575219373081 0
endloop
endfacet
facet normal 0.8191520442889911 0.573576436351047 0
outer loop
vertex -9.732050807568905 -9.000000000000012 5.600000000000001
vertex -9.532088886237958 -9.285575219373081 0
vertex -9.732050807568905 -9.000000000000012 0
endloop
endfacet
facet normal 0.7071067811865476 0.7071067811865476 0
outer loop
vertex -9.532088886237958 -9.285575219373081 5.6
vertex -9.285575219373115 -9.53208888623799 5.600000000000001
vertex -9.285575219373115 -9.53208888623799 0
endloop
endfacet
facet normal 0.7071067811865476 0.7071067811865476 0
outer loop
vertex -9.532088886237958 -9.285575219373081 5.6
vertex -9.285575219373115 -9.53208888623799 0
vertex -9.532088886237958 -9.285575219373081 0
endloop
endfacet
facet normal 0.5735764363510467 0.8191520442889916 0
outer loop
vertex -9.285575219373115 -9.53208888623799 5.600000000000001
vertex -9.000000000000009 -9.732050807568893 5.600000000000001
vertex -9.000000000000009 -9.732050807568893 0
endloop
endfacet
facet normal 0.5735764363510467 0.8191520442889916 0
outer loop
vertex -9.285575219373115 -9.53208888623799 5.600000000000001
vertex -9.000000000000009 -9.732050807568893 0
vertex -9.285575219373115 -9.53208888623799 0
endloop
endfacet
facet normal 0.4226182617407019 0.9063077870366489 0
outer loop
vertex -9.000000000000009 -9.732050807568893 5.600000000000001
vertex -8.68404028665136 -9.879385241571862 5.600000000000001
vertex -8.68404028665136 -9.879385241571862 0
endloop
endfacet
facet normal 0.4226182617407019 0.9063077870366489 0
outer loop
vertex -9.000000000000009 -9.732050807568893 5.600000000000001
vertex -8.68404028665136 -9.879385241571862 0
vertex -9.000000000000009 -9.732050807568893 0
endloop
endfacet
facet normal 0.25881904510251275 0.9659258262890705 0
outer loop
vertex -8.68404028665136 -9.879385241571862 5.600000000000001
vertex -8.347296355333876 -9.969615506024471 5.600000000000001
vertex -8.347296355333876 -9.969615506024471 0
endloop
endfacet
facet normal 0.25881904510251275 0.9659258262890705 0
outer loop
vertex -8.68404028665136 -9.879385241571862 5.600000000000001
vertex -8.347296355333876 -9.969615506024471 0
vertex -8.68404028665136 -9.879385241571862 0
endloop
endfacet
facet normal 0.08715574274765459 0.996194698091746 0
outer loop
vertex -8.347296355333876 -9.969615506024471 5.600000000000001
vertex -8.000000000000005 -10.000000000000046 5.600000000000001
vertex -8.000000000000005 -10.000000000000046 0
endloop
endfacet
facet normal 0.08715574274765459 0.996194698091746 0
outer loop
vertex -8.347296355333876 -9.969615506024471 5.600000000000001
vertex -8.000000000000005 -10.000000000000046 0
vertex -8.347296355333876 -9.969615506024471 0
endloop
endfacet
facet normal 0 1 0
outer loop
vertex 27.05 -10 5.6
vertex 27.05 -10 0
vertex -8.000000000000005 -10.000000000000046 0
endloop
endfacet
facet normal 0 1 0
outer loop
vertex 27.05 -10 5.6
vertex -8.000000000000005 -10.000000000000046 0
vertex -8.000000000000005 -10.000000000000046 5.600000000000001
endloop
endfacet
facet normal -0.08715574274766169 0.9961946980917453 0
outer loop
vertex 27.05 -10 5.6
vertex 27.39729635533386 -9.969615506024358 5.600000000000001
vertex 27.39729635533386 -9.969615506024358 0
endloop
endfacet
facet normal -0.08715574274766169 0.9961946980917453 0
outer loop
vertex 27.05 -10 5.6
vertex 27.39729635533386 -9.969615506024358 0
vertex 27.05 -10 0
endloop
endfacet
facet normal -0.25881904510252335 0.9659258262890675 0
outer loop
vertex 27.39729635533386 -9.969615506024358 5.600000000000001
vertex 27.734040286651336 -9.879385241571784 5.6
vertex 27.734040286651336 -9.879385241571784 0
endloop
endfacet
facet normal -0.25881904510252335 0.9659258262890675 0
outer loop
vertex 27.39729635533386 -9.969615506024358 5.600000000000001
vertex 27.734040286651336 -9.879385241571784 0
vertex 27.39729635533386 -9.969615506024358 0
endloop
endfacet
facet normal -0.4226182617407019 0.9063077870366489 0
outer loop
vertex 27.734040286651336 -9.879385241571784 5.6
vertex 28.05000000000001 -9.732050807568882 5.600000000000001
vertex 28.05000000000001 -9.732050807568882 0
endloop
endfacet
facet normal -0.4226182617407019 0.9063077870366489 0
outer loop
vertex 27.734040286651336 -9.879385241571784 5.6
vertex 28.05000000000001 -9.732050807568882 0
vertex 27.734040286651336 -9.879385241571784 0
endloop
endfacet
facet normal -0.573576436351043 0.819152044288994 0
outer loop
vertex 28.05000000000001 -9.732050807568882 5.600000000000001
vertex 28.33557521937312 -9.532088886238 5.6
vertex 28.33557521937312 -9.532088886238 0
endloop
endfacet
facet normal -0.573576436351043 0.819152044288994 0
outer loop
vertex 28.05000000000001 -9.732050807568882 5.600000000000001
vertex 28.33557521937312 -9.532088886238 0
vertex 28.05000000000001 -9.732050807568882 0
endloop
endfacet
facet normal -0.7071067811865458 0.7071067811865493 0
outer loop
vertex 28.33557521937312 -9.532088886238 5.6
vertex 28.582088886237976 -9.285575219373097 5.6
vertex 28.582088886237976 -9.285575219373097 0
endloop
endfacet
facet normal -0.7071067811865458 0.7071067811865493 0
outer loop
vertex 28.33557521937312 -9.532088886238 5.6
vertex 28.582088886237976 -9.285575219373097 0
vertex 28.33557521937312 -9.532088886238 0
endloop
endfacet
facet normal -0.819152044288994 0.573576436351043 0
outer loop
vertex 28.582088886237976 -9.285575219373097 5.6
vertex 28.782050807568908 -9.00000000000002 5.6
vertex 28.782050807568908 -9.00000000000002 0
endloop
endfacet
facet normal -0.819152044288994 0.573576436351043 0
outer loop
vertex 28.582088886237976 -9.285575219373097 5.6
vertex 28.782050807568908 -9.00000000000002 0
vertex 28.582088886237976 -9.285575219373097 0
endloop
endfacet
facet normal -0.9063077870366489 0.4226182617407019 0
outer loop
vertex 28.782050807568908 -9.00000000000002 5.6
vertex 28.929385241571815 -8.684040286651333 5.600000000000001
vertex 28.929385241571815 -8.684040286651333 0
endloop
endfacet
facet normal -0.9063077870366489 0.4226182617407019 0
outer loop
vertex 28.782050807568908 -9.00000000000002 5.6
vertex 28.929385241571815 -8.684040286651333 0
vertex 28.782050807568908 -9.00000000000002 0
endloop
endfacet
facet normal -0.9659258262890713 0.2588190451025092 0
outer loop
vertex 28.929385241571815 -8.684040286651333 5.600000000000001
vertex 29.01961550602449 -8.347296355333878 5.6
vertex 29.01961550602449 -8.347296355333878 0
endloop
endfacet
facet normal -0.9659258262890713 0.2588190451025092 0
outer loop
vertex 28.929385241571815 -8.684040286651333 5.600000000000001
vertex 29.01961550602449 -8.347296355333878 0
vertex 28.929385241571815 -8.684040286651333 0
endloop
endfacet
facet normal -0.9961946980917453 0.08715574274766169 0
outer loop
vertex 29.01961550602449 -8.347296355333878 5.6
vertex 29.050000000000058 -8.000000000000005 5.600000000000001
vertex 29.050000000000058 -8.000000000000005 0
endloop
endfacet
facet normal -0.9961946980917453 0.08715574274766169 0
outer loop
vertex 29.01961550602449 -8.347296355333878 5.6
vertex 29.050000000000058 -8.000000000000005 0
vertex 29.01961550602449 -8.347296355333878 0
endloop
endfacet
facet normal -1 0 0
outer loop
vertex 29.05 27.05 5.6
vertex 29.05 27.05 0
vertex 29.050000000000058 -8.000000000000005 0
endloop
endfacet
facet normal -1 0 0
outer loop
vertex 29.05 27.05 5.6
vertex 29.050000000000058 -8.000000000000005 0
vertex 29.050000000000058 -8.000000000000005 5.600000000000001
endloop
endfacet
facet normal -0.9961946980917453 -0.08715574274766169 0
outer loop
vertex 29.05 27.05 5.6
vertex 29.01961550602449 27.397296355333875 5.600000000000001
vertex 29.01961550602449 27.397296355333875 0
endloop
endfacet
facet normal -0.9961946980917453 -0.08715574274766169 0
outer loop
vertex 29.05 27.05 5.6
vertex 29.01961550602449 27.397296355333875 0
vertex 29.05 27.05 0
endloop
endfacet
facet normal -0.9659258262890704 -0.25881904510251297 0
outer loop
vertex 29.01961550602449 27.397296355333875 5.600000000000001
vertex 28.929385241571815 27.734040286651336 5.6
vertex 28.929385241571815 27.734040286651336 0
endloop
endfacet
facet normal -0.9659258262890704 -0.25881904510251297 0
outer loop
vertex 29.01961550602449 27.397296355333875 5.600000000000001
vertex 28.929385241571815 27.734040286651336 0
vertex 29.01961550602449 27.397296355333875 0
endloop
endfacet
facet normal -0.9063077870366519 -0.4226182617406953 0
outer loop
vertex 28.929385241571815 27.734040286651336 5.6
vertex 28.782050807568968 28.05000000000004 5.6
vertex 28.782050807568968 28.05000000000004 0
endloop
endfacet
facet normal -0.9063077870366519 -0.4226182617406953 0
outer loop
vertex 28.929385241571815 27.734040286651336 5.6
vertex 28.782050807568968 28.05000000000004 0
vertex 28.929385241571815 27.734040286651336 0
endloop
endfacet
facet normal -0.8191520442889911 -0.573576436351047 0
outer loop
vertex 28.782050807568968 28.05000000000004 5.6
vertex 28.582088886237955 28.335575219373077 5.6
vertex 28.582088886237955 28.335575219373077 0
endloop
endfacet
facet normal -0.8191520442889911 -0.573576436351047 0
outer loop
vertex 28.782050807568968 28.05000000000004 5.6
vertex 28.582088886237955 28.335575219373077 0
vertex 28.782050807568968 28.05000000000004 0
endloop
endfacet
facet normal -0.7071067811865475 -0.7071067811865475 0
outer loop
vertex 28.582088886237955 28.335575219373077 5.6
vertex 28.335575219373034 28.582088886237912 5.6
vertex 28.335575219373034 28.582088886237912 0
endloop
endfacet
facet normal -0.7071067811865475 -0.7071067811865475 0
outer loop
vertex 28.582088886237955 28.335575219373077 5.6
vertex 28.335575219373034 28.582088886237912 0
vertex 28.582088886237955 28.335575219373077 0
endloop
endfacet
facet normal -0.573576436351043 -0.819152044288994 0
outer loop
vertex 28.335575219373034 28.582088886237912 5.6
vertex 28.05000000000004 28.782050807568933 5.6
vertex 28.05000000000004 28.782050807568933 0
endloop
endfacet
facet normal -0.573576436351043 -0.819152044288994 0
outer loop
vertex 28.335575219373034 28.582088886237912 5.6
vertex 28.05000000000004 28.782050807568933 0
vertex 28.335575219373034 28.582088886237912 0
endloop
endfacet
facet normal -0.4226182617406946 -0.9063077870366524 0
outer loop
vertex 28.05000000000004 28.782050807568933 5.6
vertex 27.734040286651386 28.929385241571932 5.6
vertex 27.734040286651386 28.929385241571932 0
endloop
endfacet
facet normal -0.4226182617406946 -0.9063077870366524 0
outer loop
vertex 28.05000000000004 28.782050807568933 5.6
vertex 27.734040286651386 28.929385241571932 0
vertex 28.05000000000004 28.782050807568933 0
endloop
endfacet
facet normal -0.2588190451025125 -0.9659258262890704 0
outer loop
vertex 27.734040286651386 28.929385241571932 5.6
vertex 27.397296355333875 29.019615506024472 5.6
vertex 27.397296355333875 29.019615506024472 0
endloop
endfacet
facet normal -0.2588190451025125 -0.9659258262890704 0
outer loop
vertex 27.734040286651386 28.929385241571932 5.6
vertex 27.397296355333875 29.019615506024472 0
vertex 27.734040286651386 28.929385241571932 0
endloop
endfacet
facet normal -0.08715574274766169 -0.9961946980917453 0
outer loop
vertex 27.397296355333875 29.019615506024472 5.6
vertex 27.050000000000015 29.050000000000093 5.600000000000001
vertex 27.050000000000015 29.050000000000093 0
endloop
endfacet
facet normal -0.08715574274766169 -0.9961946980917453 0
outer loop
vertex 27.397296355333875 29.019615506024472 5.6
vertex 27.050000000000015 29.050000000000093 0
vertex 27.397296355333875 29.019615506024472 0
endloop
endfacet
facet normal 0 -1 0
outer loop
vertex 27.050000000000015 29.050000000000093 0
vertex 27.050000000000015 29.050000000000093 5.600000000000001
vertex -8 29.05 5.6
endloop
endfacet
facet normal 0 -1 0
outer loop
vertex 27.050000000000015 29.050000000000093 0
vertex -8 29.05 5.6
vertex -8 29.05 0
endloop
endfacet
facet normal 0.08715574274766169 -0.9961946980917453 0
outer loop
vertex -8 29.05 5.6
vertex -8.347296355333867 29.019615506024483 5.600000000000001
vertex -8.347296355333867 29.019615506024483 0
endloop
endfacet
facet normal 0.08715574274766169 -0.9961946980917453 0
outer loop
vertex -8 29.05 5.6
vertex -8.347296355333867 29.019615506024483 0
vertex -8 29.05 0
endloop
endfacet
facet normal 0.25881904510251275 -0.9659258262890704 0
outer loop
vertex -8.347296355333867 29.019615506024483 5.600000000000001
vertex -8.684040286651346 28.929385241571843 5.6
vertex -8.684040286651346 28.929385241571843 0
endloop
endfacet
facet normal 0.25881904510251275 -0.9659258262890704 0
outer loop
vertex -8.347296355333867 29.019615506024483 5.600000000000001
vertex -8.684040286651346 28.929385241571843 0
vertex -8.347296355333867 29.019615506024483 0
endloop
endfacet
facet normal 0.4226182617406953 -0.9063077870366519 0
outer loop
vertex -8.684040286651346 28.929385241571843 5.6
vertex -9.000000000000034 28.782050807568954 5.6
vertex -9.000000000000034 28.782050807568954 0
endloop
endfacet
facet normal 0.4226182617406953 -0.9063077870366519 0
outer loop
vertex -8.684040286651346 28.929385241571843 5.6
vertex -9.000000000000034 28.782050807568954 0
vertex -8.684040286651346 28.929385241571843 0
endloop
endfacet
facet normal 0.5735764363510438 -0.8191520442889935 0
outer loop
vertex -9.000000000000034 28.782050807568954 5.6
vertex -9.285575219373102 28.582088886237994 5.6
vertex -9.285575219373102 28.582088886237994 0
endloop
endfacet
facet normal 0.5735764363510438 -0.8191520442889935 0
outer loop
vertex -9.000000000000034 28.782050807568954 5.6
vertex -9.285575219373102 28.582088886237994 0
vertex -9.000000000000034 28.782050807568954 0
endloop
endfacet
facet normal 0.7071067811865493 -0.7071067811865458 0
outer loop
vertex -9.285575219373102 28.582088886237994 5.6
vertex -9.53208888623798 28.335575219373105 5.6
vertex -9.53208888623798 28.335575219373105 0
endloop
endfacet
facet normal 0.7071067811865493 -0.7071067811865458 0
outer loop
vertex -9.285575219373102 28.582088886237994 5.6
vertex -9.53208888623798 28.335575219373105 0
vertex -9.285575219373102 28.582088886237994 0
endloop
endfacet
facet normal 0.819152044288994 -0.573576436351043 0
outer loop
vertex -9.53208888623798 28.335575219373105 5.6
vertex -9.732050807568944 28.050000000000047 5.6
vertex -9.732050807568944 28.050000000000047 0
endloop
endfacet
facet normal 0.819152044288994 -0.573576436351043 0
outer loop
vertex -9.53208888623798 28.335575219373105 5.6
vertex -9.732050807568944 28.050000000000047 0
vertex -9.53208888623798 28.335575219373105 0
endloop
endfacet
facet normal 0.9063077870366489 -0.4226182617407019 0
outer loop
vertex -9.732050807568944 28.050000000000047 5.6
vertex -9.879385241571827 27.734040286651346 5.600000000000001
vertex -9.879385241571827 27.734040286651346 0
endloop
endfacet
facet normal 0.9063077870366489 -0.4226182617407019 0
outer loop
vertex -9.732050807568944 28.050000000000047 5.6
vertex -9.879385241571827 27.734040286651346 0
vertex -9.732050807568944 28.050000000000047 0
endloop
endfacet
facet normal 0.9659258262890686 -0.25881904510251985 0
outer loop
vertex -9.879385241571827 27.734040286651346 5.600000000000001
vertex -9.969615506024507 27.397296355333886 5.600000000000001
vertex -9.969615506024507 27.397296355333886 0
endloop
endfacet
facet normal 0.9659258262890686 -0.25881904510251985 0
outer loop
vertex -9.879385241571827 27.734040286651346 5.600000000000001
vertex -9.969615506024507 27.397296355333886 0
vertex -9.879385241571827 27.734040286651346 0
endloop
endfacet
facet normal 0.9961946980917455 -0.08715574274765814 0
outer loop
vertex -9.969615506024507 27.397296355333886 5.600000000000001
vertex -10 27.05 5.6
vertex -10 27.05 0
endloop
endfacet
facet normal 0.9961946980917455 -0.08715574274765814 0
outer loop
vertex -9.969615506024507 27.397296355333886 5.600000000000001
vertex -10 27.05 0
vertex -9.969615506024507 27.397296355333886 0
endloop
endfacet
facet normal 0 0 -1
outer loop
vertex 31.050000000000004 34.050000000000004 0
vertex 31.57094453300078 34.0044232590366 0
vertex 32.07606042997706 33.869077862357855 0
endloop
endfacet
facet normal 0 0 -1
outer loop
vertex 31.050000000000004 34.050000000000004 0
vertex 32.07606042997706 33.869077862357855 0
vertex 32.55 33.64807621135331 0
endloop
endfacet
facet normal 0 0 -1
outer loop
vertex 31.050000000000004 34.050000000000004 0
vertex 32.55 33.64807621135331 0
vertex 32.97836282905955 33.34813332935687 0
endloop
endfacet
facet normal 0 0 -1
outer loop
vertex 31.050000000000004 34.050000000000004 0
vertex 32.97836282905955 33.34813332935687 0
vertex 33.34813332935693 32.97836282905961 0
endloop
endfacet
facet normal 0 0 -1
outer loop
vertex 31.050000000000004 34.050000000000004 0
vertex 33.34813332935693 32.97836282905961 0
vertex 33.64807621135345 32.550000000000054 0
endloop
endfacet
facet normal 0 0 -1
outer loop
vertex 31.050000000000004 34.050000000000004 0
vertex 33.64807621135345 32.550000000000054 0
vertex 33.869077862357905 32.076060429977055 0
endloop
endfacet
facet normal 0 0 -1
outer loop
vertex 31.050000000000004 34.050000000000004 0
vertex 33.869077862357905 32.076060429977055 0
vertex 34.004423259036464 31.57094453300078 0
endloop
endfacet
facet normal 0 0 -1
outer loop
vertex 31.050000000000004 34.050000000000004 0
vertex 34.004423259036464 31.57094453300078 0
vertex 34.05 31.05 0
endloop
endfacet
facet normal 0 0 -1
outer loop
vertex 31.050000000000004 34.050000000000004 0
vertex 34.05 31.05 0
vertex 34.05 29.05 0
endloop
endfacet
facet normal 0 0 -1
outer loop
vertex 31.050000000000004 34.050000000000004 0
vertex 34.05 29.05 0
vertex 27.050000000000015 29.050000000000093 0
endloop
endfacet
facet normal 0 0 -1
outer loop
vertex 31.050000000000004 34.050000000000004 0
vertex 27.050000000000015 29.050000000000093 0
vertex -8 29.05 0
endloop
endfacet
facet normal 0 0 -1
outer loop
vertex 31.050000000000004 34.050000000000004 0
vertex -8 29.05 0
vertex -15 29.05 0
endloop
endfacet
facet normal 0 0 -1
outer loop
vertex 31.050000000000004 34.050000000000004 0
vertex -15 29.05 0
vertex -15 31.049999999999997 0
endloop
endfacet
facet normal 0 0 -1
outer loop
vertex 31.050000000000004 34.050000000000004 0
vertex -15 31.049999999999997 0
vertex -14.954423259036648 31.570944533000798 0
endloop
endfacet
facet normal 0 0 -1
outer loop
vertex 31.050000000000004 34.050000000000004 0
vertex -14.954423259036648 31.570944533000798 0
vertex -14.819077862357894 32.076060429977076 0
endloop
endfacet
facet normal 0 0 -1
outer loop
vertex 31.050000000000004 34.050000000000004 0
vertex -14.819077862357894 32.076060429977076 0
vertex -14.598076211353366 32.550000000000026 0
endloop
endfacet
facet normal 0 0 -1
outer loop
vertex 31.050000000000004 34.050000000000004 0
vertex -14.598076211353366 32.550000000000026 0
vertex -14.298133329356949 32.978362829059634 0
endloop
endfacet
facet normal 0 0 -1
outer loop
vertex 31.050000000000004 34.050000000000004 0
vertex -14.298133329356949 32.978362829059634 0
vertex -13.928362829059662 33.348133329357 0
endloop
endfacet
facet normal 0 0 -1
outer loop
vertex 31.050000000000004 34.050000000000004 0
vertex -13.928362829059662 33.348133329357 0
vertex -13.500000000000052 33.64807621135342 0
endloop
endfacet
facet normal 0 0 -1
outer loop
vertex 31.050000000000004 34.050000000000004 0
vertex -13.500000000000052 33.64807621135342 0
vertex -13.026060429976999 33.86907786235768 0
endloop
endfacet
facet normal 0 0 -1
outer loop
vertex 31.050000000000004 34.050000000000004 0
vertex -13.026060429976999 33.86907786235768 0
vertex -12.520944533000796 34.00442325903666 0
endloop
endfacet
facet normal 0 0 -1
outer loop
vertex 31.050000000000004 34.050000000000004 0
vertex -12.520944533000796 34.00442325903666 0
vertex -12 34.05 0
endloop
endfacet
facet normal 0 0 -1
outer loop
vertex -8 29.05 0
vertex -8.347296355333867 29.019615506024483 0
vertex -15 29.019615506024515 0
endloop
endfacet
facet normal 0 0 -1
outer loop
vertex -8 29.05 0
vertex -15 29.019615506024515 0
vertex -15 29.05 0
endloop
endfacet
facet normal 0 0 -1
outer loop
vertex 34.05 29.05 0
vertex 34.05 29.019615506024515 0
vertex 27.397296355333875 29.019615506024472 0
endloop
endfacet
facet normal 0 0 -1
outer loop
vertex 34.05 29.05 0
vertex 27.397296355333875 29.019615506024472 0
vertex 27.050000000000015 29.050000000000093 0
endloop
endfacet
facet normal 0 0 -1
outer loop
vertex -8.347296355333867 29.019615506024483 0
vertex -8.684040286651346 28.929385241571843 0
vertex -15 28.929385241571794 0
endloop
endfacet
facet normal 0 0 -1
outer loop
vertex -8.347296355333867 29.019615506024483 0
vertex -15 28.929385241571794 0
vertex -15 29.019615506024515 0
endloop
endfacet
facet normal 0 0 -1
outer loop
vertex 34.05 29.019615506024515 0
vertex 34.05 28.929385241571794 0
vertex 27.734040286651386 28.929385241571932 0
endloop
endfacet
facet normal 0 0 -1
outer loop
vertex 34.05 29.019615506024515 0
vertex 27.734040286651386 28.929385241571932 0
vertex 27.397296355333875 29.019615506024472 0
endloop
endfacet
facet normal 0 0 -1
outer loop
vertex -8.684040286651346 28.929385241571843 0
vertex -9.000000000000034 28.782050807568954 0
vertex -15 28.782050807569124 0
endloop
endfacet
facet normal 0 0 -1
outer loop
vertex -8.684040286651346 28.929385241571843 0
vertex -15 28.782050807569124 0
vertex -15 28.929385241571794 0
endloop
endfacet
facet normal 0 0 -1
outer loop
vertex 34.05 28.929385241571794 0
vertex 34.05 28.782050807569124 0
vertex 28.05000000000004 28.782050807568933 0
endloop
endfacet
facet normal 0 0 -1
outer loop
vertex 34.05 28.929385241571794 0
vertex 28.05000000000004 28.782050807568933 0
vertex 27.734040286651386 28.929385241571932 0
endloop
endfacet
facet normal 0 0 -1
outer loop
vertex -9.000000000000034 28.782050807568954 0
vertex -9.285575219373102 28.582088886237994 0
vertex -15 28.582088886238402 0
endloop
endfacet
facet normal 0 0 -1
outer loop
vertex -9.000000000000034 28.782050807568954 0
vertex -15 28.582088886238402 0
vertex -15 28.782050807569124 0
endloop
endfacet
facet normal 0 0 -1
outer loop
vertex 34.05 28.782050807569124 0
vertex 34.05 28.582088886238402 0
vertex 28.335575219373034 28.582088886237912 0
endloop
endfacet
facet normal 0 0 -1
outer loop
vertex 34.05 28.782050807569124 0
vertex 28.335575219373034 28.582088886237912 0
vertex 28.05000000000004 28.782050807568933 0
endloop
endfacet
facet normal 0 0 -1
outer loop
vertex -9.285575219373102 28.582088886237994 0
vertex -9.53208888623798 28.335575219373105 0
vertex -15 28.33557521937282 0
endloop
endfacet
facet normal 0 0 -1
outer loop
vertex -9.285575219373102 28.582088886237994 0
vertex -15 28.33557521937282 0
vertex -15 28.582088886238402 0
endloop
endfacet
facet normal 0 0 -1
outer loop
vertex 34.05 28.582088886238402 0
vertex 34.05 28.33557521937282 0
vertex 28.582088886237955 28.335575219373077 0
endloop
endfacet
facet normal 0 0 -1
outer loop
vertex 34.05 28.582088886238402 0
vertex 28.582088886237955 28.335575219373077 0
vertex 28.335575219373034 28.582088886237912 0
endloop
endfacet
facet normal 0 0 -1
outer loop
vertex -9.53208888623798 28.335575219373105 0
vertex -9.732050807568944 28.050000000000047 0
vertex -15 28.04999999999952 0
endloop
endfacet
facet normal 0 0 -1
outer loop
vertex -9.53208888623798 28.335575219373105 0
vertex -15 28.04999999999952 0
vertex -15 28.33557521937282 0
endloop
endfacet
facet normal 0 0 -1
outer loop
vertex 34.05 28.33557521937282 0
vertex 34.05 28.04999999999952 0
vertex 28.782050807568968 28.05000000000004 0
endloop
endfacet
facet normal 0 0 -1
outer loop
vertex 34.05 28.33557521937282 0
vertex 28.782050807568968 28.05000000000004 0
vertex 28.582088886237955 28.335575219373077 0
endloop
endfacet
facet normal 0 0 -1
outer loop
vertex -9.732050807568944 28.050000000000047 0
vertex -9.879385241571827 27.734040286651346 0
vertex -15 27.734040286651883 0
endloop
endfacet
facet normal 0 0 -1
outer loop
vertex -9.732050807568944 28.050000000000047 0
vertex -15 27.734040286651883 0
vertex -15 28.04999999999952 0
endloop
endfacet
facet normal 0 0 -1
outer loop
vertex 34.05 28.04999999999952 0
vertex 34.05 27.734040286651883 0
vertex 28.929385241571815 27.734040286651336 0
endloop
endfacet
facet normal 0 0 -1
outer loop
vertex 34.05 28.04999999999952 0
vertex 28.929385241571815 27.734040286651336 0
vertex 28.782050807568968 28.05000000000004 0
endloop
endfacet
facet normal 0 0 -1
outer loop
vertex -9.879385241571827 27.734040286651346 0
vertex -9.969615506024507 27.397296355333886 0
vertex -15 27.39729635533348 0
endloop
endfacet
facet normal 0 0 -1
outer loop
vertex -9.879385241571827 27.734040286651346 0
vertex -15 27.39729635533348 0
vertex -15 27.734040286651883 0
endloop
endfacet
facet normal 0 0 -1
outer loop
vertex 34.05 27.734040286651883 0
vertex 34.05 27.39729635533348 0
vertex 29.01961550602449 27.397296355333875 0
endloop
endfacet
facet normal 0 0 -1
outer loop
vertex 34.05 27.734040286651883 0
vertex 29.01961550602449 27.397296355333875 0
vertex 28.929385241571815 27.734040286651336 0
endloop
endfacet
facet normal 0 0 -1
outer loop
vertex -9.969615506024507 27.397296355333886 0
vertex -10 27.05 0
vertex -15 27.050000000000757 0
endloop
endfacet
facet normal 0 0 -1
outer loop
vertex -9.969615506024507 27.397296355333886 0
vertex -15 27.050000000000757 0
vertex -15 27.39729635533348 0
endloop
endfacet
facet normal 0 0 -1
outer loop
vertex 34.05 27.39729635533348 0
vertex 34.05 27.050000000000757 0
vertex 29.05 27.05 0
endloop
endfacet
facet normal 0 0 -1
outer loop
vertex 34.05 27.39729635533348 0
vertex 29.05 27.05 0
vertex 29.01961550602449 27.397296355333875 0
endloop
endfacet
facet normal 0 0 -1
outer loop
vertex -10 27.05 0
vertex -10 -8 0
vertex -15 -8.000000000000611 0
endloop
endfacet
facet normal 0 0 -1
outer loop
vertex -10 27.05 0
vertex -15 -8.000000000000611 0
vertex -15 27.050000000000757 0
endloop
endfacet
facet normal 0 0 -1
outer loop
vertex 34.05 27.050000000000757 0
vertex 34.05 -8.000000000000611 0
vertex 29.050000000000058 -8.000000000000005 0
endloop
endfacet
facet normal 0 0 -1
outer loop
vertex 34.05 27.050000000000757 0
vertex 29.050000000000058 -8.000000000000005 0
vertex 29.05 27.05 0
endloop
endfacet
facet normal 0 0 -1
outer loop
vertex -10 -8 0
vertex -9.969615506024471 -8.347296355333865 0
vertex -15 -8.347296355333693 0
endloop
endfacet
facet normal 0 0 -1
outer loop
vertex -10 -8 0
vertex -15 -8.347296355333693 0
vertex -15 -8.000000000000611 0
endloop
endfacet
facet normal 0 0 -1
outer loop
vertex 34.05 -8.000000000000611 0
vertex 34.05 -8.347296355333693 0
vertex 29.01961550602449 -8.347296355333878 0
endloop
endfacet
facet normal 0 0 -1
outer loop
vertex 34.05 -8.000000000000611 0
vertex 29.01961550602449 -8.347296355333878 0
vertex 29.050000000000058 -8.000000000000005 0
endloop
endfacet
facet normal 0 0 -1
outer loop
vertex -9.969615506024471 -8.347296355333865 0
vertex -9.879385241571843 -8.684040286651342 0
vertex -15 -8.684040286651376 0
endloop
endfacet
facet normal 0 0 -1
outer loop
vertex -9.969615506024471 -8.347296355333865 0
vertex -15 -8.684040286651376 0
vertex -15 -8.347296355333693 0
endloop
endfacet
facet normal 0 0 -1
outer loop
vertex 34.05 -8.347296355333693 0
vertex 34.05 -8.684040286651376 0
vertex 28.929385241571815 -8.684040286651333 0
endloop
endfacet
facet normal 0 0 -1
outer loop
vertex 34.05 -8.347296355333693 0
vertex 28.929385241571815 -8.684040286651333 0
vertex 29.01961550602449 -8.347296355333878 0
endloop
endfacet
facet normal 0 0 -1
outer loop
vertex -9.879385241571843 -8.684040286651342 0
vertex -9.732050807568905 -9.000000000000012 0
vertex -15 -8.999999999999872 0
endloop
endfacet
facet normal 0 0 -1
outer loop
vertex -9.879385241571843 -8.684040286651342 0
vertex -15 -8.999999999999872 0
vertex -15 -8.684040286651376 0
endloop
endfacet
facet normal 0 0 -1
outer loop
vertex 34.05 -8.684040286651376 0
vertex 34.05 -8.999999999999872 0
vertex 28.782050807568908 -9.00000000000002 0
endloop
endfacet
facet normal 0 0 -1
outer loop
vertex 34.05 -8.684040286651376 0
vertex 28.782050807568908 -9.00000000000002 0
vertex 28.929385241571815 -8.684040286651333 0
endloop
endfacet
facet normal 0 0 -1
outer loop
vertex -9.732050807568905 -9.000000000000012 0
vertex -9.532088886237958 -9.285575219373081 0
vertex -15 -9.285575219373282 0
endloop
endfacet
facet normal 0 0 -1
outer loop
vertex -9.732050807568905 -9.000000000000012 0
vertex -15 -9.285575219373282 0
vertex -15 -8.999999999999872 0
endloop
endfacet
facet normal 0 0 -1
outer loop
vertex 34.05 -8.999999999999872 0
vertex 34.05 -9.285575219373282 0
vertex 28.582088886237976 -9.285575219373097 0
endloop
endfacet
facet normal 0 0 -1
outer loop
vertex 34.05 -8.999999999999872 0
vertex 28.582088886237976 -9.285575219373097 0
vertex 28.782050807568908 -9.00000000000002 0
endloop
endfacet
facet normal 0 0 -1
outer loop
vertex -9.532088886237958 -9.285575219373081 0
vertex -9.285575219373115 -9.53208888623799 0
vertex -15 -9.532088886237851 0
endloop
endfacet
facet normal 0 0 -1
outer loop
vertex -9.532088886237958 -9.285575219373081 0
vertex -15 -9.532088886237851 0
vertex -15 -9.285575219373282 0
endloop
endfacet
facet normal 0 0 -1
outer loop
vertex 34.05 -9.285575219373282 0
vertex 34.05 -9.532088886237851 0
vertex 28.33557521937312 -9.532088886238 0
endloop
endfacet
facet normal 0 0 -1
outer loop
vertex 34.05 -9.285575219373282 0
vertex 28.33557521937312 -9.532088886238 0
vertex 28.582088886237976 -9.285575219373097 0
endloop
endfacet
facet normal 0 0 -1
outer loop
vertex -9.285575219373115 -9.53208888623799 0
vertex -9.000000000000009 -9.732050807568893 0
vertex -15 -9.732050807569006 0
endloop
endfacet
facet normal 0 0 -1
outer loop
vertex -9.285575219373115 -9.53208888623799 0
vertex -15 -9.732050807569006 0
vertex -15 -9.532088886237851 0
endloop
endfacet
facet normal 0 0 -1
outer loop
vertex 34.05 -9.532088886237851 0
vertex 34.05 -9.732050807569006 0
vertex 28.05000000000001 -9.732050807568882 0
endloop
endfacet
facet normal 0 0 -1
outer loop
vertex 34.05 -9.532088886237851 0
vertex 28.05000000000001 -9.732050807568882 0
vertex 28.33557521937312 -9.532088886238 0
endloop
endfacet
facet normal 0 0 -1
outer loop
vertex -9.000000000000009 -9.732050807568893 0
vertex -8.68404028665136 -9.879385241571862 0
vertex -15 -9.879385241571883 0
endloop
endfacet
facet normal 0 0 -1
outer loop
vertex -9.000000000000009 -9.732050807568893 0
vertex -15 -9.879385241571883 0
vertex -15 -9.732050807569006 0
endloop
endfacet
facet normal 0 0 -1
outer loop
vertex 34.05 -9.732050807569006 0
vertex 34.05 -9.879385241571883 0
vertex 27.734040286651336 -9.879385241571784 0
endloop
endfacet
facet normal 0 0 -1
outer loop
vertex 34.05 -9.732050807569006 0
vertex 27.734040286651336 -9.879385241571784 0
vertex 28.05000000000001 -9.732050807568882 0
endloop
endfacet
facet normal 0 0 -1
outer loop
vertex -8.68404028665136 -9.879385241571862 0
vertex -8.347296355333876 -9.969615506024471 0
vertex -15 -9.969615506024457 0
endloop
endfacet
facet normal 0 0 -1
outer loop
vertex -8.68404028665136 -9.879385241571862 0
vertex -15 -9.969615506024457 0
vertex -15 -9.879385241571883 0
endloop
endfacet
facet normal 0 0 -1
outer loop
vertex 34.05 -9.879385241571883 0
vertex 34.05 -9.969615506024457 0
vertex 27.39729635533386 -9.969615506024358 0
endloop
endfacet
facet normal 0 0 -1
outer loop
vertex 34.05 -9.879385241571883 0
vertex 27.39729635533386 -9.969615506024358 0
vertex 27.734040286651336 -9.879385241571784 0
endloop
endfacet
facet normal 0 0 -1
outer loop
vertex -8.347296355333876 -9.969615506024471 0
vertex -8.000000000000005 -10.000000000000046 0
vertex -15 -10 0
endloop
endfacet
facet normal 0 0 -1
outer loop
vertex -8.347296355333876 -9.969615506024471 0
vertex -15 -10 0
vertex -15 -9.969615506024457 0
endloop
endfacet
facet normal 0 0 -1
outer loop
vertex 34.05 -9.969615506024457 0
vertex 34.05 -10 0
vertex 27.05 -10 0
endloop
endfacet
facet normal 0 0 -1
outer loop
vertex 34.05 -9.969615506024457 0
vertex 27.05 -10 0
vertex 27.39729635533386 -9.969615506024358 0
endloop
endfacet
facet normal 0 0 -1
outer loop
vertex -8.000000000000005 -10.000000000000046 0
vertex 27.05 -10 0
vertex 34.05 -10 0
endloop
endfacet
facet normal 0 0 -1
outer loop
vertex -8.000000000000005 -10.000000000000046 0
vertex 34.05 -10 0
vertex 34.05000000000003 -12.000000000000004 0
endloop
endfacet
facet normal 0 0 -1
outer loop
vertex -8.000000000000005 -10.000000000000046 0
vertex 34.05000000000003 -12.000000000000004 0
vertex 34.004423259036784 -12.520944533000833 0
endloop
endfacet
facet normal 0 0 -1
outer loop
vertex -8.000000000000005 -10.000000000000046 0
vertex 34.004423259036784 -12.520944533000833 0
vertex 33.86907786235783 -13.026060429977056 0
endloop
endfacet
facet normal 0 0 -1
outer loop
vertex -8.000000000000005 -10.000000000000046 0
vertex 33.86907786235783 -13.026060429977056 0
vertex 33.64807621135334 -13.500000000000021 0
endloop
endfacet
facet normal 0 0 -1
outer loop
vertex -8.000000000000005 -10.000000000000046 0
vertex 33.64807621135334 -13.500000000000021 0
vertex 33.34813332935686 -13.92836282905954 0
endloop
endfacet
facet normal 0 0 -1
outer loop
vertex -8.000000000000005 -10.000000000000046 0
vertex 33.34813332935686 -13.92836282905954 0
vertex 32.97836282905962 -14.298133329356954 0
endloop
endfacet
facet normal 0 0 -1
outer loop
vertex -8.000000000000005 -10.000000000000046 0
vertex 32.97836282905962 -14.298133329356954 0
vertex 32.55000000000001 -14.598076211353336 0
endloop
endfacet
facet normal 0 0 -1
outer loop
vertex -8.000000000000005 -10.000000000000046 0
vertex 32.55000000000001 -14.598076211353336 0
vertex 32.07606042997702 -14.819077862357748 0
endloop
endfacet
facet normal 0 0 -1
outer loop
vertex -8.000000000000005 -10.000000000000046 0
vertex 32.07606042997702 -14.819077862357748 0
vertex 31.57094453300079 -14.954423259036629 0
endloop
endfacet
facet normal 0 0 -1
outer loop
vertex -8.000000000000005 -10.000000000000046 0
vertex 31.57094453300079 -14.954423259036629 0
vertex 31.05 -15 0
endloop
endfacet
facet normal 0 0 -1
outer loop
vertex -8.000000000000005 -10.000000000000046 0
vertex 31.05 -15 0
vertex -12.000000000000004 -15.000000000000027 0
endloop
endfacet
facet normal 0 0 -1
outer loop
vertex -8.000000000000005 -10.000000000000046 0
vertex -12.000000000000004 -15.000000000000027 0
vertex -12.520944533000808 -14.954423259036679 0
endloop
endfacet
facet normal 0 0 -1
outer loop
vertex -8.000000000000005 -10.000000000000046 0
vertex -12.520944533000808 -14.954423259036679 0
vertex -13.026060429977015 -14.819077862357732 0
endloop
endfacet
facet normal 0 0 -1
outer loop
vertex -8.000000000000005 -10.000000000000046 0
vertex -13.026060429977015 -14.819077862357732 0
vertex -13.499999999999995 -14.59807621135331 0
endloop
endfacet
facet normal 0 0 -1
outer loop
vertex -8.000000000000005 -10.000000000000046 0
vertex -13.499999999999995 -14.59807621135331 0
vertex -13.928362829059633 -14.298133329356947 0
endloop
endfacet
facet normal 0 0 -1
outer loop
vertex -8.000000000000005 -10.000000000000046 0
vertex -13.928362829059633 -14.298133329356947 0
vertex -14.298133329356936 -13.928362829059616 0
endloop
endfacet
facet normal 0 0 -1
outer loop
vertex -8.000000000000005 -10.000000000000046 0
vertex -14.298133329356936 -13.928362829059616 0
vertex -14.59807621135335 -13.500000000000018 0
endloop
endfacet
facet normal 0 0 -1
outer loop
vertex -8.000000000000005 -10.000000000000046 0
vertex -14.59807621135335 -13.500000000000018 0
vertex -14.819077862357787 -13.026060429977026 0
endloop
endfacet
facet normal 0 0 -1
outer loop
vertex -8.000000000000005 -10.000000000000046 0
vertex -14.819077862357787 -13.026060429977026 0
vertex -14.954423259036615 -12.52094453300079 0
endloop
endfacet
facet normal 0 0 -1
outer loop
vertex -8.000000000000005 -10.000000000000046 0
vertex -14.954423259036615 -12.52094453300079 0
vertex -15 -12 0
endloop
endfacet
facet normal 0 0 -1
outer loop
vertex -8.000000000000005 -10.000000000000046 0
vertex -15 -12 0
vertex -15 -10 0
endloop
endfacet
facet normal -5.0630119718596385e-15 1.8895417918312682e-14 1
outer loop
vertex 31.05 -15 5.6
vertex 31.57094453300079 -14.954423259036629 5.600000000000001
vertex 32.07606042997702 -14.819077862357748 5.600000000000001
endloop
endfacet
facet normal -5.0630119718596385e-15 1.8895417918312682e-14 1
outer loop
vertex 31.05 -15 5.6
vertex 32.07606042997702 -14.819077862357748 5.600000000000001
vertex 32.55000000000001 -14.598076211353336 5.600000000000001
endloop
endfacet
facet normal -5.0630119718596385e-15 1.8895417918312682e-14 1
outer loop
vertex 31.05 -15 5.6
vertex 32.55000000000001 -14.598076211353336 5.600000000000001
vertex 32.97836282905962 -14.298133329356954 5.6
endloop
endfacet
facet normal -5.0630119718596385e-15 1.8895417918312682e-14 1
outer loop
vertex 31.05 -15 5.6
vertex 32.97836282905962 -14.298133329356954 5.6
vertex 33.34813332935686 -13.92836282905954 5.6
endloop
endfacet
facet normal -5.0630119718596385e-15 1.8895417918312682e-14 1
outer loop
vertex 31.05 -15 5.6
vertex 33.34813332935686 -13.92836282905954 5.6
vertex 33.64807621135334 -13.500000000000021 5.600000000000001
endloop
endfacet
facet normal -5.0630119718596385e-15 1.8895417918312682e-14 1
outer loop
vertex 31.05 -15 5.6
vertex 33.64807621135334 -13.500000000000021 5.600000000000001
vertex 33.86907786235783 -13.026060429977056 5.6
endloop
endfacet
facet normal -5.0630119718596385e-15 1.8895417918312682e-14 1
outer loop
vertex 31.05 -15 5.6
vertex 33.86907786235783 -13.026060429977056 5.6
vertex 34.004423259036784 -12.520944533000833 5.6
endloop
endfacet
facet normal -5.0630119718596385e-15 1.8895417918312682e-14 1
outer loop
vertex 31.05 -15 5.6
vertex 34.004423259036784 -12.520944533000833 5.6
vertex 34.05000000000003 -12.000000000000004 5.600000000000001
endloop
endfacet
facet normal -5.0630119718596385e-15 1.8895417918312682e-14 1
outer loop
vertex 31.05 -15 5.6
vertex 34.05000000000003 -12.000000000000004 5.600000000000001
vertex 34.05 -10 5.6
endloop
endfacet
facet normal -5.0630119718596385e-15 1.8895417918312682e-14 1
outer loop
vertex 31.05 -15 5.6
vertex 34.05 -10 5.6
vertex 27.05 -10 5.6
endloop
endfacet
facet normal -5.0630119718596385e-15 1.8895417918312682e-14 1
outer loop
vertex 31.05 -15 5.6
vertex 27.05 -10 5.6
vertex -8.000000000000005 -10.000000000000046 5.600000000000001
endloop
endfacet
facet normal -5.0630119718596385e-15 1.8895417918312682e-14 1
outer loop
vertex 31.05 -15 5.6
vertex -8.000000000000005 -10.000000000000046 5.600000000000001
vertex -15 -10 5.6
endloop
endfacet
facet normal -5.0630119718596385e-15 1.8895417918312682e-14 1
outer loop
vertex 31.05 -15 5.6
vertex -15 -10 5.6
vertex -15 -12 5.6
endloop
endfacet
facet normal -5.0630119718596385e-15 1.8895417918312682e-14 1
outer loop
vertex 31.05 -15 5.6
vertex -15 -12 5.6
vertex -14.954423259036615 -12.52094453300079 5.6
endloop
endfacet
facet normal -5.0630119718596385e-15 1.8895417918312682e-14 1
outer loop
vertex 31.05 -15 5.6
vertex -14.954423259036615 -12.52094453300079 5.6
vertex -14.819077862357787 -13.026060429977026 5.600000000000001
endloop
endfacet
facet normal -5.0630119718596385e-15 1.8895417918312682e-14 1
outer loop
vertex 31.05 -15 5.6
vertex -14.819077862357787 -13.026060429977026 5.600000000000001
vertex -14.59807621135335 -13.500000000000018 5.600000000000001
endloop
endfacet
facet normal -5.0630119718596385e-15 1.8895417918312682e-14 1
outer loop
vertex 31.05 -15 5.6
vertex -14.59807621135335 -13.500000000000018 5.600000000000001
vertex -14.298133329356936 -13.928362829059616 5.6
endloop
endfacet
facet normal -5.0630119718596385e-15 1.8895417918312682e-14 1
outer loop
vertex 31.05 -15 5.6
vertex -14.298133329356936 -13.928362829059616 5.6
vertex -13.928362829059633 -14.298133329356947 5.6
endloop
endfacet
facet normal -5.0630119718596385e-15 1.8895417918312682e-14 1
outer loop
vertex 31.05 -15 5.6
vertex -13.928362829059633 -14.298133329356947 5.6
vertex -13.499999999999995 -14.59807621135331 5.6
endloop
endfacet
facet normal -5.0630119718596385e-15 1.8895417918312682e-14 1
outer loop
vertex 31.05 -15 5.6
vertex -13.499999999999995 -14.59807621135331 5.6
vertex -13.026060429977015 -14.819077862357732 5.600000000000001
endloop
endfacet
facet normal -5.0630119718596385e-15 1.8895417918312682e-14 1
outer loop
vertex 31.05 -15 5.6
vertex -13.026060429977015 -14.819077862357732 5.600000000000001
vertex -12.520944533000808 -14.954423259036679 5.600000000000001
endloop
endfacet
facet normal -5.0630119718596385e-15 1.8895417918312682e-14 1
outer loop
vertex 31.05 -15 5.6
vertex -12.520944533000808 -14.954423259036679 5.600000000000001
vertex -12.000000000000004 -15.000000000000027 5.600000000000001
endloop
endfacet
facet normal 0 0 1
outer loop
vertex -8.000000000000005 -10.000000000000046 5.600000000000001
vertex -8.347296355333876 -9.969615506024471 5.600000000000001
vertex -15 -9.969615506024454 5.6
endloop
endfacet
facet normal 0 0 1
outer loop
vertex -8.000000000000005 -10.000000000000046 5.600000000000001
vertex -15 -9.969615506024454 5.6
vertex -15 -10 5.6
endloop
endfacet
facet normal 0 0 1
outer loop
vertex 34.05 -10 5.6
vertex 34.05 -9.969615506024454 5.6
vertex 27.39729635533386 -9.969615506024358 5.600000000000001
endloop
endfacet
facet normal 0 0 1
outer loop
vertex 34.05 -10 5.6
vertex 27.39729635533386 -9.969615506024358 5.600000000000001
vertex 27.05 -10 5.6
endloop
endfacet
facet normal 0 0 1
outer loop
vertex -8.347296355333876 -9.969615506024471 5.600000000000001
vertex -8.68404028665136 -9.879385241571862 5.600000000000001
vertex -15 -9.87938524157189 5.6
endloop
endfacet
facet normal 0 0 1
outer loop
vertex -8.347296355333876 -9.969615506024471 5.600000000000001
vertex -15 -9.87938524157189 5.6
vertex -15 -9.969615506024454 5.6
endloop
endfacet
facet normal 0 0 1
outer loop
vertex 34.05 -9.969615506024454 5.6
vertex 34.05 -9.87938524157189 5.6
vertex 27.734040286651336 -9.879385241571784 5.6
endloop
endfacet
facet normal 0 0 1
outer loop
vertex 34.05 -9.969615506024454 5.6
vertex 27.734040286651336 -9.879385241571784 5.6
vertex 27.39729635533386 -9.969615506024358 5.600000000000001
endloop
endfacet
facet normal 0 0 1
outer loop
vertex -8.68404028665136 -9.879385241571862 5.600000000000001
vertex -9.000000000000009 -9.732050807568893 5.600000000000001
vertex -15 -9.732050807569003 5.6
endloop
endfacet
facet normal 0 0 1
outer loop
vertex -8.68404028665136 -9.879385241571862 5.600000000000001
vertex -15 -9.732050807569003 5.6
vertex -15 -9.87938524157189 5.6
endloop
endfacet
facet normal 0 0 1
outer loop
vertex 34.05 -9.87938524157189 5.6
vertex 34.05 -9.732050807569003 5.6
vertex 28.05000000000001 -9.732050807568882 5.600000000000001
endloop
endfacet
facet normal 0 0 1
outer loop
vertex 34.05 -9.87938524157189 5.6
vertex 28.05000000000001 -9.732050807568882 5.600000000000001
vertex 27.734040286651336 -9.879385241571784 5.6
endloop
endfacet
facet normal 0 0 1
outer loop
vertex -9.000000000000009 -9.732050807568893 5.600000000000001
vertex -9.285575219373115 -9.53208888623799 5.600000000000001
vertex -15 -9.532088886237851 5.6
endloop
endfacet
facet normal 0 0 1
outer loop
vertex -9.000000000000009 -9.732050807568893 5.600000000000001
vertex -15 -9.532088886237851 5.6
vertex -15 -9.732050807569003 5.6
endloop
endfacet
facet normal 0 0 1
outer loop
vertex 34.05 -9.732050807569003 5.6
vertex 34.05 -9.532088886237851 5.6
vertex 28.33557521937312 -9.532088886238 5.6
endloop
endfacet
facet normal 0 0 1
outer loop
vertex 34.05 -9.732050807569003 5.6
vertex 28.33557521937312 -9.532088886238 5.6
vertex 28.05000000000001 -9.732050807568882 5.600000000000001
endloop
endfacet
facet normal 0 0 1
outer loop
vertex -9.285575219373115 -9.53208888623799 5.600000000000001
vertex -9.532088886237958 -9.285575219373081 5.6
vertex -15 -9.285575219373289 5.6
endloop
endfacet
facet normal 0 0 1
outer loop
vertex -9.285575219373115 -9.53208888623799 5.600000000000001
vertex -15 -9.285575219373289 5.6
vertex -15 -9.532088886237851 5.6
endloop
endfacet
facet normal 0 0 1
outer loop
vertex 34.05 -9.532088886237851 5.6
vertex 34.05 -9.285575219373289 5.6
vertex 28.582088886237976 -9.285575219373097 5.6
endloop
endfacet
facet normal 0 0 1
outer loop
vertex 34.05 -9.532088886237851 5.6
vertex 28.582088886237976 -9.285575219373097 5.6
vertex 28.33557521937312 -9.532088886238 5.6
endloop
endfacet
facet normal 0 0 1
outer loop
vertex -9.532088886237958 -9.285575219373081 5.6
vertex -9.732050807568905 -9.000000000000012 5.600000000000001
vertex -15 -8.999999999999869 5.6
endloop
endfacet
facet normal 0 0 1
outer loop
vertex -9.532088886237958 -9.285575219373081 5.6
vertex -15 -8.999999999999869 5.6
vertex -15 -9.285575219373289 5.6
endloop
endfacet
facet normal 0 0 1
outer loop
vertex 34.05 -9.285575219373289 5.6
vertex 34.05 -8.999999999999869 5.6
vertex 28.782050807568908 -9.00000000000002 5.6
endloop
endfacet
facet normal 0 0 1
outer loop
vertex 34.05 -9.285575219373289 5.6
vertex 28.782050807568908 -9.00000000000002 5.6
vertex 28.582088886237976 -9.285575219373097 5.6
endloop
endfacet
facet normal 0 0 1
outer loop
vertex -9.732050807568905 -9.000000000000012 5.600000000000001
vertex -9.879385241571843 -8.684040286651342 5.6
vertex -15 -8.68404028665138 5.6
endloop
endfacet
facet normal 0 0 1
outer loop
vertex -9.732050807568905 -9.000000000000012 5.600000000000001
vertex -15 -8.68404028665138 5.6
vertex -15 -8.999999999999869 5.6
endloop
endfacet
facet normal 0 0 1
outer loop
vertex 34.05 -8.999999999999869 5.6
vertex 34.05 -8.68404028665138 5.6
vertex 28.929385241571815 -8.684040286651333 5.600000000000001
endloop
endfacet
facet normal 0 0 1
outer loop
vertex 34.05 -8.999999999999869 5.6
vertex 28.929385241571815 -8.684040286651333 5.600000000000001
vertex 28.782050807568908 -9.00000000000002 5.6
endloop
endfacet
facet normal 0 0 1
outer loop
vertex -9.879385241571843 -8.684040286651342 5.6
vertex -9.969615506024471 -8.347296355333865 5.6
vertex -15 -8.34729635533369 5.6
endloop
endfacet
facet normal 0 0 1
outer loop
vertex -9.879385241571843 -8.684040286651342 5.6
vertex -15 -8.34729635533369 5.6
vertex -15 -8.68404028665138 5.6
endloop
endfacet
facet normal 0 0 1
outer loop
vertex 34.05 -8.68404028665138 5.6
vertex 34.05 -8.34729635533369 5.6
vertex 29.01961550602449 -8.347296355333878 5.6
endloop
endfacet
facet normal 0 0 1
outer loop
vertex 34.05 -8.68404028665138 5.6
vertex 29.01961550602449 -8.347296355333878 5.6
vertex 28.929385241571815 -8.684040286651333 5.600000000000001
endloop
endfacet
facet normal 0 0 1
outer loop
vertex -9.969615506024471 -8.347296355333865 5.6
vertex -10 -8 5.6
vertex -15 -8.000000000000576 5.6
endloop
endfacet
facet normal 0 0 1
outer loop
vertex -9.969615506024471 -8.347296355333865 5.6
vertex -15 -8.000000000000576 5.6
vertex -15 -8.34729635533369 5.6
endloop
endfacet
facet normal 0 0 1
outer loop
vertex 34.05 -8.34729635533369 5.6
vertex 34.05 -8.000000000000576 5.6
vertex 29.050000000000058 -8.000000000000005 5.600000000000001
endloop
endfacet
facet normal 0 0 1
outer loop
vertex 34.05 -8.34729635533369 5.6
vertex 29.050000000000058 -8.000000000000005 5.600000000000001
vertex 29.01961550602449 -8.347296355333878 5.6
endloop
endfacet
facet normal 0 0 1
outer loop
vertex -10 -8 5.6
vertex -10 27.05 5.6
vertex -15 27.050000000000807 5.6
endloop
endfacet
facet normal 0 0 1
outer loop
vertex -10 -8 5.6
vertex -15 27.050000000000807 5.6
vertex -15 -8.000000000000576 5.6
endloop
endfacet
facet normal 0 0 1
outer loop
vertex 34.05 -8.000000000000576 5.6
vertex 34.05 27.050000000000807 5.6
vertex 29.05 27.05 5.6
endloop
endfacet
facet normal 0 0 1
outer loop
vertex 34.05 -8.000000000000576 5.6
vertex 29.05 27.05 5.6
vertex 29.050000000000058 -8.000000000000005 5.600000000000001
endloop
endfacet
facet normal 0 0 1
outer loop
vertex -10 27.05 5.6
vertex -9.969615506024507 27.397296355333886 5.600000000000001
vertex -15 27.397296355333452 5.6
endloop
endfacet
facet normal 0 0 1
outer loop
vertex -10 27.05 5.6
vertex -15 27.397296355333452 5.6
vertex -15 27.050000000000807 5.6
endloop
endfacet
facet normal 0 0 1
outer loop
vertex 34.05 27.050000000000807 5.6
vertex 34.05 27.397296355333452 5.6
vertex 29.01961550602449 27.397296355333875 5.600000000000001
endloop
endfacet
facet normal 0 0 1
outer loop
vertex 34.05 27.050000000000807 5.6
vertex 29.01961550602449 27.397296355333875 5.600000000000001
vertex 29.05 27.05 5.6
endloop
endfacet
facet normal 0 0 1
outer loop
vertex -9.969615506024507 27.397296355333886 5.600000000000001
vertex -9.879385241571827 27.734040286651346 5.600000000000001
vertex -15 27.734040286651883 5.6
endloop
endfacet
facet normal 0 0 1
outer loop
vertex -9.969615506024507 27.397296355333886 5.600000000000001
vertex -15 27.734040286651883 5.6
vertex -15 27.397296355333452 5.6
endloop
endfacet
facet normal 0 0 1
outer loop
vertex 34.05 27.397296355333452 5.6
vertex 34.05 27.734040286651883 5.6
vertex 28.929385241571815 27.734040286651336 5.6
endloop
endfacet
facet normal 0 0 1
outer loop
vertex 34.05 27.397296355333452 5.6
vertex 28.929385241571815 27.734040286651336 5.6
vertex 29.01961550602449 27.397296355333875 5.600000000000001
endloop
endfacet
facet normal 0 0 1
outer loop
vertex -9.879385241571827 27.734040286651346 5.600000000000001
vertex -9.732050807568944 28.050000000000047 5.6
vertex -15 28.049999999999528 5.6
endloop
endfacet
facet normal 0 0 1
outer loop
vertex -9.879385241571827 27.734040286651346 5.600000000000001
vertex -15 28.049999999999528 5.6
vertex -15 27.734040286651883 5.6
endloop
endfacet
facet normal 0 0 1
outer loop
vertex 34.05 27.734040286651883 5.6
vertex 34.05 28.049999999999528 5.6
vertex 28.782050807568968 28.05000000000004 5.6
endloop
endfacet
facet normal 0 0 1
outer loop
vertex 34.05 27.734040286651883 5.6
vertex 28.782050807568968 28.05000000000004 5.6
vertex 28.929385241571815 27.734040286651336 5.6
endloop
endfacet
facet normal 0 0 1
outer loop
vertex -9.732050807568944 28.050000000000047 5.6
vertex -9.53208888623798 28.335575219373105 5.6
vertex -15 28.335575219372817 5.6
endloop
endfacet
facet normal 0 0 1
outer loop
vertex -9.732050807568944 28.050000000000047 5.6
vertex -15 28.335575219372817 5.6
vertex -15 28.049999999999528 5.6
endloop
endfacet
facet normal 0 0 1
outer loop
vertex 34.05 28.049999999999528 5.6
vertex 34.05 28.335575219372817 5.6
vertex 28.582088886237955 28.335575219373077 5.6
endloop
endfacet
facet normal 0 0 1
outer loop
vertex 34.05 28.049999999999528 5.6
vertex 28.582088886237955 28.335575219373077 5.6
vertex 28.782050807568968 28.05000000000004 5.6
endloop
endfacet
facet normal 0 0 1
outer loop
vertex -9.53208888623798 28.335575219373105 5.6
vertex -9.285575219373102 28.582088886237994 5.6
vertex -15 28.582088886238388 5.6
endloop
endfacet
facet normal 0 0 1
outer loop
vertex -9.53208888623798 28.335575219373105 5.6
vertex -15 28.582088886238388 5.6
vertex -15 28.335575219372817 5.6
endloop
endfacet
facet normal 0 0 1
outer loop
vertex 34.05 28.335575219372817 5.6
vertex 34.05 28.582088886238388 5.6
vertex 28.335575219373034 28.582088886237912 5.6
endloop
endfacet
facet normal 0 0 1
outer loop
vertex 34.05 28.335575219372817 5.6
vertex 28.335575219373034 28.582088886237912 5.6
vertex 28.582088886237955 28.335575219373077 5.6
endloop
endfacet
facet normal 0 0 1
outer loop
vertex -9.285575219373102 28.582088886237994 5.6
vertex -9.000000000000034 28.782050807568954 5.6
vertex -15 28.78205080756914 5.6
endloop
endfacet
facet normal 0 0 1
outer loop
vertex -9.285575219373102 28.582088886237994 5.6
vertex -15 28.78205080756914 5.6
vertex -15 28.582088886238388 5.6
endloop
endfacet
facet normal 0 0 1
outer loop
vertex 34.05 28.582088886238388 5.6
vertex 34.05 28.78205080756914 5.6
vertex 28.05000000000004 28.782050807568933 5.6
endloop
endfacet
facet normal 0 0 1
outer loop
vertex 34.05 28.582088886238388 5.6
vertex 28.05000000000004 28.782050807568933 5.6
vertex 28.335575219373034 28.582088886237912 5.6
endloop
endfacet
facet normal 0 0 1
outer loop
vertex -9.000000000000034 28.782050807568954 5.6
vertex -8.684040286651346 28.929385241571843 5.6
vertex -15 28.92938524157179 5.6
endloop
endfacet
facet normal 0 0 1
outer loop
vertex -9.000000000000034 28.782050807568954 5.6
vertex -15 28.92938524157179 5.6
vertex -15 28.78205080756914 5.6
endloop
endfacet
facet normal 0 0 1
outer loop
vertex 34.05 28.78205080756914 5.6
vertex 34.05 28.92938524157179 5.6
vertex 27.734040286651386 28.929385241571932 5.6
endloop
endfacet
facet normal 0 0 1
outer loop
vertex 34.05 28.78205080756914 5.6
vertex 27.734040286651386 28.929385241571932 5.6
vertex 28.05000000000004 28.782050807568933 5.6
endloop
endfacet
facet normal 0 0 1
outer loop
vertex -8.684040286651346 28.929385241571843 5.6
vertex -8.347296355333867 29.019615506024483 5.600000000000001
vertex -15 29.019615506024515 5.6
endloop
endfacet
facet normal 0 0 1
outer loop
vertex -8.684040286651346 28.929385241571843 5.6
vertex -15 29.019615506024515 5.6
vertex -15 28.92938524157179 5.6
endloop
endfacet
facet normal 0 0 1
outer loop
vertex 34.05 28.92938524157179 5.6
vertex 34.05 29.019615506024515 5.6
vertex 27.397296355333875 29.019615506024472 5.6
endloop
endfacet
facet normal 0 0 1
outer loop
vertex 34.05 28.92938524157179 5.6
vertex 27.397296355333875 29.019615506024472 5.6
vertex 27.734040286651386 28.929385241571932 5.6
endloop
endfacet
facet normal 0 0 1
outer loop
vertex -8.347296355333867 29.019615506024483 5.600000000000001
vertex -8 29.05 5.6
vertex -15 29.05 5.6
endloop
endfacet
facet normal 0 0 1
outer loop
vertex -8.347296355333867 29.019615506024483 5.600000000000001
vertex -15 29.05 5.6
vertex -15 29.019615506024515 5.6
endloop
endfacet
facet normal 0 0 1
outer loop
vertex 34.05 29.019615506024515 5.6
vertex 34.05 29.05 5.6
vertex 27.050000000000015 29.050000000000093 5.600000000000001
endloop
endfacet
facet normal 0 0 1
outer loop
vertex 34.05 29.019615506024515 5.6
vertex 27.050000000000015 29.050000000000093 5.600000000000001
vertex 27.397296355333875 29.019615506024472 5.6
endloop
endfacet
facet normal 0 0.019227214231343204 -0.9998151400298467
outer loop
vertex -8 29.05 5.6
vertex 27.050000000000015 29.050000000000093 5.600000000000001
vertex 34.05 29.05 5.6
endloop
endfacet
facet normal 0 0.019227214231343204 -0.9998151400298467
outer loop
vertex -8 29.05 5.6
vertex 34.05 29.05 5.6
vertex 34.05 31.05 5.6
endloop
endfacet
facet normal 0 0.019227214231343204 -0.9998151400298467
outer loop
vertex -8 29.05 5.6
vertex 34.05 31.05 5.6
vertex 34.004423259036464 31.57094453300078 5.6
endloop
endfacet
facet normal 0 0.019227214231343204 -0.9998151400298467
outer loop
vertex -8 29.05 5.6
vertex 34.004423259036464 31.57094453300078 5.6
vertex 33.869077862357905 32.076060429977055 5.6
endloop
endfacet
facet normal 0 0.019227214231343204 -0.9998151400298467
outer loop
vertex -8 29.05 5.6
vertex 33.869077862357905 32.076060429977055 5.6
vertex 33.64807621135345 32.550000000000054 5.6
endloop
endfacet
facet normal 0 0.019227214231343204 -0.9998151400298467
outer loop
vertex -8 29.05 5.6
vertex 33.64807621135345 32.550000000000054 5.6
vertex 33.34813332935693 32.97836282905961 5.6
endloop
endfacet
facet normal 0 0.019227214231343204 -0.9998151400298467
outer loop
vertex -8 29.05 5.6
vertex 33.34813332935693 32.97836282905961 5.6
vertex 32.97836282905955 33.34813332935687 5.6
endloop
endfacet
facet normal 0 0.019227214231343204 -0.9998151400298467
outer loop
vertex -8 29.05 5.6
vertex 32.97836282905955 33.34813332935687 5.6
vertex 32.55 33.64807621135331 5.6
endloop
endfacet
facet normal 0 0.019227214231343204 -0.9998151400298467
outer loop
vertex -8 29.05 5.6
vertex 32.55 33.64807621135331 5.6
vertex 32.07606042997706 33.869077862357855 5.6
endloop
endfacet
facet normal 0 0.019227214231343204 -0.9998151400298467
outer loop
vertex -8 29.05 5.6
vertex 32.07606042997706 33.869077862357855 5.6
vertex 31.57094453300078 34.0044232590366 5.600000000000001
endloop
endfacet
facet normal 0 0.019227214231343204 -0.9998151400298467
outer loop
vertex -8 29.05 5.6
vertex 31.57094453300078 34.0044232590366 5.600000000000001
vertex 31.050000000000004 34.050000000000004 5.600000000000001
endloop
endfacet
facet normal 0 0.019227214231343204 -0.9998151400298467
outer loop
vertex -8 29.05 5.6
vertex 31.050000000000004 34.050000000000004 5.600000000000001
vertex -12 34.05 5.6
endloop
endfacet
facet normal 0 0.019227214231343204 -0.9998151400298467
outer loop
vertex -8 29.05 5.6
vertex -12 34.05 5.6
vertex -12.520944533000796 34.00442325903666 5.600000000000001
endloop
endfacet
facet normal 0 0.019227214231343204 -0.9998151400298467
outer loop
vertex -8 29.05 5.6
vertex -12.520944533000796 34.00442325903666 5.600000000000001
vertex -13.026060429976999 33.86907786235768 5.600000000000001
endloop
endfacet
facet normal 0 0.019227214231343204 -0.9998151400298467
outer loop
vertex -8 29.05 5.6
vertex -13.026060429976999 33.86907786235768 5.600000000000001
vertex -13.500000000000052 33.64807621135342 5.6
endloop
endfacet
facet normal 0 0.019227214231343204 -0.9998151400298467
outer loop
vertex -8 29.05 5.6
vertex -13.500000000000052 33.64807621135342 5.6
vertex -13.928362829059662 33.348133329357 5.6
endloop
endfacet
facet normal 0 0.019227214231343204 -0.9998151400298467
outer loop
vertex -8 29.05 5.6
vertex -13.928362829059662 33.348133329357 5.6
vertex -14.298133329356949 32.978362829059634 5.6
endloop
endfacet
facet normal 0 0.019227214231343204 -0.9998151400298467
outer loop
vertex -8 29.05 5.6
vertex -14.298133329356949 32.978362829059634 5.6
vertex -14.598076211353366 32.550000000000026 5.6
endloop
endfacet
facet normal 0 0.019227214231343204 -0.9998151400298467
outer loop
vertex -8 29.05 5.6
vertex -14.598076211353366 32.550000000000026 5.6
vertex -14.819077862357894 32.076060429977076 5.6
endloop
endfacet
facet normal 0 0.019227214231343204 -0.9998151400298467
outer loop
vertex -8 29.05 5.6
vertex -14.819077862357894 32.076060429977076 5.6
vertex -14.954423259036648 31.570944533000798 5.600000000000001
endloop
endfacet
facet normal 0 0.019227214231343204 -0.9998151400298467
outer loop
vertex -8 29.05 5.6
vertex -14.954423259036648 31.570944533000798 5.600000000000001
vertex -15 31.049999999999997 5.6
endloop
endfacet
facet normal 0 0.019227214231343204 -0.9998151400298467
outer loop
vertex -8 29.05 5.6
vertex -15 31.049999999999997 5.6
vertex -15 29.05 5.6
endloop
endfacet
endsolid csg.js
