0
SECTION
2
HEADER
9
$INSUNITS
70
4
0
ENDSEC
0
SECTION
2
TABLES
0
TABLE
2
LTYPE
0
LTYPE
72
65
70
64
2
CONTINUOUS
3
______
73
0
40
0
0
ENDTAB
0
TABLE
2
LAYER
0
ENDTAB
0
ENDSEC
0
SECTION
2
ENTITIES
0
LINE
8
0
10
125.3
20
19.625
11
125.3
21
132.775
0
ARC
8
0
10
123.3
20
132.775
40
2
50
0
51
90
0
LINE
8
0
10
95.3
20
134.775
11
123.3
21
134.775
0
ARC
8
0
10
95.3
20
132.775
40
2
50
90
51
180
0
LINE
8
0
10
93.3
20
19.625
11
93.3
21
132.775
0
ARC
8
0
10
95.3
20
19.625
40
2
50
180
51
270
0
LINE
8
0
10
95.3
20
17.625
11
123.3
21
17.625
0
ARC
8
0
10
123.3
20
19.625
40
2
50
270
51
0
0
LINE
8
0
10
136.4
20
105.3
11
168.4
21
105.3
0
ARC
8
0
10
168.4
20
107.3
40
2
50
270
51
360
0
LINE
8
0
10
170.4
20
107.3
11
170.4
21
123.3
0
ARC
8
0
10
168.4
20
123.3
40
2
50
0
51
90
0
LINE
8
0
10
168.4
20
125.3
11
136.4
21
125.3
0
ARC
8
0
10
136.4
20
123.3
40
2
50
90
51
180
0
LINE
8
0
10
134.4
20
123.3
11
134.4
21
107.3
0
ARC
8
0
10
136.4
20
107.3
40
2
50
180
51
270
0
LINE
8
0
10
138.9
20
27.48
11
165.9
21
27.48
0
ARC
8
0
10
165.9
20
29.48
40
2
50
270
51
360
0
LINE
8
0
10
167.9
20
29.48
11
167.9
21
47.48
0
ARC
8
0
10
165.9
20
47.48
40
2
50
0
51
90
0
LINE
8
0
10
165.9
20
49.48
11
138.9
21
49.48
0
ARC
8
0
10
138.9
20
47.48
40
2
50
90
51
180
0
LINE
8
0
10
136.9
20
47.48
11
136.9
21
29.48
0
ARC
8
0
10
138.9
20
29.48
40
2
50
180
51
270
0
LINE
8
0
10
157.6875
20
81.25
11
175.6875
21
81.25
0
ARC
8
0
10
175.6875
20
83.25
40
2
50
270
51
360
0
LINE
8
0
10
177.6875
20
83.25
11
177.6875
21
101.25
0
ARC
8
0
10
175.6875
20
101.25
40
2
50
0
51
90
0
LINE
8
0
10
175.6875
20
103.25
11
157.6875
21
103.25
0
ARC
8
0
10
157.6875
20
101.25
40
2
50
90
51
180
0
LINE
8
0
10
155.6875
20
101.25
11
155.6875
21
83.25
0
ARC
8
0
10
157.6875
20
83.25
40
2
50
180
51
270
0
LINE
8
0
10
129.1125
20
81.25
11
147.1125
21
81.25
0
ARC
8
0
10
147.1125
20
83.25
40
2
50
270
51
360
0
LINE
8
0
10
149.1125
20
83.25
11
149.1125
21
101.25
0
ARC
8
0
10
147.1125
20
101.25
40
2
50
0
51
90
0
LINE
8
0
10
147.1125
20
103.25
11
129.1125
21
103.25
0
ARC
8
0
10
129.1125
20
101.25
40
2
50
90
51
180
0
LINE
8
0
10
127.1125
20
101.25
11
127.1125
21
83.25
0
ARC
8
0
10
129.1125
20
83.25
40
2
50
180
51
270
0
LINE
8
0
10
143.4
20
54.15
11
161.4
21
54.15
0
ARC
8
0
10
161.4
20
56.15
40
2
50
270
51
360
0
LINE
8
0
10
163.4
20
56.15
11
163.4
21
74.15
0
ARC
8
0
10
161.4
20
74.15
40
2
50
0
51
90
0
LINE
8
0
10
161.4
20
76.15
11
143.4
21
76.15
0
ARC
8
0
10
143.4
20
74.15
40
2
50
90
51
180
0
LINE
8
0
10
141.4
20
74.15
11
141.4
21
56.15
0
ARC
8
0
10
143.4
20
56.15
40
2
50
180
51
270
0
ENDSEC
0
EOF