0
SECTION
2
HEADER
9
$INSUNITS
70
4
0
ENDSEC
0
SECTION
2
TABLES
0
TABLE
2
LTYPE
0
LTYPE
72
65
70
64
2
CONTINUOUS
3
______
73
0
40
0
0
ENDTAB
0
TABLE
2
LAYER
0
ENDTAB
0
ENDSEC
0
SECTION
2
ENTITIES
0
LINE
8
0
10
-9
20
9
11
9
21
9
0
LINE
8
0
10
9
20
9
11
9
21
-9
0
LINE
8
0
10
9
20
-9
11
-9
21
-9
0
LINE
8
0
10
-9
20
-9
11
-9
21
9
0
LINE
8
0
10
-9
20
28.05
11
9
21
28.05
0
LINE
8
0
10
9
20
28.05
11
9
21
10.05
0
LINE
8
0
10
9
20
10.05
11
-9
21
10.05
0
LINE
8
0
10
-9
20
10.05
11
-9
21
28.05
0
LINE
8
0
10
-9
20
47.1
11
9
21
47.1
0
LINE
8
0
10
9
20
47.1
11
9
21
29.1
0
LINE
8
0
10
9
20
29.1
11
-9
21
29.1
0
LINE
8
0
10
-9
20
29.1
11
-9
21
47.1
0
LINE
8
0
10
-9
20
66.15
11
9
21
66.15
0
LINE
8
0
10
9
20
66.15
11
9
21
48.15
0
LINE
8
0
10
9
20
48.15
11
-9
21
48.15
0
LINE
8
0
10
-9
20
48.15
11
-9
21
66.15
0
LINE
8
0
10
10.05
20
13.7625
11
28.05
21
13.7625
0
LINE
8
0
10
28.05
20
13.7625
11
28.05
21
-4.2375
0
LINE
8
0
10
28.05
20
-4.2375
11
10.05
21
-4.2375
0
LINE
8
0
10
10.05
20
-4.2375
11
10.05
21
13.7625
0
LINE
8
0
10
10.05
20
32.8125
11
28.05
21
32.8125
0
LINE
8
0
10
28.05
20
32.8125
11
28.05
21
14.8125
0
LINE
8
0
10
28.05
20
14.8125
11
10.05
21
14.8125
0
LINE
8
0
10
10.05
20
14.8125
11
10.05
21
32.8125
0
LINE
8
0
10
10.05
20
51.8625
11
28.05
21
51.8625
0
LINE
8
0
10
28.05
20
51.8625
11
28.05
21
33.8625
0
LINE
8
0
10
28.05
20
33.8625
11
10.05
21
33.8625
0
LINE
8
0
10
10.05
20
33.8625
11
10.05
21
51.8625
0
LINE
8
0
10
10.05
20
70.9125
11
28.05
21
70.9125
0
LINE
8
0
10
28.05
20
70.9125
11
28.05
21
52.9125
0
LINE
8
0
10
28.05
20
52.9125
11
10.05
21
52.9125
0
LINE
8
0
10
10.05
20
52.9125
11
10.05
21
70.9125
0
LINE
8
0
10
29.1
20
18.525
11
47.1
21
18.525
0
LINE
8
0
10
47.1
20
18.525
11
47.1
21
0.525
0
LINE
8
0
10
47.1
20
0.525
11
29.1
21
0.525
0
LINE
8
0
10
29.1
20
0.525
11
29.1
21
18.525
0
LINE
8
0
10
29.1
20
37.575
11
47.1
21
37.575
0
LINE
8
0
10
47.1
20
37.575
11
47.1
21
19.575
0
LINE
8
0
10
47.1
20
19.575
11
29.1
21
19.575
0
LINE
8
0
10
29.1
20
19.575
11
29.1
21
37.575
0
LINE
8
0
10
29.1
20
56.625
11
47.1
21
56.625
0
LINE
8
0
10
47.1
20
56.625
11
47.1
21
38.625
0
LINE
8
0
10
47.1
20
38.625
11
29.1
21
38.625
0
LINE
8
0
10
29.1
20
38.625
11
29.1
21
56.625
0
LINE
8
0
10
29.1
20
75.675
11
47.1
21
75.675
0
LINE
8
0
10
47.1
20
75.675
11
47.1
21
57.675
0
LINE
8
0
10
47.1
20
57.675
11
29.1
21
57.675
0
LINE
8
0
10
29.1
20
57.675
11
29.1
21
75.675
0
LINE
8
0
10
48.15
20
23.2875
11
66.15
21
23.2875
0
LINE
8
0
10
66.15
20
23.2875
11
66.15
21
5.2875
0
LINE
8
0
10
66.15
20
5.2875
11
48.15
21
5.2875
0
LINE
8
0
10
48.15
20
5.2875
11
48.15
21
23.2875
0
LINE
8
0
10
48.15
20
42.3375
11
66.15
21
42.3375
0
LINE
8
0
10
66.15
20
42.3375
11
66.15
21
24.3375
0
LINE
8
0
10
66.15
20
24.3375
11
48.15
21
24.3375
0
LINE
8
0
10
48.15
20
24.3375
11
48.15
21
42.3375
0
LINE
8
0
10
48.15
20
61.3875
11
66.15
21
61.3875
0
LINE
8
0
10
66.15
20
61.3875
11
66.15
21
43.3875
0
LINE
8
0
10
66.15
20
43.3875
11
48.15
21
43.3875
0
LINE
8
0
10
48.15
20
43.3875
11
48.15
21
61.3875
0
LINE
8
0
10
48.15
20
80.4375
11
66.15
21
80.4375
0
LINE
8
0
10
66.15
20
80.4375
11
66.15
21
62.4375
0
LINE
8
0
10
66.15
20
62.4375
11
48.15
21
62.4375
0
LINE
8
0
10
48.15
20
62.4375
11
48.15
21
80.4375
0
LINE
8
0
10
67.2
20
42.3375
11
85.2
21
42.3375
0
LINE
8
0
10
85.2
20
42.3375
11
85.2
21
24.3375
0
LINE
8
0
10
85.2
20
24.3375
11
67.2
21
24.3375
0
LINE
8
0
10
67.2
20
24.3375
11
67.2
21
42.3375
0
LINE
8
0
10
67.2
20
61.3875
11
85.2
21
61.3875
0
LINE
8
0
10
85.2
20
61.3875
11
85.2
21
43.3875
0
LINE
8
0
10
85.2
20
43.3875
11
67.2
21
43.3875
0
LINE
8
0
10
67.2
20
43.3875
11
67.2
21
61.3875
0
LINE
8
0
10
67.2
20
80.4375
11
85.2
21
80.4375
0
LINE
8
0
10
85.2
20
80.4375
11
85.2
21
62.4375
0
LINE
8
0
10
85.2
20
62.4375
11
67.2
21
62.4375
0
LINE
8
0
10
67.2
20
62.4375
11
67.2
21
80.4375
0
LINE
8
0
10
86.25
20
42.3375
11
104.25
21
42.3375
0
LINE
8
0
10
104.25
20
42.3375
11
104.25
21
24.3375
0
LINE
8
0
10
104.25
20
24.3375
11
86.25
21
24.3375
0
LINE
8
0
10
86.25
20
24.3375
11
86.25
21
42.3375
0
LINE
8
0
10
86.25
20
61.3875
11
104.25
21
61.3875
0
LINE
8
0
10
104.25
20
61.3875
11
104.25
21
43.3875
0
LINE
8
0
10
104.25
20
43.3875
11
86.25
21
43.3875
0
LINE
8
0
10
86.25
20
43.3875
11
86.25
21
61.3875
0
LINE
8
0
10
86.25
20
80.4375
11
104.25
21
80.4375
0
LINE
8
0
10
104.25
20
80.4375
11
104.25
21
62.4375
0
LINE
8
0
10
104.25
20
62.4375
11
86.25
21
62.4375
0
LINE
8
0
10
86.25
20
62.4375
11
86.25
21
80.4375
0
LINE
8
0
10
105.3
20
42.3375
11
123.3
21
42.3375
0
LINE
8
0
10
123.3
20
42.3375
11
123.3
21
24.3375
0
LINE
8
0
10
123.3
20
24.3375
11
105.3
21
24.3375
0
LINE
8
0
10
105.3
20
24.3375
11
105.3
21
42.3375
0
LINE
8
0
10
105.3
20
61.3875
11
123.3
21
61.3875
0
LINE
8
0
10
123.3
20
61.3875
11
123.3
21
43.3875
0
LINE
8
0
10
123.3
20
43.3875
11
105.3
21
43.3875
0
LINE
8
0
10
105.3
20
43.3875
11
105.3
21
61.3875
0
LINE
8
0
10
105.3
20
80.4375
11
123.3
21
80.4375
0
LINE
8
0
10
123.3
20
80.4375
11
123.3
21
62.4375
0
LINE
8
0
10
123.3
20
62.4375
11
105.3
21
62.4375
0
LINE
8
0
10
105.3
20
62.4375
11
105.3
21
80.4375
0
LINE
8
0
10
124.35
20
42.3375
11
142.35
21
42.3375
0
LINE
8
0
10
142.35
20
42.3375
11
142.35
21
24.3375
0
LINE
8
0
10
142.35
20
24.3375
11
124.35
21
24.3375
0
LINE
8
0
10
124.35
20
24.3375
11
124.35
21
42.3375
0
LINE
8
0
10
124.35
20
61.3875
11
142.35
21
61.3875
0
LINE
8
0
10
142.35
20
61.3875
11
142.35
21
43.3875
0
LINE
8
0
10
142.35
20
43.3875
11
124.35
21
43.3875
0
LINE
8
0
10
124.35
20
43.3875
11
124.35
21
61.3875
0
LINE
8
0
10
124.35
20
80.4375
11
142.35
21
80.4375
0
LINE
8
0
10
142.35
20
80.4375
11
142.35
21
62.4375
0
LINE
8
0
10
142.35
20
62.4375
11
124.35
21
62.4375
0
LINE
8
0
10
124.35
20
62.4375
11
124.35
21
80.4375
0
LINE
8
0
10
143.4
20
42.3375
11
161.4
21
42.3375
0
LINE
8
0
10
161.4
20
42.3375
11
161.4
21
24.3375
0
LINE
8
0
10
161.4
20
24.3375
11
143.4
21
24.3375
0
LINE
8
0
10
143.4
20
24.3375
11
143.4
21
42.3375
0
LINE
8
0
10
143.4
20
61.3875
11
161.4
21
61.3875
0
LINE
8
0
10
161.4
20
61.3875
11
161.4
21
43.3875
0
LINE
8
0
10
161.4
20
43.3875
11
143.4
21
43.3875
0
LINE
8
0
10
143.4
20
43.3875
11
143.4
21
61.3875
0
LINE
8
0
10
143.4
20
80.4375
11
161.4
21
80.4375
0
LINE
8
0
10
161.4
20
80.4375
11
161.4
21
62.4375
0
LINE
8
0
10
161.4
20
62.4375
11
143.4
21
62.4375
0
LINE
8
0
10
143.4
20
62.4375
11
143.4
21
80.4375
0
LINE
8
0
10
162.45
20
80.4375
11
180.45
21
80.4375
0
LINE
8
0
10
180.45
20
80.4375
11
180.45
21
62.4375
0
LINE
8
0
10
180.45
20
62.4375
11
162.45
21
62.4375
0
LINE
8
0
10
162.45
20
62.4375
11
162.45
21
80.4375
0
LINE
8
0
10
162.45
20
99.4875
11
180.45
21
99.4875
0
LINE
8
0
10
180.45
20
99.4875
11
180.45
21
81.4875
0
LINE
8
0
10
180.45
20
81.4875
11
162.45
21
81.4875
0
LINE
8
0
10
162.45
20
81.4875
11
162.45
21
99.4875
0
LINE
8
0
10
162.45
20
118.5375
11
180.45
21
118.5375
0
LINE
8
0
10
180.45
20
118.5375
11
180.45
21
100.5375
0
LINE
8
0
10
180.45
20
100.5375
11
162.45
21
100.5375
0
LINE
8
0
10
162.45
20
100.5375
11
162.45
21
118.5375
0
LINE
8
0
10
162.45
20
137.5875
11
180.45
21
137.5875
0
LINE
8
0
10
180.45
20
137.5875
11
180.45
21
119.5875
0
LINE
8
0
10
180.45
20
119.5875
11
162.45
21
119.5875
0
LINE
8
0
10
162.45
20
119.5875
11
162.45
21
137.5875
0
LINE
8
0
10
181.5
20
80.4375
11
199.5
21
80.4375
0
LINE
8
0
10
199.5
20
80.4375
11
199.5
21
62.4375
0
LINE
8
0
10
199.5
20
62.4375
11
181.5
21
62.4375
0
LINE
8
0
10
181.5
20
62.4375
11
181.5
21
80.4375
0
LINE
8
0
10
181.5
20
99.4875
11
199.5
21
99.4875
0
LINE
8
0
10
199.5
20
99.4875
11
199.5
21
81.4875
0
LINE
8
0
10
199.5
20
81.4875
11
181.5
21
81.4875
0
LINE
8
0
10
181.5
20
81.4875
11
181.5
21
99.4875
0
LINE
8
0
10
181.5
20
118.5375
11
199.5
21
118.5375
0
LINE
8
0
10
199.5
20
118.5375
11
199.5
21
100.5375
0
LINE
8
0
10
199.5
20
100.5375
11
181.5
21
100.5375
0
LINE
8
0
10
181.5
20
100.5375
11
181.5
21
118.5375
0
LINE
8
0
10
181.5
20
137.5875
11
199.5
21
137.5875
0
LINE
8
0
10
199.5
20
137.5875
11
199.5
21
119.5875
0
LINE
8
0
10
199.5
20
119.5875
11
181.5
21
119.5875
0
LINE
8
0
10
181.5
20
119.5875
11
181.5
21
137.5875
0
LINE
8
0
10
200.55
20
137.5875
11
218.55
21
137.5875
0
LINE
8
0
10
218.55
20
137.5875
11
218.55
21
119.5875
0
LINE
8
0
10
218.55
20
119.5875
11
200.55
21
119.5875
0
LINE
8
0
10
200.55
20
119.5875
11
200.55
21
137.5875
0
ENDSEC
0
EOF