0
SECTION
2
HEADER
9
$INSUNITS
70
4
0
ENDSEC
0
SECTION
2
TABLES
0
TABLE
2
LTYPE
0
LTYPE
72
65
70
64
2
CONTINUOUS
3
______
73
0
40
0
0
ENDTAB
0
TABLE
2
LAYER
0
ENDTAB
0
ENDSEC
0
SECTION
2
ENTITIES
0
LINE
8
0
10
-10
20
28.05
11
-10
21
4
0
LINE
8
0
10
-10
20
-4
11
-10
21
-9
0
LINE
8
0
10
-9
20
-10
11
28.05
21
-10
0
LINE
8
0
10
29.05
20
-9
11
29.05
21
-4
0
LINE
8
0
10
29.05
20
4
11
29.05
21
28.05
0
LINE
8
0
10
28.05
20
29.05
11
-9
21
29.05
0
ARC
8
0
10
-9
20
-9
40
1
50
180
51
270
0
ARC
8
0
10
28.05
20
-9
40
1
50
270
51
0
0
ARC
8
0
10
28.05
20
28.05
40
1
50
0
51
90
0
ARC
8
0
10
-9
20
28.05
40
1
50
90
51
180
0
LINE
8
0
10
-16
20
-4
11
-10
21
-4
0
LINE
8
0
10
-10
20
4
11
-16
21
4
0
LINE
8
0
10
-16
20
4
11
-16
21
-4
0
LINE
8
0
10
29.05
20
-4
11
35.05
21
-4
0
LINE
8
0
10
35.05
20
-4
11
35.05
21
4
0
LINE
8
0
10
35.05
20
4
11
29.05
21
4
0
LINE
8
0
10
-7
20
-7
11
7
21
-7
0
LINE
8
0
10
7
20
-7
11
7
21
7
0
LINE
8
0
10
7
20
7
11
-7
21
7
0
LINE
8
0
10
-7
20
7
11
-7
21
-7
0
LINE
8
0
10
-7
20
12.05
11
7
21
12.05
0
LINE
8
0
10
7
20
12.05
11
7
21
26.05
0
LINE
8
0
10
7
20
26.05
11
-7
21
26.05
0
LINE
8
0
10
-7
20
26.05
11
-7
21
12.05
0
LINE
8
0
10
12.05
20
-7
11
26.05
21
-7
0
LINE
8
0
10
26.05
20
-7
11
26.05
21
7
0
LINE
8
0
10
26.05
20
7
11
12.05
21
7
0
LINE
8
0
10
12.05
20
7
11
12.05
21
-7
0
LINE
8
0
10
12.05
20
12.05
11
26.05
21
12.05
0
LINE
8
0
10
26.05
20
12.05
11
26.05
21
26.05
0
LINE
8
0
10
26.05
20
26.05
11
12.05
21
26.05
0
LINE
8
0
10
12.05
20
26.05
11
12.05
21
12.05
0
CIRCLE
8
0
10
-13
20
0
40
1.1
0
CIRCLE
8
0
10
32.05
20
0
40
1.1
0
ENDSEC
0
EOF