0
SECTION
2
HEADER
9
$INSUNITS
70
4
0
ENDSEC
0
SECTION
2
TABLES
0
TABLE
2
LTYPE
0
LTYPE
72
65
70
64
2
CONTINUOUS
3
______
73
0
40
0
0
ENDTAB
0
TABLE
2
LAYER
0
ENDTAB
0
ENDSEC
0
SECTION
2
ENTITIES
0
LINE
8
0
10
-95.775
20
42.575
11
-113.775
21
42.575
0
ARC
8
0
10
-113.775
20
37.575
40
5
50
90
51
180
0
LINE
8
0
10
-118.775
20
37.575
11
-118.775
21
19.575
0
ARC
8
0
10
-113.775
20
19.575
40
5
50
180
51
186.0271666
0
ARC
8
0
10
-113.775
20
18.525
40
5
50
173.9728334
51
180
0
LINE
8
0
10
-118.775
20
18.525
11
-118.775
21
0.525
0
ARC
8
0
10
-113.775
20
0.525
40
5
50
180
51
186.0271666
0
ARC
8
0
10
-113.775
20
-0.525
40
5
50
173.9728334
51
180
0
LINE
8
0
10
-118.775
20
-0.525
11
-118.775
21
-18.525
0
ARC
8
0
10
-113.775
20
-18.525
40
5
50
180
51
186.0271666
0
ARC
8
0
10
-113.775
20
-19.575
40
5
50
173.9728334
51
180
0
LINE
8
0
10
-118.775
20
-19.575
11
-118.775
21
-37.575
0
ARC
8
0
10
-113.775
20
-37.575
40
5
50
180
51
270
0
LINE
8
0
10
-113.775
20
-42.575
11
-95.775
21
-42.575
0
ARC
8
0
10
-95.775
20
-37.575
40
5
50
270
51
294.5305624
0
ARC
8
0
10
-89.9625
20
-37.575
40
5
50
245.4694376
51
270
0
LINE
8
0
10
-89.9625
20
-42.575
11
-71.9625
21
-42.575
0
ARC
8
0
10
-71.9625
20
-37.575
40
5
50
270
51
276.0271666
0
ARC
8
0
10
-70.9125
20
-37.575
40
5
50
263.9728334
51
270
0
LINE
8
0
10
-70.9125
20
-42.575
11
-52.9125
21
-42.575
0
ARC
8
0
10
-52.9125
20
-37.575
40
5
50
270
51
276.0271666
0
ARC
8
0
10
-51.8625
20
-37.575
40
5
50
263.9728334
51
270
0
LINE
8
0
10
-51.8625
20
-42.575
11
-33.8625
21
-42.575
0
ARC
8
0
10
-33.8625
20
-37.575
40
5
50
270
51
360
0
LINE
8
0
10
-28.8625
20
-37.575
11
-28.8625
21
-25.525
0
LINE
8
0
10
-26.8625
20
-23.525
11
-24.3375
21
-23.525
0
ARC
8
0
10
-24.3375
20
-18.525
40
5
50
270
51
276.0271666
0
ARC
8
0
10
-23.2875
20
-18.525
40
5
50
263.9728334
51
270
0
LINE
8
0
10
-23.2875
20
-23.525
11
-5.2875
21
-23.525
0
ARC
8
0
10
-5.2875
20
-18.525
40
5
50
270
51
276.0271666
0
ARC
8
0
10
-4.2375
20
-18.525
40
5
50
263.9728334
51
270
0
LINE
8
0
10
-4.2375
20
-23.525
11
13.7625
21
-23.525
0
ARC
8
0
10
13.7625
20
-18.525
40
5
50
270
51
276.0271666
0
ARC
8
0
10
14.8125
20
-18.525
40
5
50
263.9728334
51
270
0
LINE
8
0
10
14.8125
20
-23.525
11
32.8125
21
-23.525
0
ARC
8
0
10
32.8125
20
-18.525
40
5
50
270
51
276.0271666
0
ARC
8
0
10
33.8625
20
-18.525
40
5
50
263.9728334
51
270
0
LINE
8
0
10
33.8625
20
-23.525
11
51.8625
21
-23.525
0
ARC
8
0
10
51.8625
20
-18.525
40
5
50
270
51
276.0271666
0
ARC
8
0
10
52.9125
20
-18.525
40
5
50
263.9728334
51
270
0
LINE
8
0
10
52.9125
20
-23.525
11
60.2
21
-23.525
0
LINE
8
0
10
62.2
20
-25.525
11
62.2
21
-37.575
0
ARC
8
0
10
67.2
20
-37.575
40
5
50
180
51
270
0
LINE
8
0
10
67.2
20
-42.575
11
85.2
21
-42.575
0
ARC
8
0
10
85.2
20
-37.575
40
5
50
270
51
294.5305624
0
ARC
8
0
10
91.0125
20
-37.575
40
5
50
245.4694376
51
270
0
LINE
8
0
10
91.0125
20
-42.575
11
109.0125
21
-42.575
0
ARC
8
0
10
109.0125
20
-37.575
40
5
50
270
51
360
0
LINE
8
0
10
114.0125
20
-37.575
11
114.0125
21
-25.1577667
0
ARC
8
0
10
113.775
20
-18.525
40
5
50
288.6413277
51
360
0
LINE
8
0
10
118.775
20
-18.525
11
118.775
21
-0.525
0
ARC
8
0
10
113.775
20
-0.525
40
5
50
0
51
90
0
LINE
8
0
10
113.775
20
4.475
11
106.4875
21
4.475
0
LINE
8
0
10
104.4875
20
6.475
11
104.4875
21
12.575
0
LINE
8
0
10
106.4875
20
14.575
11
113.775
21
14.575
0
ARC
8
0
10
113.775
20
19.575
40
5
50
270
51
360
0
LINE
8
0
10
118.775
20
19.575
11
118.775
21
37.575
0
ARC
8
0
10
113.775
20
37.575
40
5
50
0
51
90
0
LINE
8
0
10
113.775
20
42.575
11
95.775
21
42.575
0
ARC
8
0
10
95.775
20
37.575
40
5
50
90
51
96.0271666
0
ARC
8
0
10
94.725
20
37.575
40
5
50
83.9728334
51
90
0
LINE
8
0
10
94.725
20
42.575
11
76.725
21
42.575
0
ARC
8
0
10
76.725
20
37.575
40
5
50
90
51
96.0271666
0
ARC
8
0
10
75.675
20
37.575
40
5
50
83.9728334
51
90
0
LINE
8
0
10
75.675
20
42.575
11
57.675
21
42.575
0
ARC
8
0
10
57.675
20
37.575
40
5
50
90
51
96.0271666
0
ARC
8
0
10
56.625
20
37.575
40
5
50
83.9728334
51
90
0
LINE
8
0
10
56.625
20
42.575
11
38.625
21
42.575
0
ARC
8
0
10
38.625
20
37.575
40
5
50
90
51
96.0271666
0
ARC
8
0
10
37.575
20
37.575
40
5
50
83.9728334
51
90
0
LINE
8
0
10
37.575
20
42.575
11
19.575
21
42.575
0
ARC
8
0
10
19.575
20
37.575
40
5
50
90
51
96.0271666
0
ARC
8
0
10
18.525
20
37.575
40
5
50
83.9728334
51
90
0
LINE
8
0
10
18.525
20
42.575
11
0.525
21
42.575
0
ARC
8
0
10
0.525
20
37.575
40
5
50
90
51
96.0271666
0
ARC
8
0
10
-0.525
20
37.575
40
5
50
83.9728334
51
90
0
LINE
8
0
10
-0.525
20
42.575
11
-18.525
21
42.575
0
ARC
8
0
10
-18.525
20
37.575
40
5
50
90
51
96.0271666
0
ARC
8
0
10
-19.575
20
37.575
40
5
50
83.9728334
51
90
0
LINE
8
0
10
-19.575
20
42.575
11
-37.575
21
42.575
0
ARC
8
0
10
-37.575
20
37.575
40
5
50
90
51
96.0271666
0
ARC
8
0
10
-38.625
20
37.575
40
5
50
83.9728334
51
90
0
LINE
8
0
10
-38.625
20
42.575
11
-56.625
21
42.575
0
ARC
8
0
10
-56.625
20
37.575
40
5
50
90
51
96.0271666
0
ARC
8
0
10
-57.675
20
37.575
40
5
50
83.9728334
51
90
0
LINE
8
0
10
-57.675
20
42.575
11
-75.675
21
42.575
0
ARC
8
0
10
-75.675
20
37.575
40
5
50
90
51
96.0271666
0
ARC
8
0
10
-76.725
20
37.575
40
5
50
83.9728334
51
90
0
LINE
8
0
10
-76.725
20
42.575
11
-94.725
21
42.575
0
ARC
8
0
10
-94.725
20
37.575
40
5
50
90
51
96.0271666
0
ARC
8
0
10
-95.775
20
37.575
40
5
50
83.9728334
51
90
0
LINE
8
0
10
-89.9625
20
-4.475
11
-87.4375
21
-4.475
0
LINE
8
0
10
-85.4375
20
-6.475
11
-85.4375
21
-12.575
0
LINE
8
0
10
-87.4375
20
-14.575
11
-89.9625
21
-14.575
0
ARC
8
0
10
-89.9625
20
-19.575
40
5
50
90
51
99.3520351
0
LINE
8
0
10
-90.775
20
-14.6414573
11
-90.775
21
-4.4085427
0
ARC
8
0
10
-89.9625
20
0.525
40
5
50
260.6479649
51
270
0
ARC
8
0
10
-92.86875
20
-43.9431796
40
2
50
65.4694376
51
114.5305624
0
ARC
8
0
10
-26.8625
20
-25.525
40
2
50
90
51
180
0
ARC
8
0
10
60.2
20
-25.525
40
2
50
0
51
90
0
ARC
8
0
10
88.10625
20
-43.9431796
40
2
50
65.4694376
51
114.5305624
0
ARC
8
0
10
116.0125
20
-25.1577667
40
2
50
108.6413277
51
180
0
ARC
8
0
10
106.4875
20
6.475
40
2
50
180
51
270
0
ARC
8
0
10
106.4875
20
12.575
40
2
50
90
51
180
0
ARC
8
0
10
-87.4375
20
-6.475
40
2
50
0
51
90
0
ARC
8
0
10
-87.4375
20
-12.575
40
2
50
270
51
0
0
ENDSEC
0
EOF