0
SECTION
2
HEADER
9
$INSUNITS
70
4
0
ENDSEC
0
SECTION
2
TABLES
0
TABLE
2
LTYPE
0
LTYPE
72
65
70
64
2
CONTINUOUS
3
______
73
0
40
0
0
ENDTAB
0
TABLE
2
LAYER
0
ENDTAB
0
ENDSEC
0
SECTION
2
ENTITIES
0
LINE
8
0
10
-111.275
20
21.575
11
-98.275
21
21.575
0
LINE
8
0
10
-97.775
20
22.075
11
-97.775
21
35.075
0
LINE
8
0
10
-98.275
20
35.575
11
-111.275
21
35.575
0
LINE
8
0
10
-111.775
20
35.075
11
-111.775
21
22.075
0
LINE
8
0
10
-92.225
20
21.575
11
-79.225
21
21.575
0
LINE
8
0
10
-78.725
20
22.075
11
-78.725
21
35.075
0
LINE
8
0
10
-79.225
20
35.575
11
-92.225
21
35.575
0
LINE
8
0
10
-92.725
20
35.075
11
-92.725
21
22.075
0
LINE
8
0
10
-73.175
20
21.575
11
-60.175
21
21.575
0
LINE
8
0
10
-59.675
20
22.075
11
-59.675
21
35.075
0
LINE
8
0
10
-60.175
20
35.575
11
-73.175
21
35.575
0
LINE
8
0
10
-73.675
20
35.075
11
-73.675
21
22.075
0
LINE
8
0
10
-54.125
20
21.575
11
-41.125
21
21.575
0
LINE
8
0
10
-40.625
20
22.075
11
-40.625
21
35.075
0
LINE
8
0
10
-41.125
20
35.575
11
-54.125
21
35.575
0
LINE
8
0
10
-54.625
20
35.075
11
-54.625
21
22.075
0
LINE
8
0
10
-35.075
20
21.575
11
-22.075
21
21.575
0
LINE
8
0
10
-21.575
20
22.075
11
-21.575
21
35.075
0
LINE
8
0
10
-22.075
20
35.575
11
-35.075
21
35.575
0
LINE
8
0
10
-35.575
20
35.075
11
-35.575
21
22.075
0
LINE
8
0
10
-16.025
20
21.575
11
-3.025
21
21.575
0
LINE
8
0
10
-2.525
20
22.075
11
-2.525
21
35.075
0
LINE
8
0
10
-3.025
20
35.575
11
-16.025
21
35.575
0
LINE
8
0
10
-16.525
20
35.075
11
-16.525
21
22.075
0
LINE
8
0
10
3.025
20
21.575
11
16.025
21
21.575
0
LINE
8
0
10
16.525
20
22.075
11
16.525
21
35.075
0
LINE
8
0
10
16.025
20
35.575
11
3.025
21
35.575
0
LINE
8
0
10
2.525
20
35.075
11
2.525
21
22.075
0
LINE
8
0
10
22.075
20
21.575
11
35.075
21
21.575
0
LINE
8
0
10
35.575
20
22.075
11
35.575
21
35.075
0
LINE
8
0
10
35.075
20
35.575
11
22.075
21
35.575
0
LINE
8
0
10
21.575
20
35.075
11
21.575
21
22.075
0
LINE
8
0
10
41.125
20
21.575
11
54.125
21
21.575
0
LINE
8
0
10
54.625
20
22.075
11
54.625
21
35.075
0
LINE
8
0
10
54.125
20
35.575
11
41.125
21
35.575
0
LINE
8
0
10
40.625
20
35.075
11
40.625
21
22.075
0
LINE
8
0
10
60.175
20
21.575
11
73.175
21
21.575
0
LINE
8
0
10
73.675
20
22.075
11
73.675
21
35.075
0
LINE
8
0
10
73.175
20
35.575
11
60.175
21
35.575
0
LINE
8
0
10
59.675
20
35.075
11
59.675
21
22.075
0
LINE
8
0
10
79.225
20
21.575
11
92.225
21
21.575
0
LINE
8
0
10
92.725
20
22.075
11
92.725
21
35.075
0
LINE
8
0
10
92.225
20
35.575
11
79.225
21
35.575
0
LINE
8
0
10
78.725
20
35.075
11
78.725
21
22.075
0
LINE
8
0
10
98.275
20
21.575
11
111.275
21
21.575
0
LINE
8
0
10
111.775
20
22.075
11
111.775
21
35.075
0
LINE
8
0
10
111.275
20
35.575
11
98.275
21
35.575
0
LINE
8
0
10
97.775
20
35.075
11
97.775
21
22.075
0
LINE
8
0
10
-111.275
20
2.525
11
-98.275
21
2.525
0
LINE
8
0
10
-97.775
20
3.025
11
-97.775
21
16.025
0
LINE
8
0
10
-98.275
20
16.525
11
-111.275
21
16.525
0
LINE
8
0
10
-111.775
20
16.025
11
-111.775
21
3.025
0
LINE
8
0
10
-87.4625
20
2.525
11
-74.4625
21
2.525
0
LINE
8
0
10
-73.9625
20
3.025
11
-73.9625
21
16.025
0
LINE
8
0
10
-74.4625
20
16.525
11
-87.4625
21
16.525
0
LINE
8
0
10
-87.9625
20
16.025
11
-87.9625
21
3.025
0
LINE
8
0
10
-68.4125
20
2.525
11
-55.4125
21
2.525
0
LINE
8
0
10
-54.9125
20
3.025
11
-54.9125
21
16.025
0
LINE
8
0
10
-55.4125
20
16.525
11
-68.4125
21
16.525
0
LINE
8
0
10
-68.9125
20
16.025
11
-68.9125
21
3.025
0
LINE
8
0
10
-49.3625
20
2.525
11
-36.3625
21
2.525
0
LINE
8
0
10
-35.8625
20
3.025
11
-35.8625
21
16.025
0
LINE
8
0
10
-36.3625
20
16.525
11
-49.3625
21
16.525
0
LINE
8
0
10
-49.8625
20
16.025
11
-49.8625
21
3.025
0
LINE
8
0
10
-30.3125
20
2.525
11
-17.3125
21
2.525
0
LINE
8
0
10
-16.8125
20
3.025
11
-16.8125
21
16.025
0
LINE
8
0
10
-17.3125
20
16.525
11
-30.3125
21
16.525
0
LINE
8
0
10
-30.8125
20
16.025
11
-30.8125
21
3.025
0
LINE
8
0
10
-11.2625
20
2.525
11
1.7375
21
2.525
0
LINE
8
0
10
2.2375
20
3.025
11
2.2375
21
16.025
0
LINE
8
0
10
1.7375
20
16.525
11
-11.2625
21
16.525
0
LINE
8
0
10
-11.7625
20
16.025
11
-11.7625
21
3.025
0
LINE
8
0
10
7.7875
20
2.525
11
20.7875
21
2.525
0
LINE
8
0
10
21.2875
20
3.025
11
21.2875
21
16.025
0
LINE
8
0
10
20.7875
20
16.525
11
7.7875
21
16.525
0
LINE
8
0
10
7.2875
20
16.025
11
7.2875
21
3.025
0
LINE
8
0
10
26.8375
20
2.525
11
39.8375
21
2.525
0
LINE
8
0
10
40.3375
20
3.025
11
40.3375
21
16.025
0
LINE
8
0
10
39.8375
20
16.525
11
26.8375
21
16.525
0
LINE
8
0
10
26.3375
20
16.025
11
26.3375
21
3.025
0
LINE
8
0
10
45.8875
20
2.525
11
58.8875
21
2.525
0
LINE
8
0
10
59.3875
20
3.025
11
59.3875
21
16.025
0
LINE
8
0
10
58.8875
20
16.525
11
45.8875
21
16.525
0
LINE
8
0
10
45.3875
20
16.025
11
45.3875
21
3.025
0
LINE
8
0
10
64.9375
20
2.525
11
77.9375
21
2.525
0
LINE
8
0
10
78.4375
20
3.025
11
78.4375
21
16.025
0
LINE
8
0
10
77.9375
20
16.525
11
64.9375
21
16.525
0
LINE
8
0
10
64.4375
20
16.025
11
64.4375
21
3.025
0
LINE
8
0
10
83.9875
20
2.525
11
96.9875
21
2.525
0
LINE
8
0
10
97.4875
20
3.025
11
97.4875
21
16.025
0
LINE
8
0
10
96.9875
20
16.525
11
83.9875
21
16.525
0
LINE
8
0
10
83.4875
20
16.025
11
83.4875
21
3.025
0
LINE
8
0
10
-111.275
20
-16.525
11
-98.275
21
-16.525
0
LINE
8
0
10
-97.775
20
-16.025
11
-97.775
21
-3.025
0
LINE
8
0
10
-98.275
20
-2.525
11
-111.275
21
-2.525
0
LINE
8
0
10
-111.775
20
-3.025
11
-111.775
21
-16.025
0
LINE
8
0
10
-77.9375
20
-16.525
11
-64.9375
21
-16.525
0
LINE
8
0
10
-64.4375
20
-16.025
11
-64.4375
21
-3.025
0
LINE
8
0
10
-64.9375
20
-2.525
11
-77.9375
21
-2.525
0
LINE
8
0
10
-78.4375
20
-3.025
11
-78.4375
21
-16.025
0
LINE
8
0
10
-58.8875
20
-16.525
11
-45.8875
21
-16.525
0
LINE
8
0
10
-45.3875
20
-16.025
11
-45.3875
21
-3.025
0
LINE
8
0
10
-45.8875
20
-2.525
11
-58.8875
21
-2.525
0
LINE
8
0
10
-59.3875
20
-3.025
11
-59.3875
21
-16.025
0
LINE
8
0
10
-39.8375
20
-16.525
11
-26.8375
21
-16.525
0
LINE
8
0
10
-26.3375
20
-16.025
11
-26.3375
21
-3.025
0
LINE
8
0
10
-26.8375
20
-2.525
11
-39.8375
21
-2.525
0
LINE
8
0
10
-40.3375
20
-3.025
11
-40.3375
21
-16.025
0
LINE
8
0
10
-20.7875
20
-16.525
11
-7.7875
21
-16.525
0
LINE
8
0
10
-7.2875
20
-16.025
11
-7.2875
21
-3.025
0
LINE
8
0
10
-7.7875
20
-2.525
11
-20.7875
21
-2.525
0
LINE
8
0
10
-21.2875
20
-3.025
11
-21.2875
21
-16.025
0
LINE
8
0
10
-1.7375
20
-16.525
11
11.2625
21
-16.525
0
LINE
8
0
10
11.7625
20
-16.025
11
11.7625
21
-3.025
0
LINE
8
0
10
11.2625
20
-2.525
11
-1.7375
21
-2.525
0
LINE
8
0
10
-2.2375
20
-3.025
11
-2.2375
21
-16.025
0
LINE
8
0
10
17.3125
20
-16.525
11
30.3125
21
-16.525
0
LINE
8
0
10
30.8125
20
-16.025
11
30.8125
21
-3.025
0
LINE
8
0
10
30.3125
20
-2.525
11
17.3125
21
-2.525
0
LINE
8
0
10
16.8125
20
-3.025
11
16.8125
21
-16.025
0
LINE
8
0
10
36.3625
20
-16.525
11
49.3625
21
-16.525
0
LINE
8
0
10
49.8625
20
-16.025
11
49.8625
21
-3.025
0
LINE
8
0
10
49.3625
20
-2.525
11
36.3625
21
-2.525
0
LINE
8
0
10
35.8625
20
-3.025
11
35.8625
21
-16.025
0
LINE
8
0
10
55.4125
20
-16.525
11
68.4125
21
-16.525
0
LINE
8
0
10
68.9125
20
-16.025
11
68.9125
21
-3.025
0
LINE
8
0
10
68.4125
20
-2.525
11
55.4125
21
-2.525
0
LINE
8
0
10
54.9125
20
-3.025
11
54.9125
21
-16.025
0
LINE
8
0
10
74.4625
20
-16.525
11
87.4625
21
-16.525
0
LINE
8
0
10
87.9625
20
-16.025
11
87.9625
21
-3.025
0
LINE
8
0
10
87.4625
20
-2.525
11
74.4625
21
-2.525
0
LINE
8
0
10
73.9625
20
-3.025
11
73.9625
21
-16.025
0
LINE
8
0
10
98.275
20
-16.525
11
111.275
21
-16.525
0
LINE
8
0
10
111.775
20
-16.025
11
111.775
21
-3.025
0
LINE
8
0
10
111.275
20
-2.525
11
98.275
21
-2.525
0
LINE
8
0
10
97.775
20
-3.025
11
97.775
21
-16.025
0
LINE
8
0
10
-111.275
20
-35.575
11
-98.275
21
-35.575
0
LINE
8
0
10
-97.775
20
-35.075
11
-97.775
21
-22.075
0
LINE
8
0
10
-98.275
20
-21.575
11
-111.275
21
-21.575
0
LINE
8
0
10
-111.775
20
-22.075
11
-111.775
21
-35.075
0
LINE
8
0
10
-87.4625
20
-35.575
11
-74.4625
21
-35.575
0
LINE
8
0
10
-73.9625
20
-35.075
11
-73.9625
21
-22.075
0
LINE
8
0
10
-74.4625
20
-21.575
11
-87.4625
21
-21.575
0
LINE
8
0
10
-87.9625
20
-22.075
11
-87.9625
21
-35.075
0
LINE
8
0
10
-68.4125
20
-35.575
11
-55.4125
21
-35.575
0
LINE
8
0
10
-54.9125
20
-35.075
11
-54.9125
21
-22.075
0
LINE
8
0
10
-55.4125
20
-21.575
11
-68.4125
21
-21.575
0
LINE
8
0
10
-68.9125
20
-22.075
11
-68.9125
21
-35.075
0
LINE
8
0
10
-49.3625
20
-35.575
11
-36.3625
21
-35.575
0
LINE
8
0
10
-35.8625
20
-35.075
11
-35.8625
21
-22.075
0
LINE
8
0
10
-36.3625
20
-21.575
11
-49.3625
21
-21.575
0
LINE
8
0
10
-49.8625
20
-22.075
11
-49.8625
21
-35.075
0
LINE
8
0
10
69.7
20
-35.575
11
82.7
21
-35.575
0
LINE
8
0
10
83.2
20
-35.075
11
83.2
21
-22.075
0
LINE
8
0
10
82.7
20
-21.575
11
69.7
21
-21.575
0
LINE
8
0
10
69.2
20
-22.075
11
69.2
21
-35.075
0
LINE
8
0
10
93.5125
20
-35.575
11
106.5125
21
-35.575
0
LINE
8
0
10
107.0125
20
-35.075
11
107.0125
21
-22.075
0
LINE
8
0
10
106.5125
20
-21.575
11
93.5125
21
-21.575
0
LINE
8
0
10
93.0125
20
-22.075
11
93.0125
21
-35.075
0
ARC
8
0
10
-98.275
20
22.075
40
0.5
50
270
51
0
0
ARC
8
0
10
-98.275
20
35.075
40
0.5
50
0
51
90
0
ARC
8
0
10
-111.275
20
35.075
40
0.5
50
90
51
180
0
ARC
8
0
10
-111.275
20
22.075
40
0.5
50
180
51
270
0
ARC
8
0
10
-79.225
20
22.075
40
0.5
50
270
51
0
0
ARC
8
0
10
-79.225
20
35.075
40
0.5
50
0
51
90
0
ARC
8
0
10
-92.225
20
35.075
40
0.5
50
90
51
180
0
ARC
8
0
10
-92.225
20
22.075
40
0.5
50
180
51
270
0
ARC
8
0
10
-60.175
20
22.075
40
0.5
50
270
51
0
0
ARC
8
0
10
-60.175
20
35.075
40
0.5
50
0
51
90
0
ARC
8
0
10
-73.175
20
35.075
40
0.5
50
90
51
180
0
ARC
8
0
10
-73.175
20
22.075
40
0.5
50
180
51
270
0
ARC
8
0
10
-41.125
20
22.075
40
0.5
50
270
51
0
0
ARC
8
0
10
-41.125
20
35.075
40
0.5
50
0
51
90
0
ARC
8
0
10
-54.125
20
35.075
40
0.5
50
90
51
180
0
ARC
8
0
10
-54.125
20
22.075
40
0.5
50
180
51
270
0
ARC
8
0
10
-22.075
20
22.075
40
0.5
50
270
51
0
0
ARC
8
0
10
-22.075
20
35.075
40
0.5
50
0
51
90
0
ARC
8
0
10
-35.075
20
35.075
40
0.5
50
90
51
180
0
ARC
8
0
10
-35.075
20
22.075
40
0.5
50
180
51
270
0
ARC
8
0
10
-3.025
20
22.075
40
0.5
50
270
51
0
0
ARC
8
0
10
-3.025
20
35.075
40
0.5
50
0
51
90
0
ARC
8
0
10
-16.025
20
35.075
40
0.5
50
90
51
180
0
ARC
8
0
10
-16.025
20
22.075
40
0.5
50
180
51
270
0
ARC
8
0
10
16.025
20
22.075
40
0.5
50
270
51
0
0
ARC
8
0
10
16.025
20
35.075
40
0.5
50
0
51
90
0
ARC
8
0
10
3.025
20
35.075
40
0.5
50
90
51
180
0
ARC
8
0
10
3.025
20
22.075
40
0.5
50
180
51
270
0
ARC
8
0
10
35.075
20
22.075
40
0.5
50
270
51
0
0
ARC
8
0
10
35.075
20
35.075
40
0.5
50
0
51
90
0
ARC
8
0
10
22.075
20
35.075
40
0.5
50
90
51
180
0
ARC
8
0
10
22.075
20
22.075
40
0.5
50
180
51
270
0
ARC
8
0
10
54.125
20
22.075
40
0.5
50
270
51
0
0
ARC
8
0
10
54.125
20
35.075
40
0.5
50
0
51
90
0
ARC
8
0
10
41.125
20
35.075
40
0.5
50
90
51
180
0
ARC
8
0
10
41.125
20
22.075
40
0.5
50
180
51
270
0
ARC
8
0
10
73.175
20
22.075
40
0.5
50
270
51
0
0
ARC
8
0
10
73.175
20
35.075
40
0.5
50
0
51
90
0
ARC
8
0
10
60.175
20
35.075
40
0.5
50
90
51
180
0
ARC
8
0
10
60.175
20
22.075
40
0.5
50
180
51
270
0
ARC
8
0
10
92.225
20
22.075
40
0.5
50
270
51
0
0
ARC
8
0
10
92.225
20
35.075
40
0.5
50
0
51
90
0
ARC
8
0
10
79.225
20
35.075
40
0.5
50
90
51
180
0
ARC
8
0
10
79.225
20
22.075
40
0.5
50
180
51
270
0
ARC
8
0
10
111.275
20
22.075
40
0.5
50
270
51
0
0
ARC
8
0
10
111.275
20
35.075
40
0.5
50
0
51
90
0
ARC
8
0
10
98.275
20
35.075
40
0.5
50
90
51
180
0
ARC
8
0
10
98.275
20
22.075
40
0.5
50
180
51
270
0
ARC
8
0
10
-98.275
20
3.025
40
0.5
50
270
51
0
0
ARC
8
0
10
-98.275
20
16.025
40
0.5
50
0
51
90
0
ARC
8
0
10
-111.275
20
16.025
40
0.5
50
90
51
180
0
ARC
8
0
10
-111.275
20
3.025
40
0.5
50
180
51
270
0
ARC
8
0
10
-74.4625
20
3.025
40
0.5
50
270
51
0
0
ARC
8
0
10
-74.4625
20
16.025
40
0.5
50
0
51
90
0
ARC
8
0
10
-87.4625
20
16.025
40
0.5
50
90
51
180
0
ARC
8
0
10
-87.4625
20
3.025
40
0.5
50
180
51
270
0
ARC
8
0
10
-55.4125
20
3.025
40
0.5
50
270
51
0
0
ARC
8
0
10
-55.4125
20
16.025
40
0.5
50
0
51
90
0
ARC
8
0
10
-68.4125
20
16.025
40
0.5
50
90
51
180
0
ARC
8
0
10
-68.4125
20
3.025
40
0.5
50
180
51
270
0
ARC
8
0
10
-36.3625
20
3.025
40
0.5
50
270
51
0
0
ARC
8
0
10
-36.3625
20
16.025
40
0.5
50
0
51
90
0
ARC
8
0
10
-49.3625
20
16.025
40
0.5
50
90
51
180
0
ARC
8
0
10
-49.3625
20
3.025
40
0.5
50
180
51
270
0
ARC
8
0
10
-17.3125
20
3.025
40
0.5
50
270
51
0
0
ARC
8
0
10
-17.3125
20
16.025
40
0.5
50
0
51
90
0
ARC
8
0
10
-30.3125
20
16.025
40
0.5
50
90
51
180
0
ARC
8
0
10
-30.3125
20
3.025
40
0.5
50
180
51
270
0
ARC
8
0
10
1.7375
20
3.025
40
0.5
50
270
51
0
0
ARC
8
0
10
1.7375
20
16.025
40
0.5
50
0
51
90
0
ARC
8
0
10
-11.2625
20
16.025
40
0.5
50
90
51
180
0
ARC
8
0
10
-11.2625
20
3.025
40
0.5
50
180
51
270
0
ARC
8
0
10
20.7875
20
3.025
40
0.5
50
270
51
0
0
ARC
8
0
10
20.7875
20
16.025
40
0.5
50
0
51
90
0
ARC
8
0
10
7.7875
20
16.025
40
0.5
50
90
51
180
0
ARC
8
0
10
7.7875
20
3.025
40
0.5
50
180
51
270
0
ARC
8
0
10
39.8375
20
3.025
40
0.5
50
270
51
0
0
ARC
8
0
10
39.8375
20
16.025
40
0.5
50
0
51
90
0
ARC
8
0
10
26.8375
20
16.025
40
0.5
50
90
51
180
0
ARC
8
0
10
26.8375
20
3.025
40
0.5
50
180
51
270
0
ARC
8
0
10
58.8875
20
3.025
40
0.5
50
270
51
0
0
ARC
8
0
10
58.8875
20
16.025
40
0.5
50
0
51
90
0
ARC
8
0
10
45.8875
20
16.025
40
0.5
50
90
51
180
0
ARC
8
0
10
45.8875
20
3.025
40
0.5
50
180
51
270
0
ARC
8
0
10
77.9375
20
3.025
40
0.5
50
270
51
0
0
ARC
8
0
10
77.9375
20
16.025
40
0.5
50
0
51
90
0
ARC
8
0
10
64.9375
20
16.025
40
0.5
50
90
51
180
0
ARC
8
0
10
64.9375
20
3.025
40
0.5
50
180
51
270
0
ARC
8
0
10
96.9875
20
3.025
40
0.5
50
270
51
0
0
ARC
8
0
10
96.9875
20
16.025
40
0.5
50
0
51
90
0
ARC
8
0
10
83.9875
20
16.025
40
0.5
50
90
51
180
0
ARC
8
0
10
83.9875
20
3.025
40
0.5
50
180
51
270
0
ARC
8
0
10
-98.275
20
-16.025
40
0.5
50
270
51
0
0
ARC
8
0
10
-98.275
20
-3.025
40
0.5
50
0
51
90
0
ARC
8
0
10
-111.275
20
-3.025
40
0.5
50
90
51
180
0
ARC
8
0
10
-111.275
20
-16.025
40
0.5
50
180
51
270
0
ARC
8
0
10
-64.9375
20
-16.025
40
0.5
50
270
51
0
0
ARC
8
0
10
-64.9375
20
-3.025
40
0.5
50
0
51
90
0
ARC
8
0
10
-77.9375
20
-3.025
40
0.5
50
90
51
180
0
ARC
8
0
10
-77.9375
20
-16.025
40
0.5
50
180
51
270
0
ARC
8
0
10
-45.8875
20
-16.025
40
0.5
50
270
51
0
0
ARC
8
0
10
-45.8875
20
-3.025
40
0.5
50
0
51
90
0
ARC
8
0
10
-58.8875
20
-3.025
40
0.5
50
90
51
180
0
ARC
8
0
10
-58.8875
20
-16.025
40
0.5
50
180
51
270
0
ARC
8
0
10
-26.8375
20
-16.025
40
0.5
50
270
51
0
0
ARC
8
0
10
-26.8375
20
-3.025
40
0.5
50
0
51
90
0
ARC
8
0
10
-39.8375
20
-3.025
40
0.5
50
90
51
180
0
ARC
8
0
10
-39.8375
20
-16.025
40
0.5
50
180
51
270
0
ARC
8
0
10
-7.7875
20
-16.025
40
0.5
50
270
51
0
0
ARC
8
0
10
-7.7875
20
-3.025
40
0.5
50
0
51
90
0
ARC
8
0
10
-20.7875
20
-3.025
40
0.5
50
90
51
180
0
ARC
8
0
10
-20.7875
20
-16.025
40
0.5
50
180
51
270
0
ARC
8
0
10
11.2625
20
-16.025
40
0.5
50
270
51
0
0
ARC
8
0
10
11.2625
20
-3.025
40
0.5
50
0
51
90
0
ARC
8
0
10
-1.7375
20
-3.025
40
0.5
50
90
51
180
0
ARC
8
0
10
-1.7375
20
-16.025
40
0.5
50
180
51
270
0
ARC
8
0
10
30.3125
20
-16.025
40
0.5
50
270
51
0
0
ARC
8
0
10
30.3125
20
-3.025
40
0.5
50
0
51
90
0
ARC
8
0
10
17.3125
20
-3.025
40
0.5
50
90
51
180
0
ARC
8
0
10
17.3125
20
-16.025
40
0.5
50
180
51
270
0
ARC
8
0
10
49.3625
20
-16.025
40
0.5
50
270
51
0
0
ARC
8
0
10
49.3625
20
-3.025
40
0.5
50
0
51
90
0
ARC
8
0
10
36.3625
20
-3.025
40
0.5
50
90
51
180
0
ARC
8
0
10
36.3625
20
-16.025
40
0.5
50
180
51
270
0
ARC
8
0
10
68.4125
20
-16.025
40
0.5
50
270
51
0
0
ARC
8
0
10
68.4125
20
-3.025
40
0.5
50
0
51
90
0
ARC
8
0
10
55.4125
20
-3.025
40
0.5
50
90
51
180
0
ARC
8
0
10
55.4125
20
-16.025
40
0.5
50
180
51
270
0
ARC
8
0
10
87.4625
20
-16.025
40
0.5
50
270
51
0
0
ARC
8
0
10
87.4625
20
-3.025
40
0.5
50
0
51
90
0
ARC
8
0
10
74.4625
20
-3.025
40
0.5
50
90
51
180
0
ARC
8
0
10
74.4625
20
-16.025
40
0.5
50
180
51
270
0
ARC
8
0
10
111.275
20
-16.025
40
0.5
50
270
51
0
0
ARC
8
0
10
111.275
20
-3.025
40
0.5
50
0
51
90
0
ARC
8
0
10
98.275
20
-3.025
40
0.5
50
90
51
180
0
ARC
8
0
10
98.275
20
-16.025
40
0.5
50
180
51
270
0
ARC
8
0
10
-98.275
20
-35.075
40
0.5
50
270
51
0
0
ARC
8
0
10
-98.275
20
-22.075
40
0.5
50
0
51
90
0
ARC
8
0
10
-111.275
20
-22.075
40
0.5
50
90
51
180
0
ARC
8
0
10
-111.275
20
-35.075
40
0.5
50
180
51
270
0
ARC
8
0
10
-74.4625
20
-35.075
40
0.5
50
270
51
0
0
ARC
8
0
10
-74.4625
20
-22.075
40
0.5
50
0
51
90
0
ARC
8
0
10
-87.4625
20
-22.075
40
0.5
50
90
51
180
0
ARC
8
0
10
-87.4625
20
-35.075
40
0.5
50
180
51
270
0
ARC
8
0
10
-55.4125
20
-35.075
40
0.5
50
270
51
0
0
ARC
8
0
10
-55.4125
20
-22.075
40
0.5
50
0
51
90
0
ARC
8
0
10
-68.4125
20
-22.075
40
0.5
50
90
51
180
0
ARC
8
0
10
-68.4125
20
-35.075
40
0.5
50
180
51
270
0
ARC
8
0
10
-36.3625
20
-35.075
40
0.5
50
270
51
0
0
ARC
8
0
10
-36.3625
20
-22.075
40
0.5
50
0
51
90
0
ARC
8
0
10
-49.3625
20
-22.075
40
0.5
50
90
51
180
0
ARC
8
0
10
-49.3625
20
-35.075
40
0.5
50
180
51
270
0
ARC
8
0
10
82.7
20
-35.075
40
0.5
50
270
51
0
0
ARC
8
0
10
82.7
20
-22.075
40
0.5
50
0
51
90
0
ARC
8
0
10
69.7
20
-22.075
40
0.5
50
90
51
180
0
ARC
8
0
10
69.7
20
-35.075
40
0.5
50
180
51
270
0
ARC
8
0
10
106.5125
20
-35.075
40
0.5
50
270
51
0
0
ARC
8
0
10
106.5125
20
-22.075
40
0.5
50
0
51
90
0
ARC
8
0
10
93.5125
20
-22.075
40
0.5
50
90
51
180
0
ARC
8
0
10
93.5125
20
-35.075
40
0.5
50
180
51
270
0
ENDSEC
0
EOF