0
SECTION
2
HEADER
9
$INSUNITS
70
4
0
ENDSEC
0
SECTION
2
TABLES
0
TABLE
2
LTYPE
0
LTYPE
72
65
70
64
2
CONTINUOUS
3
______
73
0
40
0
0
ENDTAB
0
TABLE
2
LAYER
0
ENDTAB
0
ENDSEC
0
SECTION
2
ENTITIES
0
LINE
8
0
10
-11.90625
20
9
11
11.90625
21
9
0
LINE
8
0
10
11.90625
20
9
11
11.90625
21
-9
0
LINE
8
0
10
11.90625
20
-9
11
-11.90625
21
-9
0
LINE
8
0
10
-11.90625
20
-9
11
-11.90625
21
9
0
LINE
8
0
10
-16.66875
20
28.05
11
16.66875
21
28.05
0
LINE
8
0
10
16.66875
20
28.05
11
16.66875
21
10.05
0
LINE
8
0
10
16.66875
20
10.05
11
-16.66875
21
10.05
0
LINE
8
0
10
-16.66875
20
10.05
11
-16.66875
21
28.05
0
LINE
8
0
10
-11.90625
20
47.1
11
11.90625
21
47.1
0
LINE
8
0
10
11.90625
20
47.1
11
11.90625
21
29.1
0
LINE
8
0
10
11.90625
20
29.1
11
-11.90625
21
29.1
0
LINE
8
0
10
-11.90625
20
29.1
11
-11.90625
21
47.1
0
LINE
8
0
10
-9.525
20
66.15
11
9.525
21
66.15
0
LINE
8
0
10
9.525
20
66.15
11
9.525
21
48.15
0
LINE
8
0
10
9.525
20
48.15
11
-9.525
21
48.15
0
LINE
8
0
10
-9.525
20
48.15
11
-9.525
21
66.15
0
LINE
8
0
10
9.525
20
9
11
28.575
21
9
0
LINE
8
0
10
28.575
20
9
11
28.575
21
-9
0
LINE
8
0
10
28.575
20
-9
11
9.525
21
-9
0
LINE
8
0
10
9.525
20
-9
11
9.525
21
9
0
LINE
8
0
10
9.525
20
28.05
11
28.575
21
28.05
0
LINE
8
0
10
28.575
20
28.05
11
28.575
21
10.05
0
LINE
8
0
10
28.575
20
10.05
11
9.525
21
10.05
0
LINE
8
0
10
9.525
20
10.05
11
9.525
21
28.05
0
LINE
8
0
10
9.525
20
47.1
11
28.575
21
47.1
0
LINE
8
0
10
28.575
20
47.1
11
28.575
21
29.1
0
LINE
8
0
10
28.575
20
29.1
11
9.525
21
29.1
0
LINE
8
0
10
9.525
20
29.1
11
9.525
21
47.1
0
LINE
8
0
10
9.525
20
66.15
11
28.575
21
66.15
0
LINE
8
0
10
28.575
20
66.15
11
28.575
21
48.15
0
LINE
8
0
10
28.575
20
48.15
11
9.525
21
48.15
0
LINE
8
0
10
9.525
20
48.15
11
9.525
21
66.15
0
LINE
8
0
10
28.575
20
9
11
47.625
21
9
0
LINE
8
0
10
47.625
20
9
11
47.625
21
-9
0
LINE
8
0
10
47.625
20
-9
11
28.575
21
-9
0
LINE
8
0
10
28.575
20
-9
11
28.575
21
9
0
LINE
8
0
10
28.575
20
28.05
11
47.625
21
28.05
0
LINE
8
0
10
47.625
20
28.05
11
47.625
21
10.05
0
LINE
8
0
10
47.625
20
10.05
11
28.575
21
10.05
0
LINE
8
0
10
28.575
20
10.05
11
28.575
21
28.05
0
LINE
8
0
10
28.575
20
47.1
11
47.625
21
47.1
0
LINE
8
0
10
47.625
20
47.1
11
47.625
21
29.1
0
LINE
8
0
10
47.625
20
29.1
11
28.575
21
29.1
0
LINE
8
0
10
28.575
20
29.1
11
28.575
21
47.1
0
LINE
8
0
10
28.575
20
66.15
11
47.625
21
66.15
0
LINE
8
0
10
47.625
20
66.15
11
47.625
21
48.15
0
LINE
8
0
10
47.625
20
48.15
11
28.575
21
48.15
0
LINE
8
0
10
28.575
20
48.15
11
28.575
21
66.15
0
LINE
8
0
10
97.63125
20
9
11
216.69375
21
9
0
LINE
8
0
10
216.69375
20
9
11
216.69375
21
-9
0
LINE
8
0
10
216.69375
20
-9
11
97.63125
21
-9
0
LINE
8
0
10
97.63125
20
-9
11
97.63125
21
9
0
LINE
8
0
10
147.6375
20
28.05
11
166.6875
21
28.05
0
LINE
8
0
10
166.6875
20
28.05
11
166.6875
21
10.05
0
LINE
8
0
10
166.6875
20
10.05
11
147.6375
21
10.05
0
LINE
8
0
10
147.6375
20
10.05
11
147.6375
21
28.05
0
LINE
8
0
10
147.6375
20
47.1
11
166.6875
21
47.1
0
LINE
8
0
10
166.6875
20
47.1
11
166.6875
21
29.1
0
LINE
8
0
10
166.6875
20
29.1
11
147.6375
21
29.1
0
LINE
8
0
10
147.6375
20
29.1
11
147.6375
21
47.1
0
LINE
8
0
10
147.6375
20
66.15
11
166.6875
21
66.15
0
LINE
8
0
10
166.6875
20
66.15
11
166.6875
21
48.15
0
LINE
8
0
10
166.6875
20
48.15
11
147.6375
21
48.15
0
LINE
8
0
10
147.6375
20
48.15
11
147.6375
21
66.15
0
LINE
8
0
10
166.6875
20
28.05
11
185.7375
21
28.05
0
LINE
8
0
10
185.7375
20
28.05
11
185.7375
21
10.05
0
LINE
8
0
10
185.7375
20
10.05
11
166.6875
21
10.05
0
LINE
8
0
10
166.6875
20
10.05
11
166.6875
21
28.05
0
LINE
8
0
10
166.6875
20
47.1
11
185.7375
21
47.1
0
LINE
8
0
10
185.7375
20
47.1
11
185.7375
21
29.1
0
LINE
8
0
10
185.7375
20
29.1
11
166.6875
21
29.1
0
LINE
8
0
10
166.6875
20
29.1
11
166.6875
21
47.1
0
LINE
8
0
10
166.6875
20
66.15
11
185.7375
21
66.15
0
LINE
8
0
10
185.7375
20
66.15
11
185.7375
21
48.15
0
LINE
8
0
10
185.7375
20
48.15
11
166.6875
21
48.15
0
LINE
8
0
10
166.6875
20
48.15
11
166.6875
21
66.15
0
LINE
8
0
10
185.7375
20
28.05
11
204.7875
21
28.05
0
LINE
8
0
10
204.7875
20
28.05
11
204.7875
21
10.05
0
LINE
8
0
10
204.7875
20
10.05
11
185.7375
21
10.05
0
LINE
8
0
10
185.7375
20
10.05
11
185.7375
21
28.05
0
LINE
8
0
10
185.7375
20
47.1
11
204.7875
21
47.1
0
LINE
8
0
10
204.7875
20
47.1
11
204.7875
21
29.1
0
LINE
8
0
10
204.7875
20
29.1
11
185.7375
21
29.1
0
LINE
8
0
10
185.7375
20
29.1
11
185.7375
21
47.1
0
LINE
8
0
10
185.7375
20
66.15
11
204.7875
21
66.15
0
LINE
8
0
10
204.7875
20
66.15
11
204.7875
21
48.15
0
LINE
8
0
10
204.7875
20
48.15
11
185.7375
21
48.15
0
LINE
8
0
10
185.7375
20
48.15
11
185.7375
21
66.15
0
LINE
8
0
10
204.7875
20
28.05
11
223.8375
21
28.05
0
LINE
8
0
10
223.8375
20
28.05
11
223.8375
21
10.05
0
LINE
8
0
10
223.8375
20
10.05
11
204.7875
21
10.05
0
LINE
8
0
10
204.7875
20
10.05
11
204.7875
21
28.05
0
LINE
8
0
10
204.7875
20
47.1
11
223.8375
21
47.1
0
LINE
8
0
10
223.8375
20
47.1
11
223.8375
21
29.1
0
LINE
8
0
10
223.8375
20
29.1
11
204.7875
21
29.1
0
LINE
8
0
10
204.7875
20
29.1
11
204.7875
21
47.1
0
LINE
8
0
10
204.7875
20
66.15
11
223.8375
21
66.15
0
LINE
8
0
10
223.8375
20
66.15
11
223.8375
21
48.15
0
LINE
8
0
10
223.8375
20
48.15
11
204.7875
21
48.15
0
LINE
8
0
10
204.7875
20
48.15
11
204.7875
21
66.15
0
LINE
8
0
10
223.8375
20
28.05
11
242.8875
21
28.05
0
LINE
8
0
10
242.8875
20
28.05
11
242.8875
21
10.05
0
LINE
8
0
10
242.8875
20
10.05
11
223.8375
21
10.05
0
LINE
8
0
10
223.8375
20
10.05
11
223.8375
21
28.05
0
LINE
8
0
10
223.8375
20
47.1
11
242.8875
21
47.1
0
LINE
8
0
10
242.8875
20
47.1
11
242.8875
21
29.1
0
LINE
8
0
10
242.8875
20
29.1
11
223.8375
21
29.1
0
LINE
8
0
10
223.8375
20
29.1
11
223.8375
21
47.1
0
LINE
8
0
10
223.8375
20
66.15
11
242.8875
21
66.15
0
LINE
8
0
10
242.8875
20
66.15
11
242.8875
21
48.15
0
LINE
8
0
10
242.8875
20
48.15
11
223.8375
21
48.15
0
LINE
8
0
10
223.8375
20
48.15
11
223.8375
21
66.15
0
LINE
8
0
10
242.8875
20
28.05
11
261.9375
21
28.05
0
LINE
8
0
10
261.9375
20
28.05
11
261.9375
21
10.05
0
LINE
8
0
10
261.9375
20
10.05
11
242.8875
21
10.05
0
LINE
8
0
10
242.8875
20
10.05
11
242.8875
21
28.05
0
LINE
8
0
10
242.8875
20
47.1
11
261.9375
21
47.1
0
LINE
8
0
10
261.9375
20
47.1
11
261.9375
21
29.1
0
LINE
8
0
10
261.9375
20
29.1
11
242.8875
21
29.1
0
LINE
8
0
10
242.8875
20
29.1
11
242.8875
21
47.1
0
LINE
8
0
10
242.8875
20
66.15
11
261.9375
21
66.15
0
LINE
8
0
10
261.9375
20
66.15
11
261.9375
21
48.15
0
LINE
8
0
10
261.9375
20
48.15
11
242.8875
21
48.15
0
LINE
8
0
10
242.8875
20
48.15
11
242.8875
21
66.15
0
LINE
8
0
10
259.55625
20
9
11
283.36875
21
9
0
LINE
8
0
10
283.36875
20
9
11
283.36875
21
-9
0
LINE
8
0
10
283.36875
20
-9
11
259.55625
21
-9
0
LINE
8
0
10
259.55625
20
-9
11
259.55625
21
9
0
LINE
8
0
10
259.55625
20
28.05
11
283.36875
21
28.05
0
LINE
8
0
10
283.36875
20
28.05
11
283.36875
21
10.05
0
LINE
8
0
10
283.36875
20
10.05
11
259.55625
21
10.05
0
LINE
8
0
10
259.55625
20
10.05
11
259.55625
21
28.05
0
LINE
8
0
10
261.9375
20
47.1
11
280.9875
21
47.1
0
LINE
8
0
10
280.9875
20
47.1
11
280.9875
21
29.1
0
LINE
8
0
10
280.9875
20
29.1
11
261.9375
21
29.1
0
LINE
8
0
10
261.9375
20
29.1
11
261.9375
21
47.1
0
LINE
8
0
10
261.9375
20
66.15
11
280.9875
21
66.15
0
LINE
8
0
10
280.9875
20
66.15
11
280.9875
21
48.15
0
LINE
8
0
10
280.9875
20
48.15
11
261.9375
21
48.15
0
LINE
8
0
10
261.9375
20
48.15
11
261.9375
21
66.15
0
LINE
8
0
10
278.60625
20
9
11
302.41875
21
9
0
LINE
8
0
10
302.41875
20
9
11
302.41875
21
-9
0
LINE
8
0
10
302.41875
20
-9
11
278.60625
21
-9
0
LINE
8
0
10
278.60625
20
-9
11
278.60625
21
9
0
LINE
8
0
10
280.9875
20
28.05
11
300.0375
21
28.05
0
LINE
8
0
10
300.0375
20
28.05
11
300.0375
21
10.05
0
LINE
8
0
10
300.0375
20
10.05
11
280.9875
21
10.05
0
LINE
8
0
10
280.9875
20
10.05
11
280.9875
21
28.05
0
LINE
8
0
10
273.84375
20
47.1
11
307.18125
21
47.1
0
LINE
8
0
10
307.18125
20
47.1
11
307.18125
21
29.1
0
LINE
8
0
10
307.18125
20
29.1
11
273.84375
21
29.1
0
LINE
8
0
10
273.84375
20
29.1
11
273.84375
21
47.1
0
LINE
8
0
10
280.9875
20
66.15
11
300.0375
21
66.15
0
LINE
8
0
10
300.0375
20
66.15
11
300.0375
21
48.15
0
LINE
8
0
10
300.0375
20
48.15
11
280.9875
21
48.15
0
LINE
8
0
10
280.9875
20
48.15
11
280.9875
21
66.15
0
LINE
8
0
10
300.0375
20
66.15
11
319.0875
21
66.15
0
LINE
8
0
10
319.0875
20
66.15
11
319.0875
21
48.15
0
LINE
8
0
10
319.0875
20
48.15
11
300.0375
21
48.15
0
LINE
8
0
10
300.0375
20
48.15
11
300.0375
21
66.15
0
ENDSEC
0
EOF