0
SECTION
2
HEADER
9
$INSUNITS
70
4
0
ENDSEC
0
SECTION
2
TABLES
0
TABLE
2
LTYPE
0
LTYPE
72
65
70
64
2
CONTINUOUS
3
______
73
0
40
0
0
ENDTAB
0
TABLE
2
LAYER
0
ENDTAB
0
ENDSEC
0
SECTION
2
ENTITIES
0
LINE
8
0
10
128.3
20
19.625
11
128.3
21
78.3164573
0
ARC
8
0
10
129.1125
20
83.25
40
5
50
260.6479649
51
270
0
LINE
8
0
10
129.1125
20
78.25
11
135.4759859
21
78.25
0
ARC
8
0
10
143.4
20
74.15
40
5
50
172.0967922
51
180
0
LINE
8
0
10
138.4
20
74.15
11
138.4
21
56.15
0
ARC
8
0
10
143.4
20
56.15
40
5
50
180
51
227.2227852
0
LINE
8
0
10
140.0042527
20
52.48
11
138.9
21
52.48
0
ARC
8
0
10
138.9
20
47.48
40
5
50
90
51
180
0
LINE
8
0
10
133.9
20
47.48
11
133.9
21
29.48
0
ARC
8
0
10
138.9
20
29.48
40
5
50
180
51
270
0
LINE
8
0
10
138.9
20
24.48
11
165.9
21
24.48
0
ARC
8
0
10
165.9
20
29.48
40
5
50
270
51
360
0
LINE
8
0
10
170.9
20
29.48
11
170.9
21
47.48
0
ARC
8
0
10
165.9
20
47.48
40
5
50
0
51
90
0
LINE
8
0
10
165.9
20
52.48
11
164.7957473
21
52.48
0
ARC
8
0
10
161.4
20
56.15
40
5
50
312.7772148
51
360
0
LINE
8
0
10
166.4
20
56.15
11
166.4
21
74.15
0
ARC
8
0
10
161.4
20
74.15
40
5
50
0
51
7.9032078
0
LINE
8
0
10
169.3240141
20
78.25
11
175.6875
21
78.25
0
ARC
8
0
10
175.6875
20
83.25
40
5
50
270
51
360
0
LINE
8
0
10
180.6875
20
83.25
11
180.6875
21
101.25
0
ARC
8
0
10
175.6875
20
101.25
40
5
50
0
51
90
0
LINE
8
0
10
175.6875
20
106.25
11
173.2885069
21
106.25
0
ARC
8
0
10
168.4
20
107.3
40
5
50
347.8776477
51
360
0
LINE
8
0
10
173.4
20
107.3
11
173.4
21
123.3
0
ARC
8
0
10
168.4
20
123.3
40
5
50
0
51
90
0
LINE
8
0
10
168.4
20
128.3
11
136.4
21
128.3
0
ARC
8
0
10
136.4
20
123.3
40
5
50
90
51
180
0
LINE
8
0
10
131.4
20
123.3
11
131.4
21
107.3
0
ARC
8
0
10
136.4
20
107.3
40
5
50
180
51
192.1223523
0
LINE
8
0
10
131.5114931
20
106.25
11
129.1125
21
106.25
0
ARC
8
0
10
129.1125
20
101.25
40
5
50
90
51
99.3520351
0
LINE
8
0
10
128.3
20
106.1835427
11
128.3
21
132.775
0
ARC
8
0
10
123.3
20
132.775
40
5
50
0
51
90
0
LINE
8
0
10
95.3
20
137.775
11
123.3
21
137.775
0
ARC
8
0
10
95.3
20
132.775
40
5
50
90
51
180
0
LINE
8
0
10
90.3
20
19.625
11
90.3
21
132.775
0
ARC
8
0
10
95.3
20
19.625
40
5
50
180
51
270
0
LINE
8
0
10
95.3
20
14.625
11
123.3
21
14.625
0
ARC
8
0
10
123.3
20
19.625
40
5
50
270
51
0
0
LINE
8
0
10
152.6875
20
101.25
11
152.6875
21
83.25
0
ARC
8
0
10
157.6875
20
83.25
40
5
50
180
51
235.0847938
0
LINE
8
0
10
154.8256824
20
79.15
11
149.9743176
21
79.15
0
ARC
8
0
10
147.1125
20
83.25
40
5
50
304.9152062
51
360
0
LINE
8
0
10
152.1125
20
83.25
11
152.1125
21
101.25
0
ARC
8
0
10
147.1125
20
101.25
40
5
50
0
51
12.1223523
0
LINE
8
0
10
152.0010069
20
102.3
11
152.7989931
21
102.3
0
ARC
8
0
10
157.6875
20
101.25
40
5
50
167.8776477
51
180
0
ARC
8
0
10
135.4759859
20
75.25
40
3
50
352.0967922
51
90
0
ARC
8
0
10
169.3240141
20
75.25
40
3
50
90
51
187.9032078
0
ENDSEC
0
EOF