0
SECTION
2
HEADER
9
$INSUNITS
70
4
0
ENDSEC
0
SECTION
2
TABLES
0
TABLE
2
LTYPE
0
LTYPE
72
65
70
64
2
CONTINUOUS
3
______
73
0
40
0
0
ENDTAB
0
TABLE
2
LAYER
0
ENDTAB
0
ENDSEC
0
SECTION
2
ENTITIES
0
LINE
8
0
10
123.3
20
19.625
11
123.3
21
132.775
0
LINE
8
0
10
95.3
20
19.625
11
123.3
21
19.625
0
LINE
8
0
10
95.3
20
19.625
11
95.3
21
31.1
0
LINE
8
0
10
95.3
20
45.1
11
95.3
21
50.15
0
LINE
8
0
10
95.3
20
64.15
11
95.3
21
69.2
0
LINE
8
0
10
95.3
20
83.2
11
95.3
21
88.25
0
LINE
8
0
10
95.3
20
102.25
11
95.3
21
107.3
0
LINE
8
0
10
95.3
20
121.3
11
95.3
21
132.775
0
LINE
8
0
10
95.3
20
132.775
11
123.3
21
132.775
0
LINE
8
0
10
157.6875
20
83.25
11
175.6875
21
83.25
0
LINE
8
0
10
175.6875
20
83.25
11
175.6875
21
101.25
0
LINE
8
0
10
175.6875
20
101.25
11
157.6875
21
101.25
0
LINE
8
0
10
157.6875
20
101.25
11
157.6875
21
83.25
0
LINE
8
0
10
129.1125
20
83.25
11
147.1125
21
83.25
0
LINE
8
0
10
147.1125
20
83.25
11
147.1125
21
101.25
0
LINE
8
0
10
147.1125
20
101.25
11
129.1125
21
101.25
0
LINE
8
0
10
129.1125
20
101.25
11
129.1125
21
83.25
0
LINE
8
0
10
143.4
20
56.15
11
161.4
21
56.15
0
LINE
8
0
10
161.4
20
56.15
11
161.4
21
74.15
0
LINE
8
0
10
161.4
20
74.15
11
143.4
21
74.15
0
LINE
8
0
10
143.4
20
74.15
11
143.4
21
56.15
0
LINE
8
0
10
138.9
20
29.48
11
165.9
21
29.48
0
LINE
8
0
10
165.9
20
29.48
11
165.9
21
47.48
0
LINE
8
0
10
165.9
20
47.48
11
138.9
21
47.48
0
LINE
8
0
10
138.9
20
47.48
11
138.9
21
29.48
0
LINE
8
0
10
136.4
20
107.3
11
168.4
21
107.3
0
LINE
8
0
10
168.4
20
107.3
11
168.4
21
123.3
0
LINE
8
0
10
168.4
20
123.3
11
136.4
21
123.3
0
LINE
8
0
10
136.4
20
123.3
11
136.4
21
107.3
0
LINE
8
0
10
95.3
20
31.1
11
102.25
21
31.1
0
LINE
8
0
10
102.25
20
31.1
11
102.25
21
45.1
0
LINE
8
0
10
102.25
20
45.1
11
95.3
21
45.1
0
LINE
8
0
10
95.3
20
50.15
11
102.25
21
50.15
0
LINE
8
0
10
102.25
20
50.15
11
102.25
21
64.15
0
LINE
8
0
10
102.25
20
64.15
11
95.3
21
64.15
0
LINE
8
0
10
95.3
20
69.2
11
102.25
21
69.2
0
LINE
8
0
10
102.25
20
69.2
11
102.25
21
83.2
0
LINE
8
0
10
102.25
20
83.2
11
95.3
21
83.2
0
LINE
8
0
10
95.3
20
88.25
11
102.25
21
88.25
0
LINE
8
0
10
102.25
20
88.25
11
102.25
21
102.25
0
LINE
8
0
10
102.25
20
102.25
11
95.3
21
102.25
0
LINE
8
0
10
95.3
20
107.3
11
102.25
21
107.3
0
LINE
8
0
10
102.25
20
107.3
11
102.25
21
121.3
0
LINE
8
0
10
102.25
20
121.3
11
95.3
21
121.3
0
LINE
8
0
10
107.3
20
31.1
11
121.3
21
31.1
0
LINE
8
0
10
121.3
20
31.1
11
121.3
21
45.1
0
LINE
8
0
10
121.3
20
45.1
11
107.3
21
45.1
0
LINE
8
0
10
107.3
20
45.1
11
107.3
21
31.1
0
LINE
8
0
10
107.3
20
50.15
11
121.3
21
50.15
0
LINE
8
0
10
121.3
20
50.15
11
121.3
21
64.15
0
LINE
8
0
10
121.3
20
64.15
11
107.3
21
64.15
0
LINE
8
0
10
107.3
20
64.15
11
107.3
21
50.15
0
LINE
8
0
10
107.3
20
69.2
11
121.3
21
69.2
0
LINE
8
0
10
121.3
20
69.2
11
121.3
21
83.2
0
LINE
8
0
10
121.3
20
83.2
11
107.3
21
83.2
0
LINE
8
0
10
107.3
20
83.2
11
107.3
21
69.2
0
LINE
8
0
10
107.3
20
88.25
11
121.3
21
88.25
0
LINE
8
0
10
121.3
20
88.25
11
121.3
21
102.25
0
LINE
8
0
10
121.3
20
102.25
11
107.3
21
102.25
0
LINE
8
0
10
107.3
20
102.25
11
107.3
21
88.25
0
LINE
8
0
10
107.3
20
107.3
11
121.3
21
107.3
0
LINE
8
0
10
121.3
20
107.3
11
121.3
21
121.3
0
LINE
8
0
10
121.3
20
121.3
11
107.3
21
121.3
0
LINE
8
0
10
107.3
20
121.3
11
107.3
21
107.3
0
LINE
8
0
10
145.4
20
31.48
11
159.4
21
31.48
0
LINE
8
0
10
159.4
20
31.48
11
159.4
21
45.48
0
LINE
8
0
10
159.4
20
45.48
11
145.4
21
45.48
0
LINE
8
0
10
145.4
20
45.48
11
145.4
21
31.48
0
CIRCLE
8
0
10
166.6875
20
92.25
40
3.5
0
CIRCLE
8
0
10
138.1125
20
92.25
40
3.5
0
CIRCLE
8
0
10
152.4
20
65.15
40
3.5
0
LINE
8
0
10
138.4
20
107.8
11
166.4
21
107.8
0
LINE
8
0
10
166.4
20
107.8
11
166.4
21
122.8
0
LINE
8
0
10
166.4
20
122.8
11
138.4
21
122.8
0
LINE
8
0
10
138.4
20
122.8
11
138.4
21
107.8
0
ENDSEC
0
EOF