0
SECTION
2
HEADER
9
$INSUNITS
70
4
0
ENDSEC
0
SECTION
2
TABLES
0
TABLE
2
LTYPE
0
LTYPE
72
65
70
64
2
CONTINUOUS
3
______
73
0
40
0
0
ENDTAB
0
TABLE
2
LAYER
0
ENDTAB
0
ENDSEC
0
SECTION
2
ENTITIES
0
LINE
8
0
10
47.625
20
23.575
11
87.3
21
23.575
0
LINE
8
0
10
90.3
20
19.625
11
90.3
21
20.575
0
ARC
8
0
10
95.3
20
19.625
40
5
50
180
51
270
0
LINE
8
0
10
95.3
20
14.625
11
123.3
21
14.625
0
ARC
8
0
10
123.3
20
19.625
40
5
50
270
51
0
0
LINE
8
0
10
128.3
20
19.625
11
128.3
21
26.3446693
0
ARC
8
0
10
123.825
20
28.575
40
5
50
333.5084297
51
360
0
LINE
8
0
10
128.825
20
28.575
11
128.825
21
77.2582725
0
ARC
8
0
10
129.1125
20
82.25
40
5
50
266.7036745
51
270
0
LINE
8
0
10
129.1125
20
77.25
11
135.4759859
21
77.25
0
ARC
8
0
10
143.4
20
73.15
40
5
50
172.0967922
51
180
0
LINE
8
0
10
138.4
20
73.15
11
138.4
21
55.15
0
ARC
8
0
10
143.4
20
55.15
40
5
50
180
51
200.7092781
0
ARC
8
0
10
138.9
20
48.385
40
5
50
92.0279365
51
180
0
LINE
8
0
10
133.9
20
48.385
11
133.9
21
30.385
0
ARC
8
0
10
138.9
20
30.385
40
5
50
180
51
270
0
LINE
8
0
10
138.9
20
25.385
11
165.9
21
25.385
0
ARC
8
0
10
165.9
20
30.385
40
5
50
270
51
360
0
LINE
8
0
10
170.9
20
30.385
11
170.9
21
48.385
0
ARC
8
0
10
165.9
20
48.385
40
5
50
0
51
87.9720635
0
ARC
8
0
10
161.4
20
55.15
40
5
50
339.2907219
51
360
0
LINE
8
0
10
166.4
20
55.15
11
166.4
21
73.15
0
ARC
8
0
10
161.4
20
73.15
40
5
50
0
51
7.9032078
0
LINE
8
0
10
169.3240141
20
77.25
11
175.6875
21
77.25
0
ARC
8
0
10
175.6875
20
82.25
40
5
50
270
51
360
0
LINE
8
0
10
180.6875
20
82.25
11
180.6875
21
100.25
0
ARC
8
0
10
175.6875
20
100.25
40
5
50
0
51
90
0
LINE
8
0
10
175.6875
20
105.25
11
173.2885069
21
105.25
0
ARC
8
0
10
168.4
20
106.3
40
5
50
347.8776477
51
360
0
LINE
8
0
10
173.4
20
106.3
11
173.4
21
122.3
0
ARC
8
0
10
168.4
20
122.3
40
5
50
0
51
90
0
LINE
8
0
10
168.4
20
127.3
11
136.4
21
127.3
0
ARC
8
0
10
136.4
20
122.3
40
5
50
90
51
180
0
LINE
8
0
10
131.4
20
122.3
11
131.4
21
106.3
0
ARC
8
0
10
136.4
20
106.3
40
5
50
180
51
192.1223523
0
LINE
8
0
10
131.5114931
20
105.25
11
129.1125
21
105.25
0
ARC
8
0
10
129.1125
20
100.25
40
5
50
90
51
93.2963255
0
LINE
8
0
10
128.825
20
105.2417275
11
128.825
21
123.825
0
ARC
8
0
10
123.825
20
123.825
40
5
50
360
51
386.4915703
0
LINE
8
0
10
128.3
20
126.0553307
11
128.3
21
132.775
0
ARC
8
0
10
123.3
20
132.775
40
5
50
0
51
90
0
LINE
8
0
10
95.3
20
137.775
11
123.3
21
137.775
0
ARC
8
0
10
95.3
20
132.775
40
5
50
90
51
180
0
LINE
8
0
10
90.3
20
131.825
11
90.3
21
132.775
0
LINE
8
0
10
47.625
20
128.825
11
87.3
21
128.825
0
ARC
8
0
10
47.625
20
123.825
40
5
50
90
51
180
0
LINE
8
0
10
42.625
20
28.575
11
42.625
21
123.825
0
ARC
8
0
10
47.625
20
28.575
40
5
50
180
51
270
0
LINE
8
0
10
103.3
20
33.575
11
115.3
21
33.575
0
LINE
8
0
10
118.3
20
36.575
11
118.3
21
115.825
0
LINE
8
0
10
103.3
20
118.825
11
115.3
21
118.825
0
LINE
8
0
10
100.3
20
36.575
11
100.3
21
115.825
0
LINE
8
0
10
152.6875
20
100.25
11
152.6875
21
82.25
0
ARC
8
0
10
157.6875
20
82.25
40
5
50
180
51
235.0847938
0
LINE
8
0
10
154.8256824
20
78.15
11
149.9743176
21
78.15
0
ARC
8
0
10
147.1125
20
82.25
40
5
50
304.9152062
51
360
0
LINE
8
0
10
152.1125
20
82.25
11
152.1125
21
100.25
0
ARC
8
0
10
147.1125
20
100.25
40
5
50
0
51
12.1223523
0
LINE
8
0
10
152.0010069
20
101.3
11
152.7989931
21
101.3
0
ARC
8
0
10
157.6875
20
100.25
40
5
50
167.8776477
51
180
0
ARC
8
0
10
87.3
20
20.575
40
3
50
0
51
90
0
ARC
8
0
10
135.4759859
20
74.25
40
3
50
352.0967922
51
90
0
ARC
8
0
10
169.3240141
20
74.25
40
3
50
90
51
187.9032078
0
ARC
8
0
10
87.3
20
131.825
40
3
50
270
51
0
0
ARC
8
0
10
115.3
20
36.575
40
3
50
270
51
0
0
ARC
8
0
10
115.3
20
115.825
40
3
50
0
51
90
0
ARC
8
0
10
103.3
20
115.825
40
3
50
90
51
180
0
ARC
8
0
10
103.3
20
36.575
40
3
50
180
51
270
0
ENDSEC
0
EOF