0
SECTION
2
HEADER
9
$INSUNITS
70
4
0
ENDSEC
0
SECTION
2
TABLES
0
TABLE
2
LTYPE
0
LTYPE
72
65
70
64
2
CONTINUOUS
3
______
73
0
40
0
0
ENDTAB
0
TABLE
2
LAYER
0
ENDTAB
0
ENDSEC
0
SECTION
2
ENTITIES
0
LINE
8
0
10
28.575
20
28.575
11
95.3
21
28.575
0
LINE
8
0
10
123.3
20
28.575
11
123.825
21
28.575
0
LINE
8
0
10
28.575
20
28.575
11
28.575
21
105.3
0
LINE
8
0
10
28.575
20
123.3
11
28.575
21
123.825
0
LINE
8
0
10
28.575
20
123.825
11
123.825
21
123.825
0
LINE
8
0
10
123.825
20
28.575
11
123.825
21
123.825
0
LINE
8
0
10
10.575
20
105.3
11
28.575
21
105.3
0
LINE
8
0
10
10.575
20
123.3
11
28.575
21
123.3
0
LINE
8
0
10
10.575
20
105.3
11
10.575
21
123.3
0
LINE
8
0
10
123.3
20
19.625
11
123.3
21
28.575
0
LINE
8
0
10
95.3
20
19.625
11
123.3
21
19.625
0
LINE
8
0
10
95.3
20
19.625
11
95.3
21
28.575
0
LINE
8
0
10
50.15
20
31.1
11
64.15
21
31.1
0
LINE
8
0
10
64.15
20
31.1
11
64.15
21
45.1
0
LINE
8
0
10
64.15
20
45.1
11
50.15
21
45.1
0
LINE
8
0
10
50.15
20
45.1
11
50.15
21
31.1
0
LINE
8
0
10
50.15
20
50.15
11
64.15
21
50.15
0
LINE
8
0
10
64.15
20
50.15
11
64.15
21
64.15
0
LINE
8
0
10
64.15
20
64.15
11
50.15
21
64.15
0
LINE
8
0
10
50.15
20
64.15
11
50.15
21
50.15
0
LINE
8
0
10
50.15
20
69.2
11
64.15
21
69.2
0
LINE
8
0
10
64.15
20
69.2
11
64.15
21
83.2
0
LINE
8
0
10
64.15
20
83.2
11
50.15
21
83.2
0
LINE
8
0
10
50.15
20
83.2
11
50.15
21
69.2
0
LINE
8
0
10
50.15
20
88.25
11
64.15
21
88.25
0
LINE
8
0
10
64.15
20
88.25
11
64.15
21
102.25
0
LINE
8
0
10
64.15
20
102.25
11
50.15
21
102.25
0
LINE
8
0
10
50.15
20
102.25
11
50.15
21
88.25
0
LINE
8
0
10
50.15
20
107.3
11
64.15
21
107.3
0
LINE
8
0
10
64.15
20
107.3
11
64.15
21
121.3
0
LINE
8
0
10
64.15
20
121.3
11
50.15
21
121.3
0
LINE
8
0
10
50.15
20
121.3
11
50.15
21
107.3
0
LINE
8
0
10
69.2
20
31.1
11
83.2
21
31.1
0
LINE
8
0
10
83.2
20
31.1
11
83.2
21
45.1
0
LINE
8
0
10
83.2
20
45.1
11
69.2
21
45.1
0
LINE
8
0
10
69.2
20
45.1
11
69.2
21
31.1
0
LINE
8
0
10
69.2
20
50.15
11
83.2
21
50.15
0
LINE
8
0
10
83.2
20
50.15
11
83.2
21
64.15
0
LINE
8
0
10
83.2
20
64.15
11
69.2
21
64.15
0
LINE
8
0
10
69.2
20
64.15
11
69.2
21
50.15
0
LINE
8
0
10
69.2
20
69.2
11
83.2
21
69.2
0
LINE
8
0
10
83.2
20
69.2
11
83.2
21
83.2
0
LINE
8
0
10
83.2
20
83.2
11
69.2
21
83.2
0
LINE
8
0
10
69.2
20
83.2
11
69.2
21
69.2
0
LINE
8
0
10
69.2
20
88.25
11
83.2
21
88.25
0
LINE
8
0
10
83.2
20
88.25
11
83.2
21
102.25
0
LINE
8
0
10
83.2
20
102.25
11
69.2
21
102.25
0
LINE
8
0
10
69.2
20
102.25
11
69.2
21
88.25
0
LINE
8
0
10
69.2
20
107.3
11
83.2
21
107.3
0
LINE
8
0
10
83.2
20
107.3
11
83.2
21
121.3
0
LINE
8
0
10
83.2
20
121.3
11
69.2
21
121.3
0
LINE
8
0
10
69.2
20
121.3
11
69.2
21
107.3
0
LINE
8
0
10
88.25
20
31.1
11
102.25
21
31.1
0
LINE
8
0
10
102.25
20
31.1
11
102.25
21
45.1
0
LINE
8
0
10
102.25
20
45.1
11
88.25
21
45.1
0
LINE
8
0
10
88.25
20
45.1
11
88.25
21
31.1
0
LINE
8
0
10
88.25
20
50.15
11
102.25
21
50.15
0
LINE
8
0
10
102.25
20
50.15
11
102.25
21
64.15
0
LINE
8
0
10
102.25
20
64.15
11
88.25
21
64.15
0
LINE
8
0
10
88.25
20
64.15
11
88.25
21
50.15
0
LINE
8
0
10
88.25
20
69.2
11
102.25
21
69.2
0
LINE
8
0
10
102.25
20
69.2
11
102.25
21
83.2
0
LINE
8
0
10
102.25
20
83.2
11
88.25
21
83.2
0
LINE
8
0
10
88.25
20
83.2
11
88.25
21
69.2
0
LINE
8
0
10
88.25
20
88.25
11
102.25
21
88.25
0
LINE
8
0
10
102.25
20
88.25
11
102.25
21
102.25
0
LINE
8
0
10
102.25
20
102.25
11
88.25
21
102.25
0
LINE
8
0
10
88.25
20
102.25
11
88.25
21
88.25
0
LINE
8
0
10
88.25
20
107.3
11
102.25
21
107.3
0
LINE
8
0
10
102.25
20
107.3
11
102.25
21
121.3
0
LINE
8
0
10
102.25
20
121.3
11
88.25
21
121.3
0
LINE
8
0
10
88.25
20
121.3
11
88.25
21
107.3
0
LINE
8
0
10
107.3
20
31.1
11
121.3
21
31.1
0
LINE
8
0
10
121.3
20
31.1
11
121.3
21
45.1
0
LINE
8
0
10
121.3
20
45.1
11
107.3
21
45.1
0
LINE
8
0
10
107.3
20
45.1
11
107.3
21
31.1
0
LINE
8
0
10
107.3
20
50.15
11
121.3
21
50.15
0
LINE
8
0
10
121.3
20
50.15
11
121.3
21
64.15
0
LINE
8
0
10
121.3
20
64.15
11
107.3
21
64.15
0
LINE
8
0
10
107.3
20
64.15
11
107.3
21
50.15
0
LINE
8
0
10
107.3
20
69.2
11
121.3
21
69.2
0
LINE
8
0
10
121.3
20
69.2
11
121.3
21
83.2
0
LINE
8
0
10
121.3
20
83.2
11
107.3
21
83.2
0
LINE
8
0
10
107.3
20
83.2
11
107.3
21
69.2
0
LINE
8
0
10
107.3
20
88.25
11
121.3
21
88.25
0
LINE
8
0
10
121.3
20
88.25
11
121.3
21
102.25
0
LINE
8
0
10
121.3
20
102.25
11
107.3
21
102.25
0
LINE
8
0
10
107.3
20
102.25
11
107.3
21
88.25
0
LINE
8
0
10
107.3
20
107.3
11
121.3
21
107.3
0
LINE
8
0
10
121.3
20
107.3
11
121.3
21
121.3
0
LINE
8
0
10
121.3
20
121.3
11
107.3
21
121.3
0
LINE
8
0
10
107.3
20
121.3
11
107.3
21
107.3
0
ENDSEC
0
EOF