0
SECTION
2
HEADER
9
$INSUNITS
70
4
0
ENDSEC
0
SECTION
2
TABLES
0
TABLE
2
LTYPE
0
LTYPE
72
65
70
64
2
CONTINUOUS
3
______
73
0
40
0
0
ENDTAB
0
TABLE
2
LAYER
0
ENDTAB
0
ENDSEC
0
SECTION
2
ENTITIES
0
LINE
8
0
10
28.575
20
26.575
11
90.3
21
26.575
0
LINE
8
0
10
93.3
20
19.625
11
93.3
21
23.575
0
ARC
8
0
10
95.3
20
19.625
40
2
50
180
51
270
0
LINE
8
0
10
95.3
20
17.625
11
123.3
21
17.625
0
ARC
8
0
10
123.3
20
19.625
40
2
50
270
51
0
0
LINE
8
0
10
125.3
20
19.625
11
125.3
21
27.2243057
0
ARC
8
0
10
123.825
20
28.575
40
2
50
317.5188864
51
360
0
LINE
8
0
10
125.825
20
28.575
11
125.825
21
123.825
0
ARC
8
0
10
123.825
20
123.825
40
2
50
360
51
90
0
LINE
8
0
10
28.575
20
125.825
11
123.825
21
125.825
0
ARC
8
0
10
28.575
20
123.825
40
2
50
90
51
132.4811136
0
LINE
8
0
10
10.575
20
125.3
11
27.2243057
21
125.3
0
ARC
8
0
10
10.575
20
123.3
40
2
50
90
51
180
0
LINE
8
0
10
8.575
20
105.3
11
8.575
21
123.3
0
ARC
8
0
10
10.575
20
105.3
40
2
50
180
51
270
0
LINE
8
0
10
10.575
20
103.3
11
23.575
21
103.3
0
LINE
8
0
10
26.575
20
28.575
11
26.575
21
100.3
0
ARC
8
0
10
28.575
20
28.575
40
2
50
180
51
270
0
LINE
8
0
10
100.3
20
30.575
11
118.3
21
30.575
0
LINE
8
0
10
121.3
20
33.575
11
121.3
21
89.675
0
LINE
8
0
10
100.3
20
92.675
11
118.3
21
92.675
0
LINE
8
0
10
97.3
20
33.575
11
97.3
21
89.675
0
LINE
8
0
10
30.575
20
110.3
11
30.575
21
118.3
0
LINE
8
0
10
33.575
20
121.3
11
79.675
21
121.3
0
LINE
8
0
10
82.675
20
110.3
11
82.675
21
118.3
0
LINE
8
0
10
33.575
20
107.3
11
79.675
21
107.3
0
LINE
8
0
10
136.4
20
104.3
11
168.4
21
104.3
0
ARC
8
0
10
168.4
20
106.3
40
2
50
270
51
360
0
LINE
8
0
10
170.4
20
106.3
11
170.4
21
122.3
0
ARC
8
0
10
168.4
20
122.3
40
2
50
0
51
90
0
LINE
8
0
10
168.4
20
124.3
11
136.4
21
124.3
0
ARC
8
0
10
136.4
20
122.3
40
2
50
90
51
180
0
LINE
8
0
10
134.4
20
122.3
11
134.4
21
106.3
0
ARC
8
0
10
136.4
20
106.3
40
2
50
180
51
270
0
LINE
8
0
10
138.9
20
28.385
11
165.9
21
28.385
0
ARC
8
0
10
165.9
20
30.385
40
2
50
270
51
360
0
LINE
8
0
10
167.9
20
30.385
11
167.9
21
48.385
0
ARC
8
0
10
165.9
20
48.385
40
2
50
0
51
90
0
LINE
8
0
10
165.9
20
50.385
11
138.9
21
50.385
0
ARC
8
0
10
138.9
20
48.385
40
2
50
90
51
180
0
LINE
8
0
10
136.9
20
48.385
11
136.9
21
30.385
0
ARC
8
0
10
138.9
20
30.385
40
2
50
180
51
270
0
LINE
8
0
10
157.6875
20
80.25
11
175.6875
21
80.25
0
ARC
8
0
10
175.6875
20
82.25
40
2
50
270
51
360
0
LINE
8
0
10
177.6875
20
82.25
11
177.6875
21
100.25
0
ARC
8
0
10
175.6875
20
100.25
40
2
50
0
51
90
0
LINE
8
0
10
175.6875
20
102.25
11
157.6875
21
102.25
0
ARC
8
0
10
157.6875
20
100.25
40
2
50
90
51
180
0
LINE
8
0
10
155.6875
20
100.25
11
155.6875
21
82.25
0
ARC
8
0
10
157.6875
20
82.25
40
2
50
180
51
270
0
LINE
8
0
10
129.1125
20
80.25
11
147.1125
21
80.25
0
ARC
8
0
10
147.1125
20
82.25
40
2
50
270
51
360
0
LINE
8
0
10
149.1125
20
82.25
11
149.1125
21
100.25
0
ARC
8
0
10
147.1125
20
100.25
40
2
50
0
51
90
0
LINE
8
0
10
147.1125
20
102.25
11
129.1125
21
102.25
0
ARC
8
0
10
129.1125
20
100.25
40
2
50
90
51
180
0
LINE
8
0
10
127.1125
20
100.25
11
127.1125
21
82.25
0
ARC
8
0
10
129.1125
20
82.25
40
2
50
180
51
270
0
LINE
8
0
10
143.4
20
53.15
11
161.4
21
53.15
0
ARC
8
0
10
161.4
20
55.15
40
2
50
270
51
360
0
LINE
8
0
10
163.4
20
55.15
11
163.4
21
73.15
0
ARC
8
0
10
161.4
20
73.15
40
2
50
0
51
90
0
LINE
8
0
10
161.4
20
75.15
11
143.4
21
75.15
0
ARC
8
0
10
143.4
20
73.15
40
2
50
90
51
180
0
LINE
8
0
10
141.4
20
73.15
11
141.4
21
55.15
0
ARC
8
0
10
143.4
20
55.15
40
2
50
180
51
270
0
ARC
8
0
10
90.3
20
23.575
40
3
50
0
51
90
0
ARC
8
0
10
23.575
20
100.3
40
3
50
0
51
90
0
ARC
8
0
10
118.3
20
33.575
40
3
50
270
51
0
0
ARC
8
0
10
118.3
20
89.675
40
3
50
0
51
90
0
ARC
8
0
10
100.3
20
89.675
40
3
50
90
51
180
0
ARC
8
0
10
100.3
20
33.575
40
3
50
180
51
270
0
ARC
8
0
10
33.575
20
118.3
40
3
50
90
51
180
0
ARC
8
0
10
79.675
20
118.3
40
3
50
0
51
90
0
ARC
8
0
10
79.675
20
110.3
40
3
50
270
51
0
0
ARC
8
0
10
33.575
20
110.3
40
3
50
180
51
270
0
ENDSEC
0
EOF