0
SECTION
2
HEADER
9
$INSUNITS
70
4
0
ENDSEC
0
SECTION
2
TABLES
0
TABLE
2
LTYPE
0
LTYPE
72
65
70
64
2
CONTINUOUS
3
______
73
0
40
0
0
ENDTAB
0
TABLE
2
LAYER
0
ENDTAB
0
ENDSEC
0
SECTION
2
ENTITIES
0
LINE
8
0
10
-9
20
9
11
9
21
9
0
LINE
8
0
10
9
20
9
11
9
21
-9
0
LINE
8
0
10
9
20
-9
11
-9
21
-9
0
LINE
8
0
10
-9
20
-9
11
-9
21
9
0
LINE
8
0
10
-9
20
28.05
11
9
21
28.05
0
LINE
8
0
10
9
20
28.05
11
9
21
10.05
0
LINE
8
0
10
9
20
10.05
11
-9
21
10.05
0
LINE
8
0
10
-9
20
10.05
11
-9
21
28.05
0
LINE
8
0
10
-9
20
47.1
11
9
21
47.1
0
LINE
8
0
10
9
20
47.1
11
9
21
29.1
0
LINE
8
0
10
9
20
29.1
11
-9
21
29.1
0
LINE
8
0
10
-9
20
29.1
11
-9
21
47.1
0
LINE
8
0
10
-9
20
66.15
11
9
21
66.15
0
LINE
8
0
10
9
20
66.15
11
9
21
48.15
0
LINE
8
0
10
9
20
48.15
11
-9
21
48.15
0
LINE
8
0
10
-9
20
48.15
11
-9
21
66.15
0
LINE
8
0
10
10.05
20
9
11
28.05
21
9
0
LINE
8
0
10
28.05
20
9
11
28.05
21
-9
0
LINE
8
0
10
28.05
20
-9
11
10.05
21
-9
0
LINE
8
0
10
10.05
20
-9
11
10.05
21
9
0
LINE
8
0
10
10.05
20
28.05
11
28.05
21
28.05
0
LINE
8
0
10
28.05
20
28.05
11
28.05
21
10.05
0
LINE
8
0
10
28.05
20
10.05
11
10.05
21
10.05
0
LINE
8
0
10
10.05
20
10.05
11
10.05
21
28.05
0
LINE
8
0
10
10.05
20
47.1
11
28.05
21
47.1
0
LINE
8
0
10
28.05
20
47.1
11
28.05
21
29.1
0
LINE
8
0
10
28.05
20
29.1
11
10.05
21
29.1
0
LINE
8
0
10
10.05
20
29.1
11
10.05
21
47.1
0
LINE
8
0
10
10.05
20
66.15
11
28.05
21
66.15
0
LINE
8
0
10
28.05
20
66.15
11
28.05
21
48.15
0
LINE
8
0
10
28.05
20
48.15
11
10.05
21
48.15
0
LINE
8
0
10
10.05
20
48.15
11
10.05
21
66.15
0
LINE
8
0
10
29.1
20
9
11
47.1
21
9
0
LINE
8
0
10
47.1
20
9
11
47.1
21
-9
0
LINE
8
0
10
47.1
20
-9
11
29.1
21
-9
0
LINE
8
0
10
29.1
20
-9
11
29.1
21
9
0
LINE
8
0
10
29.1
20
28.05
11
47.1
21
28.05
0
LINE
8
0
10
47.1
20
28.05
11
47.1
21
10.05
0
LINE
8
0
10
47.1
20
10.05
11
29.1
21
10.05
0
LINE
8
0
10
29.1
20
10.05
11
29.1
21
28.05
0
LINE
8
0
10
29.1
20
47.1
11
47.1
21
47.1
0
LINE
8
0
10
47.1
20
47.1
11
47.1
21
29.1
0
LINE
8
0
10
47.1
20
29.1
11
29.1
21
29.1
0
LINE
8
0
10
29.1
20
29.1
11
29.1
21
47.1
0
LINE
8
0
10
29.1
20
66.15
11
47.1
21
66.15
0
LINE
8
0
10
47.1
20
66.15
11
47.1
21
48.15
0
LINE
8
0
10
47.1
20
48.15
11
29.1
21
48.15
0
LINE
8
0
10
29.1
20
48.15
11
29.1
21
66.15
0
LINE
8
0
10
48.15
20
9
11
66.15
21
9
0
LINE
8
0
10
66.15
20
9
11
66.15
21
-9
0
LINE
8
0
10
66.15
20
-9
11
48.15
21
-9
0
LINE
8
0
10
48.15
20
-9
11
48.15
21
9
0
LINE
8
0
10
48.15
20
28.05
11
66.15
21
28.05
0
LINE
8
0
10
66.15
20
28.05
11
66.15
21
10.05
0
LINE
8
0
10
66.15
20
10.05
11
48.15
21
10.05
0
LINE
8
0
10
48.15
20
10.05
11
48.15
21
28.05
0
LINE
8
0
10
48.15
20
47.1
11
66.15
21
47.1
0
LINE
8
0
10
66.15
20
47.1
11
66.15
21
29.1
0
LINE
8
0
10
66.15
20
29.1
11
48.15
21
29.1
0
LINE
8
0
10
48.15
20
29.1
11
48.15
21
47.1
0
LINE
8
0
10
48.15
20
66.15
11
66.15
21
66.15
0
LINE
8
0
10
66.15
20
66.15
11
66.15
21
48.15
0
LINE
8
0
10
66.15
20
48.15
11
48.15
21
48.15
0
LINE
8
0
10
48.15
20
48.15
11
48.15
21
66.15
0
LINE
8
0
10
67.2
20
28.05
11
85.2
21
28.05
0
LINE
8
0
10
85.2
20
28.05
11
85.2
21
10.05
0
LINE
8
0
10
85.2
20
10.05
11
67.2
21
10.05
0
LINE
8
0
10
67.2
20
10.05
11
67.2
21
28.05
0
LINE
8
0
10
67.2
20
47.1
11
85.2
21
47.1
0
LINE
8
0
10
85.2
20
47.1
11
85.2
21
29.1
0
LINE
8
0
10
85.2
20
29.1
11
67.2
21
29.1
0
LINE
8
0
10
67.2
20
29.1
11
67.2
21
47.1
0
LINE
8
0
10
67.2
20
66.15
11
85.2
21
66.15
0
LINE
8
0
10
85.2
20
66.15
11
85.2
21
48.15
0
LINE
8
0
10
85.2
20
48.15
11
67.2
21
48.15
0
LINE
8
0
10
67.2
20
48.15
11
67.2
21
66.15
0
LINE
8
0
10
86.25
20
28.05
11
104.25
21
28.05
0
LINE
8
0
10
104.25
20
28.05
11
104.25
21
10.05
0
LINE
8
0
10
104.25
20
10.05
11
86.25
21
10.05
0
LINE
8
0
10
86.25
20
10.05
11
86.25
21
28.05
0
LINE
8
0
10
86.25
20
47.1
11
104.25
21
47.1
0
LINE
8
0
10
104.25
20
47.1
11
104.25
21
29.1
0
LINE
8
0
10
104.25
20
29.1
11
86.25
21
29.1
0
LINE
8
0
10
86.25
20
29.1
11
86.25
21
47.1
0
LINE
8
0
10
86.25
20
66.15
11
104.25
21
66.15
0
LINE
8
0
10
104.25
20
66.15
11
104.25
21
48.15
0
LINE
8
0
10
104.25
20
48.15
11
86.25
21
48.15
0
LINE
8
0
10
86.25
20
48.15
11
86.25
21
66.15
0
LINE
8
0
10
105.3
20
28.05
11
123.3
21
28.05
0
LINE
8
0
10
123.3
20
28.05
11
123.3
21
10.05
0
LINE
8
0
10
123.3
20
10.05
11
105.3
21
10.05
0
LINE
8
0
10
105.3
20
10.05
11
105.3
21
28.05
0
LINE
8
0
10
105.3
20
47.1
11
123.3
21
47.1
0
LINE
8
0
10
123.3
20
47.1
11
123.3
21
29.1
0
LINE
8
0
10
123.3
20
29.1
11
105.3
21
29.1
0
LINE
8
0
10
105.3
20
29.1
11
105.3
21
47.1
0
LINE
8
0
10
105.3
20
66.15
11
123.3
21
66.15
0
LINE
8
0
10
123.3
20
66.15
11
123.3
21
48.15
0
LINE
8
0
10
123.3
20
48.15
11
105.3
21
48.15
0
LINE
8
0
10
105.3
20
48.15
11
105.3
21
66.15
0
LINE
8
0
10
124.35
20
28.05
11
142.35
21
28.05
0
LINE
8
0
10
142.35
20
28.05
11
142.35
21
10.05
0
LINE
8
0
10
142.35
20
10.05
11
124.35
21
10.05
0
LINE
8
0
10
124.35
20
10.05
11
124.35
21
28.05
0
LINE
8
0
10
124.35
20
47.1
11
142.35
21
47.1
0
LINE
8
0
10
142.35
20
47.1
11
142.35
21
29.1
0
LINE
8
0
10
142.35
20
29.1
11
124.35
21
29.1
0
LINE
8
0
10
124.35
20
29.1
11
124.35
21
47.1
0
LINE
8
0
10
124.35
20
66.15
11
142.35
21
66.15
0
LINE
8
0
10
142.35
20
66.15
11
142.35
21
48.15
0
LINE
8
0
10
142.35
20
48.15
11
124.35
21
48.15
0
LINE
8
0
10
124.35
20
48.15
11
124.35
21
66.15
0
LINE
8
0
10
143.4
20
28.05
11
161.4
21
28.05
0
LINE
8
0
10
161.4
20
28.05
11
161.4
21
10.05
0
LINE
8
0
10
161.4
20
10.05
11
143.4
21
10.05
0
LINE
8
0
10
143.4
20
10.05
11
143.4
21
28.05
0
LINE
8
0
10
143.4
20
47.1
11
161.4
21
47.1
0
LINE
8
0
10
161.4
20
47.1
11
161.4
21
29.1
0
LINE
8
0
10
161.4
20
29.1
11
143.4
21
29.1
0
LINE
8
0
10
143.4
20
29.1
11
143.4
21
47.1
0
LINE
8
0
10
143.4
20
66.15
11
161.4
21
66.15
0
LINE
8
0
10
161.4
20
66.15
11
161.4
21
48.15
0
LINE
8
0
10
161.4
20
48.15
11
143.4
21
48.15
0
LINE
8
0
10
143.4
20
48.15
11
143.4
21
66.15
0
LINE
8
0
10
162.45
20
9
11
180.45
21
9
0
LINE
8
0
10
180.45
20
9
11
180.45
21
-9
0
LINE
8
0
10
180.45
20
-9
11
162.45
21
-9
0
LINE
8
0
10
162.45
20
-9
11
162.45
21
9
0
LINE
8
0
10
162.45
20
28.05
11
180.45
21
28.05
0
LINE
8
0
10
180.45
20
28.05
11
180.45
21
10.05
0
LINE
8
0
10
180.45
20
10.05
11
162.45
21
10.05
0
LINE
8
0
10
162.45
20
10.05
11
162.45
21
28.05
0
LINE
8
0
10
162.45
20
47.1
11
180.45
21
47.1
0
LINE
8
0
10
180.45
20
47.1
11
180.45
21
29.1
0
LINE
8
0
10
180.45
20
29.1
11
162.45
21
29.1
0
LINE
8
0
10
162.45
20
29.1
11
162.45
21
47.1
0
LINE
8
0
10
162.45
20
66.15
11
180.45
21
66.15
0
LINE
8
0
10
180.45
20
66.15
11
180.45
21
48.15
0
LINE
8
0
10
180.45
20
48.15
11
162.45
21
48.15
0
LINE
8
0
10
162.45
20
48.15
11
162.45
21
66.15
0
LINE
8
0
10
181.5
20
9
11
199.5
21
9
0
LINE
8
0
10
199.5
20
9
11
199.5
21
-9
0
LINE
8
0
10
199.5
20
-9
11
181.5
21
-9
0
LINE
8
0
10
181.5
20
-9
11
181.5
21
9
0
LINE
8
0
10
181.5
20
28.05
11
199.5
21
28.05
0
LINE
8
0
10
199.5
20
28.05
11
199.5
21
10.05
0
LINE
8
0
10
199.5
20
10.05
11
181.5
21
10.05
0
LINE
8
0
10
181.5
20
10.05
11
181.5
21
28.05
0
LINE
8
0
10
181.5
20
47.1
11
199.5
21
47.1
0
LINE
8
0
10
199.5
20
47.1
11
199.5
21
29.1
0
LINE
8
0
10
199.5
20
29.1
11
181.5
21
29.1
0
LINE
8
0
10
181.5
20
29.1
11
181.5
21
47.1
0
LINE
8
0
10
181.5
20
66.15
11
199.5
21
66.15
0
LINE
8
0
10
199.5
20
66.15
11
199.5
21
48.15
0
LINE
8
0
10
199.5
20
48.15
11
181.5
21
48.15
0
LINE
8
0
10
181.5
20
48.15
11
181.5
21
66.15
0
LINE
8
0
10
200.55
20
66.15
11
218.55
21
66.15
0
LINE
8
0
10
218.55
20
66.15
11
218.55
21
48.15
0
LINE
8
0
10
218.55
20
48.15
11
200.55
21
48.15
0
LINE
8
0
10
200.55
20
48.15
11
200.55
21
66.15
0
ENDSEC
0
EOF