0
SECTION
2
HEADER
9
$INSUNITS
70
4
0
ENDSEC
0
SECTION
2
TABLES
0
TABLE
2
LTYPE
0
LTYPE
72
65
70
64
2
CONTINUOUS
3
______
73
0
40
0
0
ENDTAB
0
TABLE
2
LAYER
0
ENDTAB
0
ENDSEC
0
SECTION
2
ENTITIES
0
LINE
8
0
10
90.775
20
-83.675
11
106.825
21
-83.675
0
LINE
8
0
10
87.775
20
-80.675
11
87.775
21
-14.775
0
LINE
8
0
10
90.775
20
-11.775
11
103.825
21
-11.775
0
LINE
8
0
10
117.1276915
20
-83.7
11
106.825
21
-83.7
0
LINE
8
0
10
106.825
20
-83.7
11
106.825
21
-83.675
0
LINE
8
0
10
109.825
20
-2.25
11
122.875
21
-2.25
0
LINE
8
0
10
106.825
20
-8.775
11
106.825
21
-5.25
0
LINE
8
0
10
128.875
20
5.961
11
141.925
21
5.961
0
LINE
8
0
10
125.875
20
0.75
11
125.875
21
2.961
0
LINE
8
0
10
147.925
20
13.9634
11
166.375
21
13.9634
0
LINE
8
0
10
169.375
20
10.9634
11
169.375
21
10.711
0
LINE
8
0
10
144.925
20
8.961
11
144.925
21
10.9634
0
LINE
8
0
10
172.375
20
7.711
11
188.425
21
7.711
0
LINE
8
0
10
188.425
20
7.711
11
188.425
21
7.71
0
LINE
8
0
10
235.2375
20
-90.069072
11
235.2375
21
4.71
0
LINE
8
0
10
180.7431943
20
-97.04
11
180.325
21
-97.04
0
LINE
8
0
10
180.325
20
-97.04
11
180.325
21
-96.9518726
0
LINE
8
0
10
188.425
20
7.71
11
232.2375
21
7.71
0
LINE
8
0
10
180.7431943
20
-97.04
11
203.6849316
21
-101.8745823
0
LINE
8
0
10
180.325
20
-96.9518726
11
117.7463041
21
-83.764473
0
LINE
8
0
10
203.6849316
20
-101.8745823
11
207.4881223
21
-103.5519893
0
LINE
8
0
10
235.2375
20
-90.069072
11
242.9385087
21
-95.6028082
0
LINE
8
0
10
231.282239
20
-116.9652489
11
243.6241357
21
-99.7896824
0
LINE
8
0
10
207.4835477
20
-103.5583556
11
227.0953648
21
-117.6508759
0
LINE
8
0
10
207.4835477
20
-103.5583556
11
207.4881223
21
-103.5519893
0
ARC
8
0
10
90.775
20
-80.675
40
3
50
180
51
270
0
ARC
8
0
10
90.775
20
-14.775
40
3
50
90
51
180
0
ARC
8
0
10
103.825
20
-8.775
40
3
50
270
51
0
0
ARC
8
0
10
109.825
20
-5.25
40
3
50
90
51
180
0
ARC
8
0
10
122.875
20
0.75
40
3
50
270
51
0
0
ARC
8
0
10
128.875
20
2.961
40
3
50
90
51
180
0
ARC
8
0
10
141.925
20
8.961
40
3
50
270
51
0
0
ARC
8
0
10
147.925
20
10.9634
40
3
50
90
51
180
0
ARC
8
0
10
166.375
20
10.9634
40
3
50
0
51
90
0
ARC
8
0
10
172.375
20
10.711
40
3
50
180
51
270
0
ARC
8
0
10
232.2375
20
4.71
40
3
50
0
51
90
0
ARC
8
0
10
241.1878851
20
-98.0390587
40
3
50
324.2999996
51
54.2999996
0
ARC
8
0
10
228.8459885
20
-115.2146253
40
3
50
234.2999996
51
324.2999996
0
ARC
8
0
10
117.1276915
20
-86.7
40
3
50
78.0999994
51
90
0
LINE
8
0
10
93
20
-69
11
107
21
-69
0
LINE
8
0
10
107
20
-69
11
107
21
-55
0
LINE
8
0
10
107
20
-55
11
93
21
-55
0
LINE
8
0
10
93
20
-55
11
93
21
-69
0
LINE
8
0
10
93
20
-50
11
107
21
-50
0
LINE
8
0
10
107
20
-50
11
107
21
-36
0
LINE
8
0
10
107
20
-36
11
93
21
-36
0
LINE
8
0
10
93
20
-36
11
93
21
-50
0
LINE
8
0
10
93
20
-31
11
107
21
-31
0
LINE
8
0
10
107
20
-31
11
107
21
-17
0
LINE
8
0
10
107
20
-17
11
93
21
-17
0
LINE
8
0
10
93
20
-17
11
93
21
-31
0
LINE
8
0
10
112.05
20
-78.475
11
126.05
21
-78.475
0
LINE
8
0
10
126.05
20
-78.475
11
126.05
21
-64.475
0
LINE
8
0
10
126.05
20
-64.475
11
112.05
21
-64.475
0
LINE
8
0
10
112.05
20
-64.475
11
112.05
21
-78.475
0
LINE
8
0
10
112.05
20
-59.475
11
126.05
21
-59.475
0
LINE
8
0
10
126.05
20
-59.475
11
126.05
21
-45.475
0
LINE
8
0
10
126.05
20
-45.475
11
112.05
21
-45.475
0
LINE
8
0
10
112.05
20
-45.475
11
112.05
21
-59.475
0
LINE
8
0
10
112.05
20
-40.475
11
126.05
21
-40.475
0
LINE
8
0
10
126.05
20
-40.475
11
126.05
21
-26.475
0
LINE
8
0
10
126.05
20
-26.475
11
112.05
21
-26.475
0
LINE
8
0
10
112.05
20
-26.475
11
112.05
21
-40.475
0
LINE
8
0
10
112.05
20
-21.475
11
126.05
21
-21.475
0
LINE
8
0
10
126.05
20
-21.475
11
126.05
21
-7.475
0
LINE
8
0
10
126.05
20
-7.475
11
112.05
21
-7.475
0
LINE
8
0
10
112.05
20
-7.475
11
112.05
21
-21.475
0
LINE
8
0
10
131.1
20
-74.665
11
145.1
21
-74.665
0
LINE
8
0
10
145.1
20
-74.665
11
145.1
21
-60.665
0
LINE
8
0
10
145.1
20
-60.665
11
131.1
21
-60.665
0
LINE
8
0
10
131.1
20
-60.665
11
131.1
21
-74.665
0
LINE
8
0
10
131.1
20
-55.665
11
145.1
21
-55.665
0
LINE
8
0
10
145.1
20
-55.665
11
145.1
21
-41.665
0
LINE
8
0
10
145.1
20
-41.665
11
131.1
21
-41.665
0
LINE
8
0
10
131.1
20
-41.665
11
131.1
21
-55.665
0
LINE
8
0
10
131.1
20
-36.665
11
145.1
21
-36.665
0
LINE
8
0
10
145.1
20
-36.665
11
145.1
21
-22.665
0
LINE
8
0
10
145.1
20
-22.665
11
131.1
21
-22.665
0
LINE
8
0
10
131.1
20
-22.665
11
131.1
21
-36.665
0
LINE
8
0
10
131.1
20
-17.665
11
145.1
21
-17.665
0
LINE
8
0
10
145.1
20
-17.665
11
145.1
21
-3.665
0
LINE
8
0
10
145.1
20
-3.665
11
131.1
21
-3.665
0
LINE
8
0
10
131.1
20
-3.665
11
131.1
21
-17.665
0
LINE
8
0
10
150.15
20
-65.615
11
164.15
21
-65.615
0
LINE
8
0
10
164.15
20
-65.615
11
164.15
21
-51.615
0
LINE
8
0
10
164.15
20
-51.615
11
150.15
21
-51.615
0
LINE
8
0
10
150.15
20
-51.615
11
150.15
21
-65.615
0
LINE
8
0
10
150.15
20
-46.615
11
164.15
21
-46.615
0
LINE
8
0
10
164.15
20
-46.615
11
164.15
21
-32.615
0
LINE
8
0
10
164.15
20
-32.615
11
150.15
21
-32.615
0
LINE
8
0
10
150.15
20
-32.615
11
150.15
21
-46.615
0
LINE
8
0
10
150.15
20
-27.615
11
164.15
21
-27.615
0
LINE
8
0
10
164.15
20
-27.615
11
164.15
21
-13.615
0
LINE
8
0
10
164.15
20
-13.615
11
150.15
21
-13.615
0
LINE
8
0
10
150.15
20
-13.615
11
150.15
21
-27.615
0
LINE
8
0
10
150.15
20
-8.615
11
164.15
21
-8.615
0
LINE
8
0
10
164.15
20
-8.615
11
164.15
21
5.385
0
LINE
8
0
10
164.15
20
5.385
11
150.15
21
5.385
0
LINE
8
0
10
150.15
20
5.385
11
150.15
21
-8.615
0
LINE
8
0
10
169.2
20
-71.565
11
183.2
21
-71.565
0
LINE
8
0
10
183.2
20
-71.565
11
183.2
21
-57.565
0
LINE
8
0
10
183.2
20
-57.565
11
169.2
21
-57.565
0
LINE
8
0
10
169.2
20
-57.565
11
169.2
21
-71.565
0
LINE
8
0
10
169.2
20
-52.565
11
183.2
21
-52.565
0
LINE
8
0
10
183.2
20
-52.565
11
183.2
21
-38.565
0
LINE
8
0
10
183.2
20
-38.565
11
169.2
21
-38.565
0
LINE
8
0
10
169.2
20
-38.565
11
169.2
21
-52.565
0
LINE
8
0
10
169.2
20
-33.565
11
183.2
21
-33.565
0
LINE
8
0
10
183.2
20
-33.565
11
183.2
21
-19.565
0
LINE
8
0
10
183.2
20
-19.565
11
169.2
21
-19.565
0
LINE
8
0
10
169.2
20
-19.565
11
169.2
21
-33.565
0
LINE
8
0
10
169.2
20
-14.565
11
183.2
21
-14.565
0
LINE
8
0
10
183.2
20
-14.565
11
183.2
21
-0.565
0
LINE
8
0
10
183.2
20
-0.565
11
169.2
21
-0.565
0
LINE
8
0
10
169.2
20
-0.565
11
169.2
21
-14.565
0
LINE
8
0
10
188.25
20
-68.515
11
202.25
21
-68.515
0
LINE
8
0
10
202.25
20
-68.515
11
202.25
21
-54.515
0
LINE
8
0
10
202.25
20
-54.515
11
188.25
21
-54.515
0
LINE
8
0
10
188.25
20
-54.515
11
188.25
21
-68.515
0
LINE
8
0
10
188.25
20
-49.515
11
202.25
21
-49.515
0
LINE
8
0
10
202.25
20
-49.515
11
202.25
21
-35.515
0
LINE
8
0
10
202.25
20
-35.515
11
188.25
21
-35.515
0
LINE
8
0
10
188.25
20
-35.515
11
188.25
21
-49.515
0
LINE
8
0
10
188.25
20
-30.515
11
202.25
21
-30.515
0
LINE
8
0
10
202.25
20
-30.515
11
202.25
21
-16.515
0
LINE
8
0
10
202.25
20
-16.515
11
188.25
21
-16.515
0
LINE
8
0
10
188.25
20
-16.515
11
188.25
21
-30.515
0
LINE
8
0
10
188.25
20
-11.515
11
202.25
21
-11.515
0
LINE
8
0
10
202.25
20
-11.515
11
202.25
21
2.485
0
LINE
8
0
10
202.25
20
2.485
11
188.25
21
2.485
0
LINE
8
0
10
188.25
20
2.485
11
188.25
21
-11.515
0
LINE
8
0
10
180.5595254
20
-90.6395751
11
194.2586512
21
-93.5264337
0
LINE
8
0
10
194.2586512
20
-93.5264337
11
197.1455098
21
-79.8273079
0
LINE
8
0
10
197.1455098
20
-79.8273079
11
183.446384
21
-76.9404493
0
LINE
8
0
10
183.446384
20
-76.9404493
11
180.5595254
21
-90.6395751
0
LINE
8
0
10
199.5318894
20
-94.3322383
11
212.3413247
21
-99.9818724
0
LINE
8
0
10
212.3413247
20
-99.9818724
11
217.9909588
21
-87.1724371
0
LINE
8
0
10
217.9909588
20
-87.1724371
11
205.1815235
21
-81.522803
0
LINE
8
0
10
205.1815235
20
-81.522803
11
199.5318894
21
-94.3322383
0
LINE
8
0
10
216.9683124
20
-103.9397833
11
228.3374818
21
-112.1093603
0
LINE
8
0
10
228.3374818
20
-112.1093603
11
236.5070588
21
-100.7401909
0
LINE
8
0
10
236.5070588
20
-100.7401909
11
225.1378894
21
-92.5706139
0
LINE
8
0
10
225.1378894
20
-92.5706139
11
216.9683124
21
-103.9397833
0
ENDSEC
0
EOF