0
SECTION
2
HEADER
9
$INSUNITS
70
4
0
ENDSEC
0
SECTION
2
TABLES
0
TABLE
2
LTYPE
0
LTYPE
72
65
70
64
2
CONTINUOUS
3
______
73
0
40
0
0
ENDTAB
0
TABLE
2
LAYER
0
ENDTAB
0
ENDSEC
0
SECTION
2
ENTITIES
0
LINE
8
0
10
160.2495012
20
-173.1211899
11
160.2495012
21
-98.3711898
0
LINE
8
0
10
163.2495012
20
-95.3711898
11
255.3375173
21
-95.3711898
0
LINE
8
0
10
258.3375173
20
-98.3711898
11
258.3375173
21
-173.1211899
0
LINE
8
0
10
255.3375173
20
-176.1211899
11
163.2495012
21
-176.1211899
0
ARC
8
0
10
163.2495012
20
-98.3711898
40
3
50
90
51
180
0
ARC
8
0
10
255.3375173
20
-98.3711898
40
3
50
0
51
90
0
ARC
8
0
10
255.3375173
20
-173.1211899
40
3
50
270
51
0
0
ARC
8
0
10
163.2495012
20
-173.1211899
40
3
50
180
51
270
0
LINE
8
0
10
163.2495012
20
-173.1211899
11
196.2495012
21
-173.1211899
0
LINE
8
0
10
196.2495012
20
-173.1211899
11
196.2495012
21
-155.1211899
0
LINE
8
0
10
196.2495012
20
-155.1211899
11
163.2495012
21
-155.1211899
0
LINE
8
0
10
163.2495012
20
-155.1211899
11
163.2495012
21
-173.1211899
0
CIRCLE
8
0
10
176.9824975
20
-109.5918529
40
1
0
CIRCLE
8
0
10
239.4625173
20
-144.7461898
40
1
0
LINE
8
0
10
163.8519454
20
-149.1477119
11
180.6865026
21
-146.7817692
0
LINE
8
0
10
180.6865026
20
-146.7817692
11
178.459733
21
-130.9374801
0
LINE
8
0
10
178.459733
20
-130.9374801
11
161.6251758
21
-133.3034228
0
LINE
8
0
10
161.6251758
20
-133.3034228
11
163.8519454
21
-149.1477119
0
LINE
8
0
10
161.4164162
20
-131.8180207
11
178.2509734
21
-129.452078
0
LINE
8
0
10
178.2509734
20
-129.452078
11
176.0242038
21
-113.6077889
0
LINE
8
0
10
176.0242038
20
-113.6077889
11
159.1896466
21
-115.9737316
0
LINE
8
0
10
159.1896466
20
-115.9737316
11
161.4164162
21
-131.8180207
0
LINE
8
0
10
182.4784896
20
-151.6532649
11
199.4551917
21
-150.7635536
0
LINE
8
0
10
199.4551917
20
-150.7635536
11
198.6178164
21
-134.7854811
0
LINE
8
0
10
198.6178164
20
-134.7854811
11
181.6411143
21
-135.6751924
0
LINE
8
0
10
181.6411143
20
-135.6751924
11
182.4784896
21
-151.6532649
0
LINE
8
0
10
181.5626103
20
-134.177248
11
198.5393124
21
-133.2875367
0
LINE
8
0
10
198.5393124
20
-133.2875367
11
197.7019371
21
-117.3094642
0
LINE
8
0
10
197.7019371
20
-117.3094642
11
180.725235
21
-118.1991755
0
LINE
8
0
10
180.725235
20
-118.1991755
11
181.5626103
21
-134.177248
0
LINE
8
0
10
180.6467311
20
-116.7012312
11
197.6234332
21
-115.8115199
0
LINE
8
0
10
197.6234332
20
-115.8115199
11
196.7860579
21
-99.8334474
0
LINE
8
0
10
196.7860579
20
-99.8334474
11
179.8093558
21
-100.7231587
0
LINE
8
0
10
179.8093558
20
-100.7231587
11
180.6467311
21
-116.7012312
0
LINE
8
0
10
200.7125172
20
-145.8711898
11
217.7125172
21
-145.8711898
0
LINE
8
0
10
217.7125172
20
-145.8711898
11
217.7125172
21
-129.8711898
0
LINE
8
0
10
217.7125172
20
-129.8711898
11
200.7125172
21
-129.8711898
0
LINE
8
0
10
200.7125172
20
-129.8711898
11
200.7125172
21
-145.8711898
0
LINE
8
0
10
200.7125173
20
-128.3711898
11
217.7125173
21
-128.3711898
0
LINE
8
0
10
217.7125173
20
-128.3711898
11
217.7125173
21
-112.3711898
0
LINE
8
0
10
217.7125173
20
-112.3711898
11
200.7125173
21
-112.3711898
0
LINE
8
0
10
200.7125173
20
-112.3711898
11
200.7125173
21
-128.3711898
0
LINE
8
0
10
200.7125173
20
-110.8711898
11
217.7125173
21
-110.8711898
0
LINE
8
0
10
217.7125173
20
-110.8711898
11
217.7125173
21
-94.8711898
0
LINE
8
0
10
217.7125173
20
-94.8711898
11
200.7125173
21
-94.8711898
0
LINE
8
0
10
200.7125173
20
-94.8711898
11
200.7125173
21
-110.8711898
0
LINE
8
0
10
219.2125173
20
-150.2461899
11
236.2125173
21
-150.2461899
0
LINE
8
0
10
236.2125173
20
-150.2461899
11
236.2125173
21
-134.2461899
0
LINE
8
0
10
236.2125173
20
-134.2461899
11
219.2125173
21
-134.2461899
0
LINE
8
0
10
219.2125173
20
-134.2461899
11
219.2125173
21
-150.2461899
0
LINE
8
0
10
219.2125173
20
-132.7461899
11
236.2125173
21
-132.7461899
0
LINE
8
0
10
236.2125173
20
-132.7461899
11
236.2125173
21
-116.7461899
0
LINE
8
0
10
236.2125173
20
-116.7461899
11
219.2125173
21
-116.7461899
0
LINE
8
0
10
219.2125173
20
-116.7461899
11
219.2125173
21
-132.7461899
0
LINE
8
0
10
219.2125174
20
-115.2461899
11
236.2125174
21
-115.2461899
0
LINE
8
0
10
236.2125174
20
-115.2461899
11
236.2125174
21
-99.2461899
0
LINE
8
0
10
236.2125174
20
-99.2461899
11
219.2125174
21
-99.2461899
0
LINE
8
0
10
219.2125174
20
-99.2461899
11
219.2125174
21
-115.2461899
0
LINE
8
0
10
237.7125173
20
-141.4961898
11
254.7125173
21
-141.4961898
0
LINE
8
0
10
254.7125173
20
-141.4961898
11
254.7125173
21
-125.4961898
0
LINE
8
0
10
254.7125173
20
-125.4961898
11
237.7125173
21
-125.4961898
0
LINE
8
0
10
237.7125173
20
-125.4961898
11
237.7125173
21
-141.4961898
0
LINE
8
0
10
237.7125173
20
-123.9961898
11
254.7125173
21
-123.9961898
0
LINE
8
0
10
254.7125173
20
-123.9961898
11
254.7125173
21
-107.9961898
0
LINE
8
0
10
254.7125173
20
-107.9961898
11
237.7125173
21
-107.9961898
0
LINE
8
0
10
237.7125173
20
-107.9961898
11
237.7125173
21
-123.9961898
0
LINE
8
0
10
223.8375173
20
-172.2461899
11
240.8375173
21
-172.2461899
0
LINE
8
0
10
240.8375173
20
-172.2461899
11
240.8375173
21
-156.2461899
0
LINE
8
0
10
240.8375173
20
-156.2461899
11
223.8375173
21
-156.2461899
0
LINE
8
0
10
223.8375173
20
-156.2461899
11
223.8375173
21
-172.2461899
0
LINE
8
0
10
242.3375173
20
-176.6211899
11
259.3375173
21
-176.6211899
0
LINE
8
0
10
259.3375173
20
-176.6211899
11
259.3375173
21
-160.6211899
0
LINE
8
0
10
259.3375173
20
-160.6211899
11
242.3375173
21
-160.6211899
0
LINE
8
0
10
242.3375173
20
-160.6211899
11
242.3375173
21
-176.6211899
0
ENDSEC
0
EOF