0
SECTION
2
HEADER
9
$INSUNITS
70
4
0
ENDSEC
0
SECTION
2
TABLES
0
TABLE
2
LTYPE
0
LTYPE
72
65
70
64
2
CONTINUOUS
3
______
73
0
40
0
0
ENDTAB
0
TABLE
2
LAYER
0
ENDTAB
0
ENDSEC
0
SECTION
2
ENTITIES
0
LINE
8
0
10
90.775
20
-83.675
11
106.825
21
-83.675
0
LINE
8
0
10
87.775
20
-80.675
11
87.775
21
-14.775
0
LINE
8
0
10
90.775
20
-11.775
11
103.825
21
-11.775
0
LINE
8
0
10
117.1276915
20
-83.7
11
106.825
21
-83.7
0
LINE
8
0
10
106.825
20
-83.7
11
106.825
21
-83.675
0
LINE
8
0
10
109.825
20
-2.25
11
122.875
21
-2.25
0
LINE
8
0
10
106.825
20
-8.775
11
106.825
21
-5.25
0
LINE
8
0
10
128.875
20
5.961
11
141.925
21
5.961
0
LINE
8
0
10
125.875
20
0.75
11
125.875
21
2.961
0
LINE
8
0
10
147.925
20
13.9634
11
166.375
21
13.9634
0
LINE
8
0
10
169.375
20
10.9634
11
169.375
21
10.711
0
LINE
8
0
10
144.925
20
8.961
11
144.925
21
10.9634
0
LINE
8
0
10
172.375
20
7.711
11
188.425
21
7.711
0
LINE
8
0
10
188.425
20
7.711
11
188.425
21
7.71
0
LINE
8
0
10
235.2375
20
-90.069072
11
235.2375
21
4.71
0
LINE
8
0
10
180.7431943
20
-97.04
11
180.325
21
-97.04
0
LINE
8
0
10
180.325
20
-97.04
11
180.325
21
-96.9518726
0
LINE
8
0
10
188.425
20
7.71
11
232.2375
21
7.71
0
LINE
8
0
10
180.7431943
20
-97.04
11
203.6849316
21
-101.8745823
0
LINE
8
0
10
180.325
20
-96.9518726
11
117.7463041
21
-83.764473
0
LINE
8
0
10
203.6849316
20
-101.8745823
11
207.4881223
21
-103.5519893
0
LINE
8
0
10
235.2375
20
-90.069072
11
242.9385087
21
-95.6028082
0
LINE
8
0
10
231.282239
20
-116.9652489
11
243.6241357
21
-99.7896824
0
LINE
8
0
10
207.4835477
20
-103.5583556
11
227.0953648
21
-117.6508759
0
LINE
8
0
10
207.4835477
20
-103.5583556
11
207.4881223
21
-103.5519893
0
ARC
8
0
10
90.775
20
-80.675
40
3
50
180
51
270
0
ARC
8
0
10
90.775
20
-14.775
40
3
50
90
51
180
0
ARC
8
0
10
103.825
20
-8.775
40
3
50
270
51
0
0
ARC
8
0
10
109.825
20
-5.25
40
3
50
90
51
180
0
ARC
8
0
10
122.875
20
0.75
40
3
50
270
51
0
0
ARC
8
0
10
128.875
20
2.961
40
3
50
90
51
180
0
ARC
8
0
10
141.925
20
8.961
40
3
50
270
51
0
0
ARC
8
0
10
147.925
20
10.9634
40
3
50
90
51
180
0
ARC
8
0
10
166.375
20
10.9634
40
3
50
0
51
90
0
ARC
8
0
10
172.375
20
10.711
40
3
50
180
51
270
0
ARC
8
0
10
232.2375
20
4.71
40
3
50
0
51
90
0
ARC
8
0
10
241.1878851
20
-98.0390587
40
3
50
324.2999996
51
54.2999996
0
ARC
8
0
10
228.8459885
20
-115.2146253
40
3
50
234.2999996
51
324.2999996
0
ARC
8
0
10
117.1276915
20
-86.7
40
3
50
78.0999994
51
90
0
ENDSEC
0
EOF