0
SECTION
2
HEADER
9
$INSUNITS
70
4
0
ENDSEC
0
SECTION
2
TABLES
0
TABLE
2
LTYPE
0
LTYPE
72
65
70
64
2
CONTINUOUS
3
______
73
0
40
0
0
ENDTAB
0
TABLE
2
LAYER
0
ENDTAB
0
ENDSEC
0
SECTION
2
ENTITIES
0
LINE
8
0
10
90.775
20
-83.675
11
106.825
21
-83.675
0
LINE
8
0
10
87.775
20
-80.675
11
87.775
21
-14.775
0
LINE
8
0
10
90.775
20
-11.775
11
103.825
21
-11.775
0
LINE
8
0
10
117.1276915
20
-83.7
11
106.825
21
-83.7
0
LINE
8
0
10
106.825
20
-83.7
11
106.825
21
-83.675
0
LINE
8
0
10
109.825
20
-2.25
11
122.875
21
-2.25
0
LINE
8
0
10
106.825
20
-8.775
11
106.825
21
-5.25
0
LINE
8
0
10
128.875
20
5.961
11
141.925
21
5.961
0
LINE
8
0
10
125.875
20
0.75
11
125.875
21
2.961
0
LINE
8
0
10
147.925
20
13.9634
11
166.375
21
13.9634
0
LINE
8
0
10
169.375
20
10.9634
11
169.375
21
10.711
0
LINE
8
0
10
144.925
20
8.961
11
144.925
21
10.9634
0
LINE
8
0
10
172.375
20
7.711
11
188.425
21
7.711
0
LINE
8
0
10
188.425
20
7.711
11
188.425
21
7.71
0
LINE
8
0
10
235.2375
20
-90.069072
11
235.2375
21
4.71
0
LINE
8
0
10
180.7431943
20
-97.04
11
180.325
21
-97.04
0
LINE
8
0
10
180.325
20
-97.04
11
180.325
21
-96.9518726
0
LINE
8
0
10
188.425
20
7.71
11
232.2375
21
7.71
0
LINE
8
0
10
180.7431943
20
-97.04
11
203.6849316
21
-101.8745823
0
LINE
8
0
10
180.325
20
-96.9518726
11
117.7463041
21
-83.764473
0
LINE
8
0
10
203.6849316
20
-101.8745823
11
207.4881223
21
-103.5519893
0
LINE
8
0
10
235.2375
20
-90.069072
11
242.9385087
21
-95.6028082
0
LINE
8
0
10
231.282239
20
-116.9652489
11
243.6241357
21
-99.7896824
0
LINE
8
0
10
207.4835477
20
-103.5583556
11
227.0953648
21
-117.6508759
0
LINE
8
0
10
207.4835477
20
-103.5583556
11
207.4881223
21
-103.5519893
0
ARC
8
0
10
90.775
20
-80.675
40
3
50
180
51
270
0
ARC
8
0
10
90.775
20
-14.775
40
3
50
90
51
180
0
ARC
8
0
10
103.825
20
-8.775
40
3
50
270
51
0
0
ARC
8
0
10
109.825
20
-5.25
40
3
50
90
51
180
0
ARC
8
0
10
122.875
20
0.75
40
3
50
270
51
0
0
ARC
8
0
10
128.875
20
2.961
40
3
50
90
51
180
0
ARC
8
0
10
141.925
20
8.961
40
3
50
270
51
0
0
ARC
8
0
10
147.925
20
10.9634
40
3
50
90
51
180
0
ARC
8
0
10
166.375
20
10.9634
40
3
50
0
51
90
0
ARC
8
0
10
172.375
20
10.711
40
3
50
180
51
270
0
ARC
8
0
10
232.2375
20
4.71
40
3
50
0
51
90
0
ARC
8
0
10
241.1878851
20
-98.0390587
40
3
50
324.2999996
51
54.2999996
0
ARC
8
0
10
228.8459885
20
-115.2146253
40
3
50
234.2999996
51
324.2999996
0
ARC
8
0
10
117.1276915
20
-86.7
40
3
50
78.0999994
51
90
0
LINE
8
0
10
91
20
-71
11
109
21
-71
0
LINE
8
0
10
109
20
-71
11
109
21
-53
0
LINE
8
0
10
109
20
-53
11
91
21
-53
0
LINE
8
0
10
91
20
-53
11
91
21
-71
0
LINE
8
0
10
91
20
-52
11
109
21
-52
0
LINE
8
0
10
109
20
-52
11
109
21
-34
0
LINE
8
0
10
109
20
-34
11
91
21
-34
0
LINE
8
0
10
91
20
-34
11
91
21
-52
0
LINE
8
0
10
91
20
-33
11
109
21
-33
0
LINE
8
0
10
109
20
-33
11
109
21
-15
0
LINE
8
0
10
109
20
-15
11
91
21
-15
0
LINE
8
0
10
91
20
-15
11
91
21
-33
0
LINE
8
0
10
110.05
20
-80.475
11
128.05
21
-80.475
0
LINE
8
0
10
128.05
20
-80.475
11
128.05
21
-62.475
0
LINE
8
0
10
128.05
20
-62.475
11
110.05
21
-62.475
0
LINE
8
0
10
110.05
20
-62.475
11
110.05
21
-80.475
0
LINE
8
0
10
110.05
20
-61.475
11
128.05
21
-61.475
0
LINE
8
0
10
128.05
20
-61.475
11
128.05
21
-43.475
0
LINE
8
0
10
128.05
20
-43.475
11
110.05
21
-43.475
0
LINE
8
0
10
110.05
20
-43.475
11
110.05
21
-61.475
0
LINE
8
0
10
110.05
20
-42.475
11
128.05
21
-42.475
0
LINE
8
0
10
128.05
20
-42.475
11
128.05
21
-24.475
0
LINE
8
0
10
128.05
20
-24.475
11
110.05
21
-24.475
0
LINE
8
0
10
110.05
20
-24.475
11
110.05
21
-42.475
0
LINE
8
0
10
110.05
20
-23.475
11
128.05
21
-23.475
0
LINE
8
0
10
128.05
20
-23.475
11
128.05
21
-5.475
0
LINE
8
0
10
128.05
20
-5.475
11
110.05
21
-5.475
0
LINE
8
0
10
110.05
20
-5.475
11
110.05
21
-23.475
0
LINE
8
0
10
129.1
20
-76.665
11
147.1
21
-76.665
0
LINE
8
0
10
147.1
20
-76.665
11
147.1
21
-58.665
0
LINE
8
0
10
147.1
20
-58.665
11
129.1
21
-58.665
0
LINE
8
0
10
129.1
20
-58.665
11
129.1
21
-76.665
0
LINE
8
0
10
129.1
20
-57.665
11
147.1
21
-57.665
0
LINE
8
0
10
147.1
20
-57.665
11
147.1
21
-39.665
0
LINE
8
0
10
147.1
20
-39.665
11
129.1
21
-39.665
0
LINE
8
0
10
129.1
20
-39.665
11
129.1
21
-57.665
0
LINE
8
0
10
129.1
20
-38.665
11
147.1
21
-38.665
0
LINE
8
0
10
147.1
20
-38.665
11
147.1
21
-20.665
0
LINE
8
0
10
147.1
20
-20.665
11
129.1
21
-20.665
0
LINE
8
0
10
129.1
20
-20.665
11
129.1
21
-38.665
0
LINE
8
0
10
129.1
20
-19.665
11
147.1
21
-19.665
0
LINE
8
0
10
147.1
20
-19.665
11
147.1
21
-1.665
0
LINE
8
0
10
147.1
20
-1.665
11
129.1
21
-1.665
0
LINE
8
0
10
129.1
20
-1.665
11
129.1
21
-19.665
0
LINE
8
0
10
148.15
20
-67.615
11
166.15
21
-67.615
0
LINE
8
0
10
166.15
20
-67.615
11
166.15
21
-49.615
0
LINE
8
0
10
166.15
20
-49.615
11
148.15
21
-49.615
0
LINE
8
0
10
148.15
20
-49.615
11
148.15
21
-67.615
0
LINE
8
0
10
148.15
20
-48.615
11
166.15
21
-48.615
0
LINE
8
0
10
166.15
20
-48.615
11
166.15
21
-30.615
0
LINE
8
0
10
166.15
20
-30.615
11
148.15
21
-30.615
0
LINE
8
0
10
148.15
20
-30.615
11
148.15
21
-48.615
0
LINE
8
0
10
148.15
20
-29.615
11
166.15
21
-29.615
0
LINE
8
0
10
166.15
20
-29.615
11
166.15
21
-11.615
0
LINE
8
0
10
166.15
20
-11.615
11
148.15
21
-11.615
0
LINE
8
0
10
148.15
20
-11.615
11
148.15
21
-29.615
0
LINE
8
0
10
148.15
20
-10.615
11
166.15
21
-10.615
0
LINE
8
0
10
166.15
20
-10.615
11
166.15
21
7.385
0
LINE
8
0
10
166.15
20
7.385
11
148.15
21
7.385
0
LINE
8
0
10
148.15
20
7.385
11
148.15
21
-10.615
0
LINE
8
0
10
167.2
20
-73.565
11
185.2
21
-73.565
0
LINE
8
0
10
185.2
20
-73.565
11
185.2
21
-55.565
0
LINE
8
0
10
185.2
20
-55.565
11
167.2
21
-55.565
0
LINE
8
0
10
167.2
20
-55.565
11
167.2
21
-73.565
0
LINE
8
0
10
167.2
20
-54.565
11
185.2
21
-54.565
0
LINE
8
0
10
185.2
20
-54.565
11
185.2
21
-36.565
0
LINE
8
0
10
185.2
20
-36.565
11
167.2
21
-36.565
0
LINE
8
0
10
167.2
20
-36.565
11
167.2
21
-54.565
0
LINE
8
0
10
167.2
20
-35.565
11
185.2
21
-35.565
0
LINE
8
0
10
185.2
20
-35.565
11
185.2
21
-17.565
0
LINE
8
0
10
185.2
20
-17.565
11
167.2
21
-17.565
0
LINE
8
0
10
167.2
20
-17.565
11
167.2
21
-35.565
0
LINE
8
0
10
167.2
20
-16.565
11
185.2
21
-16.565
0
LINE
8
0
10
185.2
20
-16.565
11
185.2
21
1.435
0
LINE
8
0
10
185.2
20
1.435
11
167.2
21
1.435
0
LINE
8
0
10
167.2
20
1.435
11
167.2
21
-16.565
0
LINE
8
0
10
186.25
20
-70.515
11
204.25
21
-70.515
0
LINE
8
0
10
204.25
20
-70.515
11
204.25
21
-52.515
0
LINE
8
0
10
204.25
20
-52.515
11
186.25
21
-52.515
0
LINE
8
0
10
186.25
20
-52.515
11
186.25
21
-70.515
0
LINE
8
0
10
186.25
20
-51.515
11
204.25
21
-51.515
0
LINE
8
0
10
204.25
20
-51.515
11
204.25
21
-33.515
0
LINE
8
0
10
204.25
20
-33.515
11
186.25
21
-33.515
0
LINE
8
0
10
186.25
20
-33.515
11
186.25
21
-51.515
0
LINE
8
0
10
186.25
20
-32.515
11
204.25
21
-32.515
0
LINE
8
0
10
204.25
20
-32.515
11
204.25
21
-14.515
0
LINE
8
0
10
204.25
20
-14.515
11
186.25
21
-14.515
0
LINE
8
0
10
186.25
20
-14.515
11
186.25
21
-32.515
0
LINE
8
0
10
186.25
20
-13.515
11
204.25
21
-13.515
0
LINE
8
0
10
204.25
20
-13.515
11
204.25
21
4.485
0
LINE
8
0
10
204.25
20
4.485
11
186.25
21
4.485
0
LINE
8
0
10
186.25
20
4.485
11
186.25
21
-13.515
0
LINE
8
0
10
178.1900991
20
-92.1841847
11
195.8032608
21
-95.89586
0
LINE
8
0
10
195.8032608
20
-95.89586
11
199.5149361
21
-78.2826983
0
LINE
8
0
10
199.5149361
20
-78.2826983
11
181.9017744
21
-74.571023
0
LINE
8
0
10
181.9017744
20
-74.571023
11
178.1900991
21
-92.1841847
0
LINE
8
0
10
196.8948794
20
-95.355067
11
213.3641534
21
-102.6188824
0
LINE
8
0
10
213.3641534
20
-102.6188824
11
220.6279688
21
-86.1496084
0
LINE
8
0
10
220.6279688
20
-86.1496084
11
204.1586948
21
-78.885793
0
LINE
8
0
10
204.1586948
20
-78.885793
11
196.8948794
21
-95.355067
0
LINE
8
0
10
214.177063
20
-104.3968679
11
228.7945664
21
-114.9006097
0
LINE
8
0
10
228.7945664
20
-114.9006097
11
239.2983082
21
-100.2831063
0
LINE
8
0
10
239.2983082
20
-100.2831063
11
224.6808048
21
-89.7793645
0
LINE
8
0
10
224.6808048
20
-89.7793645
11
214.177063
21
-104.3968679
0
LINE
8
0
10
93
20
-69
11
107
21
-69
0
LINE
8
0
10
107
20
-69
11
107
21
-55
0
LINE
8
0
10
107
20
-55
11
93
21
-55
0
LINE
8
0
10
93
20
-55
11
93
21
-69
0
LINE
8
0
10
93
20
-50
11
107
21
-50
0
LINE
8
0
10
107
20
-50
11
107
21
-36
0
LINE
8
0
10
107
20
-36
11
93
21
-36
0
LINE
8
0
10
93
20
-36
11
93
21
-50
0
LINE
8
0
10
93
20
-31
11
107
21
-31
0
LINE
8
0
10
107
20
-31
11
107
21
-17
0
LINE
8
0
10
107
20
-17
11
93
21
-17
0
LINE
8
0
10
93
20
-17
11
93
21
-31
0
LINE
8
0
10
112.05
20
-78.475
11
126.05
21
-78.475
0
LINE
8
0
10
126.05
20
-78.475
11
126.05
21
-64.475
0
LINE
8
0
10
126.05
20
-64.475
11
112.05
21
-64.475
0
LINE
8
0
10
112.05
20
-64.475
11
112.05
21
-78.475
0
LINE
8
0
10
112.05
20
-59.475
11
126.05
21
-59.475
0
LINE
8
0
10
126.05
20
-59.475
11
126.05
21
-45.475
0
LINE
8
0
10
126.05
20
-45.475
11
112.05
21
-45.475
0
LINE
8
0
10
112.05
20
-45.475
11
112.05
21
-59.475
0
LINE
8
0
10
112.05
20
-40.475
11
126.05
21
-40.475
0
LINE
8
0
10
126.05
20
-40.475
11
126.05
21
-26.475
0
LINE
8
0
10
126.05
20
-26.475
11
112.05
21
-26.475
0
LINE
8
0
10
112.05
20
-26.475
11
112.05
21
-40.475
0
LINE
8
0
10
112.05
20
-21.475
11
126.05
21
-21.475
0
LINE
8
0
10
126.05
20
-21.475
11
126.05
21
-7.475
0
LINE
8
0
10
126.05
20
-7.475
11
112.05
21
-7.475
0
LINE
8
0
10
112.05
20
-7.475
11
112.05
21
-21.475
0
LINE
8
0
10
131.1
20
-74.665
11
145.1
21
-74.665
0
LINE
8
0
10
145.1
20
-74.665
11
145.1
21
-60.665
0
LINE
8
0
10
145.1
20
-60.665
11
131.1
21
-60.665
0
LINE
8
0
10
131.1
20
-60.665
11
131.1
21
-74.665
0
LINE
8
0
10
131.1
20
-55.665
11
145.1
21
-55.665
0
LINE
8
0
10
145.1
20
-55.665
11
145.1
21
-41.665
0
LINE
8
0
10
145.1
20
-41.665
11
131.1
21
-41.665
0
LINE
8
0
10
131.1
20
-41.665
11
131.1
21
-55.665
0
LINE
8
0
10
131.1
20
-36.665
11
145.1
21
-36.665
0
LINE
8
0
10
145.1
20
-36.665
11
145.1
21
-22.665
0
LINE
8
0
10
145.1
20
-22.665
11
131.1
21
-22.665
0
LINE
8
0
10
131.1
20
-22.665
11
131.1
21
-36.665
0
LINE
8
0
10
131.1
20
-17.665
11
145.1
21
-17.665
0
LINE
8
0
10
145.1
20
-17.665
11
145.1
21
-3.665
0
LINE
8
0
10
145.1
20
-3.665
11
131.1
21
-3.665
0
LINE
8
0
10
131.1
20
-3.665
11
131.1
21
-17.665
0
LINE
8
0
10
150.15
20
-65.615
11
164.15
21
-65.615
0
LINE
8
0
10
164.15
20
-65.615
11
164.15
21
-51.615
0
LINE
8
0
10
164.15
20
-51.615
11
150.15
21
-51.615
0
LINE
8
0
10
150.15
20
-51.615
11
150.15
21
-65.615
0
LINE
8
0
10
150.15
20
-46.615
11
164.15
21
-46.615
0
LINE
8
0
10
164.15
20
-46.615
11
164.15
21
-32.615
0
LINE
8
0
10
164.15
20
-32.615
11
150.15
21
-32.615
0
LINE
8
0
10
150.15
20
-32.615
11
150.15
21
-46.615
0
LINE
8
0
10
150.15
20
-27.615
11
164.15
21
-27.615
0
LINE
8
0
10
164.15
20
-27.615
11
164.15
21
-13.615
0
LINE
8
0
10
164.15
20
-13.615
11
150.15
21
-13.615
0
LINE
8
0
10
150.15
20
-13.615
11
150.15
21
-27.615
0
LINE
8
0
10
150.15
20
-8.615
11
164.15
21
-8.615
0
LINE
8
0
10
164.15
20
-8.615
11
164.15
21
5.385
0
LINE
8
0
10
164.15
20
5.385
11
150.15
21
5.385
0
LINE
8
0
10
150.15
20
5.385
11
150.15
21
-8.615
0
LINE
8
0
10
169.2
20
-71.565
11
183.2
21
-71.565
0
LINE
8
0
10
183.2
20
-71.565
11
183.2
21
-57.565
0
LINE
8
0
10
183.2
20
-57.565
11
169.2
21
-57.565
0
LINE
8
0
10
169.2
20
-57.565
11
169.2
21
-71.565
0
LINE
8
0
10
169.2
20
-52.565
11
183.2
21
-52.565
0
LINE
8
0
10
183.2
20
-52.565
11
183.2
21
-38.565
0
LINE
8
0
10
183.2
20
-38.565
11
169.2
21
-38.565
0
LINE
8
0
10
169.2
20
-38.565
11
169.2
21
-52.565
0
LINE
8
0
10
169.2
20
-33.565
11
183.2
21
-33.565
0
LINE
8
0
10
183.2
20
-33.565
11
183.2
21
-19.565
0
LINE
8
0
10
183.2
20
-19.565
11
169.2
21
-19.565
0
LINE
8
0
10
169.2
20
-19.565
11
169.2
21
-33.565
0
LINE
8
0
10
169.2
20
-14.565
11
183.2
21
-14.565
0
LINE
8
0
10
183.2
20
-14.565
11
183.2
21
-0.565
0
LINE
8
0
10
183.2
20
-0.565
11
169.2
21
-0.565
0
LINE
8
0
10
169.2
20
-0.565
11
169.2
21
-14.565
0
LINE
8
0
10
188.25
20
-68.515
11
202.25
21
-68.515
0
LINE
8
0
10
202.25
20
-68.515
11
202.25
21
-54.515
0
LINE
8
0
10
202.25
20
-54.515
11
188.25
21
-54.515
0
LINE
8
0
10
188.25
20
-54.515
11
188.25
21
-68.515
0
LINE
8
0
10
188.25
20
-49.515
11
202.25
21
-49.515
0
LINE
8
0
10
202.25
20
-49.515
11
202.25
21
-35.515
0
LINE
8
0
10
202.25
20
-35.515
11
188.25
21
-35.515
0
LINE
8
0
10
188.25
20
-35.515
11
188.25
21
-49.515
0
LINE
8
0
10
188.25
20
-30.515
11
202.25
21
-30.515
0
LINE
8
0
10
202.25
20
-30.515
11
202.25
21
-16.515
0
LINE
8
0
10
202.25
20
-16.515
11
188.25
21
-16.515
0
LINE
8
0
10
188.25
20
-16.515
11
188.25
21
-30.515
0
LINE
8
0
10
188.25
20
-11.515
11
202.25
21
-11.515
0
LINE
8
0
10
202.25
20
-11.515
11
202.25
21
2.485
0
LINE
8
0
10
202.25
20
2.485
11
188.25
21
2.485
0
LINE
8
0
10
188.25
20
2.485
11
188.25
21
-11.515
0
LINE
8
0
10
180.5595254
20
-90.6395751
11
194.2586512
21
-93.5264337
0
LINE
8
0
10
194.2586512
20
-93.5264337
11
197.1455098
21
-79.8273079
0
LINE
8
0
10
197.1455098
20
-79.8273079
11
183.446384
21
-76.9404493
0
LINE
8
0
10
183.446384
20
-76.9404493
11
180.5595254
21
-90.6395751
0
LINE
8
0
10
199.5318894
20
-94.3322383
11
212.3413247
21
-99.9818724
0
LINE
8
0
10
212.3413247
20
-99.9818724
11
217.9909588
21
-87.1724371
0
LINE
8
0
10
217.9909588
20
-87.1724371
11
205.1815235
21
-81.522803
0
LINE
8
0
10
205.1815235
20
-81.522803
11
199.5318894
21
-94.3322383
0
LINE
8
0
10
216.9683124
20
-103.9397833
11
228.3374818
21
-112.1093603
0
LINE
8
0
10
228.3374818
20
-112.1093603
11
236.5070588
21
-100.7401909
0
LINE
8
0
10
236.5070588
20
-100.7401909
11
225.1378894
21
-92.5706139
0
LINE
8
0
10
225.1378894
20
-92.5706139
11
216.9683124
21
-103.9397833
0
LINE
8
0
10
97.5
20
-70
11
102.5
21
-70
0
LINE
8
0
10
102.5
20
-70
11
102.5
21
-54
0
LINE
8
0
10
102.5
20
-54
11
97.5
21
-54
0
LINE
8
0
10
97.5
20
-54
11
97.5
21
-70
0
LINE
8
0
10
97.5
20
-51
11
102.5
21
-51
0
LINE
8
0
10
102.5
20
-51
11
102.5
21
-35
0
LINE
8
0
10
102.5
20
-35
11
97.5
21
-35
0
LINE
8
0
10
97.5
20
-35
11
97.5
21
-51
0
LINE
8
0
10
97.5
20
-32
11
102.5
21
-32
0
LINE
8
0
10
102.5
20
-32
11
102.5
21
-16
0
LINE
8
0
10
102.5
20
-16
11
97.5
21
-16
0
LINE
8
0
10
97.5
20
-16
11
97.5
21
-32
0
LINE
8
0
10
116.55
20
-79.475
11
121.55
21
-79.475
0
LINE
8
0
10
121.55
20
-79.475
11
121.55
21
-63.475
0
LINE
8
0
10
121.55
20
-63.475
11
116.55
21
-63.475
0
LINE
8
0
10
116.55
20
-63.475
11
116.55
21
-79.475
0
LINE
8
0
10
116.55
20
-60.475
11
121.55
21
-60.475
0
LINE
8
0
10
121.55
20
-60.475
11
121.55
21
-44.475
0
LINE
8
0
10
121.55
20
-44.475
11
116.55
21
-44.475
0
LINE
8
0
10
116.55
20
-44.475
11
116.55
21
-60.475
0
LINE
8
0
10
116.55
20
-41.475
11
121.55
21
-41.475
0
LINE
8
0
10
121.55
20
-41.475
11
121.55
21
-25.475
0
LINE
8
0
10
121.55
20
-25.475
11
116.55
21
-25.475
0
LINE
8
0
10
116.55
20
-25.475
11
116.55
21
-41.475
0
LINE
8
0
10
116.55
20
-22.475
11
121.55
21
-22.475
0
LINE
8
0
10
121.55
20
-22.475
11
121.55
21
-6.475
0
LINE
8
0
10
121.55
20
-6.475
11
116.55
21
-6.475
0
LINE
8
0
10
116.55
20
-6.475
11
116.55
21
-22.475
0
LINE
8
0
10
135.6
20
-75.665
11
140.6
21
-75.665
0
LINE
8
0
10
140.6
20
-75.665
11
140.6
21
-59.665
0
LINE
8
0
10
140.6
20
-59.665
11
135.6
21
-59.665
0
LINE
8
0
10
135.6
20
-59.665
11
135.6
21
-75.665
0
LINE
8
0
10
135.6
20
-56.665
11
140.6
21
-56.665
0
LINE
8
0
10
140.6
20
-56.665
11
140.6
21
-40.665
0
LINE
8
0
10
140.6
20
-40.665
11
135.6
21
-40.665
0
LINE
8
0
10
135.6
20
-40.665
11
135.6
21
-56.665
0
LINE
8
0
10
135.6
20
-37.665
11
140.6
21
-37.665
0
LINE
8
0
10
140.6
20
-37.665
11
140.6
21
-21.665
0
LINE
8
0
10
140.6
20
-21.665
11
135.6
21
-21.665
0
LINE
8
0
10
135.6
20
-21.665
11
135.6
21
-37.665
0
LINE
8
0
10
135.6
20
-18.665
11
140.6
21
-18.665
0
LINE
8
0
10
140.6
20
-18.665
11
140.6
21
-2.665
0
LINE
8
0
10
140.6
20
-2.665
11
135.6
21
-2.665
0
LINE
8
0
10
135.6
20
-2.665
11
135.6
21
-18.665
0
LINE
8
0
10
154.65
20
-66.615
11
159.65
21
-66.615
0
LINE
8
0
10
159.65
20
-66.615
11
159.65
21
-50.615
0
LINE
8
0
10
159.65
20
-50.615
11
154.65
21
-50.615
0
LINE
8
0
10
154.65
20
-50.615
11
154.65
21
-66.615
0
LINE
8
0
10
154.65
20
-47.615
11
159.65
21
-47.615
0
LINE
8
0
10
159.65
20
-47.615
11
159.65
21
-31.615
0
LINE
8
0
10
159.65
20
-31.615
11
154.65
21
-31.615
0
LINE
8
0
10
154.65
20
-31.615
11
154.65
21
-47.615
0
LINE
8
0
10
154.65
20
-28.615
11
159.65
21
-28.615
0
LINE
8
0
10
159.65
20
-28.615
11
159.65
21
-12.615
0
LINE
8
0
10
159.65
20
-12.615
11
154.65
21
-12.615
0
LINE
8
0
10
154.65
20
-12.615
11
154.65
21
-28.615
0
LINE
8
0
10
154.65
20
-9.615
11
159.65
21
-9.615
0
LINE
8
0
10
159.65
20
-9.615
11
159.65
21
6.385
0
LINE
8
0
10
159.65
20
6.385
11
154.65
21
6.385
0
LINE
8
0
10
154.65
20
6.385
11
154.65
21
-9.615
0
LINE
8
0
10
173.7
20
-72.565
11
178.7
21
-72.565
0
LINE
8
0
10
178.7
20
-72.565
11
178.7
21
-56.565
0
LINE
8
0
10
178.7
20
-56.565
11
173.7
21
-56.565
0
LINE
8
0
10
173.7
20
-56.565
11
173.7
21
-72.565
0
LINE
8
0
10
173.7
20
-53.565
11
178.7
21
-53.565
0
LINE
8
0
10
178.7
20
-53.565
11
178.7
21
-37.565
0
LINE
8
0
10
178.7
20
-37.565
11
173.7
21
-37.565
0
LINE
8
0
10
173.7
20
-37.565
11
173.7
21
-53.565
0
LINE
8
0
10
173.7
20
-34.565
11
178.7
21
-34.565
0
LINE
8
0
10
178.7
20
-34.565
11
178.7
21
-18.565
0
LINE
8
0
10
178.7
20
-18.565
11
173.7
21
-18.565
0
LINE
8
0
10
173.7
20
-18.565
11
173.7
21
-34.565
0
LINE
8
0
10
173.7
20
-15.565
11
178.7
21
-15.565
0
LINE
8
0
10
178.7
20
-15.565
11
178.7
21
0.435
0
LINE
8
0
10
178.7
20
0.435
11
173.7
21
0.435
0
LINE
8
0
10
173.7
20
0.435
11
173.7
21
-15.565
0
LINE
8
0
10
192.75
20
-69.515
11
197.75
21
-69.515
0
LINE
8
0
10
197.75
20
-69.515
11
197.75
21
-53.515
0
LINE
8
0
10
197.75
20
-53.515
11
192.75
21
-53.515
0
LINE
8
0
10
192.75
20
-53.515
11
192.75
21
-69.515
0
LINE
8
0
10
192.75
20
-50.515
11
197.75
21
-50.515
0
LINE
8
0
10
197.75
20
-50.515
11
197.75
21
-34.515
0
LINE
8
0
10
197.75
20
-34.515
11
192.75
21
-34.515
0
LINE
8
0
10
192.75
20
-34.515
11
192.75
21
-50.515
0
LINE
8
0
10
192.75
20
-31.515
11
197.75
21
-31.515
0
LINE
8
0
10
197.75
20
-31.515
11
197.75
21
-15.515
0
LINE
8
0
10
197.75
20
-15.515
11
192.75
21
-15.515
0
LINE
8
0
10
192.75
20
-15.515
11
192.75
21
-31.515
0
LINE
8
0
10
192.75
20
-12.515
11
197.75
21
-12.515
0
LINE
8
0
10
197.75
20
-12.515
11
197.75
21
3.485
0
LINE
8
0
10
197.75
20
3.485
11
192.75
21
3.485
0
LINE
8
0
10
192.75
20
3.485
11
192.75
21
-12.515
0
LINE
8
0
10
184.7566117
20
-92.5460029
11
189.6491566
21
-93.5770238
0
LINE
8
0
10
189.6491566
20
-93.5770238
11
192.9484235
21
-77.9208801
0
LINE
8
0
10
192.9484235
20
-77.9208801
11
188.0558786
21
-76.8898592
0
LINE
8
0
10
188.0558786
20
-76.8898592
11
184.7566117
21
-92.5460029
0
LINE
8
0
10
203.2456626
20
-97.0631518
11
207.8204609
21
-99.0808783
0
LINE
8
0
10
207.8204609
20
-99.0808783
11
214.2771856
21
-84.4415236
0
LINE
8
0
10
214.2771856
20
-84.4415236
11
209.7023873
21
-82.4237971
0
LINE
8
0
10
209.7023873
20
-82.4237971
11
203.2456626
21
-97.0631518
0
LINE
8
0
10
220.0391471
20
-107.3778023
11
224.0995647
21
-110.2955083
0
LINE
8
0
10
224.0995647
20
-110.2955083
11
233.4362241
21
-97.3021719
0
LINE
8
0
10
233.4362241
20
-97.3021719
11
229.3758065
21
-94.3844659
0
LINE
8
0
10
229.3758065
20
-94.3844659
11
220.0391471
21
-107.3778023
0
LINE
8
0
10
205.43125
20
-50.2538889
11
231.83125
21
-50.2538889
0
LINE
8
0
10
231.83125
20
-50.2538889
11
231.83125
21
3.4461111
0
LINE
8
0
10
231.83125
20
3.4461111
11
230.13125
21
3.4461111
0
LINE
8
0
10
207.13125
20
3.4461111
11
205.43125
21
3.4461111
0
LINE
8
0
10
205.43125
20
3.4461111
11
205.43125
21
-50.2538889
0
LINE
8
0
10
207.13125
20
-46.9038889
11
230.13125
21
-46.9038889
0
LINE
8
0
10
230.13125
20
-46.9038889
11
230.13125
21
3.4461111
0
LINE
8
0
10
207.13125
20
3.4461111
11
207.13125
21
-46.9038889
0
LINE
8
0
10
214.63125
20
4.0961111
11
222.63125
21
4.0961111
0
LINE
8
0
10
222.63125
20
4.0961111
11
222.63125
21
9.4961111
0
LINE
8
0
10
222.63125
20
9.4961111
11
214.63125
21
9.4961111
0
LINE
8
0
10
214.63125
20
9.4961111
11
214.63125
21
4.0961111
0
CIRCLE
8
0
10
233.83125
20
-62.9038889
40
4.75
0
LINE
8
0
10
214.88125
20
-72.4038889
11
232.88125
21
-72.4038889
0
LINE
8
0
10
232.88125
20
-72.4038889
11
232.88125
21
-53.4038889
0
LINE
8
0
10
232.88125
20
-53.4038889
11
214.88125
21
-53.4038889
0
LINE
8
0
10
214.88125
20
-53.4038889
11
214.88125
21
-72.4038889
0
CIRCLE
8
0
10
107.525
20
-33.525
40
2.6
0
CIRCLE
8
0
10
144.625
20
-20.19
40
2.6
0
CIRCLE
8
0
10
202.775
20
-13.99
40
2.6
0
CIRCLE
8
0
10
111.525
20
-62
40
2.6
0
CIRCLE
8
0
10
164.675
20
-30.14
40
2.6
0
CIRCLE
8
0
10
183.725
20
-36.09
40
2.6
0
CIRCLE
8
0
10
147.625
20
-77.24
40
2.6
0
CIRCLE
8
0
10
204.775
20
-52.04
40
2.6
0
CIRCLE
8
0
10
204.775
20
-71.04
40
2.6
0
CIRCLE
8
0
10
107.525
20
-33.525
40
3.5
0
CIRCLE
8
0
10
144.625
20
-20.19
40
3.5
0
CIRCLE
8
0
10
202.775
20
-13.99
40
3.5
0
CIRCLE
8
0
10
111.525
20
-62
40
3.5
0
CIRCLE
8
0
10
164.675
20
-30.14
40
3.5
0
CIRCLE
8
0
10
183.725
20
-36.09
40
3.5
0
CIRCLE
8
0
10
147.625
20
-77.24
40
3.5
0
CIRCLE
8
0
10
204.775
20
-52.04
40
3.5
0
CIRCLE
8
0
10
204.775
20
-71.04
40
3.5
0
LINE
8
0
10
93.475
20
-80.975
11
109.525
21
-80.975
0
LINE
8
0
10
90.475
20
-77.975
11
90.475
21
-17.475
0
LINE
8
0
10
93.475
20
-14.475
11
106.525
21
-14.475
0
LINE
8
0
10
117.4090907
20
-81
11
109.525
21
-81
0
LINE
8
0
10
109.525
20
-81
11
109.525
21
-80.975
0
LINE
8
0
10
112.525
20
-4.95
11
125.575
21
-4.95
0
LINE
8
0
10
109.525
20
-11.475
11
109.525
21
-7.95
0
LINE
8
0
10
131.575
20
3.261
11
144.625
21
3.261
0
LINE
8
0
10
128.575
20
-1.95
11
128.575
21
0.261
0
LINE
8
0
10
150.625
20
11.2634
11
163.675
21
11.2634
0
LINE
8
0
10
166.675
20
8.2634
11
166.675
21
8.011
0
LINE
8
0
10
147.625
20
6.261
11
147.625
21
8.2634
0
LINE
8
0
10
169.675
20
5.011
11
185.725
21
5.011
0
LINE
8
0
10
185.725
20
5.011
11
185.725
21
5.01
0
LINE
8
0
10
232.5375
20
-91.4537064
11
232.5375
21
2.01
0
LINE
8
0
10
185.725
20
5.01
11
229.5375
21
5.01
0
LINE
8
0
10
118.0277033
20
-81.064473
11
204.5170347
21
-99.2906338
0
LINE
8
0
10
204.5170347
20
-99.2906338
11
211.622936
21
-102.4247097
0
LINE
8
0
10
232.5375
20
-91.4537064
11
239.1703219
21
-96.2198724
0
LINE
8
0
10
230.6651748
20
-113.1970621
11
239.8559489
21
-100.4067466
0
LINE
8
0
10
211.2517344
20
-102.9412914
11
226.4783006
21
-113.8826891
0
LINE
8
0
10
211.2517344
20
-102.9412914
11
211.622936
21
-102.4247097
0
ARC
8
0
10
93.475
20
-77.975
40
3
50
180
51
270
0
ARC
8
0
10
93.475
20
-17.475
40
3
50
90
51
180
0
ARC
8
0
10
106.525
20
-11.475
40
3
50
270
51
0
0
ARC
8
0
10
112.525
20
-7.95
40
3
50
90
51
180
0
ARC
8
0
10
125.575
20
-1.95
40
3
50
270
51
0
0
ARC
8
0
10
131.575
20
0.261
40
3
50
90
51
180
0
ARC
8
0
10
144.625
20
6.261
40
3
50
270
51
0
0
ARC
8
0
10
150.625
20
8.2634
40
3
50
90
51
180
0
ARC
8
0
10
163.675
20
8.2634
40
3
50
0
51
90
0
ARC
8
0
10
169.675
20
8.011
40
3
50
180
51
270
0
ARC
8
0
10
229.5375
20
2.01
40
3
50
0
51
90
0
ARC
8
0
10
237.4196983
20
-98.656123
40
3
50
324.2999996
51
54.2999996
0
ARC
8
0
10
228.2289242
20
-111.4464385
40
3
50
234.2999996
51
324.2999996
0
ARC
8
0
10
117.4090907
20
-84
40
3
50
78.0999994
51
90
0
ENDSEC
0
EOF