solid csg.js
facet normal 0 0 -1
outer loop
vertex 246.2675 1.7000000000000028 0
vertex 246.2675 1.2100000000000009 0
vertex 243.5675 1.2100000000000009 0
endloop
endfacet
facet normal 0 0 -1
outer loop
vertex 246.2675 1.7000000000000028 0
vertex 243.5675 1.2100000000000009 0
vertex 222.5675 1.2100000000000009 0
endloop
endfacet
facet normal 0 0 -1
outer loop
vertex 246.2675 1.7000000000000028 0
vertex 222.5675 1.2100000000000009 0
vertex 219.8675 1.2100000000000009 0
endloop
endfacet
facet normal 0 0 -1
outer loop
vertex 246.2675 1.7000000000000028 0
vertex 219.8675 1.2100000000000009 0
vertex 219.8675 1.7000000000000028 0
endloop
endfacet
facet normal 0 0 -1
outer loop
vertex 222.5675 1.2100000000000009 0
vertex 222.5675 -49.79 0
vertex 219.8675 -49.79 0
endloop
endfacet
facet normal 0 0 -1
outer loop
vertex 222.5675 1.2100000000000009 0
vertex 219.8675 -49.79 0
vertex 219.8675 1.2100000000000009 0
endloop
endfacet
facet normal 0 0 -1
outer loop
vertex 246.2675 1.2100000000000009 0
vertex 246.2675 -49.79 0
vertex 243.5675 -49.79 0
endloop
endfacet
facet normal 0 0 -1
outer loop
vertex 246.2675 1.2100000000000009 0
vertex 243.5675 -49.79 0
vertex 243.5675 1.2100000000000009 0
endloop
endfacet
facet normal 0 0 -1
outer loop
vertex 222.5675 -49.79 0
vertex 243.5675 -49.79 0
vertex 246.2675 -49.79 0
endloop
endfacet
facet normal 0 0 -1
outer loop
vertex 222.5675 -49.79 0
vertex 246.2675 -49.79 0
vertex 246.2675 -50.3 0
endloop
endfacet
facet normal 0 0 -1
outer loop
vertex 222.5675 -49.79 0
vertex 246.2675 -50.3 0
vertex 219.8675 -50.3 0
endloop
endfacet
facet normal 0 0 -1
outer loop
vertex 222.5675 -49.79 0
vertex 219.8675 -50.3 0
vertex 219.8675 -49.79 0
endloop
endfacet
facet normal 0 0 1
outer loop
vertex 246.2675 -50.3 1
vertex 246.2675 -49.79 1
vertex 243.5675 -49.79 1
endloop
endfacet
facet normal 0 0 1
outer loop
vertex 246.2675 -50.3 1
vertex 243.5675 -49.79 1
vertex 222.5675 -49.79 1
endloop
endfacet
facet normal 0 0 1
outer loop
vertex 246.2675 -50.3 1
vertex 222.5675 -49.79 1
vertex 219.8675 -49.79 1
endloop
endfacet
facet normal 0 0 1
outer loop
vertex 246.2675 -50.3 1
vertex 219.8675 -49.79 1
vertex 219.8675 -50.3 1
endloop
endfacet
facet normal 0 0 1
outer loop
vertex 222.5675 -49.79 1
vertex 222.5675 1.2100000000000009 1
vertex 219.8675 1.2100000000000009 1
endloop
endfacet
facet normal 0 0 1
outer loop
vertex 222.5675 -49.79 1
vertex 219.8675 1.2100000000000009 1
vertex 219.8675 -49.79 1
endloop
endfacet
facet normal 0 0 1
outer loop
vertex 246.2675 -49.79 1
vertex 246.2675 1.2100000000000009 1
vertex 243.5675 1.2100000000000009 1
endloop
endfacet
facet normal 0 0 1
outer loop
vertex 246.2675 -49.79 1
vertex 243.5675 1.2100000000000009 1
vertex 243.5675 -49.79 1
endloop
endfacet
facet normal 0 0 1
outer loop
vertex 222.5675 1.2100000000000009 1
vertex 243.5675 1.2100000000000009 1
vertex 246.2675 1.2100000000000009 1
endloop
endfacet
facet normal 0 0 1
outer loop
vertex 222.5675 1.2100000000000009 1
vertex 246.2675 1.2100000000000009 1
vertex 246.2675 1.6999999999999993 1
endloop
endfacet
facet normal 0 0 1
outer loop
vertex 222.5675 1.2100000000000009 1
vertex 246.2675 1.6999999999999993 1
vertex 219.8675 1.6999999999999993 1
endloop
endfacet
facet normal 0 0 1
outer loop
vertex 222.5675 1.2100000000000009 1
vertex 219.8675 1.6999999999999993 1
vertex 219.8675 1.2100000000000009 1
endloop
endfacet
facet normal 0 -1 0
outer loop
vertex 246.2675 -50.3 0
vertex 246.2675 -50.3 1
vertex 219.8675 -50.3 1
endloop
endfacet
facet normal 0 -1 0
outer loop
vertex 246.2675 -50.3 0
vertex 219.8675 -50.3 1
vertex 219.8675 -50.3 0
endloop
endfacet
facet normal 1 0 0
outer loop
vertex 246.2675 -49.79 0
vertex 246.2675 1.2100000000000009 0
vertex 246.2675 1.7000000000000028 0
endloop
endfacet
facet normal 1 0 0
outer loop
vertex 246.2675 -49.79 0
vertex 246.2675 1.7000000000000028 0
vertex 246.2675 1.6999999999999993 1
endloop
endfacet
facet normal 1 0 0
outer loop
vertex 246.2675 -49.79 0
vertex 246.2675 1.6999999999999993 1
vertex 246.2675 1.2100000000000009 1
endloop
endfacet
facet normal 1 0 0
outer loop
vertex 246.2675 -49.79 0
vertex 246.2675 1.2100000000000009 1
vertex 246.2675 -49.79 1
endloop
endfacet
facet normal 1 0 0
outer loop
vertex 246.2675 -49.79 0
vertex 246.2675 -49.79 1
vertex 246.2675 -50.3 1
endloop
endfacet
facet normal 1 0 0
outer loop
vertex 246.2675 -49.79 0
vertex 246.2675 -50.3 1
vertex 246.2675 -50.3 0
endloop
endfacet
facet normal 0 1 0
outer loop
vertex 246.2675 1.6999999999999993 1
vertex 246.2675 1.7000000000000028 0
vertex 219.8675 1.7000000000000028 0
endloop
endfacet
facet normal 0 1 0
outer loop
vertex 246.2675 1.6999999999999993 1
vertex 219.8675 1.7000000000000028 0
vertex 219.8675 1.6999999999999993 1
endloop
endfacet
facet normal -1 0 0
outer loop
vertex 219.8675 -49.79 1
vertex 219.8675 1.2100000000000009 1
vertex 219.8675 1.6999999999999993 1
endloop
endfacet
facet normal -1 0 0
outer loop
vertex 219.8675 -49.79 1
vertex 219.8675 1.6999999999999993 1
vertex 219.8675 1.7000000000000028 0
endloop
endfacet
facet normal -1 0 0
outer loop
vertex 219.8675 -49.79 1
vertex 219.8675 1.7000000000000028 0
vertex 219.8675 1.2100000000000009 0
endloop
endfacet
facet normal -1 0 0
outer loop
vertex 219.8675 -49.79 1
vertex 219.8675 1.2100000000000009 0
vertex 219.8675 -49.79 0
endloop
endfacet
facet normal -1 0 0
outer loop
vertex 219.8675 -49.79 1
vertex 219.8675 -49.79 0
vertex 219.8675 -50.3 0
endloop
endfacet
facet normal -1 0 0
outer loop
vertex 219.8675 -49.79 1
vertex 219.8675 -50.3 0
vertex 219.8675 -50.3 1
endloop
endfacet
facet normal 0 1 0
outer loop
vertex 243.5675 -49.79 1
vertex 243.5675 -49.79 0
vertex 222.5675 -49.79 0
endloop
endfacet
facet normal 0 1 0
outer loop
vertex 243.5675 -49.79 1
vertex 222.5675 -49.79 0
vertex 222.5675 -49.79 1
endloop
endfacet
facet normal -1 0 0
outer loop
vertex 243.5675 1.2100000000000009 1
vertex 243.5675 1.2100000000000009 0
vertex 243.5675 -49.79 0
endloop
endfacet
facet normal -1 0 0
outer loop
vertex 243.5675 1.2100000000000009 1
vertex 243.5675 -49.79 0
vertex 243.5675 -49.79 1
endloop
endfacet
facet normal 0 -1 0
outer loop
vertex 243.5675 1.2100000000000009 0
vertex 243.5675 1.2100000000000009 1
vertex 222.5675 1.2100000000000009 1
endloop
endfacet
facet normal 0 -1 0
outer loop
vertex 243.5675 1.2100000000000009 0
vertex 222.5675 1.2100000000000009 1
vertex 222.5675 1.2100000000000009 0
endloop
endfacet
facet normal 1 0 0
outer loop
vertex 222.5675 1.2100000000000009 0
vertex 222.5675 1.2100000000000009 1
vertex 222.5675 -49.79 1
endloop
endfacet
facet normal 1 0 0
outer loop
vertex 222.5675 1.2100000000000009 0
vertex 222.5675 -49.79 1
vertex 222.5675 -49.79 0
endloop
endfacet
endsolid csg.js
