solid csg.js
facet normal 0 0 -1
outer loop
vertex 223.5675 1.1999999999999993 0
vertex 244.5675 1.2000000000000028 0
vertex 244.5675 -49.79 0
endloop
endfacet
facet normal 0 0 -1
outer loop
vertex 223.5675 1.1999999999999993 0
vertex 244.5675 -49.79 0
vertex 223.5675 -49.79 0
endloop
endfacet
facet normal 0 0 1
outer loop
vertex 223.5675 1.2000000000000028 1
vertex 223.5675 -49.79 1
vertex 244.5675 -49.79 1
endloop
endfacet
facet normal 0 0 1
outer loop
vertex 223.5675 1.2000000000000028 1
vertex 244.5675 -49.79 1
vertex 244.5675 1.1999999999999993 1
endloop
endfacet
facet normal 0 -1 0
outer loop
vertex 244.5675 -49.79 0
vertex 244.5675 -49.79 1
vertex 223.5675 -49.79 1
endloop
endfacet
facet normal 0 -1 0
outer loop
vertex 244.5675 -49.79 0
vertex 223.5675 -49.79 1
vertex 223.5675 -49.79 0
endloop
endfacet
facet normal 1 0 0
outer loop
vertex 244.5675 1.2000000000000028 0
vertex 244.5675 1.1999999999999993 1
vertex 244.5675 -49.79 1
endloop
endfacet
facet normal 1 0 0
outer loop
vertex 244.5675 1.2000000000000028 0
vertex 244.5675 -49.79 1
vertex 244.5675 -49.79 0
endloop
endfacet
facet normal 0 1 0
outer loop
vertex 244.5675 1.1999999999999993 1
vertex 244.5675 1.2000000000000028 0
vertex 223.5675 1.1999999999999993 0
endloop
endfacet
facet normal 0 1 0
outer loop
vertex 244.5675 1.1999999999999993 1
vertex 223.5675 1.1999999999999993 0
vertex 223.5675 1.2000000000000028 1
endloop
endfacet
facet normal -1 0 0
outer loop
vertex 223.5675 1.2000000000000028 1
vertex 223.5675 1.1999999999999993 0
vertex 223.5675 -49.79 0
endloop
endfacet
facet normal -1 0 0
outer loop
vertex 223.5675 1.2000000000000028 1
vertex 223.5675 -49.79 0
vertex 223.5675 -49.79 1
endloop
endfacet
endsolid csg.js
