 0
SECTION
2
HEADER
9
$INSUNITS
70
4
0
ENDSEC
0
SECTION
2
TABLES
0
TABLE
2
LTYPE
0
LTYPE
72
65
70
64
2
CONTINUOUS
3
______
73
0
40
0
0
ENDTAB
0
TABLE
2
LAYER
0
ENDTAB
0
ENDSEC
0
SECTION
2
ENTITIES
0
LINE
8
0
10
48.15
20
28.1
11
123.3
21
28.1
0
ARC
8
0
10
123.3
20
29.1
40
1
50
270
51
360
0
LINE
8
0
10
124.3
20
29.1
11
124.3
21
104.25
0
ARC
8
0
10
123.3
20
104.25
40
1
50
360
51
90
0
LINE
8
0
10
48.15
20
105.25
11
123.3
21
105.25
0
ARC
8
0
10
48.15
20
104.25
40
1
50
90
51
180
0
LINE
8
0
10
47.15
20
29.1
11
47.15
21
104.25
0
ARC
8
0
10
48.15
20
29.1
40
1
50
180
51
270
0
LINE
8
0
10
162.3987492
20
67.2
11
175.6875
21
67.2
0
ARC
8
0
10
175.6875
20
68.2
40
1
50
270
51
360
0
LINE
8
0
10
176.6875
20
68.2
11
176.6875
21
86.2
0
ARC
8
0
10
175.6875
20
86.2
40
1
50
0
51
90
0
LINE
8
0
10
175.6875
20
87.2
11
157.6875
21
87.2
0
ARC
8
0
10
157.6875
20
86.2
40
1
50
90
51
180
0
LINE
8
0
10
156.6875
20
86.2
11
156.6875
21
68.2
0
ARC
8
0
10
157.6875
20
68.2
40
1
50
180
51
182.865984
0
LINE
8
0
10
156.6887508
20
68.15
11
148.1112492
21
68.15
0
ARC
8
0
10
147.1125
20
68.2
40
1
50
357.134016
51
360
0
LINE
8
0
10
148.1125
20
68.2
11
148.1125
21
86.2
0
ARC
8
0
10
147.1125
20
86.2
40
1
50
0
51
90
0
LINE
8
0
10
147.1125
20
87.2
11
129.1125
21
87.2
0
ARC
8
0
10
129.1125
20
86.2
40
1
50
90
51
180
0
LINE
8
0
10
128.1125
20
86.2
11
128.1125
21
68.2
0
ARC
8
0
10
129.1125
20
68.2
40
1
50
180
51
270
0
LINE
8
0
10
129.1125
20
67.2
11
142.4012508
21
67.2
0
ARC
8
0
10
143.4
20
67.15
40
1
50
177.134016
51
180
0
LINE
8
0
10
142.4
20
67.15
11
142.4
21
49.15
0
ARC
8
0
10
143.4
20
49.15
40
1
50
180
51
211.6682441
0
ARC
8
0
10
143.4
20
48.1
40
1
50
148.3317559
51
180
0
LINE
8
0
10
142.4
20
48.1
11
142.4
21
30.1
0
ARC
8
0
10
143.4
20
30.1
40
1
50
180
51
270
0
LINE
8
0
10
143.4
20
29.1
11
161.4
21
29.1
0
ARC
8
0
10
161.4
20
30.1
40
1
50
270
51
360
0
LINE
8
0
10
162.4
20
30.1
11
162.4
21
48.1
0
ARC
8
0
10
161.4
20
48.1
40
1
50
0
51
31.6682441
0
ARC
8
0
10
161.4
20
49.15
40
1
50
328.3317559
51
360
0
LINE
8
0
10
162.4
20
49.15
11
162.4
21
67.15
0
ARC
8
0
10
161.4
20
67.15
40
1
50
0
51
2.865984
0
LINE
8
0
10
24.3375
20
28.1
11
42.3375
21
28.1
0
ARC
8
0
10
42.3375
20
29.1
40
1
50
270
51
360
0
LINE
8
0
10
43.3375
20
29.1
11
43.3375
21
104.25
0
ARC
8
0
10
42.3375
20
104.25
40
1
50
0
51
90
0
LINE
8
0
10
42.3375
20
105.25
11
24.3375
21
105.25
0
ARC
8
0
10
24.3375
20
104.25
40
1
50
90
51
180
0
LINE
8
0
10
23.3375
20
29.1
11
23.3375
21
104.25
0
ARC
8
0
10
24.3375
20
29.1
40
1
50
180
51
270
0
LINE
8
0
10
136.4
20
87.25
11
168.4
21
87.25
0
ARC
8
0
10
168.4
20
88.25
40
1
50
270
51
360
0
LINE
8
0
10
169.4
20
88.25
11
169.4
21
104.25
0
ARC
8
0
10
168.4
20
104.25
40
1
50
0
51
90
0
LINE
8
0
10
168.4
20
105.25
11
136.4
21
105.25
0
ARC
8
0
10
136.4
20
104.25
40
1
50
90
51
180
0
LINE
8
0
10
135.4
20
104.25
11
135.4
21
88.25
0
ARC
8
0
10
136.4
20
88.25
40
1
50
180
51
270
0
LINE
8
0
10
50.15
20
31.1
11
64.15
21
31.1
0
LINE
8
0
10
64.15
20
31.1
11
64.15
21
45.1
0
LINE
8
0
10
64.15
20
45.1
11
50.15
21
45.1
0
LINE
8
0
10
50.15
20
45.1
11
50.15
21
31.1
0
LINE
8
0
10
50.15
20
50.15
11
64.15
21
50.15
0
LINE
8
0
10
64.15
20
50.15
11
64.15
21
64.15
0
LINE
8
0
10
64.15
20
64.15
11
50.15
21
64.15
0
LINE
8
0
10
50.15
20
64.15
11
50.15
21
50.15
0
LINE
8
0
10
50.15
20
69.2
11
64.15
21
69.2
0
LINE
8
0
10
64.15
20
69.2
11
64.15
21
83.2
0
LINE
8
0
10
64.15
20
83.2
11
50.15
21
83.2
0
LINE
8
0
10
50.15
20
83.2
11
50.15
21
69.2
0
LINE
8
0
10
50.15
20
88.25
11
64.15
21
88.25
0
LINE
8
0
10
64.15
20
88.25
11
64.15
21
102.25
0
LINE
8
0
10
64.15
20
102.25
11
50.15
21
102.25
0
LINE
8
0
10
50.15
20
102.25
11
50.15
21
88.25
0
LINE
8
0
10
69.2
20
31.1
11
83.2
21
31.1
0
LINE
8
0
10
83.2
20
31.1
11
83.2
21
45.1
0
LINE
8
0
10
83.2
20
45.1
11
69.2
21
45.1
0
LINE
8
0
10
69.2
20
45.1
11
69.2
21
31.1
0
LINE
8
0
10
69.2
20
50.15
11
83.2
21
50.15
0
LINE
8
0
10
83.2
20
50.15
11
83.2
21
64.15
0
LINE
8
0
10
83.2
20
64.15
11
69.2
21
64.15
0
LINE
8
0
10
69.2
20
64.15
11
69.2
21
50.15
0
LINE
8
0
10
69.2
20
69.2
11
83.2
21
69.2
0
LINE
8
0
10
83.2
20
69.2
11
83.2
21
83.2
0
LINE
8
0
10
83.2
20
83.2
11
69.2
21
83.2
0
LINE
8
0
10
69.2
20
83.2
11
69.2
21
69.2
0
LINE
8
0
10
69.2
20
88.25
11
83.2
21
88.25
0
LINE
8
0
10
83.2
20
88.25
11
83.2
21
102.25
0
LINE
8
0
10
83.2
20
102.25
11
69.2
21
102.25
0
LINE
8
0
10
69.2
20
102.25
11
69.2
21
88.25
0
LINE
8
0
10
88.25
20
31.1
11
102.25
21
31.1
0
LINE
8
0
10
102.25
20
31.1
11
102.25
21
45.1
0
LINE
8
0
10
102.25
20
45.1
11
88.25
21
45.1
0
LINE
8
0
10
88.25
20
45.1
11
88.25
21
31.1
0
LINE
8
0
10
88.25
20
50.15
11
102.25
21
50.15
0
LINE
8
0
10
102.25
20
50.15
11
102.25
21
64.15
0
LINE
8
0
10
102.25
20
64.15
11
88.25
21
64.15
0
LINE
8
0
10
88.25
20
64.15
11
88.25
21
50.15
0
LINE
8
0
10
88.25
20
69.2
11
102.25
21
69.2
0
LINE
8
0
10
102.25
20
69.2
11
102.25
21
83.2
0
LINE
8
0
10
102.25
20
83.2
11
88.25
21
83.2
0
LINE
8
0
10
88.25
20
83.2
11
88.25
21
69.2
0
LINE
8
0
10
88.25
20
88.25
11
102.25
21
88.25
0
LINE
8
0
10
102.25
20
88.25
11
102.25
21
102.25
0
LINE
8
0
10
102.25
20
102.25
11
88.25
21
102.25
0
LINE
8
0
10
88.25
20
102.25
11
88.25
21
88.25
0
LINE
8
0
10
107.3
20
31.1
11
121.3
21
31.1
0
LINE
8
0
10
121.3
20
31.1
11
121.3
21
45.1
0
LINE
8
0
10
121.3
20
45.1
11
107.3
21
45.1
0
LINE
8
0
10
107.3
20
45.1
11
107.3
21
31.1
0
LINE
8
0
10
107.3
20
50.15
11
121.3
21
50.15
0
LINE
8
0
10
121.3
20
50.15
11
121.3
21
64.15
0
LINE
8
0
10
121.3
20
64.15
11
107.3
21
64.15
0
LINE
8
0
10
107.3
20
64.15
11
107.3
21
50.15
0
LINE
8
0
10
107.3
20
69.2
11
121.3
21
69.2
0
LINE
8
0
10
121.3
20
69.2
11
121.3
21
83.2
0
LINE
8
0
10
121.3
20
83.2
11
107.3
21
83.2
0
LINE
8
0
10
107.3
20
83.2
11
107.3
21
69.2
0
LINE
8
0
10
107.3
20
88.25
11
121.3
21
88.25
0
LINE
8
0
10
121.3
20
88.25
11
121.3
21
102.25
0
LINE
8
0
10
121.3
20
102.25
11
107.3
21
102.25
0
LINE
8
0
10
107.3
20
102.25
11
107.3
21
88.25
0
LINE
8
0
10
26.3375
20
31.1
11
40.3375
21
31.1
0
LINE
8
0
10
40.3375
20
31.1
11
40.3375
21
45.1
0
LINE
8
0
10
40.3375
20
45.1
11
26.3375
21
45.1
0
LINE
8
0
10
26.3375
20
45.1
11
26.3375
21
31.1
0
LINE
8
0
10
26.3375
20
50.15
11
40.3375
21
50.15
0
LINE
8
0
10
40.3375
20
50.15
11
40.3375
21
64.15
0
LINE
8
0
10
40.3375
20
64.15
11
26.3375
21
64.15
0
LINE
8
0
10
26.3375
20
64.15
11
26.3375
21
50.15
0
LINE
8
0
10
26.3375
20
69.2
11
40.3375
21
69.2
0
LINE
8
0
10
40.3375
20
69.2
11
40.3375
21
83.2
0
LINE
8
0
10
40.3375
20
83.2
11
26.3375
21
83.2
0
LINE
8
0
10
26.3375
20
83.2
11
26.3375
21
69.2
0
LINE
8
0
10
26.3375
20
88.25
11
40.3375
21
88.25
0
LINE
8
0
10
40.3375
20
88.25
11
40.3375
21
102.25
0
LINE
8
0
10
40.3375
20
102.25
11
26.3375
21
102.25
0
LINE
8
0
10
26.3375
20
102.25
11
26.3375
21
88.25
0
CIRCLE
8
0
10
166.6875
20
77.2
40
3.5
0
CIRCLE
8
0
10
138.1125
20
77.2
40
3.5
0
CIRCLE
8
0
10
152.4
20
58.15
40
3.5
0
LINE
8
0
10
138.4
20
88.75
11
166.4
21
88.75
0
LINE
8
0
10
166.4
20
88.75
11
166.4
21
103.75
0
LINE
8
0
10
166.4
20
103.75
11
138.4
21
103.75
0
LINE
8
0
10
138.4
20
103.75
11
138.4
21
88.75
0
ENDSEC
0
EOF