0
SECTION
2
HEADER
9
$INSUNITS
70
4
0
ENDSEC
0
SECTION
2
TABLES
0
TABLE
2
LTYPE
0
LTYPE
72
65
70
64
2
CONTINUOUS
3
______
73
0
40
0
0
ENDTAB
0
TABLE
2
LAYER
0
ENDTAB
0
ENDSEC
0
SECTION
2
ENTITIES
0
LINE
8
0
10
-11.90625
20
9
11
11.90625
21
9
0
LINE
8
0
10
11.90625
20
9
11
11.90625
21
-9
0
LINE
8
0
10
11.90625
20
-9
11
-11.90625
21
-9
0
LINE
8
0
10
-11.90625
20
-9
11
-11.90625
21
9
0
LINE
8
0
10
-16.66875
20
28.05
11
16.66875
21
28.05
0
LINE
8
0
10
16.66875
20
28.05
11
16.66875
21
10.05
0
LINE
8
0
10
16.66875
20
10.05
11
-16.66875
21
10.05
0
LINE
8
0
10
-16.66875
20
10.05
11
-16.66875
21
28.05
0
LINE
8
0
10
-11.90625
20
47.1
11
11.90625
21
47.1
0
LINE
8
0
10
11.90625
20
47.1
11
11.90625
21
29.1
0
LINE
8
0
10
11.90625
20
29.1
11
-11.90625
21
29.1
0
LINE
8
0
10
-11.90625
20
29.1
11
-11.90625
21
47.1
0
LINE
8
0
10
-9.525
20
66.15
11
9.525
21
66.15
0
LINE
8
0
10
9.525
20
66.15
11
9.525
21
48.15
0
LINE
8
0
10
9.525
20
48.15
11
-9.525
21
48.15
0
LINE
8
0
10
-9.525
20
48.15
11
-9.525
21
66.15
0
LINE
8
0
10
9.525
20
9
11
28.575
21
9
0
LINE
8
0
10
28.575
20
9
11
28.575
21
-9
0
LINE
8
0
10
28.575
20
-9
11
9.525
21
-9
0
LINE
8
0
10
9.525
20
-9
11
9.525
21
9
0
LINE
8
0
10
9.525
20
28.05
11
28.575
21
28.05
0
LINE
8
0
10
28.575
20
28.05
11
28.575
21
10.05
0
LINE
8
0
10
28.575
20
10.05
11
9.525
21
10.05
0
LINE
8
0
10
9.525
20
10.05
11
9.525
21
28.05
0
LINE
8
0
10
9.525
20
47.1
11
28.575
21
47.1
0
LINE
8
0
10
28.575
20
47.1
11
28.575
21
29.1
0
LINE
8
0
10
28.575
20
29.1
11
9.525
21
29.1
0
LINE
8
0
10
9.525
20
29.1
11
9.525
21
47.1
0
LINE
8
0
10
9.525
20
66.15
11
28.575
21
66.15
0
LINE
8
0
10
28.575
20
66.15
11
28.575
21
48.15
0
LINE
8
0
10
28.575
20
48.15
11
9.525
21
48.15
0
LINE
8
0
10
9.525
20
48.15
11
9.525
21
66.15
0
LINE
8
0
10
28.575
20
9
11
47.625
21
9
0
LINE
8
0
10
47.625
20
9
11
47.625
21
-9
0
LINE
8
0
10
47.625
20
-9
11
28.575
21
-9
0
LINE
8
0
10
28.575
20
-9
11
28.575
21
9
0
LINE
8
0
10
28.575
20
28.05
11
47.625
21
28.05
0
LINE
8
0
10
47.625
20
28.05
11
47.625
21
10.05
0
LINE
8
0
10
47.625
20
10.05
11
28.575
21
10.05
0
LINE
8
0
10
28.575
20
10.05
11
28.575
21
28.05
0
LINE
8
0
10
28.575
20
47.1
11
47.625
21
47.1
0
LINE
8
0
10
47.625
20
47.1
11
47.625
21
29.1
0
LINE
8
0
10
47.625
20
29.1
11
28.575
21
29.1
0
LINE
8
0
10
28.575
20
29.1
11
28.575
21
47.1
0
LINE
8
0
10
28.575
20
66.15
11
47.625
21
66.15
0
LINE
8
0
10
47.625
20
66.15
11
47.625
21
48.15
0
LINE
8
0
10
47.625
20
48.15
11
28.575
21
48.15
0
LINE
8
0
10
28.575
20
48.15
11
28.575
21
66.15
0
LINE
8
0
10
-2.38125
20
9
11
116.68125
21
9
0
LINE
8
0
10
116.68125
20
9
11
116.68125
21
-9
0
LINE
8
0
10
116.68125
20
-9
11
-2.38125
21
-9
0
LINE
8
0
10
-2.38125
20
-9
11
-2.38125
21
9
0
LINE
8
0
10
47.625
20
28.05
11
66.675
21
28.05
0
LINE
8
0
10
66.675
20
28.05
11
66.675
21
10.05
0
LINE
8
0
10
66.675
20
10.05
11
47.625
21
10.05
0
LINE
8
0
10
47.625
20
10.05
11
47.625
21
28.05
0
LINE
8
0
10
47.625
20
47.1
11
66.675
21
47.1
0
LINE
8
0
10
66.675
20
47.1
11
66.675
21
29.1
0
LINE
8
0
10
66.675
20
29.1
11
47.625
21
29.1
0
LINE
8
0
10
47.625
20
29.1
11
47.625
21
47.1
0
LINE
8
0
10
47.625
20
66.15
11
66.675
21
66.15
0
LINE
8
0
10
66.675
20
66.15
11
66.675
21
48.15
0
LINE
8
0
10
66.675
20
48.15
11
47.625
21
48.15
0
LINE
8
0
10
47.625
20
48.15
11
47.625
21
66.15
0
LINE
8
0
10
66.675
20
28.05
11
85.725
21
28.05
0
LINE
8
0
10
85.725
20
28.05
11
85.725
21
10.05
0
LINE
8
0
10
85.725
20
10.05
11
66.675
21
10.05
0
LINE
8
0
10
66.675
20
10.05
11
66.675
21
28.05
0
LINE
8
0
10
66.675
20
47.1
11
85.725
21
47.1
0
LINE
8
0
10
85.725
20
47.1
11
85.725
21
29.1
0
LINE
8
0
10
85.725
20
29.1
11
66.675
21
29.1
0
LINE
8
0
10
66.675
20
29.1
11
66.675
21
47.1
0
LINE
8
0
10
66.675
20
66.15
11
85.725
21
66.15
0
LINE
8
0
10
85.725
20
66.15
11
85.725
21
48.15
0
LINE
8
0
10
85.725
20
48.15
11
66.675
21
48.15
0
LINE
8
0
10
66.675
20
48.15
11
66.675
21
66.15
0
LINE
8
0
10
85.725
20
28.05
11
104.775
21
28.05
0
LINE
8
0
10
104.775
20
28.05
11
104.775
21
10.05
0
LINE
8
0
10
104.775
20
10.05
11
85.725
21
10.05
0
LINE
8
0
10
85.725
20
10.05
11
85.725
21
28.05
0
LINE
8
0
10
85.725
20
47.1
11
104.775
21
47.1
0
LINE
8
0
10
104.775
20
47.1
11
104.775
21
29.1
0
LINE
8
0
10
104.775
20
29.1
11
85.725
21
29.1
0
LINE
8
0
10
85.725
20
29.1
11
85.725
21
47.1
0
LINE
8
0
10
85.725
20
66.15
11
104.775
21
66.15
0
LINE
8
0
10
104.775
20
66.15
11
104.775
21
48.15
0
LINE
8
0
10
104.775
20
48.15
11
85.725
21
48.15
0
LINE
8
0
10
85.725
20
48.15
11
85.725
21
66.15
0
LINE
8
0
10
104.775
20
28.05
11
123.825
21
28.05
0
LINE
8
0
10
123.825
20
28.05
11
123.825
21
10.05
0
LINE
8
0
10
123.825
20
10.05
11
104.775
21
10.05
0
LINE
8
0
10
104.775
20
10.05
11
104.775
21
28.05
0
LINE
8
0
10
104.775
20
47.1
11
123.825
21
47.1
0
LINE
8
0
10
123.825
20
47.1
11
123.825
21
29.1
0
LINE
8
0
10
123.825
20
29.1
11
104.775
21
29.1
0
LINE
8
0
10
104.775
20
29.1
11
104.775
21
47.1
0
LINE
8
0
10
104.775
20
66.15
11
123.825
21
66.15
0
LINE
8
0
10
123.825
20
66.15
11
123.825
21
48.15
0
LINE
8
0
10
123.825
20
48.15
11
104.775
21
48.15
0
LINE
8
0
10
104.775
20
48.15
11
104.775
21
66.15
0
LINE
8
0
10
123.825
20
28.05
11
142.875
21
28.05
0
LINE
8
0
10
142.875
20
28.05
11
142.875
21
10.05
0
LINE
8
0
10
142.875
20
10.05
11
123.825
21
10.05
0
LINE
8
0
10
123.825
20
10.05
11
123.825
21
28.05
0
LINE
8
0
10
123.825
20
47.1
11
142.875
21
47.1
0
LINE
8
0
10
142.875
20
47.1
11
142.875
21
29.1
0
LINE
8
0
10
142.875
20
29.1
11
123.825
21
29.1
0
LINE
8
0
10
123.825
20
29.1
11
123.825
21
47.1
0
LINE
8
0
10
123.825
20
66.15
11
142.875
21
66.15
0
LINE
8
0
10
142.875
20
66.15
11
142.875
21
48.15
0
LINE
8
0
10
142.875
20
48.15
11
123.825
21
48.15
0
LINE
8
0
10
123.825
20
48.15
11
123.825
21
66.15
0
LINE
8
0
10
142.875
20
28.05
11
161.925
21
28.05
0
LINE
8
0
10
161.925
20
28.05
11
161.925
21
10.05
0
LINE
8
0
10
161.925
20
10.05
11
142.875
21
10.05
0
LINE
8
0
10
142.875
20
10.05
11
142.875
21
28.05
0
LINE
8
0
10
142.875
20
47.1
11
161.925
21
47.1
0
LINE
8
0
10
161.925
20
47.1
11
161.925
21
29.1
0
LINE
8
0
10
161.925
20
29.1
11
142.875
21
29.1
0
LINE
8
0
10
142.875
20
29.1
11
142.875
21
47.1
0
LINE
8
0
10
142.875
20
66.15
11
161.925
21
66.15
0
LINE
8
0
10
161.925
20
66.15
11
161.925
21
48.15
0
LINE
8
0
10
161.925
20
48.15
11
142.875
21
48.15
0
LINE
8
0
10
142.875
20
48.15
11
142.875
21
66.15
0
LINE
8
0
10
159.54375
20
9
11
183.35625
21
9
0
LINE
8
0
10
183.35625
20
9
11
183.35625
21
-9
0
LINE
8
0
10
183.35625
20
-9
11
159.54375
21
-9
0
LINE
8
0
10
159.54375
20
-9
11
159.54375
21
9
0
LINE
8
0
10
159.54375
20
28.05
11
183.35625
21
28.05
0
LINE
8
0
10
183.35625
20
28.05
11
183.35625
21
10.05
0
LINE
8
0
10
183.35625
20
10.05
11
159.54375
21
10.05
0
LINE
8
0
10
159.54375
20
10.05
11
159.54375
21
28.05
0
LINE
8
0
10
161.925
20
47.1
11
180.975
21
47.1
0
LINE
8
0
10
180.975
20
47.1
11
180.975
21
29.1
0
LINE
8
0
10
180.975
20
29.1
11
161.925
21
29.1
0
LINE
8
0
10
161.925
20
29.1
11
161.925
21
47.1
0
LINE
8
0
10
161.925
20
66.15
11
180.975
21
66.15
0
LINE
8
0
10
180.975
20
66.15
11
180.975
21
48.15
0
LINE
8
0
10
180.975
20
48.15
11
161.925
21
48.15
0
LINE
8
0
10
161.925
20
48.15
11
161.925
21
66.15
0
LINE
8
0
10
178.59375
20
9
11
202.40625
21
9
0
LINE
8
0
10
202.40625
20
9
11
202.40625
21
-9
0
LINE
8
0
10
202.40625
20
-9
11
178.59375
21
-9
0
LINE
8
0
10
178.59375
20
-9
11
178.59375
21
9
0
LINE
8
0
10
180.975
20
28.05
11
200.025
21
28.05
0
LINE
8
0
10
200.025
20
28.05
11
200.025
21
10.05
0
LINE
8
0
10
200.025
20
10.05
11
180.975
21
10.05
0
LINE
8
0
10
180.975
20
10.05
11
180.975
21
28.05
0
LINE
8
0
10
173.83125
20
47.1
11
207.16875
21
47.1
0
LINE
8
0
10
207.16875
20
47.1
11
207.16875
21
29.1
0
LINE
8
0
10
207.16875
20
29.1
11
173.83125
21
29.1
0
LINE
8
0
10
173.83125
20
29.1
11
173.83125
21
47.1
0
LINE
8
0
10
180.975
20
66.15
11
200.025
21
66.15
0
LINE
8
0
10
200.025
20
66.15
11
200.025
21
48.15
0
LINE
8
0
10
200.025
20
48.15
11
180.975
21
48.15
0
LINE
8
0
10
180.975
20
48.15
11
180.975
21
66.15
0
LINE
8
0
10
200.025
20
66.15
11
219.075
21
66.15
0
LINE
8
0
10
219.075
20
66.15
11
219.075
21
48.15
0
LINE
8
0
10
219.075
20
48.15
11
200.025
21
48.15
0
LINE
8
0
10
200.025
20
48.15
11
200.025
21
66.15
0
ENDSEC
0
EOF