0
SECTION
2
HEADER
9
$INSUNITS
70
4
0
ENDSEC
0
SECTION
2
TABLES
0
TABLE
2
LTYPE
0
LTYPE
72
65
70
64
2
CONTINUOUS
3
______
73
0
40
0
0
ENDTAB
0
TABLE
2
LAYER
0
ENDTAB
0
ENDSEC
0
SECTION
2
ENTITIES
0
LINE
8
0
10
-9
20
-14
11
9
21
-14
0
ARC
8
0
10
9
20
-9
40
5
50
270
51
341.3586723
0
LINE
8
0
10
15.6327667
20
-9.2375
11
28.05
21
-9.2375
0
ARC
8
0
10
28.05
20
-4.2375
40
5
50
270
51
341.3586723
0
LINE
8
0
10
34.6827667
20
-4.475
11
47.1
21
-4.475
0
ARC
8
0
10
47.1
20
0.525
40
5
50
270
51
341.3586723
0
LINE
8
0
10
53.7327667
20
0.2875
11
66.15
21
0.2875
0
ARC
8
0
10
66.15
20
5.2875
40
5
50
270
51
360
0
LINE
8
0
10
71.15
20
5.2875
11
71.15
21
17.3375
0
LINE
8
0
10
73.15
20
19.3375
11
85.2
21
19.3375
0
ARC
8
0
10
85.2
20
24.3375
40
5
50
270
51
276.0271666
0
ARC
8
0
10
86.25
20
24.3375
40
5
50
263.9728334
51
270
0
LINE
8
0
10
86.25
20
19.3375
11
104.25
21
19.3375
0
ARC
8
0
10
104.25
20
24.3375
40
5
50
270
51
276.0271666
0
ARC
8
0
10
105.3
20
24.3375
40
5
50
263.9728334
51
270
0
LINE
8
0
10
105.3
20
19.3375
11
123.3
21
19.3375
0
ARC
8
0
10
123.3
20
24.3375
40
5
50
270
51
276.0271666
0
ARC
8
0
10
124.35
20
24.3375
40
5
50
263.9728334
51
270
0
LINE
8
0
10
124.35
20
19.3375
11
142.35
21
19.3375
0
ARC
8
0
10
142.35
20
24.3375
40
5
50
270
51
276.0271666
0
ARC
8
0
10
143.4
20
24.3375
40
5
50
263.9728334
51
270
0
LINE
8
0
10
143.4
20
19.3375
11
161.4
21
19.3375
0
ARC
8
0
10
161.4
20
24.3375
40
5
50
270
51
360
0
LINE
8
0
10
166.4
20
24.3375
11
166.4
21
42.3375
0
ARC
8
0
10
161.4
20
42.3375
40
5
50
0
51
6.0271666
0
ARC
8
0
10
161.4
20
43.3875
40
5
50
353.9728334
51
360
0
LINE
8
0
10
166.4
20
43.3875
11
166.4
21
55.4375
0
LINE
8
0
10
168.4
20
57.4375
11
180.45
21
57.4375
0
ARC
8
0
10
180.45
20
62.4375
40
5
50
270
51
276.0271666
0
ARC
8
0
10
181.5
20
62.4375
40
5
50
263.9728334
51
270
0
LINE
8
0
10
181.5
20
57.4375
11
199.5
21
57.4375
0
ARC
8
0
10
199.5
20
62.4375
40
5
50
270
51
360
0
LINE
8
0
10
204.5
20
62.4375
11
204.5
21
80.4375
0
ARC
8
0
10
199.5
20
80.4375
40
5
50
0
51
6.0271666
0
ARC
8
0
10
199.5
20
81.4875
40
5
50
353.9728334
51
360
0
LINE
8
0
10
204.5
20
81.4875
11
204.5
21
99.4875
0
ARC
8
0
10
199.5
20
99.4875
40
5
50
0
51
6.0271666
0
ARC
8
0
10
199.5
20
100.5375
40
5
50
353.9728334
51
360
0
LINE
8
0
10
204.5
20
100.5375
11
204.5
21
112.5875
0
LINE
8
0
10
206.5
20
114.5875
11
218.55
21
114.5875
0
ARC
8
0
10
218.55
20
119.5875
40
5
50
270
51
360
0
LINE
8
0
10
223.55
20
119.5875
11
223.55
21
137.5875
0
ARC
8
0
10
218.55
20
137.5875
40
5
50
0
51
90
0
LINE
8
0
10
218.55
20
142.5875
11
200.55
21
142.5875
0
ARC
8
0
10
200.55
20
137.5875
40
5
50
90
51
96.0271666
0
ARC
8
0
10
199.5
20
137.5875
40
5
50
83.9728334
51
90
0
LINE
8
0
10
199.5
20
142.5875
11
181.5
21
142.5875
0
ARC
8
0
10
181.5
20
137.5875
40
5
50
90
51
96.0271666
0
ARC
8
0
10
180.45
20
137.5875
40
5
50
83.9728334
51
90
0
LINE
8
0
10
180.45
20
142.5875
11
162.45
21
142.5875
0
ARC
8
0
10
162.45
20
137.5875
40
5
50
90
51
180
0
LINE
8
0
10
157.45
20
137.5875
11
157.45
21
119.5875
0
ARC
8
0
10
162.45
20
119.5875
40
5
50
180
51
186.0271666
0
ARC
8
0
10
162.45
20
118.5375
40
5
50
173.9728334
51
180
0
LINE
8
0
10
157.45
20
118.5375
11
157.45
21
100.5375
0
ARC
8
0
10
162.45
20
100.5375
40
5
50
180
51
186.0271666
0
ARC
8
0
10
162.45
20
99.4875
40
5
50
173.9728334
51
180
0
LINE
8
0
10
157.45
20
99.4875
11
157.45
21
87.4375
0
LINE
8
0
10
155.45
20
85.4375
11
143.4
21
85.4375
0
ARC
8
0
10
143.4
20
80.4375
40
5
50
90
51
96.0271666
0
ARC
8
0
10
142.35
20
80.4375
40
5
50
83.9728334
51
90
0
LINE
8
0
10
142.35
20
85.4375
11
124.35
21
85.4375
0
ARC
8
0
10
124.35
20
80.4375
40
5
50
90
51
96.0271666
0
ARC
8
0
10
123.3
20
80.4375
40
5
50
83.9728334
51
90
0
LINE
8
0
10
123.3
20
85.4375
11
105.3
21
85.4375
0
ARC
8
0
10
105.3
20
80.4375
40
5
50
90
51
96.0271666
0
ARC
8
0
10
104.25
20
80.4375
40
5
50
83.9728334
51
90
0
LINE
8
0
10
104.25
20
85.4375
11
86.25
21
85.4375
0
ARC
8
0
10
86.25
20
80.4375
40
5
50
90
51
96.0271666
0
ARC
8
0
10
85.2
20
80.4375
40
5
50
83.9728334
51
90
0
LINE
8
0
10
85.2
20
85.4375
11
67.2
21
85.4375
0
ARC
8
0
10
67.2
20
80.4375
40
5
50
90
51
96.0271666
0
ARC
8
0
10
66.15
20
80.4375
40
5
50
83.9728334
51
90
0
LINE
8
0
10
66.15
20
85.4375
11
48.15
21
85.4375
0
ARC
8
0
10
48.15
20
80.4375
40
5
50
90
51
161.3586723
0
LINE
8
0
10
41.5172333
20
80.675
11
29.1
21
80.675
0
ARC
8
0
10
29.1
20
75.675
40
5
50
90
51
161.3586723
0
LINE
8
0
10
22.4672333
20
75.9125
11
10.05
21
75.9125
0
ARC
8
0
10
10.05
20
70.9125
40
5
50
90
51
161.3586723
0
LINE
8
0
10
3.4172333
20
71.15
11
-9
21
71.15
0
ARC
8
0
10
-9
20
66.15
40
5
50
90
51
180
0
LINE
8
0
10
-14
20
66.15
11
-14
21
48.15
0
ARC
8
0
10
-9
20
48.15
40
5
50
180
51
186.0271666
0
ARC
8
0
10
-9
20
47.1
40
5
50
173.9728334
51
180
0
LINE
8
0
10
-14
20
47.1
11
-14
21
29.1
0
ARC
8
0
10
-9
20
29.1
40
5
50
180
51
186.0271666
0
ARC
8
0
10
-9
20
28.05
40
5
50
173.9728334
51
180
0
LINE
8
0
10
-14
20
28.05
11
-14
21
10.05
0
ARC
8
0
10
-9
20
10.05
40
5
50
180
51
186.0271666
0
ARC
8
0
10
-9
20
9
40
5
50
173.9728334
51
180
0
LINE
8
0
10
-14
20
9
11
-14
21
-9
0
ARC
8
0
10
-9
20
-9
40
5
50
180
51
270
0
ARC
8
0
10
15.6327667
20
-11.2375
40
2
50
90
51
161.3586723
0
ARC
8
0
10
34.6827667
20
-6.475
40
2
50
90
51
161.3586723
0
ARC
8
0
10
53.7327667
20
-1.7125
40
2
50
90
51
161.3586723
0
ARC
8
0
10
73.15
20
17.3375
40
2
50
90
51
180
0
ARC
8
0
10
168.4
20
55.4375
40
2
50
90
51
180
0
ARC
8
0
10
206.5
20
112.5875
40
2
50
90
51
180
0
ARC
8
0
10
155.45
20
87.4375
40
2
50
270
51
0
0
ARC
8
0
10
41.5172333
20
82.675
40
2
50
270
51
341.3586723
0
ARC
8
0
10
22.4672333
20
77.9125
40
2
50
270
51
341.3586723
0
ARC
8
0
10
3.4172333
20
73.15
40
2
50
270
51
341.3586723
0
ENDSEC
0
EOF