0
SECTION
2
HEADER
9
$INSUNITS
70
4
0
ENDSEC
0
SECTION
2
TABLES
0
TABLE
2
LTYPE
0
LTYPE
72
65
70
64
2
CONTINUOUS
3
______
73
0
40
0
0
ENDTAB
0
TABLE
2
LAYER
0
ENDTAB
0
ENDSEC
0
SECTION
2
ENTITIES
0
LINE
8
0
10
-6.5
20
-7
11
6.5
21
-7
0
LINE
8
0
10
7
20
-6.5
11
7
21
6.5
0
LINE
8
0
10
6.5
20
7
11
-6.5
21
7
0
LINE
8
0
10
-7
20
6.5
11
-7
21
-6.5
0
LINE
8
0
10
-6.5
20
12.05
11
6.5
21
12.05
0
LINE
8
0
10
7
20
12.55
11
7
21
25.55
0
LINE
8
0
10
6.5
20
26.05
11
-6.5
21
26.05
0
LINE
8
0
10
-7
20
25.55
11
-7
21
12.55
0
LINE
8
0
10
-6.5
20
31.1
11
6.5
21
31.1
0
LINE
8
0
10
7
20
31.6
11
7
21
44.6
0
LINE
8
0
10
6.5
20
45.1
11
-6.5
21
45.1
0
LINE
8
0
10
-7
20
44.6
11
-7
21
31.6
0
LINE
8
0
10
-6.5
20
50.15
11
6.5
21
50.15
0
LINE
8
0
10
7
20
50.65
11
7
21
63.65
0
LINE
8
0
10
6.5
20
64.15
11
-6.5
21
64.15
0
LINE
8
0
10
-7
20
63.65
11
-7
21
50.65
0
LINE
8
0
10
12.55
20
-2.2375
11
25.55
21
-2.2375
0
LINE
8
0
10
26.05
20
-1.7375
11
26.05
21
11.2625
0
LINE
8
0
10
25.55
20
11.7625
11
12.55
21
11.7625
0
LINE
8
0
10
12.05
20
11.2625
11
12.05
21
-1.7375
0
LINE
8
0
10
12.55
20
16.8125
11
25.55
21
16.8125
0
LINE
8
0
10
26.05
20
17.3125
11
26.05
21
30.3125
0
LINE
8
0
10
25.55
20
30.8125
11
12.55
21
30.8125
0
LINE
8
0
10
12.05
20
30.3125
11
12.05
21
17.3125
0
LINE
8
0
10
12.55
20
35.8625
11
25.55
21
35.8625
0
LINE
8
0
10
26.05
20
36.3625
11
26.05
21
49.3625
0
LINE
8
0
10
25.55
20
49.8625
11
12.55
21
49.8625
0
LINE
8
0
10
12.05
20
49.3625
11
12.05
21
36.3625
0
LINE
8
0
10
12.55
20
54.9125
11
25.55
21
54.9125
0
LINE
8
0
10
26.05
20
55.4125
11
26.05
21
68.4125
0
LINE
8
0
10
25.55
20
68.9125
11
12.55
21
68.9125
0
LINE
8
0
10
12.05
20
68.4125
11
12.05
21
55.4125
0
LINE
8
0
10
31.6
20
2.525
11
44.6
21
2.525
0
LINE
8
0
10
45.1
20
3.025
11
45.1
21
16.025
0
LINE
8
0
10
44.6
20
16.525
11
31.6
21
16.525
0
LINE
8
0
10
31.1
20
16.025
11
31.1
21
3.025
0
LINE
8
0
10
31.6
20
21.575
11
44.6
21
21.575
0
LINE
8
0
10
45.1
20
22.075
11
45.1
21
35.075
0
LINE
8
0
10
44.6
20
35.575
11
31.6
21
35.575
0
LINE
8
0
10
31.1
20
35.075
11
31.1
21
22.075
0
LINE
8
0
10
31.6
20
40.625
11
44.6
21
40.625
0
LINE
8
0
10
45.1
20
41.125
11
45.1
21
54.125
0
LINE
8
0
10
44.6
20
54.625
11
31.6
21
54.625
0
LINE
8
0
10
31.1
20
54.125
11
31.1
21
41.125
0
LINE
8
0
10
31.6
20
59.675
11
44.6
21
59.675
0
LINE
8
0
10
45.1
20
60.175
11
45.1
21
73.175
0
LINE
8
0
10
44.6
20
73.675
11
31.6
21
73.675
0
LINE
8
0
10
31.1
20
73.175
11
31.1
21
60.175
0
LINE
8
0
10
50.65
20
7.2875
11
63.65
21
7.2875
0
LINE
8
0
10
64.15
20
7.7875
11
64.15
21
20.7875
0
LINE
8
0
10
63.65
20
21.2875
11
50.65
21
21.2875
0
LINE
8
0
10
50.15
20
20.7875
11
50.15
21
7.7875
0
LINE
8
0
10
50.65
20
26.3375
11
63.65
21
26.3375
0
LINE
8
0
10
64.15
20
26.8375
11
64.15
21
39.8375
0
LINE
8
0
10
63.65
20
40.3375
11
50.65
21
40.3375
0
LINE
8
0
10
50.15
20
39.8375
11
50.15
21
26.8375
0
LINE
8
0
10
50.65
20
45.3875
11
63.65
21
45.3875
0
LINE
8
0
10
64.15
20
45.8875
11
64.15
21
58.8875
0
LINE
8
0
10
63.65
20
59.3875
11
50.65
21
59.3875
0
LINE
8
0
10
50.15
20
58.8875
11
50.15
21
45.8875
0
LINE
8
0
10
50.65
20
64.4375
11
63.65
21
64.4375
0
LINE
8
0
10
64.15
20
64.9375
11
64.15
21
77.9375
0
LINE
8
0
10
63.65
20
78.4375
11
50.65
21
78.4375
0
LINE
8
0
10
50.15
20
77.9375
11
50.15
21
64.9375
0
LINE
8
0
10
69.7
20
26.3375
11
82.7
21
26.3375
0
LINE
8
0
10
83.2
20
26.8375
11
83.2
21
39.8375
0
LINE
8
0
10
82.7
20
40.3375
11
69.7
21
40.3375
0
LINE
8
0
10
69.2
20
39.8375
11
69.2
21
26.8375
0
LINE
8
0
10
69.7
20
45.3875
11
82.7
21
45.3875
0
LINE
8
0
10
83.2
20
45.8875
11
83.2
21
58.8875
0
LINE
8
0
10
82.7
20
59.3875
11
69.7
21
59.3875
0
LINE
8
0
10
69.2
20
58.8875
11
69.2
21
45.8875
0
LINE
8
0
10
69.7
20
64.4375
11
82.7
21
64.4375
0
LINE
8
0
10
83.2
20
64.9375
11
83.2
21
77.9375
0
LINE
8
0
10
82.7
20
78.4375
11
69.7
21
78.4375
0
LINE
8
0
10
69.2
20
77.9375
11
69.2
21
64.9375
0
LINE
8
0
10
88.75
20
26.3375
11
101.75
21
26.3375
0
LINE
8
0
10
102.25
20
26.8375
11
102.25
21
39.8375
0
LINE
8
0
10
101.75
20
40.3375
11
88.75
21
40.3375
0
LINE
8
0
10
88.25
20
39.8375
11
88.25
21
26.8375
0
LINE
8
0
10
88.75
20
45.3875
11
101.75
21
45.3875
0
LINE
8
0
10
102.25
20
45.8875
11
102.25
21
58.8875
0
LINE
8
0
10
101.75
20
59.3875
11
88.75
21
59.3875
0
LINE
8
0
10
88.25
20
58.8875
11
88.25
21
45.8875
0
LINE
8
0
10
88.75
20
64.4375
11
101.75
21
64.4375
0
LINE
8
0
10
102.25
20
64.9375
11
102.25
21
77.9375
0
LINE
8
0
10
101.75
20
78.4375
11
88.75
21
78.4375
0
LINE
8
0
10
88.25
20
77.9375
11
88.25
21
64.9375
0
LINE
8
0
10
107.8
20
26.3375
11
120.8
21
26.3375
0
LINE
8
0
10
121.3
20
26.8375
11
121.3
21
39.8375
0
LINE
8
0
10
120.8
20
40.3375
11
107.8
21
40.3375
0
LINE
8
0
10
107.3
20
39.8375
11
107.3
21
26.8375
0
LINE
8
0
10
107.8
20
45.3875
11
120.8
21
45.3875
0
LINE
8
0
10
121.3
20
45.8875
11
121.3
21
58.8875
0
LINE
8
0
10
120.8
20
59.3875
11
107.8
21
59.3875
0
LINE
8
0
10
107.3
20
58.8875
11
107.3
21
45.8875
0
LINE
8
0
10
107.8
20
64.4375
11
120.8
21
64.4375
0
LINE
8
0
10
121.3
20
64.9375
11
121.3
21
77.9375
0
LINE
8
0
10
120.8
20
78.4375
11
107.8
21
78.4375
0
LINE
8
0
10
107.3
20
77.9375
11
107.3
21
64.9375
0
LINE
8
0
10
126.85
20
26.3375
11
139.85
21
26.3375
0
LINE
8
0
10
140.35
20
26.8375
11
140.35
21
39.8375
0
LINE
8
0
10
139.85
20
40.3375
11
126.85
21
40.3375
0
LINE
8
0
10
126.35
20
39.8375
11
126.35
21
26.8375
0
LINE
8
0
10
126.85
20
45.3875
11
139.85
21
45.3875
0
LINE
8
0
10
140.35
20
45.8875
11
140.35
21
58.8875
0
LINE
8
0
10
139.85
20
59.3875
11
126.85
21
59.3875
0
LINE
8
0
10
126.35
20
58.8875
11
126.35
21
45.8875
0
LINE
8
0
10
126.85
20
64.4375
11
139.85
21
64.4375
0
LINE
8
0
10
140.35
20
64.9375
11
140.35
21
77.9375
0
LINE
8
0
10
139.85
20
78.4375
11
126.85
21
78.4375
0
LINE
8
0
10
126.35
20
77.9375
11
126.35
21
64.9375
0
LINE
8
0
10
145.9
20
26.3375
11
158.9
21
26.3375
0
LINE
8
0
10
159.4
20
26.8375
11
159.4
21
39.8375
0
LINE
8
0
10
158.9
20
40.3375
11
145.9
21
40.3375
0
LINE
8
0
10
145.4
20
39.8375
11
145.4
21
26.8375
0
LINE
8
0
10
145.9
20
45.3875
11
158.9
21
45.3875
0
LINE
8
0
10
159.4
20
45.8875
11
159.4
21
58.8875
0
LINE
8
0
10
158.9
20
59.3875
11
145.9
21
59.3875
0
LINE
8
0
10
145.4
20
58.8875
11
145.4
21
45.8875
0
LINE
8
0
10
145.9
20
64.4375
11
158.9
21
64.4375
0
LINE
8
0
10
159.4
20
64.9375
11
159.4
21
77.9375
0
LINE
8
0
10
158.9
20
78.4375
11
145.9
21
78.4375
0
LINE
8
0
10
145.4
20
77.9375
11
145.4
21
64.9375
0
LINE
8
0
10
164.95
20
64.4375
11
177.95
21
64.4375
0
LINE
8
0
10
178.45
20
64.9375
11
178.45
21
77.9375
0
LINE
8
0
10
177.95
20
78.4375
11
164.95
21
78.4375
0
LINE
8
0
10
164.45
20
77.9375
11
164.45
21
64.9375
0
LINE
8
0
10
164.95
20
83.4875
11
177.95
21
83.4875
0
LINE
8
0
10
178.45
20
83.9875
11
178.45
21
96.9875
0
LINE
8
0
10
177.95
20
97.4875
11
164.95
21
97.4875
0
LINE
8
0
10
164.45
20
96.9875
11
164.45
21
83.9875
0
LINE
8
0
10
164.95
20
102.5375
11
177.95
21
102.5375
0
LINE
8
0
10
178.45
20
103.0375
11
178.45
21
116.0375
0
LINE
8
0
10
177.95
20
116.5375
11
164.95
21
116.5375
0
LINE
8
0
10
164.45
20
116.0375
11
164.45
21
103.0375
0
LINE
8
0
10
164.95
20
121.5875
11
177.95
21
121.5875
0
LINE
8
0
10
178.45
20
122.0875
11
178.45
21
135.0875
0
LINE
8
0
10
177.95
20
135.5875
11
164.95
21
135.5875
0
LINE
8
0
10
164.45
20
135.0875
11
164.45
21
122.0875
0
LINE
8
0
10
184
20
64.4375
11
197
21
64.4375
0
LINE
8
0
10
197.5
20
64.9375
11
197.5
21
77.9375
0
LINE
8
0
10
197
20
78.4375
11
184
21
78.4375
0
LINE
8
0
10
183.5
20
77.9375
11
183.5
21
64.9375
0
LINE
8
0
10
184
20
83.4875
11
197
21
83.4875
0
LINE
8
0
10
197.5
20
83.9875
11
197.5
21
96.9875
0
LINE
8
0
10
197
20
97.4875
11
184
21
97.4875
0
LINE
8
0
10
183.5
20
96.9875
11
183.5
21
83.9875
0
LINE
8
0
10
184
20
102.5375
11
197
21
102.5375
0
LINE
8
0
10
197.5
20
103.0375
11
197.5
21
116.0375
0
LINE
8
0
10
197
20
116.5375
11
184
21
116.5375
0
LINE
8
0
10
183.5
20
116.0375
11
183.5
21
103.0375
0
LINE
8
0
10
184
20
121.5875
11
197
21
121.5875
0
LINE
8
0
10
197.5
20
122.0875
11
197.5
21
135.0875
0
LINE
8
0
10
197
20
135.5875
11
184
21
135.5875
0
LINE
8
0
10
183.5
20
135.0875
11
183.5
21
122.0875
0
LINE
8
0
10
203.05
20
121.5875
11
216.05
21
121.5875
0
LINE
8
0
10
216.55
20
122.0875
11
216.55
21
135.0875
0
LINE
8
0
10
216.05
20
135.5875
11
203.05
21
135.5875
0
LINE
8
0
10
202.55
20
135.0875
11
202.55
21
122.0875
0
ARC
8
0
10
63.65
20
7.7875
40
0.5
50
270
51
0
0
ARC
8
0
10
63.65
20
20.7875
40
0.5
50
0
51
90
0
ARC
8
0
10
50.65
20
20.7875
40
0.5
50
90
51
180
0
ARC
8
0
10
50.65
20
7.7875
40
0.5
50
180
51
270
0
ARC
8
0
10
63.65
20
26.8375
40
0.5
50
270
51
0
0
ARC
8
0
10
63.65
20
39.8375
40
0.5
50
0
51
90
0
ARC
8
0
10
50.65
20
39.8375
40
0.5
50
90
51
180
0
ARC
8
0
10
50.65
20
26.8375
40
0.5
50
180
51
270
0
ARC
8
0
10
63.65
20
45.8875
40
0.5
50
270
51
0
0
ARC
8
0
10
63.65
20
58.8875
40
0.5
50
0
51
90
0
ARC
8
0
10
50.65
20
58.8875
40
0.5
50
90
51
180
0
ARC
8
0
10
50.65
20
45.8875
40
0.5
50
180
51
270
0
ARC
8
0
10
63.65
20
64.9375
40
0.5
50
270
51
0
0
ARC
8
0
10
63.65
20
77.9375
40
0.5
50
0
51
90
0
ARC
8
0
10
50.65
20
77.9375
40
0.5
50
90
51
180
0
ARC
8
0
10
50.65
20
64.9375
40
0.5
50
180
51
270
0
ARC
8
0
10
6.5
20
-6.5
40
0.5
50
270
51
0
0
ARC
8
0
10
6.5
20
6.5
40
0.5
50
0
51
90
0
ARC
8
0
10
-6.5
20
6.5
40
0.5
50
90
51
180
0
ARC
8
0
10
-6.5
20
-6.5
40
0.5
50
180
51
270
0
ARC
8
0
10
6.5
20
12.55
40
0.5
50
270
51
0
0
ARC
8
0
10
6.5
20
25.55
40
0.5
50
0
51
90
0
ARC
8
0
10
-6.5
20
25.55
40
0.5
50
90
51
180
0
ARC
8
0
10
-6.5
20
12.55
40
0.5
50
180
51
270
0
ARC
8
0
10
6.5
20
31.6
40
0.5
50
270
51
0
0
ARC
8
0
10
6.5
20
44.6
40
0.5
50
0
51
90
0
ARC
8
0
10
-6.5
20
44.6
40
0.5
50
90
51
180
0
ARC
8
0
10
-6.5
20
31.6
40
0.5
50
180
51
270
0
ARC
8
0
10
6.5
20
50.65
40
0.5
50
270
51
0
0
ARC
8
0
10
6.5
20
63.65
40
0.5
50
0
51
90
0
ARC
8
0
10
-6.5
20
63.65
40
0.5
50
90
51
180
0
ARC
8
0
10
-6.5
20
50.65
40
0.5
50
180
51
270
0
ARC
8
0
10
25.55
20
-1.7375
40
0.5
50
270
51
0
0
ARC
8
0
10
25.55
20
11.2625
40
0.5
50
0
51
90
0
ARC
8
0
10
12.55
20
11.2625
40
0.5
50
90
51
180
0
ARC
8
0
10
12.55
20
-1.7375
40
0.5
50
180
51
270
0
ARC
8
0
10
25.55
20
17.3125
40
0.5
50
270
51
0
0
ARC
8
0
10
25.55
20
30.3125
40
0.5
50
0
51
90
0
ARC
8
0
10
12.55
20
30.3125
40
0.5
50
90
51
180
0
ARC
8
0
10
12.55
20
17.3125
40
0.5
50
180
51
270
0
ARC
8
0
10
25.55
20
36.3625
40
0.5
50
270
51
0
0
ARC
8
0
10
25.55
20
49.3625
40
0.5
50
0
51
90
0
ARC
8
0
10
12.55
20
49.3625
40
0.5
50
90
51
180
0
ARC
8
0
10
12.55
20
36.3625
40
0.5
50
180
51
270
0
ARC
8
0
10
25.55
20
55.4125
40
0.5
50
270
51
0
0
ARC
8
0
10
25.55
20
68.4125
40
0.5
50
0
51
90
0
ARC
8
0
10
12.55
20
68.4125
40
0.5
50
90
51
180
0
ARC
8
0
10
12.55
20
55.4125
40
0.5
50
180
51
270
0
ARC
8
0
10
44.6
20
3.025
40
0.5
50
270
51
0
0
ARC
8
0
10
44.6
20
16.025
40
0.5
50
0
51
90
0
ARC
8
0
10
31.6
20
16.025
40
0.5
50
90
51
180
0
ARC
8
0
10
31.6
20
3.025
40
0.5
50
180
51
270
0
ARC
8
0
10
44.6
20
22.075
40
0.5
50
270
51
0
0
ARC
8
0
10
44.6
20
35.075
40
0.5
50
0
51
90
0
ARC
8
0
10
31.6
20
35.075
40
0.5
50
90
51
180
0
ARC
8
0
10
31.6
20
22.075
40
0.5
50
180
51
270
0
ARC
8
0
10
44.6
20
41.125
40
0.5
50
270
51
0
0
ARC
8
0
10
44.6
20
54.125
40
0.5
50
0
51
90
0
ARC
8
0
10
31.6
20
54.125
40
0.5
50
90
51
180
0
ARC
8
0
10
31.6
20
41.125
40
0.5
50
180
51
270
0
ARC
8
0
10
44.6
20
60.175
40
0.5
50
270
51
0
0
ARC
8
0
10
44.6
20
73.175
40
0.5
50
0
51
90
0
ARC
8
0
10
31.6
20
73.175
40
0.5
50
90
51
180
0
ARC
8
0
10
31.6
20
60.175
40
0.5
50
180
51
270
0
ARC
8
0
10
82.7
20
26.8375
40
0.5
50
270
51
0
0
ARC
8
0
10
82.7
20
39.8375
40
0.5
50
0
51
90
0
ARC
8
0
10
69.7
20
39.8375
40
0.5
50
90
51
180
0
ARC
8
0
10
69.7
20
26.8375
40
0.5
50
180
51
270
0
ARC
8
0
10
82.7
20
45.8875
40
0.5
50
270
51
0
0
ARC
8
0
10
82.7
20
58.8875
40
0.5
50
0
51
90
0
ARC
8
0
10
69.7
20
58.8875
40
0.5
50
90
51
180
0
ARC
8
0
10
69.7
20
45.8875
40
0.5
50
180
51
270
0
ARC
8
0
10
82.7
20
64.9375
40
0.5
50
270
51
0
0
ARC
8
0
10
82.7
20
77.9375
40
0.5
50
0
51
90
0
ARC
8
0
10
69.7
20
77.9375
40
0.5
50
90
51
180
0
ARC
8
0
10
69.7
20
64.9375
40
0.5
50
180
51
270
0
ARC
8
0
10
101.75
20
26.8375
40
0.5
50
270
51
0
0
ARC
8
0
10
101.75
20
39.8375
40
0.5
50
0
51
90
0
ARC
8
0
10
88.75
20
39.8375
40
0.5
50
90
51
180
0
ARC
8
0
10
88.75
20
26.8375
40
0.5
50
180
51
270
0
ARC
8
0
10
101.75
20
45.8875
40
0.5
50
270
51
0
0
ARC
8
0
10
101.75
20
58.8875
40
0.5
50
0
51
90
0
ARC
8
0
10
88.75
20
58.8875
40
0.5
50
90
51
180
0
ARC
8
0
10
88.75
20
45.8875
40
0.5
50
180
51
270
0
ARC
8
0
10
101.75
20
64.9375
40
0.5
50
270
51
0
0
ARC
8
0
10
101.75
20
77.9375
40
0.5
50
0
51
90
0
ARC
8
0
10
88.75
20
77.9375
40
0.5
50
90
51
180
0
ARC
8
0
10
88.75
20
64.9375
40
0.5
50
180
51
270
0
ARC
8
0
10
120.8
20
26.8375
40
0.5
50
270
51
0
0
ARC
8
0
10
120.8
20
39.8375
40
0.5
50
0
51
90
0
ARC
8
0
10
107.8
20
39.8375
40
0.5
50
90
51
180
0
ARC
8
0
10
107.8
20
26.8375
40
0.5
50
180
51
270
0
ARC
8
0
10
120.8
20
45.8875
40
0.5
50
270
51
0
0
ARC
8
0
10
120.8
20
58.8875
40
0.5
50
0
51
90
0
ARC
8
0
10
107.8
20
58.8875
40
0.5
50
90
51
180
0
ARC
8
0
10
107.8
20
45.8875
40
0.5
50
180
51
270
0
ARC
8
0
10
120.8
20
64.9375
40
0.5
50
270
51
0
0
ARC
8
0
10
120.8
20
77.9375
40
0.5
50
0
51
90
0
ARC
8
0
10
107.8
20
77.9375
40
0.5
50
90
51
180
0
ARC
8
0
10
107.8
20
64.9375
40
0.5
50
180
51
270
0
ARC
8
0
10
139.85
20
26.8375
40
0.5
50
270
51
0
0
ARC
8
0
10
139.85
20
39.8375
40
0.5
50
0
51
90
0
ARC
8
0
10
126.85
20
39.8375
40
0.5
50
90
51
180
0
ARC
8
0
10
126.85
20
26.8375
40
0.5
50
180
51
270
0
ARC
8
0
10
139.85
20
45.8875
40
0.5
50
270
51
0
0
ARC
8
0
10
139.85
20
58.8875
40
0.5
50
0
51
90
0
ARC
8
0
10
126.85
20
58.8875
40
0.5
50
90
51
180
0
ARC
8
0
10
126.85
20
45.8875
40
0.5
50
180
51
270
0
ARC
8
0
10
139.85
20
64.9375
40
0.5
50
270
51
0
0
ARC
8
0
10
139.85
20
77.9375
40
0.5
50
0
51
90
0
ARC
8
0
10
126.85
20
77.9375
40
0.5
50
90
51
180
0
ARC
8
0
10
126.85
20
64.9375
40
0.5
50
180
51
270
0
ARC
8
0
10
158.9
20
26.8375
40
0.5
50
270
51
0
0
ARC
8
0
10
158.9
20
39.8375
40
0.5
50
0
51
90
0
ARC
8
0
10
145.9
20
39.8375
40
0.5
50
90
51
180
0
ARC
8
0
10
145.9
20
26.8375
40
0.5
50
180
51
270
0
ARC
8
0
10
158.9
20
45.8875
40
0.5
50
270
51
0
0
ARC
8
0
10
158.9
20
58.8875
40
0.5
50
0
51
90
0
ARC
8
0
10
145.9
20
58.8875
40
0.5
50
90
51
180
0
ARC
8
0
10
145.9
20
45.8875
40
0.5
50
180
51
270
0
ARC
8
0
10
158.9
20
64.9375
40
0.5
50
270
51
0
0
ARC
8
0
10
158.9
20
77.9375
40
0.5
50
0
51
90
0
ARC
8
0
10
145.9
20
77.9375
40
0.5
50
90
51
180
0
ARC
8
0
10
145.9
20
64.9375
40
0.5
50
180
51
270
0
ARC
8
0
10
177.95
20
64.9375
40
0.5
50
270
51
0
0
ARC
8
0
10
177.95
20
77.9375
40
0.5
50
0
51
90
0
ARC
8
0
10
164.95
20
77.9375
40
0.5
50
90
51
180
0
ARC
8
0
10
164.95
20
64.9375
40
0.5
50
180
51
270
0
ARC
8
0
10
177.95
20
83.9875
40
0.5
50
270
51
0
0
ARC
8
0
10
177.95
20
96.9875
40
0.5
50
0
51
90
0
ARC
8
0
10
164.95
20
96.9875
40
0.5
50
90
51
180
0
ARC
8
0
10
164.95
20
83.9875
40
0.5
50
180
51
270
0
ARC
8
0
10
177.95
20
103.0375
40
0.5
50
270
51
0
0
ARC
8
0
10
177.95
20
116.0375
40
0.5
50
0
51
90
0
ARC
8
0
10
164.95
20
116.0375
40
0.5
50
90
51
180
0
ARC
8
0
10
164.95
20
103.0375
40
0.5
50
180
51
270
0
ARC
8
0
10
177.95
20
122.0875
40
0.5
50
270
51
0
0
ARC
8
0
10
177.95
20
135.0875
40
0.5
50
0
51
90
0
ARC
8
0
10
164.95
20
135.0875
40
0.5
50
90
51
180
0
ARC
8
0
10
164.95
20
122.0875
40
0.5
50
180
51
270
0
ARC
8
0
10
197
20
64.9375
40
0.5
50
270
51
0
0
ARC
8
0
10
197
20
77.9375
40
0.5
50
0
51
90
0
ARC
8
0
10
184
20
77.9375
40
0.5
50
90
51
180
0
ARC
8
0
10
184
20
64.9375
40
0.5
50
180
51
270
0
ARC
8
0
10
197
20
83.9875
40
0.5
50
270
51
0
0
ARC
8
0
10
197
20
96.9875
40
0.5
50
0
51
90
0
ARC
8
0
10
184
20
96.9875
40
0.5
50
90
51
180
0
ARC
8
0
10
184
20
83.9875
40
0.5
50
180
51
270
0
ARC
8
0
10
197
20
103.0375
40
0.5
50
270
51
0
0
ARC
8
0
10
197
20
116.0375
40
0.5
50
0
51
90
0
ARC
8
0
10
184
20
116.0375
40
0.5
50
90
51
180
0
ARC
8
0
10
184
20
103.0375
40
0.5
50
180
51
270
0
ARC
8
0
10
197
20
122.0875
40
0.5
50
270
51
0
0
ARC
8
0
10
197
20
135.0875
40
0.5
50
0
51
90
0
ARC
8
0
10
184
20
135.0875
40
0.5
50
90
51
180
0
ARC
8
0
10
184
20
122.0875
40
0.5
50
180
51
270
0
ARC
8
0
10
216.05
20
122.0875
40
0.5
50
270
51
0
0
ARC
8
0
10
216.05
20
135.0875
40
0.5
50
0
51
90
0
ARC
8
0
10
203.05
20
135.0875
40
0.5
50
90
51
180
0
ARC
8
0
10
203.05
20
122.0875
40
0.5
50
180
51
270
0
ENDSEC
0
EOF