0
SECTION
2
HEADER
9
$INSUNITS
70
4
0
ENDSEC
0
SECTION
2
TABLES
0
TABLE
2
LTYPE
0
LTYPE
72
65
70
64
2
CONTINUOUS
3
______
73
0
40
0
0
ENDTAB
0
TABLE
2
LAYER
0
ENDTAB
0
ENDSEC
0
SECTION
2
ENTITIES
0
LINE
8
0
10
-9
20
-14
11
9
21
-14
0
ARC
8
0
10
9
20
-9
40
5
50
270
51
276.0271666
0
ARC
8
0
10
10.05
20
-9
40
5
50
263.9728334
51
270
0
LINE
8
0
10
10.05
20
-14
11
28.05
21
-14
0
ARC
8
0
10
28.05
20
-9
40
5
50
270
51
276.0271666
0
ARC
8
0
10
29.1
20
-9
40
5
50
263.9728334
51
270
0
LINE
8
0
10
29.1
20
-14
11
47.1
21
-14
0
ARC
8
0
10
47.1
20
-9
40
5
50
270
51
276.0271666
0
ARC
8
0
10
48.15
20
-9
40
5
50
263.9728334
51
270
0
LINE
8
0
10
48.15
20
-14
11
66.15
21
-14
0
ARC
8
0
10
66.15
20
-9
40
5
50
270
51
360
0
LINE
8
0
10
71.15
20
-9
11
71.15
21
3.05
0
LINE
8
0
10
73.15
20
5.05
11
85.2
21
5.05
0
ARC
8
0
10
85.2
20
10.05
40
5
50
270
51
276.0271666
0
ARC
8
0
10
86.25
20
10.05
40
5
50
263.9728334
51
270
0
LINE
8
0
10
86.25
20
5.05
11
104.25
21
5.05
0
ARC
8
0
10
104.25
20
10.05
40
5
50
270
51
276.0271666
0
ARC
8
0
10
105.3
20
10.05
40
5
50
263.9728334
51
270
0
LINE
8
0
10
105.3
20
5.05
11
123.3
21
5.05
0
ARC
8
0
10
123.3
20
10.05
40
5
50
270
51
276.0271666
0
ARC
8
0
10
124.35
20
10.05
40
5
50
263.9728334
51
270
0
LINE
8
0
10
124.35
20
5.05
11
142.35
21
5.05
0
ARC
8
0
10
142.35
20
10.05
40
5
50
270
51
276.0271666
0
ARC
8
0
10
143.4
20
10.05
40
5
50
263.9728334
51
270
0
LINE
8
0
10
143.4
20
5.05
11
155.45
21
5.05
0
LINE
8
0
10
157.45
20
3.05
11
157.45
21
-9
0
ARC
8
0
10
162.45
20
-9
40
5
50
180
51
270
0
LINE
8
0
10
162.45
20
-14
11
180.45
21
-14
0
ARC
8
0
10
180.45
20
-9
40
5
50
270
51
276.0271666
0
ARC
8
0
10
181.5
20
-9
40
5
50
263.9728334
51
270
0
LINE
8
0
10
181.5
20
-14
11
199.5
21
-14
0
ARC
8
0
10
199.5
20
-9
40
5
50
270
51
360
0
LINE
8
0
10
204.5
20
-9
11
204.5
21
9
0
ARC
8
0
10
199.5
20
9
40
5
50
0
51
6.0271666
0
ARC
8
0
10
199.5
20
10.05
40
5
50
353.9728334
51
360
0
LINE
8
0
10
204.5
20
10.05
11
204.5
21
28.05
0
ARC
8
0
10
199.5
20
28.05
40
5
50
0
51
6.0271666
0
ARC
8
0
10
199.5
20
29.1
40
5
50
353.9728334
51
360
0
LINE
8
0
10
204.5
20
29.1
11
204.5
21
41.15
0
LINE
8
0
10
206.5
20
43.15
11
218.55
21
43.15
0
ARC
8
0
10
218.55
20
48.15
40
5
50
270
51
360
0
LINE
8
0
10
223.55
20
48.15
11
223.55
21
66.15
0
ARC
8
0
10
218.55
20
66.15
40
5
50
0
51
90
0
LINE
8
0
10
218.55
20
71.15
11
200.55
21
71.15
0
ARC
8
0
10
200.55
20
66.15
40
5
50
90
51
96.0271666
0
ARC
8
0
10
199.5
20
66.15
40
5
50
83.9728334
51
90
0
LINE
8
0
10
199.5
20
71.15
11
181.5
21
71.15
0
ARC
8
0
10
181.5
20
66.15
40
5
50
90
51
96.0271666
0
ARC
8
0
10
180.45
20
66.15
40
5
50
83.9728334
51
90
0
LINE
8
0
10
180.45
20
71.15
11
162.45
21
71.15
0
ARC
8
0
10
162.45
20
66.15
40
5
50
90
51
96.0271666
0
ARC
8
0
10
161.4
20
66.15
40
5
50
83.9728334
51
90
0
LINE
8
0
10
161.4
20
71.15
11
143.4
21
71.15
0
ARC
8
0
10
143.4
20
66.15
40
5
50
90
51
96.0271666
0
ARC
8
0
10
142.35
20
66.15
40
5
50
83.9728334
51
90
0
LINE
8
0
10
142.35
20
71.15
11
124.35
21
71.15
0
ARC
8
0
10
124.35
20
66.15
40
5
50
90
51
96.0271666
0
ARC
8
0
10
123.3
20
66.15
40
5
50
83.9728334
51
90
0
LINE
8
0
10
123.3
20
71.15
11
105.3
21
71.15
0
ARC
8
0
10
105.3
20
66.15
40
5
50
90
51
96.0271666
0
ARC
8
0
10
104.25
20
66.15
40
5
50
83.9728334
51
90
0
LINE
8
0
10
104.25
20
71.15
11
86.25
21
71.15
0
ARC
8
0
10
86.25
20
66.15
40
5
50
90
51
96.0271666
0
ARC
8
0
10
85.2
20
66.15
40
5
50
83.9728334
51
90
0
LINE
8
0
10
85.2
20
71.15
11
67.2
21
71.15
0
ARC
8
0
10
67.2
20
66.15
40
5
50
90
51
96.0271666
0
ARC
8
0
10
66.15
20
66.15
40
5
50
83.9728334
51
90
0
LINE
8
0
10
66.15
20
71.15
11
48.15
21
71.15
0
ARC
8
0
10
48.15
20
66.15
40
5
50
90
51
96.0271666
0
ARC
8
0
10
47.1
20
66.15
40
5
50
83.9728334
51
90
0
LINE
8
0
10
47.1
20
71.15
11
29.1
21
71.15
0
ARC
8
0
10
29.1
20
66.15
40
5
50
90
51
96.0271666
0
ARC
8
0
10
28.05
20
66.15
40
5
50
83.9728334
51
90
0
LINE
8
0
10
28.05
20
71.15
11
10.05
21
71.15
0
ARC
8
0
10
10.05
20
66.15
40
5
50
90
51
96.0271666
0
ARC
8
0
10
9
20
66.15
40
5
50
83.9728334
51
90
0
LINE
8
0
10
9
20
71.15
11
-9
21
71.15
0
ARC
8
0
10
-9
20
66.15
40
5
50
90
51
180
0
LINE
8
0
10
-14
20
66.15
11
-14
21
48.15
0
ARC
8
0
10
-9
20
48.15
40
5
50
180
51
186.0271666
0
ARC
8
0
10
-9
20
47.1
40
5
50
173.9728334
51
180
0
LINE
8
0
10
-14
20
47.1
11
-14
21
29.1
0
ARC
8
0
10
-9
20
29.1
40
5
50
180
51
186.0271666
0
ARC
8
0
10
-9
20
28.05
40
5
50
173.9728334
51
180
0
LINE
8
0
10
-14
20
28.05
11
-14
21
10.05
0
ARC
8
0
10
-9
20
10.05
40
5
50
180
51
186.0271666
0
ARC
8
0
10
-9
20
9
40
5
50
173.9728334
51
180
0
LINE
8
0
10
-14
20
9
11
-14
21
-9
0
ARC
8
0
10
-9
20
-9
40
5
50
180
51
270
0
ARC
8
0
10
73.15
20
3.05
40
2
50
90
51
180
0
ARC
8
0
10
155.45
20
3.05
40
2
50
0
51
90
0
ARC
8
0
10
206.5
20
41.15
40
2
50
90
51
180
0
ENDSEC
0
EOF