0
SECTION
2
HEADER
9
$INSUNITS
70
4
0
ENDSEC
0
SECTION
2
TABLES
0
TABLE
2
LTYPE
0
LTYPE
72
65
70
64
2
CONTINUOUS
3
______
73
0
40
0
0
ENDTAB
0
TABLE
2
LAYER
0
ENDTAB
0
ENDSEC
0
SECTION
2
ENTITIES
0
LINE
8
0
10
-114.3
20
37.575
11
-95.25
21
37.575
0
LINE
8
0
10
-95.25
20
37.575
11
-95.25
21
19.575
0
LINE
8
0
10
-95.25
20
19.575
11
-114.3
21
19.575
0
LINE
8
0
10
-114.3
20
19.575
11
-114.3
21
37.575
0
LINE
8
0
10
-95.25
20
37.575
11
-76.2
21
37.575
0
LINE
8
0
10
-76.2
20
37.575
11
-76.2
21
19.575
0
LINE
8
0
10
-76.2
20
19.575
11
-95.25
21
19.575
0
LINE
8
0
10
-95.25
20
19.575
11
-95.25
21
37.575
0
LINE
8
0
10
-76.2
20
37.575
11
-57.15
21
37.575
0
LINE
8
0
10
-57.15
20
37.575
11
-57.15
21
19.575
0
LINE
8
0
10
-57.15
20
19.575
11
-76.2
21
19.575
0
LINE
8
0
10
-76.2
20
19.575
11
-76.2
21
37.575
0
LINE
8
0
10
-57.15
20
37.575
11
-38.1
21
37.575
0
LINE
8
0
10
-38.1
20
37.575
11
-38.1
21
19.575
0
LINE
8
0
10
-38.1
20
19.575
11
-57.15
21
19.575
0
LINE
8
0
10
-57.15
20
19.575
11
-57.15
21
37.575
0
LINE
8
0
10
-38.1
20
37.575
11
-19.05
21
37.575
0
LINE
8
0
10
-19.05
20
37.575
11
-19.05
21
19.575
0
LINE
8
0
10
-19.05
20
19.575
11
-38.1
21
19.575
0
LINE
8
0
10
-38.1
20
19.575
11
-38.1
21
37.575
0
LINE
8
0
10
-19.05
20
37.575
11
0
21
37.575
0
LINE
8
0
10
0
20
37.575
11
0
21
19.575
0
LINE
8
0
10
0
20
19.575
11
-19.05
21
19.575
0
LINE
8
0
10
-19.05
20
19.575
11
-19.05
21
37.575
0
LINE
8
0
10
0
20
37.575
11
19.05
21
37.575
0
LINE
8
0
10
19.05
20
37.575
11
19.05
21
19.575
0
LINE
8
0
10
19.05
20
19.575
11
0
21
19.575
0
LINE
8
0
10
0
20
19.575
11
0
21
37.575
0
LINE
8
0
10
19.05
20
37.575
11
38.1
21
37.575
0
LINE
8
0
10
38.1
20
37.575
11
38.1
21
19.575
0
LINE
8
0
10
38.1
20
19.575
11
19.05
21
19.575
0
LINE
8
0
10
19.05
20
19.575
11
19.05
21
37.575
0
LINE
8
0
10
38.1
20
37.575
11
57.15
21
37.575
0
LINE
8
0
10
57.15
20
37.575
11
57.15
21
19.575
0
LINE
8
0
10
57.15
20
19.575
11
38.1
21
19.575
0
LINE
8
0
10
38.1
20
19.575
11
38.1
21
37.575
0
LINE
8
0
10
57.15
20
37.575
11
76.2
21
37.575
0
LINE
8
0
10
76.2
20
37.575
11
76.2
21
19.575
0
LINE
8
0
10
76.2
20
19.575
11
57.15
21
19.575
0
LINE
8
0
10
57.15
20
19.575
11
57.15
21
37.575
0
LINE
8
0
10
76.2
20
37.575
11
95.25
21
37.575
0
LINE
8
0
10
95.25
20
37.575
11
95.25
21
19.575
0
LINE
8
0
10
95.25
20
19.575
11
76.2
21
19.575
0
LINE
8
0
10
76.2
20
19.575
11
76.2
21
37.575
0
LINE
8
0
10
95.25
20
37.575
11
114.3
21
37.575
0
LINE
8
0
10
114.3
20
37.575
11
114.3
21
19.575
0
LINE
8
0
10
114.3
20
19.575
11
95.25
21
19.575
0
LINE
8
0
10
95.25
20
19.575
11
95.25
21
37.575
0
LINE
8
0
10
-116.68125
20
18.525
11
-92.86875
21
18.525
0
LINE
8
0
10
-92.86875
20
18.525
11
-92.86875
21
0.525
0
LINE
8
0
10
-92.86875
20
0.525
11
-116.68125
21
0.525
0
LINE
8
0
10
-116.68125
20
0.525
11
-116.68125
21
18.525
0
LINE
8
0
10
-90.4875
20
18.525
11
-71.4375
21
18.525
0
LINE
8
0
10
-71.4375
20
18.525
11
-71.4375
21
0.525
0
LINE
8
0
10
-71.4375
20
0.525
11
-90.4875
21
0.525
0
LINE
8
0
10
-90.4875
20
0.525
11
-90.4875
21
18.525
0
LINE
8
0
10
-71.4375
20
18.525
11
-52.3875
21
18.525
0
LINE
8
0
10
-52.3875
20
18.525
11
-52.3875
21
0.525
0
LINE
8
0
10
-52.3875
20
0.525
11
-71.4375
21
0.525
0
LINE
8
0
10
-71.4375
20
0.525
11
-71.4375
21
18.525
0
LINE
8
0
10
-52.3875
20
18.525
11
-33.3375
21
18.525
0
LINE
8
0
10
-33.3375
20
18.525
11
-33.3375
21
0.525
0
LINE
8
0
10
-33.3375
20
0.525
11
-52.3875
21
0.525
0
LINE
8
0
10
-52.3875
20
0.525
11
-52.3875
21
18.525
0
LINE
8
0
10
-33.3375
20
18.525
11
-14.2875
21
18.525
0
LINE
8
0
10
-14.2875
20
18.525
11
-14.2875
21
0.525
0
LINE
8
0
10
-14.2875
20
0.525
11
-33.3375
21
0.525
0
LINE
8
0
10
-33.3375
20
0.525
11
-33.3375
21
18.525
0
LINE
8
0
10
-14.2875
20
18.525
11
4.7625
21
18.525
0
LINE
8
0
10
4.7625
20
18.525
11
4.7625
21
0.525
0
LINE
8
0
10
4.7625
20
0.525
11
-14.2875
21
0.525
0
LINE
8
0
10
-14.2875
20
0.525
11
-14.2875
21
18.525
0
LINE
8
0
10
4.7625
20
18.525
11
23.8125
21
18.525
0
LINE
8
0
10
23.8125
20
18.525
11
23.8125
21
0.525
0
LINE
8
0
10
23.8125
20
0.525
11
4.7625
21
0.525
0
LINE
8
0
10
4.7625
20
0.525
11
4.7625
21
18.525
0
LINE
8
0
10
23.8125
20
18.525
11
42.8625
21
18.525
0
LINE
8
0
10
42.8625
20
18.525
11
42.8625
21
0.525
0
LINE
8
0
10
42.8625
20
0.525
11
23.8125
21
0.525
0
LINE
8
0
10
23.8125
20
0.525
11
23.8125
21
18.525
0
LINE
8
0
10
42.8625
20
18.525
11
61.9125
21
18.525
0
LINE
8
0
10
61.9125
20
18.525
11
61.9125
21
0.525
0
LINE
8
0
10
61.9125
20
0.525
11
42.8625
21
0.525
0
LINE
8
0
10
42.8625
20
0.525
11
42.8625
21
18.525
0
LINE
8
0
10
61.9125
20
18.525
11
80.9625
21
18.525
0
LINE
8
0
10
80.9625
20
18.525
11
80.9625
21
0.525
0
LINE
8
0
10
80.9625
20
0.525
11
61.9125
21
0.525
0
LINE
8
0
10
61.9125
20
0.525
11
61.9125
21
18.525
0
LINE
8
0
10
73.81875
20
18.525
11
107.15625
21
18.525
0
LINE
8
0
10
107.15625
20
18.525
11
107.15625
21
0.525
0
LINE
8
0
10
107.15625
20
0.525
11
73.81875
21
0.525
0
LINE
8
0
10
73.81875
20
0.525
11
73.81875
21
18.525
0
LINE
8
0
10
-121.44375
20
-0.525
11
-88.10625
21
-0.525
0
LINE
8
0
10
-88.10625
20
-0.525
11
-88.10625
21
-18.525
0
LINE
8
0
10
-88.10625
20
-18.525
11
-121.44375
21
-18.525
0
LINE
8
0
10
-121.44375
20
-18.525
11
-121.44375
21
-0.525
0
LINE
8
0
10
-80.9625
20
-0.525
11
-61.9125
21
-0.525
0
LINE
8
0
10
-61.9125
20
-0.525
11
-61.9125
21
-18.525
0
LINE
8
0
10
-61.9125
20
-18.525
11
-80.9625
21
-18.525
0
LINE
8
0
10
-80.9625
20
-18.525
11
-80.9625
21
-0.525
0
LINE
8
0
10
-61.9125
20
-0.525
11
-42.8625
21
-0.525
0
LINE
8
0
10
-42.8625
20
-0.525
11
-42.8625
21
-18.525
0
LINE
8
0
10
-42.8625
20
-18.525
11
-61.9125
21
-18.525
0
LINE
8
0
10
-61.9125
20
-18.525
11
-61.9125
21
-0.525
0
LINE
8
0
10
-42.8625
20
-0.525
11
-23.8125
21
-0.525
0
LINE
8
0
10
-23.8125
20
-0.525
11
-23.8125
21
-18.525
0
LINE
8
0
10
-23.8125
20
-18.525
11
-42.8625
21
-18.525
0
LINE
8
0
10
-42.8625
20
-18.525
11
-42.8625
21
-0.525
0
LINE
8
0
10
-23.8125
20
-0.525
11
-4.7625
21
-0.525
0
LINE
8
0
10
-4.7625
20
-0.525
11
-4.7625
21
-18.525
0
LINE
8
0
10
-4.7625
20
-18.525
11
-23.8125
21
-18.525
0
LINE
8
0
10
-23.8125
20
-18.525
11
-23.8125
21
-0.525
0
LINE
8
0
10
-4.7625
20
-0.525
11
14.2875
21
-0.525
0
LINE
8
0
10
14.2875
20
-0.525
11
14.2875
21
-18.525
0
LINE
8
0
10
14.2875
20
-18.525
11
-4.7625
21
-18.525
0
LINE
8
0
10
-4.7625
20
-18.525
11
-4.7625
21
-0.525
0
LINE
8
0
10
14.2875
20
-0.525
11
33.3375
21
-0.525
0
LINE
8
0
10
33.3375
20
-0.525
11
33.3375
21
-18.525
0
LINE
8
0
10
33.3375
20
-18.525
11
14.2875
21
-18.525
0
LINE
8
0
10
14.2875
20
-18.525
11
14.2875
21
-0.525
0
LINE
8
0
10
33.3375
20
-0.525
11
52.3875
21
-0.525
0
LINE
8
0
10
52.3875
20
-0.525
11
52.3875
21
-18.525
0
LINE
8
0
10
52.3875
20
-18.525
11
33.3375
21
-18.525
0
LINE
8
0
10
33.3375
20
-18.525
11
33.3375
21
-0.525
0
LINE
8
0
10
52.3875
20
-0.525
11
71.4375
21
-0.525
0
LINE
8
0
10
71.4375
20
-0.525
11
71.4375
21
-18.525
0
LINE
8
0
10
71.4375
20
-18.525
11
52.3875
21
-18.525
0
LINE
8
0
10
52.3875
20
-18.525
11
52.3875
21
-0.525
0
LINE
8
0
10
69.05625
20
-0.525
11
92.86875
21
-0.525
0
LINE
8
0
10
92.86875
20
-0.525
11
92.86875
21
-18.525
0
LINE
8
0
10
92.86875
20
-18.525
11
69.05625
21
-18.525
0
LINE
8
0
10
69.05625
20
-18.525
11
69.05625
21
-0.525
0
LINE
8
0
10
95.25
20
-0.525
11
114.3
21
-0.525
0
LINE
8
0
10
114.3
20
-0.525
11
114.3
21
-18.525
0
LINE
8
0
10
114.3
20
-18.525
11
95.25
21
-18.525
0
LINE
8
0
10
95.25
20
-18.525
11
95.25
21
-0.525
0
LINE
8
0
10
-116.68125
20
-19.575
11
-92.86875
21
-19.575
0
LINE
8
0
10
-92.86875
20
-19.575
11
-92.86875
21
-37.575
0
LINE
8
0
10
-92.86875
20
-37.575
11
-116.68125
21
-37.575
0
LINE
8
0
10
-116.68125
20
-37.575
11
-116.68125
21
-19.575
0
LINE
8
0
10
-90.4875
20
-19.575
11
-71.4375
21
-19.575
0
LINE
8
0
10
-71.4375
20
-19.575
11
-71.4375
21
-37.575
0
LINE
8
0
10
-71.4375
20
-37.575
11
-90.4875
21
-37.575
0
LINE
8
0
10
-90.4875
20
-37.575
11
-90.4875
21
-19.575
0
LINE
8
0
10
-71.4375
20
-19.575
11
-52.3875
21
-19.575
0
LINE
8
0
10
-52.3875
20
-19.575
11
-52.3875
21
-37.575
0
LINE
8
0
10
-52.3875
20
-37.575
11
-71.4375
21
-37.575
0
LINE
8
0
10
-71.4375
20
-37.575
11
-71.4375
21
-19.575
0
LINE
8
0
10
-102.39375
20
-19.575
11
16.66875
21
-19.575
0
LINE
8
0
10
16.66875
20
-19.575
11
16.66875
21
-37.575
0
LINE
8
0
10
16.66875
20
-37.575
11
-102.39375
21
-37.575
0
LINE
8
0
10
-102.39375
20
-37.575
11
-102.39375
21
-19.575
0
LINE
8
0
10
64.29375
20
-19.575
11
88.10625
21
-19.575
0
LINE
8
0
10
88.10625
20
-19.575
11
88.10625
21
-37.575
0
LINE
8
0
10
88.10625
20
-37.575
11
64.29375
21
-37.575
0
LINE
8
0
10
64.29375
20
-37.575
11
64.29375
21
-19.575
0
LINE
8
0
10
88.10625
20
-19.575
11
111.91875
21
-19.575
0
LINE
8
0
10
111.91875
20
-19.575
11
111.91875
21
-37.575
0
LINE
8
0
10
111.91875
20
-37.575
11
88.10625
21
-37.575
0
LINE
8
0
10
88.10625
20
-37.575
11
88.10625
21
-19.575
0
ENDSEC
0
EOF